<?xml version="1.0" encoding="UTF-8"?>
<svg xmlns="http://www.w3.org/2000/svg" xmlns:xlink="http://www.w3.org/1999/xlink" version="1.1">
<metadata>
Created by FontForge 20170731 at Thu Jan 14 13:05:20 2021
 By Aleksey,,,
Simvoni @2020 all right reserved
</metadata>
<defs>
<font id="SimvoniRegular" horiz-adv-x="1355">
  <font-face font-family="Simvoni" font-weight="400" font-stretch="normal" units-per-em="2048" panose-1="0 0 0 0 0 0 0 0 0 0" ascent="1638" descent="-410" x-height="967" cap-height="1340" bbox="-68.4483 -369 2098 1767" underline-thickness="102" underline-position="-307" unicode-range="U+000A-2E42"/>
<missing-glyph horiz-adv-x="1079" d="M102 1434h875v-1434h-875v1434zM160 1393l379 -633l381 633h-760zM514 717l-369 614v-1231zM541 674l-379 -631h758zM565 717l371 -621v1239z"/>
    <glyph glyph-name=".notdef" horiz-adv-x="1079" d="M102 1434h875v-1434h-875v1434zM160 1393l379 -633l381 633h-760zM514 717l-369 614v-1231zM541 674l-379 -631h758zM565 717l371 -621v1239z"/>
    <glyph glyph-name=".null" horiz-adv-x="0"/>
    <glyph glyph-name=".null" horiz-adv-x="0"/>
    <glyph glyph-name="nonmarkingreturn" horiz-adv-x="682"/>
    <glyph glyph-name="controlLF" unicode="&#xA;" horiz-adv-x="0"/>
    <glyph glyph-name="controlCR" unicode="&#xD;" horiz-adv-x="0"/>
    <glyph glyph-name="space" unicode=" " horiz-adv-x="471"/>
    <glyph glyph-name="exclam" unicode="!" horiz-adv-x="458" d="M261 181q16 0 27.5 -11t11.5 -27v-104q0 -17 -11 -28t-28 -11h-64q-17 0 -28 11t-11 28v104q0 16 11.5 27t27.5 11h64zM261 1329q16 0 27.5 -11.5t11.5 -27.5v-195q-14 -601 -18 -759q-1 -16 -12 -27t-27 -11h-28q-16 0 -27 11t-12 27l-18 759v195q0 16 11.5 27.5 t27.5 11.5h64z"/>
    <glyph glyph-name="quotedbl" unicode="&#34;" horiz-adv-x="516" d="M177 1375q16 0 27.5 -11.5t11.5 -27.5v-151q0 -53 -58 -141q-7 -13 -25 -15q-16 -2 -26 12h-1q-14 18 0 34q45 53 45 110v9h-38q-16 0 -27.5 11t-11.5 27v104q0 16 11.5 27.5t27.5 11.5h64zM400 1375q16 0 27.5 -11.5t11.5 -27.5v-151q0 -53 -58 -141q-7 -13 -25 -15 q-16 -2 -26 12h-1q-14 18 0 34q45 53 45 110v9h-38q-16 0 -27.5 11t-11.5 27v104q0 16 11.5 27.5t27.5 11.5h64z"/>
    <glyph glyph-name="numbersign" unicode="#" horiz-adv-x="1198" d="M1040 977q16 0 27.5 -11.5t11.5 -27.5v-64q0 -16 -11.5 -27.5t-27.5 -11.5h-138l-37 -306h133q16 0 27.5 -11t11.5 -27v-65q0 -16 -11.5 -27.5t-27.5 -11.5h-151q-31 -258 -43 -353q-1 -15 -12 -24.5t-26 -9.5h-66q-18 0 -29 13q-11 12 -9 30l42 344h-301 q-31 -258 -43 -353q-1 -15 -12.5 -24.5t-26.5 -9.5h-65q-18 0 -29 13q-12 13 -10 30l42 344h-97q-17 0 -28 11t-11 28v65q0 16 11 27q12 12 28 12h115l37 305h-110q-16 0 -27.5 11.5t-11.5 27.5v64q0 16 11.5 27.5t27.5 11.5h128q29 239 40 329q1 15 12.5 24.5t26.5 9.5h65 q18 0 29 -13q12 -13 10 -31l-39 -319h300q30 239 41 329q1 15 12 24.5t26 9.5h65q19 0 30 -13q11 -12 9 -30l-39 -320h120zM721 530l38 305h-301l-37 -305h300z"/>
    <glyph glyph-name="dollar" unicode="$" horiz-adv-x="1034" d="M640 668q126 -56 195 -127.5t69 -182.5q0 -138 -90 -244t-225 -131v-126q0 -17 -11 -28t-28 -11h-64q-16 0 -27.5 11.5t-11.5 27.5v126q-78 13 -158.5 50.5t-144.5 97.5q-12 10 -12 28q0 17 13 28q36 34 48 44q11 10 26.5 10t26.5 -10q59 -55 135 -83.5t136 -28.5 q101 0 172.5 70t71.5 169q0 71 -68 120q-19 14 -47.5 29t-44.5 22t-59.5 25t-51.5 22q-64 27 -109 50t-95.5 59t-82 75.5t-52 95.5t-20.5 123q0 139 90 245t226 131v127q0 16 11 27t28 11h64q17 0 28 -11t11 -27v-126q176 -30 302 -149q12 -10 12 -28q0 -17 -13 -28 q-38 -35 -49 -45t-26 -10t-26 10q-130 113 -271 113q-101 0 -172.5 -70t-71.5 -170q0 -116 105 -188q27 -18 62.5 -36.5t62.5 -30t70.5 -29t65.5 -27.5z"/>
    <glyph glyph-name="percent" unicode="%" horiz-adv-x="1607" d="M1493 331v-15v-16q0 -178 -82 -256q-68 -64 -187 -67h-3q-120 3 -188 67q-82 78 -82 256v16v15q0 178 82 256q68 64 188 67h3q119 -3 187 -67q82 -78 82 -256zM1351 300q0 2 -0.5 6.5t-0.5 6.5v5q0 2 0.5 6.5t0.5 6.5q0 58 -7.5 94.5t-30.5 58.5q-27 25 -91 27 q-64 -2 -91 -27q-23 -22 -30 -58t-7 -95v-13v-5v-13q0 -59 7 -95t30 -58q27 -25 91 -27q64 2 91 27q23 22 30.5 58.5t7.5 94.5zM1191 1322q11 -19 2 -38q-306 -610 -635 -1263q-11 -21 -35 -21h-72q-23 0 -33 18q-11 19 -2 38q306 610 635 1263q11 21 35 21h72q22 0 33 -18z M655 1009q0 -178 -82 -256q-66 -63 -188 -66h-3q-121 3 -187 66q-82 78 -82 256v16v15q0 178 82 256q68 64 187 67h3q120 -3 188 -67q82 -78 82 -256v-15v-16zM512 1009v13v5v13q0 59 -7 95t-30 58q-27 25 -91 27q-64 -2 -91 -27q-23 -22 -30.5 -58.5t-7.5 -94.5 q0 -2 0.5 -6.5t0.5 -6.5v-5q0 -2 -0.5 -6.5t-0.5 -6.5q0 -58 7.5 -94t30.5 -58q28 -26 91 -28q63 2 91 28q23 22 30 57.5t7 94.5z"/>
    <glyph glyph-name="ampersand" unicode="&amp;" horiz-adv-x="1294" d="M1159 120q15 0 25 -10t10 -25v-72q0 -15 -10 -25q-11 -11 -25 -11q-83 0 -140 63q-7 8 -27 30t-33 37l-12 -9q-155 -121 -392 -121q-190 0 -311 95.5t-121 270.5q0 260 279 442q-67 85 -94 130q-50 83 -50 151q0 123 87 210t210 87t210 -87t87 -210q0 -116 -98 -225 q-53 -60 -131 -112q122 -159 334 -403q45 84 45 185v32q0 16 11.5 27.5t27.5 11.5h65q16 0 27.5 -11.5t11.5 -27.5v-32q0 -163 -90 -297q38 -44 70 -79q13 -15 34 -15zM400 1066q0 -35 47 -104q30 -42 90 -119q66 42 111 93q61 69 61 130q0 64 -45 109t-109 45t-109.5 -45 t-45.5 -109zM859 210q1 0 3 2l3 3q-238 272 -377 456q-46 -29 -80.5 -57.5t-69.5 -68.5t-54 -91.5t-19 -110.5q0 -111 82 -167t208 -56q188 0 304 90z"/>
    <glyph glyph-name="quotesingle" unicode="'" horiz-adv-x="292" d="M177 1375q16 0 27.5 -11.5t11.5 -27.5v-151q0 -53 -58 -141q-7 -13 -25 -15q-16 -2 -26 12h-1q-14 18 0 34q45 53 45 110v9h-38q-16 0 -27.5 11t-11.5 27v104q0 16 11.5 27.5t27.5 11.5h64z"/>
    <glyph glyph-name="parenleft" unicode="(" horiz-adv-x="598" d="M286 510q0 -128 22 -261t53 -230.5t62 -177t53 -120.5l22 -41q7 -12 0 -24q-6 -11 -21 -11h-98q-23 0 -34 21q-30 62 -59 135.5t-64.5 186t-57 250t-21.5 272.5t21.5 272.5t57.5 250t64.5 185t58.5 135.5q12 22 34 22h98q14 0 21 -12t0 -24q-9 -15 -23 -43t-50.5 -116.5 t-64.5 -180.5t-51 -226.5t-23 -262.5z"/>
    <glyph glyph-name="parenright" unicode=")" horiz-adv-x="598" d="M253 1353q30 -62 58.5 -135.5t64 -185.5t57 -249.5t21.5 -272.5t-21.5 -272.5t-57 -250t-64 -186t-58.5 -135.5q-11 -21 -35 -21h-98q-15 0 -21 11q-7 12 0 24q9 15 23 43t50.5 117t64.5 181t51 226.5t23 262.5t-22 260.5t-53 230.5t-62 177t-53 120l-22 41q-7 12 0 24 t21 12h98q23 0 35 -22z"/>
    <glyph glyph-name="asterisk" unicode="*" horiz-adv-x="909" d="M784 887q14 -8 18 -23.5t-4 -29.5q-5 -8 -16 -27t-16 -28q-8 -14 -23.5 -18t-29.5 4l-51 29l-146 94l9 -173v-59q0 -16 -11.5 -27.5t-27.5 -11.5h-64q-16 0 -27.5 11.5t-11.5 27.5v59l9 173l-147 -94q-27 -15 -50 -29q-14 -8 -29.5 -4t-23.5 18q-5 9 -16 28t-16 27 q-8 14 -4 29.5t18 23.5l51 30l154 79l-154 80q-28 15 -51 29q-14 8 -18 23.5t4 29.5q5 9 16 27.5t16 27.5q8 14 23.5 18.5t29.5 -3.5l50 -30l147 -94l-9 174v58q0 16 11.5 27.5t27.5 11.5h64q16 0 27.5 -11.5t11.5 -27.5v-58l-9 -174l146 94q28 16 51 30q14 8 29.5 3.5 t23.5 -18.5q5 -9 16 -27.5t16 -27.5q8 -14 4 -29.5t-18 -23.5l-51 -29l-155 -80l155 -79q28 -16 51 -30z"/>
    <glyph glyph-name="plus" unicode="+" horiz-adv-x="1179" d="M1081 699q11 -11 11 -28v-65q0 -16 -11 -27q-12 -12 -28 -12h-393v-392q0 -17 -11 -28t-28 -11h-64q-17 0 -28 11t-11 28v392h-393q-16 0 -28 12q-11 11 -11 27v65q0 17 11 28t28 11h393v393q0 16 11 27q12 12 28 12h64q16 0 28 -12q11 -11 11 -27v-393h393q17 0 28 -11z "/>
    <glyph glyph-name="comma" unicode="," horiz-adv-x="262" d="M163 181q16 0 27.5 -11t11.5 -27v-152q0 -52 -58 -140q-7 -13 -25 -15q-17 -2 -27 11h-1q-14 18 1 35q45 52 45 109v9h-39q-16 0 -27.5 11.5t-11.5 27.5v104q0 16 11.5 27t27.5 11h65z"/>
    <glyph glyph-name="hyphen" unicode="-" horiz-adv-x="628" d="M538 634q16 0 27.5 -11.5t11.5 -27.5v-64q0 -16 -11.5 -27.5t-27.5 -11.5h-448q-16 0 -27.5 11.5t-11.5 27.5v64q0 16 11.5 27.5t27.5 11.5h448z"/>
    <glyph glyph-name="period" unicode="." horiz-adv-x="262" d="M163 181q16 0 27.5 -11t11.5 -27v-104q0 -16 -11.5 -27.5t-27.5 -11.5h-65q-16 0 -27.5 11.5t-11.5 27.5v104q0 16 11.5 27t27.5 11h65z"/>
    <glyph glyph-name="slash" unicode="/" horiz-adv-x="927" d="M840 1322q11 -18 2 -37q-27 -58 -190.5 -404.5t-294.5 -624t-164 -348.5q-10 -23 -35 -23h-72q-22 0 -33 18q-12 18 -2 38q27 58 190.5 404.5t294.5 624t164 348.5q9 22 35 22h72q22 0 33 -18z"/>
    <glyph glyph-name="zero" unicode="0" horiz-adv-x="1173" d="M1027 705q0 -6 -0.5 -17.5t-0.5 -17.5t0.5 -18t0.5 -18q0 -437 -187 -578q-100 -75 -252 -79h-4q-152 4 -252 79q-187 141 -187 578q0 6 0.5 18t0.5 18t-0.5 17.5t-0.5 17.5q0 438 187 579q100 75 252 79h4q152 -4 252 -79q187 -141 187 -579zM884 634v34v4v33 q0 80 -4.5 142t-16 122.5t-33 103t-54 76.5t-80 51.5t-110.5 19.5q-63 -2 -110.5 -19.5t-80 -51.5t-54 -76.5t-33 -103t-16 -122.5t-4.5 -142v-33v-4v-34q0 -97 6.5 -168t25 -138.5t51 -110t86.5 -69t129 -28.5q75 2 129 28.5t86.5 69t51 110t25 138.5t6.5 168z"/>
    <glyph glyph-name="one" unicode="1" horiz-adv-x="931" d="M816 143q16 0 27.5 -11.5t11.5 -27.5v-65q0 -16 -11.5 -27.5t-27.5 -11.5h-671q-16 0 -27.5 11.5t-11.5 27.5v65q0 16 11.5 27.5t27.5 11.5h264v1020q-132 -84 -197 -125q-15 -10 -31 -5t-24 19q-26 47 -32 57q-8 13 -4.5 28t16.5 23q24 15 122 80t128 85q23 15 49 15h77 q17 0 28 -11t11 -28v-1158h264z"/>
    <glyph glyph-name="two" unicode="2" horiz-adv-x="1159" d="M1013 122l15 -15v-69q0 -17 -10.5 -27.5t-27.5 -10.5h-838q-17 0 -27.5 10.5t-10.5 27.5v31q0 172 137 320q73 73 274 213q14 10 52.5 35t57.5 38t48 34.5t51.5 41.5t42.5 42q99 86 99 190q0 95 -75.5 165.5t-191.5 70.5q-61 0 -120.5 -16.5t-104.5 -43t-74 -48.5 t-51 -44q-11 -11 -27 -13t-27 5q-23 23 -53 39q-15 15 -15 30q0 5 2 12.5t2 13t-4 12.5q38 34 71 58.5t94.5 61.5t136.5 57.5t155 20.5q91 0 170 -32.5t131 -86.5t81.5 -122t29.5 -140q0 -159 -138 -297q-20 -22 -43 -43t-54 -44t-51 -37.5t-61 -42.5t-57 -39 q-12 -8 -52.5 -34.5t-57.5 -38.5t-47.5 -35t-52.5 -44.5t-42 -45.5q-71 -71 -91 -152h724q22 0 30 -8z"/>
    <glyph glyph-name="three" unicode="3" horiz-adv-x="1136" d="M734 700q6 -2 15.5 -5.5t37 -18t52.5 -31t56 -45t53 -60t37 -76t15 -92.5q0 -162 -130 -278.5t-315 -116.5q-97 0 -218.5 40.5t-214.5 119.5q-13 11 -13 28q0 15 11 28q6 6 22.5 24t24.5 26q10 10 25 11t27 -8q63 -46 152.5 -86t183.5 -40q124 0 213 73t89 179 q0 118 -116 191q-97 60 -210 60h-103q-15 0 -27 12t-12 27v65q0 16 12 28q11 11 27 11h85q122 0 221 70q89 63 89 157q0 96 -84 161.5t-202 65.5q-71 0 -160.5 -28t-158.5 -83q-12 -10 -27.5 -9t-25.5 12q-6 6 -21 22t-22 23q-12 12 -10 30q2 17 16 28q219 148 409 148 q179 0 304 -109t125 -261q0 -56 -24 -107t-58 -83.5t-68 -57t-58 -35.5z"/>
    <glyph glyph-name="four" unicode="4" horiz-adv-x="1136" d="M992 416q12 -12 12 -27v-65q0 -15 -12 -27t-27 -12h-40v-246q0 -16 -12 -28q-11 -11 -27 -11h-65q-16 0 -27 11q-12 12 -12 28v246h-643q-15 0 -27 12t-12 27v124q0 25 16 47q210 277 636 830q10 15 31 15h103q16 0 27.5 -11.5t11.5 -27.5v-873h40q15 0 27 -12zM782 428 v702l-537 -702h537z"/>
    <glyph glyph-name="five" unicode="5" horiz-adv-x="1148" d="M921 740q93 -125 93 -318q0 -105 -59 -207.5t-163.5 -169.5t-222.5 -67q-97 0 -218.5 40.5t-214.5 118.5q-13 11 -13 27t11 29q28 30 46 48q10 10 25 11t27 -8q35 -27 76.5 -51.5t115.5 -48.5t145 -24q121 0 211.5 95t90.5 207q0 149 -64 233q-78 103 -251 125 q-120 15 -264 -9q-6 -2 -13 0q-5 1 -40.5 7t-54.5 9q-17 3 -25 16q-9 14 -6 30l98 507h711q16 0 27 -11q12 -12 12 -28v-64q0 -16 -12 -28q-11 -11 -27 -11h-593l-55 -280q145 18 260 3q233 -30 347 -181z"/>
    <glyph glyph-name="six" unicode="6" horiz-adv-x="1153" d="M1026 459v-22q0 -3 0.5 -11t0.5 -11q0 -205 -91 -310q-107 -124 -349 -128h-2q-243 4 -350 128q-83 95 -89 274h-1q-41 572 192 820q54 57 120.5 95t122 50t109.5 17.5t82 -0.5q17 -2 28 -16q10 -15 7 -31q-2 -11 -7 -33.5t-7 -30.5q-3 -14 -14.5 -22.5t-25.5 -7.5 q-70 4 -154.5 -19.5t-156.5 -99.5q-33 -35 -64 -85.5t-59 -133t-30 -165.5q80 127 297 139q61 3 120.5 -6.5t118.5 -38t103 -73t71.5 -116.5t27.5 -163zM884 415q0 4 -0.5 10t-0.5 9v6q0 3 0.5 9t0.5 10q0 151 -56 216q-66 76 -242 79q-178 -3 -243 -78q-55 -64 -55 -217 v-19h-3v-6h3v-19q0 -152 55 -216q66 -76 243 -79q176 3 242 79q56 65 56 216z"/>
    <glyph glyph-name="seven" unicode="7" horiz-adv-x="1024" d="M914 1329q12 -12 12 -28v-81q0 -16 -6 -29q-127 -309 -472 -1167q-10 -24 -37 -24h-70q-21 0 -32 17q-11 18 -4 36l464 1145h-667q-12 0 -19 7t-7 18v91q0 12 7 19t19 7h785q16 0 27 -11z"/>
    <glyph glyph-name="eight" unicode="8" horiz-adv-x="1159" d="M1025 398q0 -3 -0.5 -9.5t-0.5 -9.5t0.5 -9.5t0.5 -9.5q0 -182 -96 -275q-107 -104 -350 -108h-2q-243 4 -350 108q-96 93 -96 275v19v19q0 51 11 96.5t28 77t37.5 57.5t41.5 42.5t38 27.5t28 15l11 5q-6 3 -15.5 9t-33.5 29t-43 51t-34 75.5t-15 100.5v17v16 q0 164 85 248q95 95 307 98h2q212 -3 307 -98q85 -84 85 -248q0 -3 -0.5 -8.5t-0.5 -7.5t0.5 -8t0.5 -9q0 -53 -14.5 -100t-35.5 -76t-41.5 -50t-35.5 -30l-14 -9q8 -3 21 -9t46.5 -32t59.5 -59t47 -92t21 -129zM328 1017v-13v-7v-13q0 -104 42 -146q54 -54 208 -57 q154 3 208 57q42 42 42 146v13v7v13q0 105 -42 147q-53 53 -208 56h-5q-150 -3 -203 -56q-42 -42 -42 -147zM882 360v16v7v15q0 123 -52 173q-67 65 -252 68q-184 -3 -252 -68q-52 -50 -52 -173v-15v-7v-16q0 -122 52 -172q68 -65 252 -68q184 3 252 68q52 50 52 172z"/>
    <glyph glyph-name="nine" unicode="9" horiz-adv-x="1153" d="M1004 961q41 -572 -192 -820q-54 -57 -120.5 -95t-122 -50t-109.5 -17.5t-82 0.5q-17 2 -27 16q-10 13 -7 31q9 45 13 64q3 14 14.5 22.5t26.5 7.5q70 -4 154 19.5t156 99.5q55 59 103 161.5t51 222.5q-81 -128 -297 -140q-61 -3 -121 6.5t-119 38.5t-103 73.5 t-71.5 116.5t-27.5 163v22v22q0 206 90 310q107 124 349 128h3q242 -4 349 -128q84 -96 90 -274zM862 881q0 3 -0.5 9.5t-0.5 9.5h4v6h-4q0 3 0.5 9t0.5 10q0 151 -56 216q-66 76 -242 79q-177 -3 -243 -79q-56 -65 -56 -216q0 -4 0.5 -10t0.5 -9v-6q0 -3 -0.5 -9t-0.5 -10 q0 -151 56 -216q66 -76 243 -79q176 3 242 79q56 65 56 216z"/>
    <glyph glyph-name="colon" unicode=":" horiz-adv-x="311" d="M188 181q16 0 27 -11t11 -27v-104q0 -16 -11 -27.5t-27 -11.5h-65q-16 0 -27.5 11.5t-11.5 27.5v104q0 16 11.5 27t27.5 11h65zM188 985q16 0 27 -11.5t11 -27.5v-104q0 -16 -11 -27.5t-27 -11.5h-65q-16 0 -27.5 11.5t-11.5 27.5v104q0 16 11.5 27.5t27.5 11.5h65z"/>
    <glyph glyph-name="semicolon" unicode=";" horiz-adv-x="311" d="M188 181q16 0 27.5 -11t11.5 -27v-152q0 -50 -59 -140q-7 -13 -25 -15q-17 -2 -26 11h-1q-14 18 1 35q45 52 45 109v9h-39q-16 0 -27.5 11.5t-11.5 27.5v104q0 16 11.5 27t27.5 11h65zM188 985q16 0 27 -11.5t11 -27.5v-104q0 -16 -11 -27.5t-27 -11.5h-65 q-16 0 -27.5 11.5t-11.5 27.5v104q0 16 11.5 27.5t27.5 11.5h65z"/>
    <glyph glyph-name="less" unicode="&lt;" horiz-adv-x="880" d="M777 904q0 -24 -20 -35l-481 -255q386 -205 481 -255q20 -11 20 -34v-73q0 -23 -19 -34q-18 -11 -38 -1q-74 39 -609 324q-21 11 -21 34v79q0 23 21 34q535 285 609 324q20 10 38 -1q19 -11 19 -34v-73z"/>
    <glyph glyph-name="equal" unicode="=" horiz-adv-x="1050" d="M938 512q16 0 27 -11t11 -27v-65q0 -16 -11 -27.5t-27 -11.5h-825q-16 0 -27.5 11.5t-11.5 27.5v65q0 16 11.5 27t27.5 11h825zM938 894q16 0 27 -11.5t11 -27.5v-65q0 -16 -11 -27.5t-27 -11.5h-825q-16 0 -27.5 11.5t-11.5 27.5v65q0 16 11.5 27.5t27.5 11.5h825z"/>
    <glyph glyph-name="greater" unicode="&gt;" horiz-adv-x="880" d="M769 688q20 -11 20 -34v-79q0 -23 -20 -34q-535 -285 -609 -324q-20 -10 -39 1t-19 34v73q0 23 21 34l481 255q-386 205 -481 255q-21 11 -21 35v73q0 23 19 34t39 1q74 -39 609 -324z"/>
    <glyph glyph-name="question" unicode="?" horiz-adv-x="966" d="M467 181h65q16 0 27.5 -11t11.5 -27v-104q0 -16 -11.5 -27.5t-27.5 -11.5h-65q-16 0 -27.5 11.5t-11.5 27.5v104q0 16 11.5 27t27.5 11zM532 321h-65q-16 0 -27 11t-11 28v39q0 131 56 248.5t158 199.5q74 58 74 135q0 94 -63.5 160.5t-153.5 66.5q-64 0 -112 -21 t-74 -55t-39 -62.5t-19 -58.5q-3 -14 -14.5 -23.5t-25.5 -8.5q-11 1 -34 2t-31 1q-18 2 -28 15q-11 14 -8 30q5 29 14.5 58t27.5 68.5t47 72.5t68.5 62t98 46t129.5 17q149 0 254 -108t105 -262q0 -144 -127 -246q-76 -61 -118.5 -150t-42.5 -187v-39q0 -16 -11.5 -27.5 t-27.5 -11.5z"/>
    <glyph glyph-name="at" unicode="@" horiz-adv-x="1880" d="M940 1362q164 0 314 -68t259 -183t173.5 -274t64.5 -334q0 -315 -157 -448q-46 -39 -101 -58t-104.5 -18.5t-94.5 15.5q-55 18 -91.5 53.5t-47.5 76.5q-66 -72 -148.5 -112.5t-168.5 -40.5q-87 0 -163.5 41t-128 110.5t-76.5 167t-14 205.5q15 139 85 256.5t174 184.5 t217 67q169 0 281 -139q3 36 6 65q2 16 14 26t28 9q10 -1 32.5 -3t32.5 -3q16 -2 26 -13q11 -12 9 -29l-67 -760q4 -6 12 -12q30 -20 75 -22q43 -2 81.5 17t72 61t53.5 120t20 183q0 145 -53 277.5t-142 229t-213 153.5t-260 57t-260 -57t-213 -153.5t-142 -229t-53 -277.5 t53 -277.5t142 -228.5t213 -153t260 -57h32q16 0 27.5 -11.5t11.5 -27.5v-65q0 -16 -11.5 -27t-27.5 -11h-32q-164 0 -314 68t-259 183t-173.5 274t-64.5 334t64.5 334t173.5 273.5t259 182.5t314 68zM1172 495q16 150 -53 258t-187 108q-124 0 -220.5 -112t-113.5 -269 q-16 -150 53 -258t187 -108q123 0 220 112t114 269z"/>
    <glyph glyph-name="A" unicode="A" horiz-adv-x="1273" d="M1222 53q7 -18 -4 -36q-11 -17 -32 -17h-70q-26 0 -36 25l-128 324h-632q-97 -245 -128 -324q-10 -25 -36 -25h-70q-21 0 -32 17q-11 18 -4 36q47 118 258.5 653t241.5 610q10 24 36 24h100q26 0 36 -24q30 -75 241.5 -610t258.5 -653zM377 491h518l-259 656z"/>
    <glyph glyph-name="B" unicode="B" horiz-adv-x="1183" d="M831 751q10 -4 27 -11.5t60.5 -37t77 -65.5t60.5 -99t26 -135q0 -167 -118 -285t-285 -118h-478q-17 0 -28 11t-11 28v1262q0 17 11 28t28 11h454q140 0 239.5 -99t99.5 -239q0 -50 -17 -94t-41 -71.5t-47.5 -48t-40.5 -28.5zM304 1198v-392h351q81 0 138.5 57.5 t57.5 138.5t-57.5 138.5t-138.5 57.5h-351zM679 143q108 0 184 76t76 184t-76 184t-184 76h-375v-520h375z"/>
    <glyph glyph-name="C" unicode="C" horiz-adv-x="1208" d="M1103 275q16 -6 22 -22q6 -14 -2 -30q-58 -119 -154 -177q-110 -68 -291 -68q-216 0 -352 108q-211 167 -211 584t211 585q136 108 352 108q179 0 291 -68q98 -59 155 -177q7 -15 1 -31t-22 -22q-36 -15 -60 -24q-14 -6 -28 -1t-21 19q-43 84 -118.5 122.5t-197.5 38.5 q-165 0 -263 -77q-52 -41 -86.5 -101t-48.5 -131t-18.5 -123t-4.5 -118t4.5 -118t18.5 -123t48 -131t87 -101q98 -77 263 -77q122 0 197 38.5t118 123.5q7 14 21.5 19t28.5 -1q10 -4 30.5 -12.5t29.5 -12.5z"/>
    <glyph glyph-name="D" unicode="D" d="M646 1345q123 0 234.5 -47.5t192 -128t128.5 -192t48 -234.5v-135q0 -123 -48 -234.5t-128.5 -192t-192 -128.5t-234.5 -48h-445q-17 0 -28 11t-11 28v1262q0 17 11 28t28 11h445zM1106 608v134q0 191 -135 326t-325 135h-342v-1055h342q190 0 325 135t135 325z"/>
    <glyph glyph-name="E" unicode="E" horiz-adv-x="1011" d="M930 131q11 -11 11 -27v-65q0 -17 -11 -28t-27 -11h-700q-17 0 -28 11t-11 28v1262q0 17 11 28t28 11h646q16 0 27.5 -11.5t11.5 -27.5v-64q0 -16 -11.5 -27.5t-27.5 -11.5h-543v-443h435q16 0 27 -11q12 -12 12 -28v-64q0 -16 -12 -28q-11 -11 -27 -11h-435v-470h597 q15 0 27 -12z"/>
    <glyph glyph-name="F" unicode="F" horiz-adv-x="942" d="M847 1340q16 0 27 -11.5t11 -27.5v-64q0 -16 -11 -27.5t-27 -11.5h-543v-464h435q16 0 27 -11q12 -12 12 -28v-65q0 -15 -12 -27q-11 -11 -27 -11h-435v-553q0 -16 -11 -27.5t-27 -11.5h-65q-17 0 -28 11t-11 28v1262q0 17 11 28t28 11h646z"/>
    <glyph glyph-name="G" unicode="G" horiz-adv-x="1300" d="M1150 626q34 -34 34 -82v-245q0 -26 -12 -50q-65 -134 -179 -203t-294 -69q-221 0 -364 108q-220 167 -220 585q0 419 220 586q142 107 364 107q179 0 289 -59.5t173 -185.5q8 -16 2 -30q-7 -17 -22 -23q-9 -4 -29.5 -12.5t-30.5 -12.5q-14 -6 -28.5 -1t-21.5 18 q-45 85 -124 124t-208 39q-176 0 -278 -78q-44 -33 -76 -81.5t-48.5 -94.5t-26 -105.5t-11.5 -99t-2 -91.5t2 -91.5t11.5 -99t26 -105.5t48.5 -94.5t76 -81.5q102 -78 278 -78q129 0 208.5 39t124.5 125q9 16 9 36v159q0 16 -11.5 27.5t-27.5 11.5h-306q-16 0 -27.5 11.5 t-11.5 27.5v64q0 16 11.5 27.5t27.5 11.5h371q49 0 83 -34z"/>
    <glyph glyph-name="H" unicode="H" horiz-adv-x="1374" d="M1198 1329q11 -11 11 -28v-1262q0 -17 -11 -28t-28 -11h-64q-17 0 -28 11t-11 28v560h-761v-560q0 -17 -11 -28t-28 -11h-64q-17 0 -28 11t-11 28v1262q0 17 11 28t28 11h64q17 0 28 -11t11 -28v-560h761v560q0 17 11 28t28 11h64q17 0 28 -11z"/>
    <glyph glyph-name="I" unicode="I" horiz-adv-x="471" d="M295 1329q11 -11 11 -28v-1262q0 -17 -11 -28t-28 -11h-64q-17 0 -28 11t-11 28v1262q0 17 11 28t28 11h64q17 0 28 -11z"/>
    <glyph glyph-name="J" unicode="J" horiz-adv-x="770" d="M571 1340q16 0 27.5 -11.5t11.5 -27.5v-1079q0 -102 -79.5 -173t-211.5 -71q-85 0 -144.5 25.5t-125.5 89.5q-12 11 -12 28t12 28q7 7 23 22t23 22q11 11 27 11t27 -11q75 -73 170 -73q66 0 107 28t41 74v1079q0 16 11.5 27.5t27.5 11.5h65z"/>
    <glyph glyph-name="K" unicode="K" horiz-adv-x="1093" d="M1037 62q15 -19 3 -41q-11 -21 -34 -21h-81q-20 0 -31 16l-479 637l-109 -130v-484q0 -16 -11 -27.5t-27 -11.5h-65q-17 0 -28 11t-11 28v1262q0 17 11 28t28 11h65q16 0 27 -11.5t11 -27.5v-556q411 491 486 581q11 14 30 14h85q26 0 35 -22q10 -24 -5 -42l-428 -510 q391 -522 528 -704z"/>
    <glyph glyph-name="L" unicode="L" horiz-adv-x="905" d="M830 143q16 0 27.5 -11.5t11.5 -27.5v-65q0 -17 -11 -28t-28 -11h-627q-17 0 -28 11t-11 28v1262q0 17 11 28t28 11h64q16 0 27.5 -11.5t11.5 -27.5v-1158h524z"/>
    <glyph glyph-name="M" unicode="M" horiz-adv-x="1501" d="M1326 1329q11 -11 11 -28v-1262q0 -17 -11 -28t-28 -11h-64q-17 0 -28 11t-11 28v953q-302 -812 -359 -967q-10 -25 -36 -25h-98q-27 0 -37 25l-359 967v-953q0 -17 -11 -28t-27 -11h-65q-17 0 -28 11t-11 28v1262q0 17 11 28t28 11h99q27 0 37 -25l412 -1110 q350 942 412 1110q10 25 36 25h99q17 0 28 -11z"/>
    <glyph glyph-name="N" unicode="N" horiz-adv-x="1300" d="M1128 1306q11 -11 11 -27v-1263q0 -16 -11 -27q-12 -12 -28 -12h-110q-22 0 -33 19l-655 1085v-1065q0 -16 -11.5 -27.5t-27.5 -11.5h-64q-16 0 -28 12q-11 11 -11 27v1263q0 16 11.5 27.5t27.5 11.5h108q22 0 33 -19l657 -1086v1066q0 16 11.5 27.5t27.5 11.5h64 q16 0 28 -12z"/>
    <glyph glyph-name="O" unicode="O" d="M1233 706q0 -6 -0.5 -18t-0.5 -18t0.5 -17.5t0.5 -17.5q0 -377 -168 -530q-135 -122 -386 -128h-3q-250 6 -385 128q-168 153 -168 530v35v36q0 376 168 529q135 122 385 128h3q251 -6 386 -128q168 -153 168 -529zM1090 635v33v4v34q0 153 -26 256.5t-95 166.5 q-94 87 -291 91q-197 -4 -291 -91q-69 -63 -95.5 -167t-26.5 -256q0 -6 0.5 -17t0.5 -17v-4q0 -6 -0.5 -17t-0.5 -16q0 -152 26.5 -256.5t95.5 -167.5q94 -87 291 -91q197 4 291 91q69 63 95 167t26 257z"/>
    <glyph glyph-name="P" unicode="P" horiz-adv-x="1110" d="M915 1224q116 -116 116 -279v-29q0 -163 -116 -279t-279 -116h-330v-482q0 -17 -11 -28t-28 -11h-64q-17 0 -28 11t-11 28v1262q0 17 11 28t28 11h433q163 0 279 -116zM888 916v29q0 105 -74 179t-178 74h-330v-534h330q104 0 178 74t74 178z"/>
    <glyph glyph-name="Q" unicode="Q" d="M1233 635q0 -377 -168 -530q-35 -32 -77 -55q120 -89 179 -132q12 -9 15 -26q3 -16 -7 -29l-39 -52q-9 -12 -25 -15t-29 7l-256 189q-66 -14 -147 -15h-3q-250 6 -385 128q-168 153 -168 530v35v36q0 376 168 529q133 122 385 128h3q251 -6 386 -128q168 -153 168 -529 q0 -6 -0.5 -18t-0.5 -18t0.5 -17.5t0.5 -17.5zM969 211q69 62 95 166.5t26 257.5v33v4v34q0 153 -26 257t-95 167q-93 86 -291 90q-198 -4 -291 -90q-69 -63 -95 -167t-26 -257v-34v-4v-33q0 -153 26 -257t95 -167q94 -87 291 -91q197 4 291 91z"/>
    <glyph glyph-name="R" unicode="R" horiz-adv-x="1167" d="M1049 916q0 -119 -65 -216.5t-170 -144.5q194 -258 235 -511q3 -15 -9 -30q-11 -14 -29 -14h-66q-14 0 -25 9.5t-13 23.5q-14 81 -46 162.5t-73 147t-70 105.5t-58 73h-354v-482q0 -17 -11 -28t-28 -11h-64q-17 0 -28 11t-11 28v1262q0 17 11 28t28 11h451 q164 0 279.5 -116t115.5 -279v-29zM907 916v29q0 105 -74 179t-179 74h-348v-535h348q105 0 179 74t74 179z"/>
    <glyph glyph-name="S" unicode="S" horiz-adv-x="1099" d="M893 566q105 -83 105 -207q0 -156 -130.5 -269t-316.5 -113q-97 0 -219 39t-216 114q-13 11 -14 27q-1 15 11 29q42 45 45 48q10 11 25.5 12t27.5 -9q74 -58 169 -87.5t171 -29.5q125 0 215 69t90 170q0 66 -83 117q-12 7 -26.5 14.5t-26.5 13.5t-31 13.5t-29.5 11.5 t-33 12.5t-31 11.5t-34.5 12t-33 11q-189 66 -277 129q-147 107 -147 275q0 156 131 269.5t317 113.5q97 0 218.5 -39t215.5 -114q12 -11 14 -28q1 -15 -11 -29q-6 -6 -22.5 -24t-24.5 -26q-22 -24 -50 -5q-181 122 -340 122q-125 0 -215 -69t-90 -171q0 -113 126 -185 q41 -24 91.5 -44.5t123 -45t99.5 -34.5q142 -53 206 -105z"/>
    <glyph glyph-name="T" unicode="T" horiz-adv-x="1028" d="M956 1340q16 0 27.5 -11.5t11.5 -27.5v-64q0 -17 -11 -28t-28 -11h-371v-1159q0 -16 -11.5 -27.5t-27.5 -11.5h-64q-16 0 -27.5 11.5t-11.5 27.5v1159h-371q-17 0 -28 11t-11 28v64q0 16 11.5 27.5t27.5 11.5h884z"/>
    <glyph glyph-name="U" unicode="U" horiz-adv-x="1351" d="M1164 1340q16 0 28 -11.5t12 -27.5v-875q0 -120 -70 -223t-191.5 -164t-266.5 -61q-220 0 -374.5 132.5t-154.5 315.5v875q0 16 11.5 27.5t27.5 11.5h65q16 0 27.5 -11.5t11.5 -27.5v-875q0 -129 113.5 -217.5t271.5 -88.5t272 89t114 217v875q0 16 11.5 27.5t27.5 11.5 h64z"/>
    <glyph glyph-name="V" unicode="V" horiz-adv-x="1130" d="M1071 1324q11 -16 5 -35q-25 -73 -126 -371.5t-189 -559t-112 -332.5q-8 -26 -37 -26h-95q-29 0 -37 26q-24 72 -112 332.5t-189 559t-126 371.5q-6 19 5 35t32 16h69q28 0 36 -26l370 -1092q312 923 369 1092q8 26 37 26h68q21 0 32 -16z"/>
    <glyph glyph-name="W" unicode="W" horiz-adv-x="1576" d="M1503 1325q12 -15 7 -33q-239 -972 -311 -1262q-3 -13 -14 -21.5t-24 -8.5h-85q-13 0 -24 8.5t-14 21.5l-250 1012q-207 -842 -249 -1012q-3 -13 -14 -21.5t-24 -8.5h-86q-13 0 -23.5 8.5t-13.5 21.5q-72 290 -311 1262q-5 18 7 33t30 15h67q14 0 24.5 -8t13.5 -21 l249 -1013q208 843 250 1013q3 13 13.5 21t24.5 8h85q14 0 24.5 -8t13.5 -21l250 -1013q207 843 249 1013q3 13 13.5 21t24.5 8h67q18 0 30 -15z"/>
    <glyph glyph-name="X" unicode="X" horiz-adv-x="1093" d="M631 670q284 -446 389 -610q13 -19 1 -40q-12 -20 -34 -20h-77q-21 0 -32 18l-331 519q-271 -425 -331 -519q-11 -18 -33 -18h-77q-22 0 -34 20t2 40l388 610q-283 446 -388 610q-14 20 -2 40t34 20h77q22 0 33 -18l331 -519q271 425 331 519q11 18 32 18h77q22 0 34 -20 q12 -21 -1 -40z"/>
    <glyph glyph-name="Y" unicode="Y" horiz-adv-x="999" d="M952 1322q11 -17 3 -37l-384 -812v-434q0 -17 -11 -28t-28 -11h-65q-16 0 -27 11q-12 12 -12 28v434q-293 621 -383 812q-9 19 2 37t33 18h72q26 0 35 -22l313 -662q257 544 313 662q9 22 35 22h71q22 0 33 -18z"/>
    <glyph glyph-name="Z" unicode="Z" horiz-adv-x="1169" d="M1097 1211q0 -11 -9 -24l-842 -1044h812q16 0 27.5 -11.5t11.5 -27.5v-65q0 -16 -12 -28q-11 -11 -27 -11h-947q-17 0 -28 11t-11 28v90q0 15 8 24l840 1045h-809q-17 0 -28 11t-11 28v64q0 17 11 28t28 11h947q16 0 27 -11q12 -12 12 -28v-90z"/>
    <glyph glyph-name="bracketleft" unicode="[" horiz-adv-x="641" d="M507 1240h-201v-1453h201q16 0 27 -11t11 -28v-65q0 -16 -11 -27t-27 -11h-304q-17 0 -28 11t-11 27v1660q0 17 11 28t28 11h304q16 0 27 -11.5t11 -27.5v-64q0 -17 -11 -28t-27 -11z"/>
    <glyph glyph-name="backslash" unicode="\" horiz-adv-x="927" d="M877 -59q9 -19 -3 -38q-11 -18 -32 -18h-72q-25 0 -35 23q-33 71 -164 348.5t-294.5 624t-190.5 404.5q-9 19 2 37t33 18h71q27 0 36 -22q33 -71 164 -348.5t294.5 -624t190.5 -404.5z"/>
    <glyph glyph-name="bracketright" unicode="]" horiz-adv-x="641" d="M465 1371q11 -11 11 -27v-1660q0 -17 -11 -28t-28 -11h-304q-16 0 -27.5 11.5t-11.5 27.5v64q0 16 12 28q11 11 27 11h200v1453h-200q-16 0 -27 11q-12 12 -12 28v64q0 16 11.5 27.5t27.5 11.5h304q17 0 28 -11z"/>
    <glyph glyph-name="asciicircum" unicode="^" horiz-adv-x="909" d="M824 754q9 -19 -2 -37t-33 -18h-72q-26 0 -35 22l-228 486q-182 -388 -228 -486q-9 -22 -36 -22h-71q-22 0 -33 18t-2 37q87 185 281 599q9 22 35 22h108q26 0 35 -22q194 -414 281 -599z"/>
    <glyph glyph-name="underscore" unicode="_" horiz-adv-x="1179" d="M975 -213q16 0 27.5 -11.5t11.5 -27.5v-64q0 -16 -11.5 -27.5t-27.5 -11.5h-772q-16 0 -27.5 11.5t-11.5 27.5v64q0 16 11.5 27.5t27.5 11.5h772z"/>
    <glyph glyph-name="grave" unicode="`" horiz-adv-x="423" d="M353 1146q14 -19 3 -40t-34 -21h-46q-19 0 -30 14q-28 33 -179 212q-16 19 -6 42q9 22 35 22h73q20 0 31 -16l72.5 -101.5t80.5 -111.5z"/>
    <glyph glyph-name="a" unicode="a" horiz-adv-x="1021" d="M877 137q0 -53 10 -102q3 -13 -6 -24t-23 -11h-79q-12 0 -22 8t-12 20q-11 60 -11 117v12q-146 -180 -336 -180q-127 0 -209 70q-93 79 -93 223q0 214 220 296q45 17 89.5 27.5t95 14.5t77 5t83.5 0t67 -1h6v116q0 54 -43.5 86.5t-123.5 32.5q-88 0 -160.5 -32 t-109.5 -87q-7 -12 -21 -16t-27 2q-14 6 -61 26q-16 6 -21 24q-5 17 4 32q55 88 161 140.5t235 52.5q142 0 227 -73q83 -72 83 -188v-591zM734 292v218q-182 4 -299 -20q-82 -17 -139 -77t-57 -143q0 -78 43 -115q41 -35 115 -35q90 0 185 47.5t152 124.5z"/>
    <glyph glyph-name="b" unicode="b" horiz-adv-x="1107" d="M674 989q158 -4 238.5 -130.5t80.5 -350.5q0 -255 -86 -393t-234 -138q-235 0 -383 174v-112q0 -17 -11 -28t-28 -11h-65q-16 0 -27 11q-12 12 -12 28v1297q0 16 12 28q11 11 27 11h65q16 0 27.5 -11.5t11.5 -27.5v-544q148 202 384 197zM634 120q101 0 159 103.5 t58 284.5q0 153 -56 245t-163 94q-59 1 -114 -17.5t-92 -46t-67.5 -62t-46 -58.5t-22.5 -42v-315q11 -20 36 -47.5t66.5 -60.5t106 -55.5t135.5 -22.5z"/>
    <glyph glyph-name="c" unicode="c" horiz-adv-x="956" d="M866 124q11 -12 9 -29q-1 -17 -15 -27q-123 -90 -272 -90q-218 0 -337 101q-140 120 -140 405v3q2 282 140 401q119 101 337 101q150 0 272 -90q13 -9 15 -27q2 -17 -9 -29q-8 -9 -24.5 -27.5t-19.5 -22.5q-10 -11 -25 -12.5t-27 7.5q-83 59 -182 59q-165 0 -244 -67 q-54 -45 -72.5 -118t-18.5 -179v-5q0 -102 19 -174t72 -117q79 -67 244 -67q99 0 182 59q12 9 27 7t25 -13q18 -19 44 -49z"/>
    <glyph glyph-name="d" unicode="d" horiz-adv-x="1107" d="M949 1364q11 -11 11 -28v-1297q0 -17 -11 -28t-28 -11h-64q-17 0 -28 11t-11 28v112q-148 -174 -383 -174q-148 0 -234 138t-86 393q0 224 80 350.5t238 130.5q237 5 385 -197v544q0 16 11.5 27.5t27.5 11.5h64q17 0 28 -11zM818 306v315q-7 18 -22.5 42t-46 58.5 t-67.5 62t-92 46t-114 17.5q-107 -2 -163 -94t-56 -245q0 -181 58 -284.5t159 -103.5q71 0 135.5 22.5t106 55.5t66.5 60.5t36 47.5z"/>
    <glyph glyph-name="e" unicode="e" horiz-adv-x="1032" d="M916 530h1v-79q0 -16 -12 -28q-11 -11 -27 -11h-623q10 -158 89 -225t244 -67q99 0 182 59q12 9 27 7.5t25 -12.5q4 -4 44 -50q11 -12 9 -29q-1 -17 -15 -27q-123 -90 -272 -90q-218 0 -337 101q-140 120 -140 405v2q0 279 114 398q101 106 289 106q185 0 288 -106 q106 -111 114 -354zM254 530h519q-5 183 -74 255q-59 62 -185 62q-127 0 -186 -62q-69 -72 -74 -255z"/>
    <glyph glyph-name="f" unicode="f" horiz-adv-x="653" d="M671 1335q7 -16 1 -30q-4 -10 -11.5 -30.5t-11.5 -29.5q-6 -15 -20.5 -21.5t-29.5 -1.5q-99 37 -148 33q-118 -9 -118 -90v-183h230q16 0 28 -12q11 -11 11 -27v-65q0 -17 -11 -28t-28 -11h-230v-800q0 -16 -11.5 -27.5t-27.5 -11.5h-65q-16 0 -27.5 11.5t-11.5 27.5v800 h-75q-16 0 -27.5 11.5t-11.5 27.5v65q0 16 11.5 27.5t27.5 11.5h75v183q0 101 68 163q64 59 181 69q77 6 210 -41q16 -6 22 -21z"/>
    <glyph glyph-name="g" unicode="g" horiz-adv-x="1101" d="M914 963q17 0 27.5 -10.5t10.5 -27.5v-991q0 -100 -83 -183q-121 -107 -336 -107q-83 0 -153.5 19t-117.5 51.5t-75.5 61t-49.5 59.5q-8 8 -8 30l23 23q14 9 36.5 19.5t24.5 11.5q20 11 61 -16q31 -47 96 -84.5t171 -37.5q118 0 213 54q61 37 61 91v153 q-153 -107 -320 -107q-75 0 -144.5 36t-124 101.5t-87.5 168.5t-33 227q0 212 109 343.5t273 137.5q198 0 320 -122v61q0 17 10.5 27.5t27.5 10.5h68zM808 300h-8v312q-6 19 -17.5 42.5t-38 59.5t-59 63.5t-85 46.5t-112.5 17q-109 0 -176.5 -93.5t-67.5 -242.5 q0 -178 69 -283t175 -105q209 0 320 183z"/>
    <glyph glyph-name="h" unicode="h" horiz-adv-x="1034" d="M611 989q140 -4 216 -131.5t76 -349.5v-469q0 -16 -11.5 -27.5t-27.5 -11.5h-65q-16 0 -27.5 11.5t-11.5 27.5v469q0 70 -1 102.5t-10 77.5t-28 75q-51 82 -140 84q-70 2 -133.5 -31.5t-98.5 -79.5q-38 -51 -61 -113v-584q0 -17 -11 -28t-28 -11h-65q-16 0 -27 11 q-12 12 -12 28v1297q0 16 12 28q11 11 27 11h65q16 0 27.5 -11.5t11.5 -27.5v-530l12 15q27 37 55 64.5t66 53t86 38.5t104 12z"/>
    <glyph glyph-name="i" unicode="i" horiz-adv-x="434" d="M249 969q16 0 27.5 -11.5t11.5 -27.5v-889q0 -16 -11.5 -27.5t-27.5 -11.5h-65q-16 0 -27.5 11.5t-11.5 27.5v889q0 16 11.5 27.5t27.5 11.5h65zM249 1331q16 0 27.5 -11.5t11.5 -27.5v-103q0 -16 -11.5 -27.5t-27.5 -11.5h-65q-16 0 -27.5 11.5t-11.5 27.5v104 q0 16 11.5 27t27.5 11h65z"/>
    <glyph glyph-name="j" unicode="j" horiz-adv-x="438" d="M183 1150q-16 0 -27 11.5t-11 27.5v103q0 16 11 27.5t27 11.5h65q16 0 27.5 -11.5t11.5 -27.5v-103q0 -16 -11.5 -27.5t-27.5 -11.5h-65zM252 967q16 0 27 -11.5t11 -27.5v-1049q0 -114 -65 -177q-48 -47 -120 -55q-60 -8 -135 12q-17 5 -25 19q-7 13 -2 31 q3 11 10.5 33.5l9.5 28.5q5 14 18 22t28 4q47 -12 79 -8q60 8 60 90v1049q0 16 11.5 27.5t27.5 11.5h65z"/>
    <glyph glyph-name="k" unicode="k" horiz-adv-x="962" d="M899 60q13 -20 2 -40t-34 -20h-78q-21 0 -32 18l-346 526l-123 -120v-385q0 -17 -11 -28t-28 -11h-65q-16 0 -27 11q-12 12 -12 28v1297q0 16 12 28q11 11 27 11h65q17 0 28 -11t11 -28v-712q280 273 340 332q11 11 27 11h93q26 0 36 -24t-9 -43l-260 -254 q279 -426 384 -586z"/>
    <glyph glyph-name="l" unicode="l" horiz-adv-x="434" d="M277 1364q11 -11 11 -28v-1297q0 -17 -11 -28t-28 -11h-65q-16 0 -27 11q-12 12 -12 28v1297q0 16 12 28q11 11 27 11h65q17 0 28 -11z"/>
    <glyph glyph-name="m" unicode="m" horiz-adv-x="1652" d="M300 821q28 38 53.5 64t61.5 52t82 39t101 13q52 0 98.5 -19t76 -46t51 -54t30.5 -46l10 -19q5 8 15.5 20.5t45 45t72 57t96.5 44t120 17.5q142 -4 223.5 -132.5t81.5 -348.5v-469q0 -16 -11.5 -27.5t-27.5 -11.5h-65q-16 0 -27.5 11.5t-11.5 27.5v469q0 70 -1 102.5 t-10 77.5t-28 75q-51 82 -140 84q-70 2 -133.5 -31.5t-98.5 -79.5q-38 -51 -61 -113v-586q0 -12 -9 -23v0l-1 -1v0l-1 -1v-1h-1l-1 -1v-1h-1q-11 -9 -23 -9h-1h-67h-1q-12 0 -23 9v0l-1 1l-1 1l-1 1v1h-1l-1 1q-9 11 -9 23v1v470q0 70 -1 102.5t-10 77.5t-28 75 q-51 82 -140 84q-70 2 -133.5 -31.5t-98.5 -79.5q-38 -51 -61 -113v-584q0 -17 -11 -28t-28 -11h-65q-16 0 -27 11q-12 12 -12 28v890q0 16 11.5 27.5t27.5 11.5h65q16 0 28 -12q11 -11 11 -27v-123z"/>
    <glyph glyph-name="n" unicode="n" horiz-adv-x="1034" d="M611 989q140 -4 216 -131.5t76 -349.5v-469q0 -16 -11.5 -27.5t-27.5 -11.5h-65q-16 0 -27.5 11.5t-11.5 27.5v469q0 70 -1 102.5t-10 77.5t-28 75q-51 82 -140 84q-70 2 -133.5 -31.5t-98.5 -79.5q-38 -51 -61 -113v-584q0 -17 -11 -28t-28 -11h-65q-16 0 -27 11 q-12 12 -12 28v890q0 16 11.5 27t27.5 11h65q17 0 28 -11t11 -27v-123l12 15q129 173 311 168z"/>
    <glyph glyph-name="o" unicode="o" horiz-adv-x="1030" d="M912 508v-25v-24q0 -273 -120 -386q-98 -92 -276 -96h-3q-178 4 -276 96q-120 113 -120 386v24v25q0 273 120 386q97 91 276 95h3q179 -4 276 -95q120 -113 120 -386zM770 459q0 4 -0.5 11.5t-0.5 10.5v5q0 3 0.5 10.5t0.5 11.5q0 103 -16 172t-60 110q-57 54 -179 57 q-123 -3 -180 -57q-44 -41 -60 -110t-16 -172q0 -4 0.5 -11.5t0.5 -10.5v-5q0 -3 -0.5 -10.5t-0.5 -11.5q0 -103 16 -172t60 -110q57 -54 180 -57q122 3 179 57q44 41 60 110t16 172z"/>
    <glyph glyph-name="p" unicode="p" horiz-adv-x="1099" d="M610 989q165 -4 274 -135.5t109 -345.5q0 -101 -21.5 -187.5t-58.5 -149t-86 -107t-104.5 -66t-114.5 -21.5q-184 0 -318 110v-381q0 -16 -11.5 -27.5t-27.5 -11.5h-65q-16 0 -27.5 11.5t-11.5 27.5v1221q0 16 11.5 27.5t27.5 11.5h65q16 0 27.5 -11.5t11.5 -27.5v-62 q133 128 320 124zM608 120q104 0 173.5 106t69.5 282q0 149 -68 242.5t-177 95.5q-59 1 -111.5 -18t-85 -45t-60.5 -62t-39 -57.5t-20 -42.5v-315q9 -17 22 -36t41 -47.5t61 -49.5t84.5 -37t109.5 -16z"/>
    <glyph glyph-name="q" unicode="q" horiz-adv-x="1099" d="M913 966q16 0 27.5 -11t11.5 -27v-1222q0 -16 -11.5 -27.5t-27.5 -11.5h-65q-16 0 -27 11.5t-11 27.5v381q-134 -110 -318 -110q-74 0 -142.5 35t-123 100t-87.5 168t-33 228q0 214 109.5 345.5t274.5 135.5q187 4 320 -124v63q0 16 11 27t27 11h65zM810 306v315 q-8 20 -20 42t-39.5 58t-60.5 62t-85.5 45t-111.5 18q-109 -2 -176.5 -95.5t-67.5 -242.5q0 -176 69.5 -282t173.5 -106q58 0 109.5 16t84.5 37t61 49.5t41 47.5t22 36z"/>
    <glyph glyph-name="r" unicode="r" horiz-adv-x="720" d="M635 988q15 -1 25 -12.5t10 -26.5v-71q0 -20 -16 -31t-33 -7q-21 7 -40 7q-66 2 -127 -45t-105 -105q-38 -51 -61 -113v-545q0 -17 -11 -28t-28 -11h-65q-16 0 -27 11q-12 12 -12 28v890q0 16 11.5 27.5t27.5 11.5h65q16 0 28 -12q11 -11 11 -27v-123l12 15 q129 173 311 168q16 0 24 -1z"/>
    <glyph glyph-name="s" unicode="s" horiz-adv-x="892" d="M707 428q85 -66 85 -162q0 -117 -100.5 -203t-244.5 -86q-70 0 -159.5 26.5t-159.5 77.5q-14 11 -15 27q-2 17 10 30q7 8 22.5 24.5t22.5 24.5q10 11 24.5 12.5t26.5 -7.5q51 -36 114 -54t114 -18q83 0 142.5 41.5t59.5 104.5q0 33 -50 63q-39 23 -175 68 q-142 47 -206 93q-116 83 -116 211q0 118 100.5 203.5t245.5 85.5q70 0 158.5 -27t159.5 -78q14 -11 15 -27t-10 -29q-8 -8 -24 -26.5t-23 -25.5q-21 -24 -48 -7q-131 77 -228 77q-83 0 -143 -41.5t-60 -104.5q0 -66 81 -111q30 -16 65.5 -30t89 -31.5t71.5 -24.5 q104 -36 155 -76z"/>
    <glyph glyph-name="t" unicode="t" horiz-adv-x="694" d="M616 71q6 -15 0 -30q-6 -16 -21 -22q-117 -48 -184 -41q-105 10 -164 74q-57 62 -57 159v628h-75q-16 0 -27.5 11.5t-11.5 27.5v65q0 16 11.5 27.5t27.5 11.5h75v250q0 16 12 28q11 11 27 11h65q16 0 27 -11q12 -12 12 -28v-250h231q15 0 27 -12t12 -27v-65 q0 -16 -12 -28q-11 -11 -27 -11h-231v-628q0 -42 19 -62q23 -24 73 -29q35 -4 114 30q14 6 28.5 0t21.5 -20q4 -9 13.5 -29.5t13.5 -29.5z"/>
    <glyph glyph-name="u" unicode="u" horiz-adv-x="1036" d="M877 956q12 -12 12 -27v-890q0 -16 -11.5 -27.5t-27.5 -11.5h-65q-17 0 -28 11t-11 28v123q-2 -2 -6 -8t-6 -8q-129 -173 -311 -168q-140 4 -216 132t-76 350v469q0 16 11.5 27t27.5 11h65q16 0 27.5 -11t11.5 -27v-469q0 -70 1 -102.5t10 -77.5t28 -75q51 -82 140 -84 q70 -2 133.5 31t98.5 79q38 50 61 114v584q0 16 11 27t28 11h65q16 0 27 -11z"/>
    <glyph glyph-name="v" unicode="v" horiz-adv-x="894" d="M823 951q12 -17 6 -35q-78 -234 -298 -889q-8 -27 -37 -27h-94q-29 0 -37 27q-88 262 -297 889q-6 19 5 35t31 16h69q29 0 37 -27l239 -715q195 583 239 715q8 27 37 27h69q20 0 31 -16z"/>
    <glyph glyph-name="w" unicode="w" horiz-adv-x="1517" d="M1446 951q11 -16 5 -35q-209 -627 -297 -889q-8 -27 -37 -27h-94q-29 0 -37 27l-228 679l-227 -679q-8 -27 -37 -27h-94q-29 0 -37 27q-220 655 -298 889q-6 18 6 35q11 16 31 16h69q29 0 37 -27l239 -715q195 583 239 715q8 27 37 27h71q29 0 37 -27l239 -715 q195 583 239 715q8 27 37 27h68q21 0 32 -16z"/>
    <glyph glyph-name="x" unicode="x" horiz-adv-x="866" d="M517 484q185 -295 266 -424q12 -21 1 -40q-12 -20 -34 -20h-76q-21 0 -33 19l-208 331q-164 -259 -209 -331q-12 -19 -33 -19h-76q-22 0 -34 20q-12 21 1 40l266 424q-185 294 -266 423q-13 19 -1 40q12 20 34 20h76q22 0 33 -18l209 -332q163 260 208 332q11 18 33 18 h76q23 0 35 -20t-2 -40z"/>
    <glyph glyph-name="y" unicode="y" horiz-adv-x="931" d="M867 952q11 -20 -7 -30l-404 -1082q-31 -82 -107 -145q-34 -28 -81 -40t-94 -6q-12 0 -35 4t-34 4q-8 0 -23 15q-7 7 -7 30q0 6 3.5 27.5t3.5 33.5q0 8 15 23q8 8 31 8q12 0 35 -4t34 -4q41 0 76 23q45 45 53 76l61 168q-252 663 -328 861q0 23 8 38q16 16 30 16h69 q26 0 38 -23l259 -694q214 564 267 694q0 11 9.5 17t21.5 6h76q14 0 30 -16z"/>
    <glyph glyph-name="z" unicode="z" horiz-adv-x="923" d="M836 839q0 -15 -9 -25l-568 -671h538q16 0 28 -12q11 -11 11 -27v-65q0 -17 -11 -28t-28 -11h-672q-17 0 -28 11t-11 28v89q0 16 9 26l567 671h-537q-16 0 -27.5 11.5t-11.5 27.5v65q0 16 11 27t28 11h672q17 0 28 -11t11 -27v-90z"/>
    <glyph glyph-name="braceleft" unicode="{" horiz-adv-x="739" d="M616 -215q14 -2 23 -13.5t9 -25.5v-63q0 -18 -14 -29q-15 -12 -32 -9q-130 24 -190 92q-98 110 -98 236v291q0 90 -64 154q-51 51 -120 62q-14 2 -23.5 12.5t-9.5 24.5q-1 22 -1 72q0 14 10 25.5t24 13.5q79 12 131.5 73t52.5 142v210q0 65 21.5 119.5t52.5 88t73 60 t74.5 38.5t65.5 20q17 4 33 -8q14 -11 14 -30q0 -11 0.5 -33.5t0.5 -31.5q0 -30 -29 -37q-25 -6 -49 -17.5t-52 -32.5t-45 -56.5t-17 -79.5v-210q0 -87 -39 -163t-106 -126q14 -10 39 -35q106 -106 106 -255v-291q0 -76 56 -135q40 -42 103 -53z"/>
    <glyph glyph-name="verticalbar" unicode="|" horiz-adv-x="471" d="M267 1375q16 0 27.5 -11.5t11.5 -27.5v-1652q0 -16 -11.5 -27.5t-27.5 -11.5h-64q-16 0 -27.5 11.5t-11.5 27.5v1652q0 16 11.5 27.5t27.5 11.5h64z"/>
    <glyph glyph-name="braceright" unicode="}" horiz-adv-x="739" d="M609 628q14 -2 23.5 -13.5t9.5 -25.5v-22v-27v-22q0 -14 -9.5 -25t-23.5 -13q-70 -11 -121 -62q-64 -64 -64 -154v-291q0 -127 -97 -236q-60 -67 -191 -92q-17 -3 -32 9q-14 11 -14 30v62q0 14 9.5 25.5t23.5 13.5q63 11 103 53q56 59 56 135v291q0 149 106 255 q25 25 39 35q-67 50 -106 126t-39 163v210q0 44 -17 79t-45 56t-51.5 32.5t-49.5 18.5q-29 7 -29 37v65q0 18 15 30q16 12 33 8q33 -8 65.5 -20t74.5 -38.5t72.5 -60t52 -88t21.5 -119.5v-210q0 -81 53 -142t132 -73z"/>
    <glyph glyph-name="asciitilde" unicode="~" horiz-adv-x="1134" d="M1049 774q11 -13 10 -29q-4 -35 -11.5 -69.5t-27.5 -81.5t-48.5 -81t-78 -58.5t-112.5 -24.5q-52 0 -95.5 24.5t-89.5 70.5q-3 3 -24 24.5t-28 28t-28 23t-36 22.5t-39 12t-49 6q-67 0 -115.5 -48.5t-59.5 -120.5q-2 -14 -13.5 -24t-25.5 -10h-66q-17 0 -28 13 q-12 13 -10 30q15 129 106 216t212 87q89 0 151.5 -33.5t122.5 -93.5q49 -48 58 -57q32 -28 57 -28q62 0 96 50.5t41 128.5q2 15 13 25.5t26 10.5h64q17 0 28 -13z"/>
    <glyph glyph-name="nonbreakingspace" unicode=" " horiz-adv-x="471"/>
    <glyph glyph-name="exclamdown" unicode="¡" horiz-adv-x="409" d="M237 704q16 0 27 -11q12 -12 12 -28v-959q0 -15 -12 -27t-27 -12h-65q-16 0 -28 12q-11 11 -11 27v959q0 17 11 28t28 11h65zM237 1002q16 0 27.5 -11.5t11.5 -27.5v-103q0 -16 -11.5 -27.5t-27.5 -11.5h-65q-16 0 -27.5 11.5t-11.5 27.5v103q0 16 11.5 27.5t27.5 11.5 h65z"/>
    <glyph glyph-name="cent" unicode="¢" horiz-adv-x="1001" d="M880 126q12 -13 10 -30q-2 -16 -15 -27q-123 -90 -273 -90h-3v-154q0 -16 -11 -27q-12 -12 -28 -12h-65q-16 0 -27 11.5t-11 27.5v167q-116 24 -191 88q-141 121 -141 405v2q0 283 141 403q77 66 191 88v181q0 16 11 27q12 12 27 12h65q16 0 28 -12q11 -11 11 -27v-168h3 q150 0 272 -90q13 -9 15 -27t-9 -30l-24 -27t-19 -22q-10 -11 -25.5 -13t-27.5 7q-83 59 -182 59q-166 0 -244 -66q-54 -45 -72 -118t-18 -179v-3q0 -104 18.5 -176.5t71.5 -117.5q78 -66 244 -66q101 0 183 58q12 9 26.5 7.5t24.5 -12.5q18 -19 44 -49z"/>
    <glyph glyph-name="sterling" unicode="£" horiz-adv-x="1081" d="M963 131q11 -11 11 -27v-65q0 -16 -11.5 -27.5t-27.5 -11.5h-771q-16 0 -27.5 11.5t-11.5 27.5v65q0 16 11.5 27.5t27.5 11.5h32q25 0 42 17t17 42v356h-91q-16 0 -28 12q-11 11 -11 27v65q0 17 11 28t28 11h91v340q0 133 95.5 227.5t231.5 94.5t231.5 -94.5t95.5 -227.5 v-33q0 -16 -11.5 -27t-27.5 -11h-65q-16 0 -27.5 11t-11.5 27v33q0 74 -54 126.5t-130 52.5t-130 -52.5t-54 -126.5v-340h294q16 0 27.5 -11.5t11.5 -27.5v-65q0 -16 -11.5 -27.5t-27.5 -11.5h-294v-356q0 -30 -9 -59h546q16 0 28 -12z"/>
    <glyph glyph-name="yen" unicode="¥" horiz-adv-x="1142" d="M1024 1322q11 -18 2 -37l-348 -738h219q17 0 28 -11t11 -28v-38q0 -17 -11 -28t-28 -11h-254v-106h254q17 0 28 -11t11 -27v-39q0 -17 -11 -28t-28 -11h-254v-170q0 -16 -12 -28q-11 -11 -27 -11h-65q-17 0 -28 11t-11 28v170h-254q-17 0 -28 11t-11 28v39q0 16 11 27 t28 11h254v106h-254q-17 0 -28 11t-11 28v39q0 16 11 27t28 11h219q-264 558 -349 738q-9 18 3 37q11 18 33 18h71q26 0 35 -22l313 -662q257 544 313 662q9 22 35 22h72q22 0 33 -18z"/>
    <glyph glyph-name="section" unicode="§" horiz-adv-x="1067" d="M923 492q0 -87 -50.5 -161.5t-137.5 -119.5q33 -14 64 -34q124 -78 124 -203q0 -134 -114.5 -231.5t-278.5 -97.5q-92 0 -207.5 39t-197.5 113l96 105q62 -57 150 -86t159 -29q103 0 177 53.5t74 133.5q0 35 -24.5 57.5t-71.5 45.5q-45 21 -142.5 54.5t-126.5 44.5 q-131 51 -205 126t-74 190q0 78 41.5 147t113.5 115q-4 2 -12 7.5t-12 8.5q-131 93 -131 240q0 135 115 233t279 98q93 0 208 -39t197 -114l-97 -105q-62 57 -149.5 86t-158.5 29q-103 0 -177 -54t-74 -134q0 -88 102 -144q35 -20 77 -36.5t106.5 -38t84.5 -28.5 q120 -43 179 -89q94 -73 94 -182zM530 305q103 0 177 53.5t74 133.5q0 48 -66 87q-50 29 -208 83l-36 12q-82 -15 -136.5 -65t-54.5 -117q0 -37 14 -65.5t43.5 -50t57 -35.5t71.5 -31q29 -5 64 -5z"/>
    <glyph glyph-name="copyright" unicode="©" horiz-adv-x="1636" d="M1013 449q7 -6 15 -14t17.5 -18t14.5 -15q13 -13 11 -30q-2 -18 -15 -28q-86 -64 -189 -64q-156 0 -242 81q-100 95 -100 309v3q0 211 100 306q87 82 242 82q103 0 189 -65q12 -10 14 -28q2 -16 -11 -29q-28 -30 -46 -48q-22 -24 -50 -5q-45 32 -96 32q-101 0 -144 -42 q-33 -31 -44 -81t-11 -125v-4q0 -72 11 -121.5t44 -80.5q43 -42 144 -42q53 0 96 31q11 8 25.5 7t24.5 -11zM818 1363q141 0 269 -55t220.5 -148t147.5 -221t55 -269t-55 -269t-147.5 -221t-220.5 -148t-269 -55q-188 0 -347.5 93t-252.5 252.5t-93 347.5t93 347.5 t252.5 252.5t347.5 93zM818 120q112 0 214 43.5t175.5 117t117 175.5t43.5 214t-43.5 214t-117 175.5t-175.5 117t-214 43.5t-214 -43.5t-175.5 -117t-117 -175.5t-43.5 -214t43.5 -214t117 -175.5t175.5 -117t214 -43.5z"/>
    <glyph glyph-name="guillemotleft" unicode="«" horiz-adv-x="1183" d="M1093 839q10 -24 -11 -43l-357 -309q208 -180 326 -282q21 -19 11 -43q-10 -25 -37 -25h-99q-14 0 -25 9q-24 21 -140.5 121.5t-149.5 129.5q-27 24 -27 59v62q0 35 27 59q31 27 162.5 141t158.5 137q10 9 25 9h99q27 0 37 -25zM235 487q208 -180 326 -282q21 -19 11 -43 q-10 -25 -36 -25h-99q-15 0 -26 9q-24 21 -140.5 121.5t-149.5 129.5q-27 24 -27 59v62q0 35 27 59q31 27 162.5 141t158.5 137q10 9 25 9h99q27 0 37 -25q10 -24 -11 -43z"/>
    <glyph glyph-name="softhyphen" unicode="­" horiz-adv-x="0"/>
    <glyph glyph-name="registered" unicode="®" horiz-adv-x="1636" d="M882 1078q104 0 177 -73t73 -177t-73 -177q-18 -18 -42 -34q86 -119 111 -236q3 -18 -8 -32t-30 -14h-66q-14 0 -24.5 9t-13.5 22q-26 108 -118 211h-156v-203q0 -16 -11.5 -27.5t-27.5 -11.5h-65q-16 0 -27.5 11.5t-11.5 27.5v666q0 16 11.5 27t27.5 11h274zM958 752 q32 32 32 76t-32 76t-76 32h-170v-216h170q44 0 76 32zM818 1363q141 0 269 -55t220.5 -148t147.5 -221t55 -269t-55 -269t-147.5 -221t-220.5 -148t-269 -55q-188 0 -347.5 93t-252.5 252.5t-93 347.5t93 347.5t252.5 252.5t347.5 93zM818 120q112 0 214 43.5t175.5 117 t117 175.5t43.5 214t-43.5 214t-117 175.5t-175.5 117t-214 43.5t-214 -43.5t-175.5 -117t-117 -175.5t-43.5 -214t43.5 -214t117 -175.5t175.5 -117t214 -43.5z"/>
    <glyph glyph-name="degree" unicode="°" horiz-adv-x="661" d="M330 1340q100 0 171 -71t71 -171t-71 -170.5t-171 -70.5t-171 70.5t-71 170.5t71 171t171 71zM330 999q41 0 70 29t29 70t-29 70.5t-70 29.5t-70 -29.5t-29 -70.5t29 -70t70 -29z"/>
    <glyph glyph-name="twosuperior" unicode="²" horiz-adv-x="743" d="M627 714q12 -12 12 -27v-65q0 -16 -11.5 -27.5t-27.5 -11.5h-461q-16 0 -27.5 11.5t-11.5 27.5v72q0 7 4 17q32 37 139 157.5t147 161.5q65 68 75 93q9 24 -15 59q-27 38 -59 38q-81 0 -159 -61q-11 -9 -26 -8t-25 11q-7 7 -23 22.5t-24 23.5q-12 13 -11 29q0 17 14 29 q118 97 254 97q54 0 101 -27.5t77 -73.5q30 -45 37.5 -97t-9.5 -96q-17 -40 -59 -88q-24 -28 -59 -63t-81 -80t-69 -69q-15 -15 -41 -43h312q15 0 27 -12z"/>
    <glyph glyph-name="threesuperior" unicode="³" horiz-adv-x="735" d="M533 984q88 -68 88 -173q0 -98 -78.5 -169t-191.5 -71q-52 0 -117.5 20.5t-118.5 59.5q-13 11 -15 27q-2 17 11 30q7 8 23.5 24.5t23.5 24.5q23 23 50 6q72 -49 143 -49q52 0 90 27.5t38 69.5q0 38 -37 64q-1 1 -2.5 2t-2.5 2q-44 29 -97 29v1q-16 0 -26 10t-10 26v67 q0 16 11 27.5t27 11.5h25q38 15 61 31q32 22 32 53q0 37 -35 61t-83 24q-71 0 -135 -41q-12 -8 -26 -6.5t-24 12.5q-29 29 -42 43q-13 15 -10 33t20 28q133 74 217 74q109 0 185 -68t76 -160q0 -91 -70 -151z"/>
    <glyph glyph-name="periodcentered" unicode="·" horiz-adv-x="270" d="M167 755q16 0 27.5 -11.5t11.5 -27.5v-131q0 -16 -11.5 -27.5t-27.5 -11.5h-65q-16 0 -27.5 11.5t-11.5 27.5v131q0 16 11.5 27.5t27.5 11.5h65z"/>
    <glyph glyph-name="onesuperior" unicode="¹" horiz-adv-x="600" d="M495 737q11 -11 11 -28v-64q0 -17 -11 -28t-28 -11h-326q-16 0 -27 11q-12 12 -12 28v64q0 16 12 28q11 11 27 11h92v409l-26 -20q-13 -10 -28.5 -8t-25.5 15q-6 8 -20 26t-20 26q-10 13 -8.5 28.5t14.5 25.5q18 14 56.5 44.5t46.5 37.5q11 8 25 8h90q16 0 27.5 -11.5 t11.5 -27.5v-553h91q17 0 28 -11z"/>
    <glyph glyph-name="guillemotright" unicode="»" horiz-adv-x="1183" d="M252 855q25 -22 155 -135t165 -143q27 -24 27 -59v-62q0 -35 -27 -59q-33 -29 -149.5 -129.5t-140.5 -121.5q-10 -9 -25 -9h-99q-27 0 -37 25q-10 24 11 43l326 282q-231 200 -356 309q-21 19 -11 43q10 25 36 25h99q16 0 26 -9zM1062 577q27 -24 27 -59v-62 q0 -35 -27 -59q-33 -29 -149.5 -129.5t-140.5 -121.5q-10 -9 -25 -9h-99q-27 0 -37 25q-10 24 11 43l326 282q-230 200 -356 309q-21 19 -11 43q10 25 36 25h99q14 0 25 -9q27 -23 158.5 -137t162.5 -141z"/>
    <glyph glyph-name="questiondown" unicode="¿" horiz-adv-x="612" d="M405 817q-16 0 -27.5 11.5t-11.5 27.5v104q0 16 11.5 27t27.5 11h65q16 0 27.5 -11t11.5 -27v-104q0 -16 -11.5 -27.5t-27.5 -11.5h-65zM815 1q11 -14 8 -31q-7 -36 -18.5 -71.5t-40.5 -83.5t-69 -83t-107 -60t-151 -25q-149 0 -254 108t-105 262q0 143 127 245 q76 61 118.5 150.5t42.5 187.5v39q0 16 11.5 27.5t27.5 11.5h65q15 0 27 -12t12 -27v-39q0 -131 -56 -249t-158 -200q-75 -59 -75 -134q0 -94 63.5 -161t153.5 -67q64 0 112 21t74 55t39 63t19 59q3 14 14.5 23t25.5 8q11 -1 34 -2t31 -1q19 -2 29 -14z"/>
    <glyph glyph-name="Agrave" unicode="À" horiz-adv-x="1273" d="M586 1340h100q26 0 36 -24q30 -75 241.5 -610t258.5 -653q7 -18 -4 -36q-11 -17 -32 -17h-70q-26 0 -36 25l-128 324h-632q-97 -245 -128 -324q-10 -25 -36 -25h-70q-21 0 -32 17q-11 18 -4 36q47 118 258.5 653t241.5 610q10 24 36 24zM636 1147l-259 -656h518z M547 1440q-14 14 -46 45.5t-78 76.5t-69 68q-18 18 -9 42q10 24 36 24h81q18 0 29 -12q51 -55 174 -190q16 -18 6 -42q-10 -23 -35 -23h-62q-16 0 -27 11z"/>
    <glyph glyph-name="Aacute" unicode="Á" horiz-adv-x="1273" d="M586 1340h100q26 0 36 -24q30 -75 241.5 -610t258.5 -653q7 -18 -4 -36q-11 -17 -32 -17h-70q-26 0 -36 25l-128 324h-632q-97 -245 -128 -324q-10 -25 -36 -25h-70q-21 0 -32 17q-11 18 -4 36q47 118 258.5 653t241.5 610q10 24 36 24zM636 1147l-259 -656h518z M910 1630q-23 -23 -69 -68t-78 -76.5t-46 -45.5q-11 -11 -28 -11h-61q-26 0 -36 23t7 42q123 135 174 190q11 12 29 12h81q26 0 36 -24q9 -24 -9 -42z"/>
    <glyph glyph-name="Acircumflex" unicode="Â" horiz-adv-x="1273" d="M586 1340h100q26 0 36 -24q30 -75 241.5 -610t258.5 -653q7 -18 -4 -36q-11 -17 -32 -17h-70q-26 0 -36 25l-128 324h-632q-97 -245 -128 -324q-10 -25 -36 -25h-70q-21 0 -32 17q-11 18 -4 36q47 118 258.5 653t241.5 610q10 24 36 24zM636 1147l-259 -656h518z M566 1684q12 12 29 12h82q19 0 29 -12q51 -55 174 -190q16 -18 6 -42q-10 -23 -35 -23h-62q-16 0 -27 11l-126 124l-126 -124q-11 -11 -28 -11h-61q-26 0 -36 23t7 42q123 135 174 190z"/>
    <glyph glyph-name="Atilde" unicode="Ã" horiz-adv-x="1273" d="M586 1340h100q26 0 36 -24q30 -75 241.5 -610t258.5 -653q7 -18 -4 -36q-11 -17 -32 -17h-70q-26 0 -36 25l-128 324h-632q-97 -245 -128 -324q-10 -25 -36 -25h-70q-21 0 -32 17q-11 18 -4 36q47 118 258.5 653t241.5 610q10 24 36 24zM636 1147l-259 -656h519z M417 1466h-9h-11h-9q-19 0 -30 16q-10 15 -6 33q18 63 72 103.5t125 40.5q91 0 170 -67q28 -23 35 -28q20 -14 34 -14q58 0 72 65q7 30 38 30h26q19 0 30 -14t8 -32q-5 -26 -15 -49.5t-29 -48.5t-52.5 -40t-77.5 -15q-54 0 -116 51q-3 2 -12.5 10.5t-14 12t-14 10.5 t-17 10.5t-18.5 7.5t-22.5 5.5t-24.5 1.5q-34 0 -60 -17.5t-35 -45.5q-8 -26 -37 -26z"/>
    <glyph glyph-name="Adieresis" unicode="Ä" horiz-adv-x="1273" d="M586 1340h100q27 0 37 -24q29 -74 240.5 -609t258.5 -654q7 -18 -4 -36q-11 -17 -32 -17h-70q-26 0 -36 25l-128 324h-632q-97 -245 -128 -324q-10 -25 -36 -25h-70q-21 0 -32 17q-11 18 -4 36q47 118 258.5 653t241.5 610q10 24 36 24zM636 1147l-259 -656h519z M362 1596q0 16 11.5 27.5t27.5 11.5h65q16 0 27.5 -11.5t11.5 -27.5v-131q0 -16 -11.5 -27.5t-27.5 -11.5h-65q-16 0 -27.5 11.5t-11.5 27.5v131zM765 1596q0 16 11.5 27.5t27.5 11.5h64q16 0 27.5 -11.5t11.5 -27.5v-131q0 -16 -11.5 -27.5t-27.5 -11.5h-64 q-16 0 -27.5 11.5t-11.5 27.5v131z"/>
    <glyph glyph-name="Aring" unicode="Å" horiz-adv-x="1273" d="M586 1340h100q27 0 37 -24q29 -74 240.5 -609t258.5 -654q7 -18 -4 -36q-11 -17 -32 -17h-70q-26 0 -36 25l-128 324h-632q-97 -245 -128 -324q-10 -25 -36 -25h-70q-21 0 -32 17q-11 18 -4 36q47 118 258.5 653t241.5 610q10 24 36 24zM636 1147l-259 -656h519z M636 1767q80 0 136.5 -56.5t56.5 -136.5t-56.5 -136.5t-136.5 -56.5t-136.5 56.5t-56.5 136.5t56.5 136.5t136.5 56.5zM636 1664q-37 0 -63 -26.5t-26 -63.5t26 -63t63 -26t63.5 26t26.5 63t-26.5 63.5t-63.5 26.5z"/>
    <glyph glyph-name="AE" unicode="Æ" horiz-adv-x="1482" d="M647 12q-11 11 -11 27v310h-316q-97 -245 -128 -324q-10 -25 -36 -25h-70q-21 0 -32 17q-11 18 -4 36q47 118 258.5 653t241.5 610q10 24 36 24h735q16 0 27.5 -11.5t11.5 -27.5v-64q0 -16 -11.5 -27.5t-27.5 -11.5h-542v-443h434q17 0 28 -11t11 -27v-65q0 -17 -11 -28 t-28 -11h-434v-470h596q15 0 27 -12t12 -27v-65q0 -15 -12 -27t-27 -12h-700q-16 0 -28 12zM377 491h259v656z"/>
    <glyph glyph-name="Ccedilla" unicode="Ç" horiz-adv-x="1208" d="M581 -134q4 19 11.5 60t10.5 55q-166 17 -277 105q-211 167 -211 584q0 418 211 585q136 108 352 108q179 0 291 -69q98 -60 155 -176q7 -15 1 -31t-22 -22q-48 -20 -61 -25q-14 -6 -28 -0.5t-21 19.5q-43 84 -118 122.5t-197 38.5q-166 0 -264 -77q-42 -33 -73 -81.5 t-46.5 -95t-24.5 -105.5t-11 -99.5t-2 -91.5t2 -91.5t11 -99.5t24.5 -105.5t46.5 -95t73 -81.5q98 -77 264 -77q122 0 197 38t118 123q7 14 21 19.5t28 -0.5q9 -4 30.5 -12.5t30.5 -12.5q16 -6 22 -22q6 -15 -2 -31q-57 -117 -154 -176q-102 -62 -261 -68l-11 -59 q54 -14 83 -52q29 -39 29 -96q0 -51 -42 -95.5t-98 -44.5q-48 0 -94 25q-15 9 -18 28t10 32q14 16 21 23q19 19 43 9q24 -13 38 -13q15 0 26 11.5t11 24.5q0 22 -9 34q-8 11 -35 15q-12 2 -41 0q-19 0 -31 14t-9 32z"/>
    <glyph glyph-name="Egrave" unicode="È" horiz-adv-x="1007" d="M201 0q-17 0 -28 11t-11 28v1262q0 17 11 28t28 11h646q16 0 27.5 -11.5t11.5 -27.5v-64q0 -16 -11.5 -27.5t-27.5 -11.5h-543v-443h435q16 0 27 -11q12 -12 12 -27v-65q0 -16 -12 -28q-11 -11 -27 -11h-435v-470h597q15 0 27 -12t12 -27v-65q0 -15 -12 -27t-27 -12h-700 zM488 1440q-14 14 -46 45.5t-78 76.5t-69 68q-18 18 -9 42q10 24 36 24h81q19 0 29 -12q23 -25 173 -190q17 -19 7 -42t-35 -23h-62q-16 0 -27 11z"/>
    <glyph glyph-name="Eacute" unicode="É" horiz-adv-x="1007" d="M201 0q-17 0 -28 11t-11 28v1262q0 17 11 28t28 11h646q16 0 27.5 -11.5t11.5 -27.5v-64q0 -16 -11.5 -27.5t-27.5 -11.5h-543v-443h435q16 0 27 -11q12 -12 12 -27v-65q0 -16 -12 -28q-11 -11 -27 -11h-435v-470h597q15 0 27 -12t12 -27v-65q0 -15 -12 -27t-27 -12h-700 zM780 1630q-31 -30 -104 -101.5t-90 -88.5q-11 -11 -27 -11h-61q-26 0 -36 23t7 42q123 135 174 190q11 12 28 12h81q27 0 37 -24q9 -24 -9 -42z"/>
    <glyph glyph-name="Ecircumflex" unicode="Ê" horiz-adv-x="1007" d="M201 0q-17 0 -28 11t-11 28v1262q0 17 11 28t28 11h646q16 0 27.5 -11.5t11.5 -27.5v-64q0 -16 -11.5 -27.5t-27.5 -11.5h-543v-443h435q16 0 27 -11q12 -12 12 -27v-65q0 -16 -12 -28q-11 -11 -27 -11h-435v-470h597q15 0 27 -12t12 -27v-65q0 -15 -12 -27t-27 -12h-700 zM481 1684q11 12 28 12h83q18 0 29 -12q23 -25 173 -190q17 -19 7 -42t-35 -23h-62q-16 0 -27 11l-126 124l-127 -124q-11 -11 -27 -11h-61q-26 0 -36 23t7 42q123 135 174 190z"/>
    <glyph glyph-name="Edieresis" unicode="Ë" horiz-adv-x="1007" d="M201 0q-17 0 -28 11t-11 28v1262q0 17 11 28t28 11h646q16 0 27.5 -11.5t11.5 -27.5v-64q0 -16 -11.5 -27.5t-27.5 -11.5h-543v-443h435q16 0 27 -11q12 -12 12 -27v-65q0 -16 -12 -28q-11 -11 -27 -11h-435v-470h597q15 0 27 -12t12 -27v-65q0 -15 -12 -27t-27 -12h-700 zM278 1596q0 16 11.5 27.5t27.5 11.5h65q16 0 27.5 -11.5t11.5 -27.5v-131q0 -16 -11.5 -27.5t-27.5 -11.5h-65q-16 0 -27.5 11.5t-11.5 27.5v131zM681 1596q0 16 11.5 27.5t27.5 11.5h64q16 0 27.5 -11.5t11.5 -27.5v-131q0 -16 -11.5 -27.5t-27.5 -11.5h-64 q-16 0 -27.5 11.5t-11.5 27.5v131z"/>
    <glyph glyph-name="Igrave" unicode="Ì" horiz-adv-x="468" d="M295 1329q11 -11 11 -28v-1262q0 -17 -11 -28t-28 -11h-65q-16 0 -27 11q-12 12 -12 28v1262q0 16 12 28q11 11 27 11h65q17 0 28 -11zM178 1440q-14 14 -46 45.5t-78 76.5t-69 68q-18 18 -9 42q10 24 36 24h81q19 0 29 -12q51 -55 174 -190q17 -19 7 -42t-36 -23h-61 q-17 0 -28 11z"/>
    <glyph glyph-name="Iacute" unicode="Í" horiz-adv-x="468" d="M293 1329q11 -11 11 -28v-1262q0 -17 -11 -28t-27 -11h-65q-17 0 -28 11t-11 28v1262q0 17 11 28t28 11h65q16 0 27 -11zM483 1630q-31 -30 -104 -101.5t-90 -88.5q-11 -11 -27 -11h-61q-26 0 -36 23t7 42q123 135 174 190q10 12 28 12h81q27 0 37 -24q9 -24 -9 -42z"/>
    <glyph glyph-name="Icircumflex" unicode="Î" horiz-adv-x="466" d="M293 1329q12 -12 12 -28v-1262q0 -16 -12 -28q-11 -11 -27 -11h-65q-17 0 -28 11t-11 28v1262q0 17 11 28t28 11h65q16 0 27 -11zM163 1684q10 12 29 12h83q17 0 28 -12q51 -55 174 -190q17 -19 7 -42t-36 -23h-61q-16 0 -27 11l-127 124l-126 -124q-11 -11 -27 -11h-62 q-25 0 -35 23q-11 24 7 42q150 165 173 190z"/>
    <glyph glyph-name="Idieresis" unicode="Ï" horiz-adv-x="468" d="M294 1329q11 -11 11 -28v-1262q0 -17 -11 -28t-28 -11h-65q-16 0 -27 11t-11 28v1262q0 17 11 28t27 11h65q17 0 28 -11zM-35 1596q0 16 11.5 27.5t27.5 11.5h65q16 0 27.5 -11.5t11.5 -27.5v-131q0 -16 -11.5 -27.5t-27.5 -11.5h-65q-16 0 -27.5 11.5t-11.5 27.5v131z M368 1596q0 16 11.5 27.5t27.5 11.5h64q16 0 27.5 -11.5t11.5 -27.5v-131q0 -16 -11.5 -27.5t-27.5 -11.5h-64q-16 0 -27.5 11.5t-11.5 27.5v131z"/>
    <glyph glyph-name="Eth" unicode="Ð" horiz-adv-x="1382" d="M671 1340q123 0 234.5 -48t192 -128.5t128.5 -192t48 -234.5v-134q0 -123 -48 -234.5t-128.5 -192t-192 -128.5t-234.5 -48h-446q-16 0 -27 11t-11 28v560h-37q-17 0 -28 11t-11 28v64q0 17 11 28t28 11h37v560q0 17 11 28t27 11h446zM1131 603v134q0 191 -135 326 t-325 135h-342v-457h313q16 0 27 -11q12 -12 12 -27v-65q0 -16 -12 -28q-11 -11 -27 -11h-313v-456h342q125 0 231 61.5t167.5 167.5t61.5 231z"/>
    <glyph glyph-name="Ntilde" unicode="Ñ" horiz-adv-x="1304" d="M342 1322l657 -1086v1065q0 16 11.5 27.5t27.5 11.5h65q16 0 27 -11q12 -12 12 -28v-1262q0 -16 -12 -28q-11 -11 -27 -11h-111q-22 0 -33 19l-655 1085v-1065q0 -16 -11 -27.5t-27 -11.5h-65q-17 0 -28 11t-11 28v1262q0 16 11.5 27.5t27.5 11.5h108q23 0 33 -18z M480 1466h-9h-11h-9q-19 0 -30 16q-11 15 -6 33q18 62 72.5 103t124.5 41q91 0 170 -67q34 -28 35 -29q19 -13 33 -13q59 0 73 65q7 30 38 30h26q19 0 30 -14t8 -32q-5 -26 -15.5 -49.5t-29.5 -48.5t-52.5 -40t-77.5 -15q-53 0 -115 51q-3 2 -12.5 10.5t-14 12t-14 10.5 t-17 10.5t-18.5 7.5t-22.5 5.5t-24.5 1.5q-34 0 -60.5 -17.5t-35.5 -45.5q-8 -26 -36 -26z"/>
    <glyph glyph-name="Ograve" unicode="Ò" d="M291 1235q135 122 385 128h3q253 -6 386 -128q168 -153 168 -529q0 -6 -0.5 -18t-0.5 -18t0.5 -17.5t0.5 -17.5q0 -377 -168 -530q-135 -122 -386 -128h-3q-252 6 -385 128q-168 153 -168 530q0 6 0.5 17.5t0.5 17.5t-0.5 18t-0.5 18q0 376 168 529zM969 1129 q-94 87 -291 91q-197 -4 -291 -91q-70 -63 -96 -166.5t-26 -256.5q0 -6 0.5 -17t0.5 -17v-4q0 -6 -0.5 -17t-0.5 -16q0 -153 26.5 -257.5t95.5 -166.5q94 -87 291 -91q197 4 291 91q69 63 95 167t26 257v33v4v34q0 153 -26 257t-95 166zM584 1440q-70 68 -194 190 q-18 18 -9 42q10 24 36 24h81q18 0 29 -12q51 -55 174 -190q17 -19 7 -42t-36 -23h-61q-16 0 -27 11z"/>
    <glyph glyph-name="Oacute" unicode="Ó" d="M291 1235q135 122 385 128h3q253 -6 386 -128q168 -153 168 -529q0 -6 -0.5 -18t-0.5 -18t0.5 -17.5t0.5 -17.5q0 -377 -168 -530q-135 -122 -386 -128h-3q-252 6 -385 128q-168 153 -168 530v35v36q0 376 168 529zM969 1129q-94 87 -291 91q-197 -4 -291 -91 q-69 -63 -95.5 -167t-26.5 -256q0 -6 0.5 -17t0.5 -17v-4q0 -6 -0.5 -17t-0.5 -16q0 -153 26.5 -257t95.5 -167q94 -87 291 -91q197 4 291 91q69 63 95 167t26 257v33v4v34q0 153 -26 257t-95 166zM947 1630q-23 -23 -69 -68t-78 -76.5t-46 -45.5q-11 -11 -27 -11h-62 q-25 0 -35 23t7 42q150 165 173 190q10 12 29 12h81q26 0 36 -24q9 -24 -9 -42z"/>
    <glyph glyph-name="Ocircumflex" unicode="Ô" d="M291 1235q133 122 385 128h3q253 -6 386 -128q168 -153 168 -529q0 -6 -0.5 -18t-0.5 -18t0.5 -17.5t0.5 -17.5q0 -377 -168 -530q-133 -122 -386 -128h-3q-252 6 -385 128q-168 153 -168 530v35v36q0 376 168 529zM969 1129q-94 87 -291 91q-195 -4 -291 -91 q-69 -63 -95.5 -167t-26.5 -256q0 -6 0.5 -17t0.5 -17v-4q0 -6 -0.5 -17t-0.5 -16q0 -153 26.5 -257t95.5 -167q94 -87 291 -91q197 4 291 91q69 63 95 167t26 257q0 5 -0.5 16t-0.5 17v4q0 6 0.5 17t0.5 17q0 153 -26 257t-95 166zM578 1684q10 12 29 12h82q19 0 29 -12 q23 -25 173 -190q17 -19 7 -42t-35 -23h-62q-16 0 -27 11l-126 124l-127 -124q-11 -11 -27 -11h-61q-26 0 -36 23t7 42q123 135 174 190z"/>
    <glyph glyph-name="Otilde" unicode="Õ" d="M291 1235q135 122 385 128h3q253 -6 386 -128q168 -153 168 -529q0 -6 -0.5 -18t-0.5 -18t0.5 -17.5t0.5 -17.5q0 -377 -168 -530q-135 -122 -386 -128h-3q-252 6 -385 128q-168 153 -168 530v35v36q0 376 168 529zM969 1129q-94 87 -291 91q-197 -4 -291 -91 q-69 -63 -95.5 -167t-26.5 -256q0 -6 0.5 -17t0.5 -17v-4q0 -6 -0.5 -17t-0.5 -16q0 -153 26.5 -257t95.5 -167q94 -87 291 -91q197 4 291 91q69 63 95 167t26 257v33v4v34q0 153 -26 257t-95 166zM438 1466h-28q-20 0 -31 16q-11 15 -6 33q18 63 72.5 103.5t125.5 40.5 q91 0 170 -67q34 -28 35 -29q19 -13 33 -13q58 0 72 65q7 30 38 30h26q19 0 30 -14t8 -32q-5 -26 -15 -49.5t-29 -48.5t-52.5 -40t-77.5 -15q-56 0 -116 51q-2 2 -14.5 12.5t-17 14t-16.5 11.5t-21.5 11t-23.5 6t-29 3q-34 0 -60.5 -17.5t-35.5 -45.5q-8 -26 -37 -26z"/>
    <glyph glyph-name="Odieresis" unicode="Ö" d="M291 1235q133 122 385 128h3q253 -6 386 -128q168 -153 168 -529q0 -6 -0.5 -18t-0.5 -18t0.5 -17.5t0.5 -17.5q0 -377 -168 -530q-135 -122 -386 -128h-3q-250 6 -385 128q-168 153 -168 530q0 6 0.5 17.5t0.5 17.5t-0.5 18t-0.5 18q0 376 168 529zM969 1129 q-94 87 -291 91q-197 -4 -291 -91q-69 -63 -95.5 -167t-26.5 -256q0 -6 0.5 -17t0.5 -17v-4q0 -6 -0.5 -17t-0.5 -16q0 -153 26.5 -257t95.5 -167q94 -87 291 -91q197 4 291 91q69 63 95 167t26 257v33v4v34q0 153 -26 257t-95 166zM405 1596q0 16 11.5 27.5t27.5 11.5h65 q16 0 27.5 -11.5t11.5 -27.5v-131q0 -16 -11.5 -27.5t-27.5 -11.5h-65q-16 0 -27.5 11.5t-11.5 27.5v131zM808 1596q0 16 11.5 27.5t27.5 11.5h64q16 0 27.5 -11.5t11.5 -27.5v-131q0 -16 -11.5 -27.5t-27.5 -11.5h-64q-16 0 -27.5 11.5t-11.5 27.5v131z"/>
    <glyph glyph-name="multiply" unicode="×" horiz-adv-x="978" d="M590 576q201 -202 276 -277q11 -11 11 -27.5t-11 -27.5q-7 -7 -23 -22.5t-23 -22.5q-11 -11 -27 -11t-27 11l-277 276l-276 -276q-11 -11 -27.5 -11t-27.5 11q-7 7 -23 22.5t-23 22.5q-11 11 -11 27.5t11 27.5l276 277l-276 276q-11 11 -11 27.5t11 27.5l46 46 q11 11 27.5 11t27.5 -11l276 -276q202 201 277 276q11 11 27 11t27 -11l46 -46q11 -11 11 -27.5t-11 -27.5z"/>
    <glyph glyph-name="Oslash" unicode="Ø" horiz-adv-x="1361" d="M1195 1328l-89 -134q129 -156 129 -488q0 -6 -0.5 -18t-0.5 -18t0.5 -17.5t0.5 -17.5q0 -377 -168 -530q-135 -122 -386 -128h-3q-196 4 -321 80q-74 -112 -103 -156q-11 -17 -32 -17h-25q-23 0 -34 20t2 40l114 174q-154 154 -154 516v36v35q0 377 168 530 q135 122 385 128h3q222 -4 352 -101q49 74 72 109q11 18 32 18h25q23 0 34 -21t-1 -40zM1092 706q0 246 -70 361l-587 -891q91 -53 245 -56q197 4 291 91q69 63 95 167t26 257q0 5 -0.5 16t-0.5 17v4q0 6 0.5 17t0.5 17zM360 241l594 902q-93 73 -274 77q-197 -4 -291 -91 q-69 -63 -95.5 -167t-26.5 -256q0 -6 0.5 -17t0.5 -17v-4q0 -6 -0.5 -17t-0.5 -16q0 -136 20.5 -233t72.5 -161z"/>
    <glyph glyph-name="Ugrave" unicode="Ù" horiz-adv-x="1351" d="M1061 1301q0 16 11.5 27.5t27.5 11.5h64q16 0 27.5 -11.5t11.5 -27.5v-875q0 -120 -70 -223.5t-192 -164.5t-266 -61t-266 61t-192 164.5t-70 223.5v875q0 16 11.5 27.5t27.5 11.5h65q16 0 27.5 -11.5t11.5 -27.5v-875q0 -129 113.5 -217.5t271.5 -88.5t272 89t114 217 v875zM620 1440q-14 14 -46 45.5t-78 76.5t-69 68q-18 18 -9 42q10 24 36 24h81q19 0 29 -12q51 -55 174 -190q16 -18 6 -42q-10 -23 -35 -23h-62q-16 0 -27 11z"/>
    <glyph glyph-name="Uacute" unicode="Ú" horiz-adv-x="1351" d="M1061 1301q0 16 11.5 27.5t27.5 11.5h64q16 0 27.5 -11.5t11.5 -27.5v-875q0 -120 -70 -223.5t-192 -164.5t-266 -61t-266 61t-192 164.5t-70 223.5v875q0 16 11.5 27.5t27.5 11.5h65q16 0 27.5 -11.5t11.5 -27.5v-875q0 -129 113.5 -217.5t271.5 -88.5t272 89t114 217 v875zM939 1630q-23 -23 -69 -68t-78 -76.5t-46 -45.5q-11 -11 -27 -11h-62q-25 0 -35 23q-10 24 7 42q150 165 173 190q10 12 29 12h81q26 0 36 -24q9 -24 -9 -42z"/>
    <glyph glyph-name="Ucircumflex" unicode="Û" horiz-adv-x="1351" d="M1061 1301q0 16 11.5 27.5t27.5 11.5h64q16 0 27.5 -11.5t11.5 -27.5v-875q0 -120 -70 -223.5t-192 -164.5t-266 -61t-266 61t-192 164.5t-70 223.5v875q0 16 11.5 27.5t27.5 11.5h65q16 0 27.5 -11.5t11.5 -27.5v-875q0 -129 113.5 -217.5t271.5 -88.5t272 89t114 217 v875zM606 1684q10 12 28 12h83q19 0 29 -12q3 -4 71 -78t102 -112q17 -19 7 -42t-36 -23h-61q-16 0 -27 11l-126 124l-127 -124q-11 -11 -27 -11h-61q-26 0 -36 23t7 42q123 135 174 190z"/>
    <glyph glyph-name="Udieresis" unicode="Ü" horiz-adv-x="1351" d="M1061 1301q0 16 11.5 27.5t27.5 11.5h65q16 0 27.5 -11.5t11.5 -27.5v-875q0 -90 -41.5 -172.5t-112 -143.5t-169 -97t-206.5 -36q-144 0 -266 61t-192 164.5t-70 223.5v875q0 16 11.5 27.5t27.5 11.5h65q16 0 27.5 -11.5t11.5 -27.5v-875q0 -129 113.5 -217.5 t271.5 -88.5t272 89t114 217v875zM403 1596q0 16 11.5 27.5t27.5 11.5h65q16 0 27.5 -11.5t11.5 -27.5v-131q0 -16 -11.5 -27.5t-27.5 -11.5h-65q-16 0 -27.5 11.5t-11.5 27.5v131zM806 1596q0 16 11 27.5t27 11.5h65q16 0 27.5 -11.5t11.5 -27.5v-131q0 -16 -11.5 -27.5 t-27.5 -11.5h-65q-16 0 -27 11.5t-11 27.5v131z"/>
    <glyph glyph-name="Yacute" unicode="Ý" horiz-adv-x="999" d="M848 1340h71q22 0 33 -18q12 -19 3 -37l-384 -812v-434q0 -17 -11 -28t-28 -11h-65q-16 0 -27 11q-12 12 -12 28v434q-292 621 -383 812q-9 19 2 37t33 18h72q26 0 35 -22l313 -662q257 544 313 662q9 22 35 22zM771 1630q-23 -23 -69 -68t-78 -76.5t-46 -45.5 q-11 -11 -28 -11h-61q-26 0 -36 23q-11 24 7 42q123 135 174 190q10 12 29 12h81q26 0 36 -24q9 -24 -9 -42z"/>
    <glyph glyph-name="germandbls" unicode="ß" horiz-adv-x="1067" d="M897 586q78 -110 78 -272q0 -153 -89 -248t-201 -89q-45 3 -100 33q-46 24 -95 63q-14 12 -15 27q-1 16 10 29q7 8 21.5 24.5t20.5 24.5q11 11 26 13t27 -8q20 -16 52 -36q42 -26 61 -27q58 -3 98.5 53t40.5 141q0 115 -52 190q-77 108 -239 122q-15 2 -25.5 12.5 t-10.5 25.5v81q0 24 21 35q65 30 83 62q49 83 49 199q0 74 -54 126.5t-130 52.5t-130 -52.5t-54 -126.5v-1002q0 -17 -11 -28t-28 -11h-65q-16 0 -27 11q-12 12 -12 28v1002q0 133 95.5 227.5t231.5 94.5t231.5 -94.5t95.5 -227.5q0 -88 -25 -170t-70 -140q123 -47 191 -145 z"/>
    <glyph glyph-name="agrave" unicode="à" horiz-adv-x="1021" d="M734 728q0 54 -43.5 86.5t-123.5 32.5q-88 0 -160.5 -32t-109.5 -87q-7 -12 -21 -16t-27 2q-32 14 -60 26q-17 7 -22 24t4 32q55 88 161 140.5t235 52.5q142 0 227 -73q83 -72 83 -188v-591q0 -53 10 -102q3 -13 -6 -24t-23 -11h-79q-12 0 -22 8t-12 20q-11 52 -11 116 v13q-146 -180 -336 -180q-127 0 -209 70q-93 81 -93 223q0 212 221 295q45 17 89 27.5t95.5 14.5t75.5 5.5t84.5 0.5t66.5 -1h6v116zM734 510q-182 4 -299 -20q-82 -17 -139 -77t-57 -143q0 -78 43 -115q41 -35 115 -35q90 0 185 47.5t152 124.5v218zM525 1129 q-14 14 -46 45.5t-78 76.5t-69 68q-19 19 -9 43t36 24h81q18 0 29 -13q51 -55 174 -190q16 -18 6 -41q-10 -24 -35 -24h-61q-17 0 -28 11z"/>
    <glyph glyph-name="aacute" unicode="á" horiz-adv-x="1021" d="M734 728q0 54 -43.5 86.5t-123.5 32.5q-88 0 -160.5 -32t-109.5 -87q-7 -12 -21 -16t-27 2q-10 4 -30.5 13t-30.5 13q-16 6 -21 24q-5 17 4 32q55 88 161 140.5t235 52.5q142 0 227 -73q83 -72 83 -188v-591q0 -53 10 -102q3 -13 -7 -24q-9 -11 -22 -11h-79q-12 0 -22 8 t-12 20q-11 52 -11 117v12q-146 -180 -336 -180q-128 0 -210 70q-92 79 -92 223q0 214 220 296q45 17 89.5 27.5t95 14.5t77 5t83.5 0t67 -1h6v116zM734 292v218q-182 4 -299 -20q-82 -17 -139 -77t-57 -143q0 -78 43 -115q41 -35 115 -35q90 0 185 47.5t152 124.5z M837 1319q-31 -30 -104 -101.5t-90 -88.5q-11 -11 -27 -11h-61q-26 0 -36 24q-10 23 7 42q97 107 174 189q11 13 28 13h81q26 0 36 -24q10 -25 -8 -43z"/>
    <glyph glyph-name="acircumflex" unicode="â" horiz-adv-x="1021" d="M734 728q0 54 -43.5 86.5t-123.5 32.5q-88 0 -160.5 -32t-109.5 -87q-7 -12 -21 -16t-27 2q-14 6 -61 26q-16 6 -21 24q-5 17 4 32q55 88 160.5 140.5t234.5 52.5q143 0 228 -73q83 -72 83 -188v-591q0 -53 10 -102q3 -13 -6 -24t-23 -11h-79q-12 0 -22 8t-12 20 q-11 60 -11 116v13q-146 -180 -336 -180q-127 0 -209 70q-93 81 -93 223q0 212 220 295q45 17 89 27.5t96 14.5t76 5.5t84.5 0.5t66.5 -1h6v116zM734 292v218q-182 4 -299 -20q-82 -17 -139 -77t-57 -143q0 -78 43 -115q41 -35 115 -35q90 0 185 47.5t152 124.5zM423 1373 q11 13 28 13h83q18 0 29 -13q23 -25 173 -190q17 -18 7 -41q-10 -24 -35 -24h-62q-16 0 -27 11l-126 125l-127 -125q-11 -11 -27 -11h-61q-26 0 -36 24q-10 23 7 41q123 135 174 190z"/>
    <glyph glyph-name="atilde" unicode="ã" horiz-adv-x="1021" d="M734 612v116q0 54 -43.5 86.5t-123.5 32.5q-88 0 -160.5 -32t-109.5 -87q-7 -12 -21 -16t-27 2q-14 6 -61 26q-16 6 -21 24q-5 17 4 32q55 88 160.5 140.5t234.5 52.5q143 0 228 -73q83 -72 83 -188v-591q0 -53 10 -102q3 -13 -6 -24t-23 -11h-79q-12 0 -22 8t-12 20 q-11 60 -11 116v13q-146 -180 -336 -180q-127 0 -209 70q-93 81 -93 223q0 212 220 295q45 17 89 27.5t96 14.5t76 5.5t84.5 0.5t66.5 -1h6zM734 292v218q-182 4 -299 -20q-82 -17 -139 -77t-57 -143q0 -78 43 -115q41 -35 115 -35q90 0 185 47.5t152 124.5zM317 1181 q-19 0 -29 1q-20 0 -30 15q-11 16 -7 34q17 62 72 102.5t126 40.5q92 0 170 -66q34 -28 35 -29q19 -13 33 -13q59 0 73 65q7 30 38 30h26q18 0 30 -15q11 -14 8 -32q-5 -26 -15.5 -49.5t-29.5 -48t-52.5 -39.5t-77.5 -15q-55 0 -115 50q-3 2 -12.5 10.5t-14 12t-14 10.5 t-17 10.5t-18.5 7.5t-22.5 5.5t-24.5 1.5q-34 0 -60.5 -17.5t-35.5 -45.5q-8 -26 -36 -26z"/>
    <glyph glyph-name="adieresis" unicode="ä" horiz-adv-x="1021" d="M734 612v116q0 54 -44 86.5t-124 32.5q-88 0 -160 -32t-109 -87q-7 -12 -21 -16t-27 2q-14 6 -61 26q-16 6 -21 24q-5 17 4 32q55 88 160.5 140.5t234.5 52.5q143 0 228 -73q83 -72 83 -188v-591q0 -53 10 -102q3 -13 -6 -24t-23 -11h-79q-12 0 -22 8t-12 20 q-11 52 -11 116v13q-146 -180 -336 -180q-127 0 -209 70q-93 81 -93 223q0 212 220 295q45 17 89 27.5t96 14.5t76 5.5t84.5 0.5t66.5 -1h6zM734 292v218q-182 4 -299 -20q-82 -17 -139 -77t-57 -143q0 -78 43 -115q41 -35 115 -35q90 0 185 47.5t152 124.5zM239 1318 q0 16 11.5 27.5t27.5 11.5h65q16 0 27 -11.5t11 -27.5v-131q0 -16 -11 -27.5t-27 -11.5h-65q-16 0 -27.5 11.5t-11.5 27.5v131zM641 1318q0 16 11.5 27.5t27.5 11.5h65q16 0 27.5 -11.5t11.5 -27.5v-131q0 -16 -11.5 -27.5t-27.5 -11.5h-65q-16 0 -27.5 11.5t-11.5 27.5v131 z"/>
    <glyph glyph-name="aring" unicode="å" horiz-adv-x="1021" d="M734 612v116q0 54 -44 86.5t-124 32.5q-88 0 -160 -32t-109 -87q-7 -12 -21 -16t-27 2q-14 6 -61 26q-16 6 -21 24q-5 17 4 32q55 88 160.5 140.5t234.5 52.5q143 0 228 -73q83 -72 83 -188v-591q0 -53 10 -102q3 -13 -6 -24t-23 -11h-79q-12 0 -22 8t-12 20 q-11 52 -11 116v13q-146 -180 -336 -180q-127 0 -209 70q-93 81 -93 223q0 212 220 295q45 17 89 27.5t96 14.5t76 5.5t84.5 0.5t66.5 -1h6zM734 292v218q-182 4 -299 -20q-82 -17 -139 -77t-57 -143q0 -78 43 -115q41 -35 115 -35q90 0 185 47.5t152 124.5zM541 1478 q80 0 136.5 -56.5t56.5 -136.5t-56.5 -137t-136.5 -57t-136.5 57t-56.5 137t56.5 136.5t136.5 56.5zM541 1374q-37 0 -63.5 -26t-26.5 -63t26.5 -63.5t63.5 -26.5t63 26.5t26 63.5t-26 63t-63 26z"/>
    <glyph glyph-name="ae" unicode="æ" horiz-adv-x="1654" d="M1539 530h1v-79q0 -17 -11 -28t-28 -11h-622q10 -158 89 -225q78 -67 243 -67q100 0 183 59q12 9 27 7t25 -13q2 -2 43 -49q11 -13 10 -29q-1 -17 -15 -27q-123 -90 -273 -90q-73 0 -141.5 18.5t-114 44.5t-80.5 52.5t-51 44.5l-16 19q-65 -80 -183.5 -130t-226.5 -50 q-127 0 -209 70q-93 79 -93 223q0 214 220 296q45 17 89.5 27.5t95 14.5t77 5t83.5 0t67 -1h6v116q0 54 -43.5 86.5t-123.5 32.5q-88 0 -160.5 -32t-109.5 -87q-7 -12 -21 -16t-27 2q-14 6 -61 26q-16 6 -21 24q-5 17 4 32q55 88 161 140.5t235 52.5q142 0 227 -73 q20 -18 41 -49q12 15 13 16q103 106 289 106t289 -106q105 -110 113 -353zM734 292v218q-187 4 -299 -19q-82 -17 -139 -77.5t-57 -143.5q0 -78 43 -115q41 -35 115 -35q90 0 185 47.5t152 124.5zM877 530h520q-5 183 -74 255q-59 62 -186 62q-126 0 -185 -62 q-70 -74 -75 -255z"/>
    <glyph glyph-name="ccedilla" unicode="ç" horiz-adv-x="956" d="M426 -134q8 43 23 123q-120 23 -198 89q-140 120 -140 405v4q2 282 140 401q119 101 337 101q149 0 272 -91q13 -9 15 -27q2 -17 -9 -29q-8 -9 -24.5 -27.5t-19.5 -22.5q-10 -11 -25 -12.5t-27 7.5q-83 59 -182 59q-165 0 -244 -67q-54 -45 -72.5 -118t-18.5 -178v-6 q0 -102 19 -174t72 -117q79 -67 244 -67q99 0 182 59q12 9 27 7t25 -13q18 -19 44 -49q11 -12 9 -29q-1 -16 -15 -27q-123 -90 -272 -90h-36l-11 -58q55 -14 84 -52q29 -39 29 -96q0 -51 -42 -95.5t-98 -44.5q-48 0 -94 25q-16 10 -19 28q-3 19 10 32q7 8 22 23q18 18 42 9 q24 -13 39 -13t25.5 11.5t10.5 24.5q0 23 -8 34t-36 15q-12 2 -41 0q-19 0 -31 14q-11 13 -8 32z"/>
    <glyph glyph-name="egrave" unicode="è" horiz-adv-x="1032" d="M469 1130q-17 17 -89.5 88t-103.5 101q-19 19 -9 43t36 24h81q18 0 29 -13q49 -52 173 -189q17 -19 7 -42q-10 -24 -35 -24h-62q-15 0 -27 12zM916 530h1v-79q0 -16 -12 -28q-11 -11 -27 -11h-623q10 -158 89 -225q78 -67 244 -67q99 0 182 59q12 9 27 7t25 -13 q18 -19 44 -49q11 -12 9 -29q-1 -17 -15 -27q-125 -91 -272 -91q-218 0 -337 101q-140 120 -140 405v2q0 279 114 398q101 106 289 106q185 0 288 -106q106 -111 114 -353zM254 530h519q-5 183 -74 255q-59 62 -185 62q-127 0 -186 -62q-69 -72 -74 -255z"/>
    <glyph glyph-name="eacute" unicode="é" horiz-adv-x="1032" d="M518 1118q-25 0 -35 24t7 41q123 135 174 190q11 13 28 13h81q26 0 36 -24t-9 -43q-23 -23 -69 -68t-78 -76.5t-46 -45.5q-11 -11 -27 -11h-62zM916 530h1v-79q0 -16 -12 -28q-11 -11 -27 -11h-623q10 -158 89 -225q78 -67 244 -67q99 0 182 59q12 9 27 7t25 -13 q18 -19 44 -49q11 -12 9 -29q-1 -17 -15 -27q-125 -91 -272 -91q-218 0 -337 101q-140 120 -140 405v2q0 279 114 398q99 106 289 106q185 0 288 -106q106 -111 114 -353zM254 530h519q-5 183 -74 255q-59 62 -185 62q-127 0 -186 -62q-69 -72 -74 -255z"/>
    <glyph glyph-name="ecircumflex" unicode="ê" horiz-adv-x="1032" d="M299 1118q-26 0 -36 24t7 41q123 135 174 190q11 13 28 13h83q18 0 29 -13q23 -25 173 -190q17 -17 7 -41t-35 -24h-62q-16 0 -27 11l-126 125l-127 -125q-11 -11 -27 -11h-61zM916 530h1v-79q0 -16 -12 -28q-11 -11 -27 -11h-623q10 -158 89 -225q78 -67 244 -67 q99 0 182 59q12 9 27 7t25 -13q18 -19 44 -49q11 -12 9 -29q-1 -17 -15 -27q-125 -91 -272 -91q-218 0 -337 101q-140 120 -140 405v2q0 279 114 398q103 106 289 106q185 0 288 -106q106 -111 114 -353zM254 530h519q-5 183 -74 255q-59 62 -185 62q-127 0 -186 -62 q-69 -72 -74 -255z"/>
    <glyph glyph-name="edieresis" unicode="ë" horiz-adv-x="1032" d="M676 1148q-16 0 -27.5 11.5t-11.5 27.5v131q0 16 11.5 27.5t27.5 11.5h65q16 0 27.5 -11.5t11.5 -27.5v-131q0 -16 -11.5 -27.5t-27.5 -11.5h-65zM274 1148q-16 0 -27.5 11.5t-11.5 27.5v131q0 16 11.5 27.5t27.5 11.5h64q16 0 27.5 -11.5t11.5 -27.5v-131 q0 -16 -11.5 -27.5t-27.5 -11.5h-64zM916 530h1v-79q0 -16 -12 -28q-11 -11 -27 -11h-623q10 -158 89 -225q78 -67 244 -67q99 0 182 59q12 9 27 7t25 -13q18 -19 44 -49q11 -12 9 -29q-1 -17 -15 -27q-125 -91 -272 -91q-218 0 -337 101q-140 120 -140 405v2q0 279 114 398 q103 106 289 106q185 0 288 -106q106 -111 114 -353zM254 530h519q-5 183 -74 255q-59 62 -185 62q-127 0 -186 -62q-69 -72 -74 -255z"/>
    <glyph glyph-name="igrave" unicode="ì" horiz-adv-x="436" d="M186 967h65q16 0 27 -11.5t11 -27.5v-889q0 -16 -11 -27.5t-27 -11.5h-65q-16 0 -27.5 11.5t-11.5 27.5v889q0 16 11.5 27.5t27.5 11.5zM137 1129q-14 14 -46 45.5t-78 76.5t-69 68q-19 19 -9 43t36 24h81q18 0 29 -13q51 -55 174 -190q17 -17 7 -41t-36 -24h-61 q-17 0 -28 11z"/>
    <glyph glyph-name="iacute" unicode="í" horiz-adv-x="434" d="M184 967h65q16 0 27.5 -11.5t11.5 -27.5v-889q0 -16 -11.5 -27.5t-27.5 -11.5h-65q-16 0 -27.5 11.5t-11.5 27.5v889q0 16 11.5 27.5t27.5 11.5zM503 1319q-23 -23 -69 -68t-78 -76.5t-46 -45.5q-11 -11 -27 -11h-62q-25 0 -35 24t6 42q97 107 174 189q11 13 29 13h81 q26 0 36 -24t-9 -43z"/>
    <glyph glyph-name="icircumflex" unicode="î" horiz-adv-x="434" d="M185 967h64q16 0 27.5 -11.5t11.5 -27.5v-889q0 -16 -11.5 -27.5t-27.5 -11.5h-64q-16 0 -27.5 11.5t-11.5 27.5v889q0 16 11.5 27.5t27.5 11.5zM147 1373q11 13 29 13h82q18 0 29 -13q51 -55 174 -190q16 -18 6 -41q-10 -24 -35 -24h-62q-16 0 -27 11l-126 125 l-126 -125q-11 -11 -28 -11h-61q-26 0 -36 24q-10 23 7 41q123 135 174 190z"/>
    <glyph glyph-name="idieresis" unicode="ï" horiz-adv-x="436" d="M185 967h64q16 0 27.5 -11.5t11.5 -27.5v-889q0 -16 -11.5 -27.5t-27.5 -11.5h-64q-16 0 -27.5 11.5t-11.5 27.5v889q0 16 11.5 27.5t27.5 11.5zM-55 1318q0 16 11.5 27.5t27.5 11.5h64q16 0 27.5 -11.5t11.5 -27.5v-131q0 -16 -11.5 -27.5t-27.5 -11.5h-64 q-16 0 -27.5 11.5t-11.5 27.5v131zM347 1318q0 16 11.5 27.5t27.5 11.5h65q16 0 27.5 -11.5t11.5 -27.5v-131q0 -16 -11.5 -27.5t-27.5 -11.5h-65q-16 0 -27.5 11.5t-11.5 27.5v131z"/>
    <glyph glyph-name="ntilde" unicode="ñ" horiz-adv-x="1034" d="M184 967q10 0 32.5 0.5t32.5 0.5q16 0 28 -12q11 -11 11 -27v-123l12 15q129 173 311 168q140 -4 216 -131.5t76 -349.5v-469q0 -16 -11.5 -27.5t-27.5 -11.5h-65q-16 0 -27.5 11.5t-11.5 27.5v469q0 70 -1 102.5t-10 77.5t-28 75q-50 81 -140 84q-70 2 -133.5 -31.5 t-98.5 -79.5q-38 -51 -61 -113v-584q0 -17 -11 -28t-28 -11h-65q-16 0 -27 11q-12 12 -12 28v890q0 16 11.5 27t27.5 11zM285 1181q-19 0 -29 1q-19 0 -30 15q-11 16 -7 33q18 63 72.5 103.5t125.5 40.5q92 0 170 -66q34 -28 35 -29q19 -13 33 -13q59 0 73 65q7 30 38 30h25 q19 0 31 -15q11 -14 8 -32q-5 -26 -15.5 -49.5t-29.5 -48t-52.5 -39.5t-77.5 -15q-56 0 -115 50q-3 2 -12.5 10.5t-14 12t-14 10.5t-17 10.5t-18.5 7.5t-22.5 5.5t-24.5 1.5q-34 0 -60.5 -17.5t-35.5 -45.5q-8 -26 -36 -26z"/>
    <glyph glyph-name="ograve" unicode="ò" horiz-adv-x="1030" d="M237 893q98 92 276 96h3q178 -4 276 -96q120 -113 120 -385v-25v-24q0 -273 -120 -386q-98 -92 -276 -96h-3q-178 4 -276 96q-120 113 -120 386v24v25q0 272 120 385zM694 790q-57 54 -180 57q-123 -3 -180 -57q-44 -41 -59.5 -109.5t-15.5 -172.5q0 -4 0.5 -11.5 t0.5 -10.5v-5q0 -3 -0.5 -11t-0.5 -12q0 -104 15.5 -172t59.5 -109q57 -54 180 -57q123 3 180 57q44 41 60 109.5t16 171.5q0 4 -0.5 12t-0.5 11v5q0 3 0.5 10.5t0.5 11.5q0 103 -16 172t-60 110zM464 1129q-14 14 -46 45.5t-78 76.5t-69 68q-19 19 -9 43t36 24h81 q18 0 29 -13q51 -55 174 -190q16 -18 6 -41q-10 -24 -35 -24h-62q-16 0 -27 11z"/>
    <glyph glyph-name="oacute" unicode="ó" horiz-adv-x="1030" d="M237 893q98 92 276 96h3q178 -4 276 -96q120 -113 120 -385v-25v-24q0 -273 -120 -386q-98 -92 -276 -96h-3q-178 4 -276 96q-120 113 -120 386v24v25q0 272 120 385zM695 790q-57 54 -180 57q-123 -3 -180 -57q-44 -41 -60 -110t-16 -172q0 -4 0.5 -11.5t0.5 -10.5v-5 q0 -3 -0.5 -11t-0.5 -12q0 -103 16 -171.5t60 -109.5q57 -54 180 -57q123 3 180 57q44 41 59.5 109t15.5 172q0 4 -0.5 12t-0.5 11v5q0 3 0.5 10.5t0.5 11.5q0 104 -15.5 172.5t-59.5 109.5zM798 1319q-23 -23 -69 -68t-78 -76.5t-46 -45.5q-11 -11 -27 -11h-62 q-25 0 -35 24q-10 23 6 41q123 135 174 190q11 13 29 13h81q26 0 36 -24t-9 -43z"/>
    <glyph glyph-name="ocircumflex" unicode="ô" horiz-adv-x="1030" d="M237 893q98 92 276 96h3q178 -4 276 -96q121 -114 121 -385q0 -4 -0.5 -12.5t-0.5 -12.5t0.5 -12t0.5 -12q0 -272 -121 -386q-98 -92 -276 -96h-3q-178 4 -276 96q-120 113 -120 386v24v25q0 272 120 385zM695 790q-57 54 -180 57q-123 -3 -180 -57q-44 -41 -60 -110 t-16 -172q0 -4 0.5 -11.5t0.5 -10.5v-5q0 -3 -0.5 -11t-0.5 -12q0 -103 16 -171.5t60 -109.5q57 -54 180 -57q123 3 180 57q44 41 59.5 109t15.5 172v23v5v22q0 104 -15.5 172.5t-59.5 109.5zM448 1373q11 13 28 13h83q18 0 29 -13q23 -25 173 -190q17 -17 7 -41t-35 -24 h-62q-16 0 -27 11l-126 125l-127 -125q-11 -11 -27 -11h-61q-26 0 -36 24q-10 23 7 41q123 135 174 190z"/>
    <glyph glyph-name="otilde" unicode="õ" horiz-adv-x="1030" d="M237 893q98 92 276 96h3q178 -4 276 -96q120 -113 120 -385v-25v-24q0 -273 -120 -386q-98 -92 -276 -96h-3q-178 4 -276 96q-120 113 -120 386v24v25q0 272 120 385zM695 790q-57 54 -180 57q-123 -3 -180 -57q-44 -41 -60 -110t-16 -172q0 -4 0.5 -11.5t0.5 -10.5v-5 q0 -3 -0.5 -11t-0.5 -12q0 -103 16 -171.5t60 -109.5q57 -54 180 -57q123 3 180 57q44 41 59.5 109t15.5 172q0 4 -0.5 12t-0.5 11v5q0 3 0.5 10.5t0.5 11.5q0 104 -15.5 172.5t-59.5 109.5zM275 1181q-19 0 -29 1q-20 0 -30 15t-6 33q18 63 72 103.5t125 40.5q92 0 170 -66 q34 -28 35 -29q19 -13 34 -13q58 0 72 65q7 30 38 30h26q18 0 30 -15q11 -14 8 -32q-5 -26 -15 -49t-29 -48t-52.5 -40t-77.5 -15q-57 0 -116 50q-3 2 -12.5 10.5t-14 12t-14 10.5t-17 10.5t-18.5 7.5t-22.5 5.5t-24.5 1.5q-34 0 -60 -17.5t-35 -45.5q-8 -26 -37 -26z"/>
    <glyph glyph-name="odieresis" unicode="ö" horiz-adv-x="1030" d="M237 893q98 92 276 96h3q178 -4 276 -96q120 -113 120 -385v-25v-24q0 -273 -120 -386q-98 -92 -276 -96h-3q-178 4 -276 96q-120 113 -120 386v24v25q0 272 120 385zM694 790q-57 54 -179 57q-123 -3 -180 -57q-44 -41 -60 -110t-16 -172q0 -4 0.5 -11.5t0.5 -10.5v-5 q0 -3 -0.5 -11t-0.5 -12q0 -103 16 -171.5t60 -109.5q57 -54 180 -57q122 3 179 57q44 41 60 109.5t16 171.5q0 4 -0.5 12t-0.5 11v5q0 3 0.5 10.5t0.5 11.5q0 103 -16 172t-60 110zM242 1318q0 16 11.5 27.5t27.5 11.5h65q16 0 27.5 -11.5t11.5 -27.5v-131 q0 -16 -11.5 -27.5t-27.5 -11.5h-65q-16 0 -27.5 11.5t-11.5 27.5v131zM645 1318q0 16 11 27.5t27 11.5h65q16 0 27.5 -11.5t11.5 -27.5v-131q0 -16 -11.5 -27.5t-27.5 -11.5h-65q-16 0 -27 11.5t-11 27.5v131z"/>
    <glyph glyph-name="oslash" unicode="ø" horiz-adv-x="1034" d="M881 994l-68 -120q102 -116 102 -366q0 -4 -0.5 -12.5t-0.5 -12.5t0.5 -12t0.5 -12q0 -273 -120 -386q-98 -92 -277 -96h-3q-110 3 -190 39q-49 -85 -71 -124q-11 -19 -34 -19h-34q-23 0 -34 19q-11 20 0 39l83 146q-116 113 -116 382v24v25q0 272 120 385q98 92 276 96 h3q126 -3 210 -48q33 59 51 91q12 20 34 20h35q21 0 33 -20q11 -19 0 -38zM772 508q0 156 -37 229l-339 -596q50 -20 121 -21q123 3 180 57q44 41 59.5 109.5t15.5 172.5v22v5v22zM310 209l347 609q-55 28 -140 29q-123 -3 -180 -57q-44 -41 -59.5 -109.5t-15.5 -172.5v-22 v-5v-23q0 -177 48 -249z"/>
    <glyph glyph-name="ugrave" unicode="ù" horiz-adv-x="1038" d="M852 -1h-65q-16 0 -28 12q-11 11 -11 27v123q-2 -3 -5.5 -8t-5.5 -7q-129 -173 -312 -168q-140 4 -216 131.5t-76 349.5v469q0 16 11.5 27.5t27.5 11.5h65q16 0 27.5 -11.5t11.5 -27.5v-469q0 -70 1 -102.5t10 -77.5t28 -75q50 -81 140 -84q70 -2 133.5 31.5t98.5 79.5 q38 51 61 113v584q0 16 11 27q12 12 28 12h65q15 0 27 -12t12 -27v-890q0 -16 -11.5 -27.5t-27.5 -11.5zM452 1129q-14 14 -46 45.5t-78 76.5t-69 68q-19 19 -9 43t36 24h81q18 0 29 -13q51 -55 174 -190q16 -18 6 -41q-10 -24 -35 -24h-62q-16 0 -27 11z"/>
    <glyph glyph-name="uacute" unicode="ú" horiz-adv-x="1038" d="M852 -1h-65q-16 0 -28 12q-11 11 -11 27v123q-2 -3 -5.5 -8t-5.5 -7q-129 -173 -312 -168q-140 4 -216 131.5t-76 349.5v469q0 16 11.5 27.5t27.5 11.5h65q16 0 27.5 -11.5t11.5 -27.5v-469q0 -70 1 -102.5t10 -77.5t28 -75q50 -81 140 -84q70 -2 133.5 31.5t98.5 79.5 q38 51 61 113v584q0 16 11 27q12 12 28 12h65q15 0 27 -12t12 -27v-890q0 -16 -11.5 -27.5t-27.5 -11.5zM760 1319q-31 -30 -104 -101.5t-90 -88.5q-11 -11 -27 -11h-61q-26 0 -36 24q-10 23 7 41q123 135 174 190q11 13 28 13h81q26 0 36 -24q10 -25 -8 -43z"/>
    <glyph glyph-name="ucircumflex" unicode="û" horiz-adv-x="1038" d="M852 -1h-65q-15 0 -27 12t-12 27v123q-2 -3 -5.5 -8t-5.5 -7q-129 -173 -312 -168q-140 4 -216 131.5t-76 349.5v469q0 16 11.5 27.5t27.5 11.5h65q16 0 27.5 -11.5t11.5 -27.5v-469q0 -68 1.5 -102t10.5 -78.5t27 -74.5q50 -81 140 -84q70 -2 133.5 31.5t98.5 79.5 q38 51 61 113v584q0 16 11 27q12 12 28 12h65q15 0 27 -12t12 -27v-890q0 -16 -11.5 -27.5t-27.5 -11.5zM442 1373q11 13 29 13h82q18 0 29 -13q51 -55 174 -190q17 -18 7 -41q-10 -24 -36 -24h-61q-17 0 -28 11l-126 125l-126 -125q-11 -11 -28 -11h-61q-25 0 -35 24 q-10 23 6 41q123 135 174 190z"/>
    <glyph glyph-name="udieresis" unicode="ü" horiz-adv-x="1038" d="M852 -1h-65q-16 0 -28 12q-11 11 -11 27v123q-2 -3 -5.5 -8t-5.5 -7q-129 -173 -312 -168q-140 4 -216 131.5t-76 349.5v469q0 16 11.5 27.5t27.5 11.5h65q16 0 27.5 -11.5t11.5 -27.5v-469q0 -70 1 -102.5t10 -77.5t28 -75q50 -81 140 -84q70 -2 133.5 31.5t98.5 79.5 q38 51 61 113v584q0 16 11 27q12 12 28 12h65q15 0 27 -12t12 -27v-890q0 -16 -11.5 -27.5t-27.5 -11.5zM239 1318q0 16 11.5 27.5t27.5 11.5h65q16 0 27.5 -11.5t11.5 -27.5v-131q0 -16 -11.5 -27.5t-27.5 -11.5h-65q-16 0 -27.5 11.5t-11.5 27.5v131zM642 1318 q0 16 11.5 27.5t27.5 11.5h65q16 0 27 -11.5t11 -27.5v-131q0 -16 -11 -27.5t-27 -11.5h-65q-16 0 -27.5 11.5t-11.5 27.5v131z"/>
    <glyph glyph-name="yacute" unicode="ý" horiz-adv-x="931" d="M763 967h70q21 0 32 -17q11 -18 4 -36l-319 -844q-75 -195 -109 -283q-24 -65 -76 -112q-29 -26 -46 -28q-57 -8 -135 13q-17 5 -25 19q-9 16 -3 30q3 10 10 30.5t10 30.5q5 15 19.5 22.5t29.5 2.5q3 -1 11.5 -3.5t13.5 -4.5q19 -7 38 2t27 29q69 184 79 220 q-258 679 -332 876q-7 18 4 36q11 17 32 17h70q26 0 36 -25l262 -692q213 565 261 692q10 25 36 25zM744 1319q-23 -23 -69 -68t-78 -76.5t-46 -45.5q-11 -11 -28 -11h-61q-26 0 -36 24q-10 23 7 41q123 135 174 190q11 13 29 13h81q26 0 36 -24t-9 -43z"/>
    <glyph glyph-name="ydieresis" unicode="ÿ" horiz-adv-x="931" d="M764 967h69q21 0 32 -17t4 -36l-319 -844q-75 -195 -109 -283q-24 -65 -76 -112q-29 -26 -46 -28q-57 -8 -135 13q-17 5 -25 19q-9 16 -3 30q3 10 10 30.5t10 30.5q5 15 19.5 22.5t29.5 2.5q3 -1 11.5 -3.5t13.5 -4.5q19 -7 38 2t27 29q62 158 79 220q-258 679 -332 876 q-7 18 4 36q11 17 32 17h70q26 0 36 -25l262 -692q213 565 261 692q10 25 37 25zM193 1318q0 16 11.5 27.5t27.5 11.5h65q16 0 27 -11.5t11 -27.5v-131q0 -16 -11 -27.5t-27 -11.5h-65q-16 0 -27.5 11.5t-11.5 27.5v131zM595 1318q0 16 11.5 27.5t27.5 11.5h65 q16 0 27.5 -11.5t11.5 -27.5v-131q0 -16 -11.5 -27.5t-27.5 -11.5h-65q-16 0 -27.5 11.5t-11.5 27.5v131z"/>
    <glyph glyph-name="dotlessi" unicode="ı" horiz-adv-x="434" d="M184 967h65q16 0 27.5 -11.5t11.5 -27.5v-889q0 -16 -11.5 -27.5t-27.5 -11.5h-65q-16 0 -27.5 11.5t-11.5 27.5v889q0 16 11.5 27.5t27.5 11.5z"/>
    <glyph glyph-name="Lslash" unicode="Ł" horiz-adv-x="968" d="M889 143q16 0 27.5 -11.5t11.5 -27.5v-65q0 -17 -11 -28t-28 -11h-627q-17 0 -28 11t-11 28v446l-53 -53q-11 -11 -27.5 -11t-27.5 11q-4 4 -13.5 13t-14.5 14q-11 11 -11 28q0 16 11 27l136 137v650q0 17 11 28t28 11h64q17 0 28 -11t11 -28v-507q194 195 267 268 q11 11 27.5 11t27.5 -11l27 -27q12 -12 12 -28t-11 -27l-350 -351v-486h524z"/>
    <glyph glyph-name="OE" unicode="Œ" horiz-adv-x="1691" d="M883 0q-3 0 -41.5 -5.5t-87 -11.5t-75.5 -6h-3q-252 6 -385 128q-168 153 -168 530v35v36q0 376 168 529q135 122 385 128h3q27 0 75.5 -6t87 -11.5t41.5 -5.5h646q16 0 27.5 -11.5t11.5 -27.5v-64q0 -16 -11.5 -27.5t-27.5 -11.5h-543v-442h435q16 0 28 -12 q11 -11 11 -27v-65q0 -17 -11 -28t-28 -11h-435v-470h597q16 0 27 -11q12 -12 12 -28v-65q0 -15 -12 -27t-27 -12h-700zM678 120q99 3 166 23v1054q-67 20 -166 23q-197 -4 -291 -91q-69 -63 -95.5 -167t-26.5 -256q0 -6 0.5 -17t0.5 -17v-4q0 -6 -0.5 -17t-0.5 -16 q0 -153 26.5 -257t95.5 -167q94 -87 291 -91z"/>
    <glyph glyph-name="oe" unicode="œ" horiz-adv-x="1689" d="M1575 530h1v-79q0 -16 -12 -28q-11 -11 -27 -11h-623q10 -158 89 -225q78 -67 244 -67q99 0 182 59q12 9 27 7t25 -13q18 -19 44 -49q11 -12 9 -29t-15 -27q-125 -91 -272 -91q-217 0 -337 102q-35 30 -60 69q-26 -46 -58 -75q-98 -92 -276 -96h-3q-178 4 -276 96 q-120 113 -120 386v24v25q0 273 120 386q97 91 276 95h3q179 -4 276 -95q28 -27 52 -65q19 31 40 54q103 106 289 106q187 0 288 -106q106 -111 114 -353zM694 177q44 41 60 110t16 172q0 4 -0.5 11.5t-0.5 10.5v5q0 3 0.5 10.5t0.5 11.5q0 103 -16 172t-60 110 q-57 54 -179 57q-123 -3 -180 -57q-44 -41 -60 -110t-16 -172q0 -4 0.5 -11.5t0.5 -10.5v-5q0 -3 -0.5 -10.5t-0.5 -11.5q0 -103 16 -172t60 -110q57 -54 180 -57q122 3 179 57zM913 530h520q-5 181 -75 255q-59 62 -185 62q-127 0 -186 -62q-69 -72 -74 -255z"/>
    <glyph glyph-name="Scaron" unicode="Š" horiz-adv-x="1099" d="M113 186q42 45 45 48q10 11 25 12t27 -9q74 -58 169 -87.5t171 -29.5q125 0 215.5 69t90.5 170q0 66 -83 117q-12 7 -26.5 14.5t-26.5 13.5t-31 13.5t-29.5 11.5t-33 12.5t-31 11.5t-34.5 12t-33 11q-189 66 -277 129q-147 107 -147 275q0 156 131 269.5t317 113.5 q97 0 218.5 -39t215.5 -114q12 -11 14 -28q1 -15 -11 -29q-6 -6 -22.5 -24t-24.5 -26q-22 -24 -50 -5q-181 122 -340 122q-125 0 -215 -69t-90 -171q0 -113 126 -185q41 -24 90.5 -44t124 -45.5t99.5 -34.5q142 -53 206 -105q105 -83 105 -207q0 -156 -130.5 -269 t-317.5 -113q-97 0 -218.5 39t-215.5 114q-13 11 -14 27q-1 15 11 29zM510 1429q-18 0 -29 12q-23 25 -173 190q-17 19 -7 42t35 23h62q16 0 27 -11l126 -124l126 124q11 11 28 11h61q26 0 36 -23t-7 -42q-123 -135 -174 -190q-11 -12 -29 -12h-82z"/>
    <glyph glyph-name="scaron" unicode="š" horiz-adv-x="892" d="M123 138q7 8 22 24.5t22 24.5q10 11 25 12.5t27 -7.5q51 -36 114 -54t114 -18q83 0 142.5 41.5t59.5 104.5q0 33 -50 63q-39 23 -175 68q-142 47 -206 93q-116 82 -116 211q0 118 100.5 203.5t245.5 85.5q70 0 158.5 -26.5t159.5 -77.5q13 -10 15 -28q1 -16 -10 -29 q-8 -8 -24 -26.5t-23 -25.5q-21 -24 -48 -7q-131 77 -228 77q-83 0 -143 -41.5t-60 -104.5q0 -66 81 -111q30 -16 65.5 -30t89 -31.5t71.5 -24.5q104 -36 155 -76q85 -66 85 -162q0 -117 -100.5 -203t-244.5 -86q-70 0 -159.5 26.5t-159.5 77.5q-13 10 -15 28q-1 16 10 29z M433 1118q-18 0 -29 13q-51 55 -174 190q-16 18 -6 42q10 23 35 23h62q16 0 27 -11l126 -124l126 124q11 11 28 11h61q26 0 36 -23t-7 -42q-123 -135 -174 -190q-11 -13 -29 -13h-82z"/>
    <glyph glyph-name="Ydieresis" unicode="Ÿ" horiz-adv-x="999" d="M848 1340h71q22 0 33 -18q12 -19 3 -37l-384 -812v-434q0 -17 -11 -28t-28 -11h-65q-16 0 -27 11q-12 12 -12 28v434q-293 621 -383 812q-9 19 2 37t33 18h72q26 0 35 -22l313 -662q257 544 313 662q9 22 35 22zM227 1596q0 16 11.5 27.5t27.5 11.5h65q16 0 27.5 -11.5 t11.5 -27.5v-131q0 -16 -11.5 -27.5t-27.5 -11.5h-65q-16 0 -27.5 11.5t-11.5 27.5v131zM630 1596q0 16 11.5 27.5t27.5 11.5h64q16 0 27.5 -11.5t11.5 -27.5v-131q0 -16 -11.5 -27.5t-27.5 -11.5h-64q-16 0 -27.5 11.5t-11.5 27.5v131z"/>
    <glyph glyph-name="Zcaron" unicode="Ž" horiz-adv-x="1171" d="M920 1198h-809q-17 0 -28 11t-11 27v65q0 17 11 28t28 11h947q16 0 27 -11q12 -12 12 -28v-90q0 -13 -9 -24l-842 -1045h812q16 0 27.5 -11t11.5 -27v-65q0 -16 -12 -28q-11 -11 -27 -11h-947q-17 0 -28 11t-11 28v90q0 15 8 24zM543 1429q-19 0 -29 12q-23 25 -173 190 q-17 19 -7 42t35 23h62q16 0 27 -11l126 -124l127 124q11 11 27 11h61q26 0 36 -23t-7 -42q-123 -135 -174 -190q-10 -12 -29 -12h-82z"/>
    <glyph glyph-name="zcaron" unicode="ž" horiz-adv-x="923" d="M662 825h-537q-16 0 -27.5 11.5t-11.5 27.5v65q0 16 11 27t28 11h672q17 0 28 -11t11 -27v-90q0 -15 -9 -25l-568 -671h538q16 0 28 -12q11 -11 11 -27v-65q0 -17 -11 -28t-28 -11h-672q-17 0 -28 11t-11 28v89q0 14 9 25zM420 1118q-18 0 -29 13q-51 55 -174 190 q-17 19 -7 42t36 23h61q17 0 28 -11l126 -124l126 124q11 11 27 11h62q25 0 35 -23q10 -24 -6 -42q-123 -135 -174 -190q-11 -13 -29 -13h-82z"/>
    <glyph glyph-name="endash" unicode="–" horiz-adv-x="1011" d="M921 733q16 0 27.5 -11.5t11.5 -27.5v-65q0 -16 -11.5 -27.5t-27.5 -11.5h-831q-16 0 -27.5 11.5t-11.5 27.5v65q0 16 11.5 27.5t27.5 11.5h831z"/>
    <glyph glyph-name="emdash" unicode="—" horiz-adv-x="1312" d="M1249 721q11 -11 11 -27v-65q0 -16 -11 -27q-12 -12 -28 -12h-1131q-15 0 -27 12t-12 27v65q0 15 12 27t27 12h1131q16 0 28 -12z"/>
    <glyph glyph-name="quoteleft" unicode="‘" horiz-adv-x="288" d="M178 1231q16 0 27.5 -11.5t11.5 -27.5v-103q0 -16 -11.5 -27.5t-27.5 -11.5h-65q-16 0 -27.5 11.5t-11.5 27.5v130q0 59 56 141q10 15 26 15q9 0 16 -3t10 -6l2 -3q14 -17 2 -35q-45 -60 -47 -97h39z"/>
    <glyph glyph-name="quoteright" unicode="’" horiz-adv-x="288" d="M176 1375q16 0 27.5 -11.5t11.5 -27.5v-130q0 -59 -56 -141q-10 -15 -26 -15q-9 0 -16.5 3t-10.5 6l-2 3q-13 16 -1 34q45 60 47 98h-39q-16 0 -27.5 11t-11.5 27v104q0 16 11.5 27.5t27.5 11.5h65z"/>
    <glyph glyph-name="quotedblleft" unicode="“" horiz-adv-x="557" d="M178 1231q16 0 27.5 -11.5t11.5 -27.5v-103q0 -16 -11.5 -27.5t-27.5 -11.5h-65q-16 0 -27.5 11.5t-11.5 27.5v130q0 59 56 141q10 15 26 15q9 0 16 -3t10 -6l2 -3q14 -17 2 -35q-45 -60 -47 -97h39zM445 1231q16 0 27.5 -11.5t11.5 -27.5v-103q0 -16 -11.5 -27.5 t-27.5 -11.5h-66q-16 0 -27.5 11.5t-11.5 27.5v130q0 59 56 141q10 15 27 15q9 0 16 -3t9 -6l3 -3q14 -17 2 -35q-45 -60 -47 -97h39z"/>
    <glyph glyph-name="quotedblright" unicode="”" horiz-adv-x="557" d="M443 1375q16 0 27.5 -11.5t11.5 -27.5v-130q0 -59 -56 -141q-10 -15 -27 -15q-9 0 -16 3t-9 6l-3 3q-13 16 -1 34q43 59 46 98h-39q-16 0 -27.5 11t-11.5 27v104q0 16 11.5 27.5t27.5 11.5h66zM176 1375q16 0 27.5 -11.5t11.5 -27.5v-130q0 -59 -56 -141q-10 -15 -26 -15 q-9 0 -16.5 3t-10.5 6l-2 3q-13 16 -1 34q45 60 47 98h-39q-16 0 -27.5 11t-11.5 27v104q0 16 11.5 27.5t27.5 11.5h65z"/>
    <glyph glyph-name="quotedblbase" unicode="„" horiz-adv-x="530" d="M164 182q16 0 27.5 -11.5t11.5 -27.5v-130q0 -59 -56 -141q-10 -15 -27 -15q-9 0 -16 3t-10 6l-2 3q-13 16 -1 34q43 59 46 98h-39q-16 0 -27.5 11t-11.5 27v104q0 16 11.5 27.5t27.5 11.5h66zM431 182q16 0 27 -11.5t11 -27.5v-130q0 -59 -56 -141q-10 -15 -26 -15 q-9 0 -16 3t-9 6l-3 3q-13 16 -2 34q45 60 47 98h-39q-16 0 -27.5 11t-11.5 27v104q0 16 11.5 27.5t27.5 11.5h66z"/>
    <glyph glyph-name="uni201f" unicode="‟" horiz-adv-x="557" d="M178 1375q16 0 27.5 -11.5t11.5 -27.5v-104q0 -16 -11.5 -27t-27.5 -11h-39q2 -38 47 -98q11 -18 -2 -34q-7 -12 -28 -12q-16 0 -26 15q-56 78 -56 141v130q0 16 11.5 27.5t27.5 11.5h65zM445 1375q16 0 27.5 -11.5t11.5 -27.5v-104q0 -16 -11.5 -27t-27.5 -11h-39 q3 -39 46 -98q12 -18 -1 -34q-7 -12 -28 -12q-17 0 -27 15q-56 82 -56 141v130q0 16 11.5 27.5t27.5 11.5h66z"/>
    <glyph glyph-name="dagger" unicode="†" horiz-adv-x="1222" d="M1122 981q11 -11 11 -27v-65q0 -16 -11 -27q-12 -12 -28 -12h-412v-1147q0 -16 -11.5 -27.5t-27.5 -11.5h-65q-16 0 -27.5 11.5t-11.5 27.5v1147h-412q-16 0 -28 12q-11 11 -11 27v65q0 16 11 27q12 12 28 12h412v305q0 16 11.5 27.5t27.5 11.5h65q16 0 27.5 -11.5 t11.5 -27.5v-305h412q16 0 28 -12z"/>
    <glyph glyph-name="bullet" unicode="•" horiz-adv-x="411" d="M308 755q16 0 27.5 -11.5t11.5 -27.5v-131q0 -16 -11.5 -27.5t-27.5 -11.5h-206q-16 0 -27.5 11.5t-11.5 27.5v131q0 16 11.5 27.5t27.5 11.5h206z"/>
    <glyph glyph-name="ellipsis" unicode="…" horiz-adv-x="1685" d="M161 182q16 0 27.5 -11.5t11.5 -27.5v-104q0 -16 -11.5 -27.5t-27.5 -11.5h-65q-16 0 -27.5 11.5t-11.5 27.5v104q0 16 11.5 27.5t27.5 11.5h65zM1589 182q16 0 27.5 -11.5t11.5 -27.5v-104q0 -16 -11.5 -27.5t-27.5 -11.5h-65q-16 0 -27.5 11.5t-11.5 27.5v104 q0 16 11.5 27.5t27.5 11.5h65zM875 182q16 0 27.5 -11.5t11.5 -27.5v-104q0 -16 -11.5 -27.5t-27.5 -11.5h-65q-16 0 -27.5 11.5t-11.5 27.5v104q0 16 11.5 27.5t27.5 11.5h65z"/>
    <glyph glyph-name="perthousand" unicode="‰" horiz-adv-x="2211" d="M655 1009q0 -178 -82 -256q-66 -63 -188 -66h-3q-121 3 -187 66q-82 78 -82 256v16v15q0 178 82 256q68 64 187 67h3q120 -3 188 -67q82 -78 82 -256v-15v-16zM512 1009v13v5v13q0 59 -7 95t-30 58q-27 25 -91 27q-64 -2 -91 -27q-23 -22 -30.5 -58.5t-7.5 -94.5v-13v-5 v-13q0 -58 7.5 -94t30.5 -58q28 -26 91 -28q63 2 91 28q23 22 30 57.5t7 94.5zM1411 587q82 -78 82 -256v-15v-16q0 -178 -82 -256q-68 -64 -187 -67h-3q-120 3 -188 67q-82 78 -82 256v16v15q0 178 82 256q68 64 188 67h3q119 -3 187 -67zM1351 300q0 2 -0.5 6.5t-0.5 6.5 v5q0 2 0.5 6.5t0.5 6.5q0 58 -7.5 94.5t-30.5 58.5q-27 25 -91 27q-64 -2 -91 -27q-23 -22 -30 -58t-7 -95v-13v-5v-13q0 -59 7 -95t30 -58q27 -25 91 -27q64 2 91 27q23 22 30.5 58.5t7.5 94.5zM1189 1318q11 -19 2 -38q-69 -137 -344 -683.5t-289 -575.5q-11 -21 -35 -21 h-72q-23 0 -33 18q-11 19 -2 38q69 137 344 683.5t289 575.5q12 22 35 22h72q22 0 33 -19zM2098 331v-15v-16q0 -178 -82 -256q-68 -64 -187 -67h-4q-119 3 -187 67q-82 78 -82 256v16v15q0 178 82 256q68 64 187 67h4q119 -3 187 -67q82 -78 82 -256zM1955 300v13v5v13 q0 59 -7 95t-30 58q-27 25 -91 27q-64 -2 -91 -27q-23 -22 -30.5 -58.5t-7.5 -94.5q0 -2 0.5 -6.5t0.5 -6.5v-5q0 -2 -0.5 -6.5t-0.5 -6.5q0 -58 7.5 -94.5t30.5 -58.5q27 -25 91 -27q64 2 91 27q23 22 30 58t7 95z"/>
    <glyph glyph-name="Euro" unicode="€" horiz-adv-x="1212" d="M1082 140q15 -36 24 -60q6 -15 -0.5 -30t-21.5 -21l-30 -12q-98 -39 -237 -39q-220 0 -357 107q-168 131 -205 417h-108q-16 0 -27 11.5t-11 27.5v39q0 16 11 27.5t27 11.5h98v117h-98q-16 0 -27 11.5t-11 27.5v39q0 16 11 27q12 12 28 12h109q40 274 203 402 q138 108 357 108q140 0 238 -40l30 -12q15 -6 21 -20.5t0 -29.5l-12 -30l-12 -30q-6 -15 -21 -21.5t-30 -0.5l-30 12q-72 29 -184 29q-172 0 -269 -77q-119 -92 -149 -290h400q16 0 27.5 -11.5t11.5 -27.5v-39q0 -17 -11 -28t-28 -11h-410q-1 -22 -1 -63v-3q0 -8 0.5 -25 t0.5 -26h410q16 0 28 -12q11 -11 11 -27v-39q0 -17 -11 -28t-28 -11h-402q28 -208 151 -304q99 -78 269 -78q111 0 184 29l30 12q15 6 30 0t21 -21z"/>
    <glyph glyph-name="uni2e41" unicode="⹁" horiz-adv-x="262" d="M164 182q16 0 27.5 -11.5t11.5 -27.5v-104q0 -16 -11.5 -27t-27.5 -11h-39q2 -38 47 -98q11 -18 -2 -34q-7 -12 -28 -12q-17 0 -27 15q-56 82 -56 141v130q0 16 11.5 27.5t27.5 11.5h66z"/>
    <glyph glyph-name="uni2e42" unicode="⹂" horiz-adv-x="530" d="M164 182q16 0 27.5 -11.5t11.5 -27.5v-103q0 -16 -11.5 -27.5t-27.5 -11.5h-39q2 -37 47 -97q12 -18 -2 -35q-7 -12 -28 -12q-17 0 -27 15q-56 82 -56 141v130q0 16 11.5 27.5t27.5 11.5h66zM431 182q16 0 27 -11.5t11 -27.5v-103q0 -16 -11.5 -27.5t-27.5 -11.5h-39 q2 -37 47 -97q12 -19 -1 -35q-8 -12 -29 -12q-16 0 -26 15q-56 82 -56 141v130q0 16 11.5 27.5t27.5 11.5h66z"/>
    </font>
</defs>
</svg>
