<?xml version="1.0" encoding="UTF-8"?>
<svg xmlns="http://www.w3.org/2000/svg" xmlns:xlink="http://www.w3.org/1999/xlink" version="1.1">
<metadata>
Created by FontForge 20170731 at Thu Jan 14 13:05:20 2021
 By Aleksey,,,
Simvoni @2020 all right reserved
</metadata>
<defs>
<font id="SimvoniBoldItalic" horiz-adv-x="1034">
  <font-face font-family="Simvoni" font-weight="700" font-style="italic" font-stretch="normal" units-per-em="2048" panose-1="0 0 0 0 0 0 0 0 0 0" ascent="1638" descent="-410" x-height="948" cap-height="1275" bbox="-159.455 -325 2164.24 1677" underline-thickness="102" underline-position="-307" unicode-range="U+000A-2E42"/>
<missing-glyph horiz-adv-x="1079" d="M102 1434h875v-1434h-875v1434zM160 1393l379 -633l381 633h-760zM514 717l-369 614v-1231zM541 674l-379 -631h758zM565 717l371 -621v1239z"/>
    <glyph glyph-name=".notdef" horiz-adv-x="1079" d="M102 1434h875v-1434h-875v1434zM160 1393l379 -633l381 633h-760zM514 717l-369 614v-1231zM541 674l-379 -631h758zM565 717l371 -621v1239z"/>
    <glyph glyph-name=".null" horiz-adv-x="0"/>
    <glyph glyph-name=".null" horiz-adv-x="0"/>
    <glyph glyph-name="nonmarkingreturn" horiz-adv-x="682"/>
    <glyph glyph-name="controlLF" unicode="&#xA;" horiz-adv-x="0"/>
    <glyph glyph-name="controlCR" unicode="&#xD;" horiz-adv-x="0"/>
    <glyph glyph-name="space" unicode=" " horiz-adv-x="595"/>
    <glyph glyph-name="exclam" unicode="!" horiz-adv-x="546" d="M283 237q14 0 22 -10q9 -11 6 -24l-30 -168q-3 -15 -14 -24q-13 -10 -26 -10h-159q-14 0 -22 10q-9 11 -6 24q4 23 15 84.5t15 83.5q3 15 14 24q13 10 26 10h159zM462 1275q14 0 22 -10t6 -24q-3 -17 -15.5 -89t-15.5 -89q-1 -3 -2.5 -9.5t-1.5 -9.5q-25 -116 -132 -627 q-3 -14 -15 -23.5t-25 -9.5h-111q-14 0 -22 10t-6 23q11 74 50 349.5t39 277.5q1 3 2 9.5t1 9.5l31 178q2 14 14 24t26 10h155z"/>
    <glyph glyph-name="quotedbl" unicode="&#34;" horiz-adv-x="765" d="M409 1305q14 0 22 -10q9 -11 6 -24q-14 -70 -24 -124q-11 -61 -54 -108q-22 -25 -83 -94q-13 -15 -29 -15q-18 -2 -26 12q-10 14 -14 21q-15 22 9 45q42 38 60 61h-67q-15 0 -23 10t-5 24q4 22 14.5 84t14.5 84q3 14 15 24q13 10 25 10h159zM777 1295q8 -10 5 -24 q-14 -70 -24 -124q-11 -61 -54 -108q-22 -25 -83 -94q-13 -15 -29 -15q-17 -2 -25 12q-2 2 -5 6.5t-5.5 8t-4.5 6.5q-15 22 9 45q45 41 61 61h-68q-14 0 -22 10q-9 11 -6 24q4 22 15 83.5t15 84.5q3 15 14 24q13 10 26 10h158q15 0 23 -10z"/>
    <glyph glyph-name="numbersign" unicode="#" horiz-adv-x="1208" d="M1121 947q9 -11 6 -24q-4 -21 -14 -78.5t-14 -79.5q-4 -17 -14 -25q-13 -10 -26 -10h-127l-49 -165h110q14 0 22 -10t6 -24q-4 -21 -14 -78.5t-14 -79.5q-3 -14 -15 -24q-13 -10 -25 -10h-138q-67 -226 -92 -309q-4 -13 -15 -21.5t-24 -8.5h-160q-15 0 -24 12 q-8 11 -3 26l90 301h-161q-67 -226 -92 -309q-4 -13 -15 -21.5t-24 -8.5h-160q-15 0 -24 12q-8 11 -3 26l90 301h-79q-14 0 -22 10q-9 11 -6 24q4 21 14 79.5t14 79.5q2 14 14 24t26 10h107l49 165h-90q-14 0 -22 10t-6 24q4 22 14 79.5t14 78.5q2 14 14 24t26 10h118 q62 209 86 288q4 13 15 21.5t24 8.5h160q14 0 23 -12q8 -12 4 -26l-84 -280h161q62 209 86 288q4 13 15 21.5t24 8.5h160q14 0 23 -12q8 -12 4 -26l-84 -280h99q14 0 22 -10zM655 565l49 165h-160l-50 -165h161z"/>
    <glyph glyph-name="percent" unicode="%" horiz-adv-x="1671" d="M403 601h-5q-124 3 -185 72q-74 85 -42 261q1 2 2 7t1 7t1 6.5t1 6.5q32 178 134 261q86 69 210 72h5q125 -3 186 -72q73 -82 41 -261q0 -2 -1 -6.5t-1 -6.5t-1 -7t-1 -7q-32 -178 -134 -261q-86 -69 -211 -72zM391 869q0 -23 7 -31q9 -10 43 -10t46 10q7 6 17 31 q11 31 17 65q1 3 1 10l2 7v5t1 5q7 42 7 65q0 26 -6 32q-9 10 -43 10q-35 0 -47 -10q-7 -5 -17 -32q-9 -26 -16 -65q-2 -6 -2 -10l-1 -7q0 -2 -1 -5t-1 -5q-7 -42 -7 -65zM1459 602q74 -82 41 -262q0 -2 -1 -6.5t-1 -6.5t-1 -7t-1 -7q-32 -178 -134 -261q-86 -69 -211 -72 h-5q-124 3 -185 72q-74 83 -42 261q1 2 2 7t1 7t1 6.5t1 6.5q33 180 134 262q86 69 211 72h4q125 -3 186 -72zM1274 340q6 36 6 65q0 26 -6 32q-9 10 -43 10t-46 -10q-8 -6 -18 -32q-9 -26 -16 -65q-2 -6 -2 -10l-1 -7q0 -1 -1 -4t-1 -5q-7 -42 -7 -65q0 -25 7 -32 q9 -10 43 -10t46 10q8 6 18 32q9 26 16 65q1 3 1 9l2 7q0 2 1 5t1 5zM1385 1259q7 -17 -4 -34q-77 -113 -427 -627.5t-393 -578.5q-13 -19 -33 -19h-178q-20 0 -26 16q-7 16 4 33q72 106 422.5 622t397.5 585q13 19 33 19h178q20 0 26 -16z"/>
    <glyph glyph-name="ampersand" unicode="&amp;" horiz-adv-x="1312" d="M1093 207q14 0 22 -10t6 -24q-4 -22 -14 -79.5t-14 -79.5q-3 -15 -14 -24q-13 -10 -26 -10h-25q-137 0 -220 97q-162 -97 -364 -97q-189 0 -291.5 97.5t-71.5 273.5q41 234 292 399q-31 55 -40 75q-36 83 -23 158v1q22 129 129.5 219.5t236.5 90.5t203.5 -90.5 t52.5 -219.5q-21 -120 -139 -231q-40 -38 -93 -74q60 -99 158 -243q10 25 17 62l7 37q3 15 14 24q13 10 26 10h159q14 0 22 -10q9 -11 6 -24l-7 -37q-24 -137 -111 -254q27 -37 78 -37h24zM636 1068q-35 0 -64 -25t-35 -59q-3 -17 21 -62q7 -14 36 -63q29 19 56 45 q49 45 55 80t-14.5 59.5t-54.5 24.5zM484 207q116 0 202 42q-121 175 -208 320q-150 -95 -171 -218q-13 -74 38 -109t139 -35z"/>
    <glyph glyph-name="quotesingle" unicode="'" horiz-adv-x="475" d="M458 1295q9 -11 6 -24q-14 -70 -24 -124q-13 -63 -54 -108q-15 -18 -47 -53t-37 -41q-13 -15 -29 -15q-17 0 -25 12q-10 14 -14 21q-15 22 9 45q42 38 60 61h-68q-14 0 -22 10q-9 11 -6 24q4 22 15 83.5t15 84.5q3 15 14 24q13 10 26 10h159q14 0 22 -10z"/>
    <glyph glyph-name="parenleft" unicode="(" horiz-adv-x="688" d="M694 1288q7 -17 -6 -34l-35 -47q-10 -13 -26 -36.5t-60.5 -100t-81.5 -155t-77 -193.5t-59 -225t-20.5 -223.5t10 -197t25.5 -151.5t26 -103l13 -35l18 -46q6 -17 -7 -34q-14 -17 -32 -17h-181q-20 0 -27 19q-17 53 -31.5 117t-30.5 170.5t-14.5 238.5t24.5 262 q23 131 68 264t99 238.5t91.5 170.5t72.5 116q14 19 34 19h181q19 0 26 -17z"/>
    <glyph glyph-name="parenright" unicode=")" horiz-adv-x="686" d="M463 1286q17 -51 31.5 -115.5t31 -171t15 -239t-24.5 -263.5q-23 -130 -68 -262.5t-98 -238t-91 -171t-73 -116.5q-14 -19 -33 -19h-181q-20 0 -27 17q-6 17 6 34l34 46q10 13 26 36.5t60.5 100t81.5 155t77 193.5t59 225t20.5 223.5t-10 197t-25.5 151.5t-26 103l-13 35 q-9 23 -18 47q-7 18 6 34q14 17 32 17h181q20 0 27 -19z"/>
    <glyph glyph-name="asterisk" unicode="*" horiz-adv-x="1040" d="M989 1028q5 -12 -1 -25.5t-19 -20.5q-60 -31 -74 -39q-34 -17 -44 -21l-74 -32l63 -33q5 -3 11 -6.5t13.5 -8t11.5 -6.5q3 -2 26 -17t34 -22t12 -20.5t-8 -25.5q-14 -18 -51.5 -69t-51.5 -69q-9 -12 -23.5 -15.5t-25.5 3.5t-34 22t-26 17q-5 3 -34 24l-55 43l-8 -76 q-1 -5 -2 -14t-2 -16.5t-2 -14.5l-14 -78q-2 -14 -14 -24t-26 -10h-158q-14 0 -22 10t-6 24l13 78q6 30 10 45l19 76l-70 -43q-21 -14 -42 -24q-14 -8 -74 -39q-13 -7 -26 -3.5t-18 15.5q-7 18 -28 69t-28 69q-5 12 1 25.5t20 20.5q60 31 74 39q34 17 44 21l74 33l-63 32 l-36 21q-3 2 -26 17t-34 22t-12.5 20.5t7.5 25.5q14 18 52 69t52 69q9 12 23.5 15.5t25.5 -3.5q53 -34 60 -38q12 -8 34 -24l55 -44l7 76q1 5 2 14t2 16.5t2 14.5l14 78q2 14 14 24t26 10h159q14 0 22 -10t6 -24l-14 -78q-1 -5 -2.5 -14t-3 -16.5t-3.5 -14.5l-20 -76l71 44 q21 14 42 24q11 6 38.5 20t35.5 18q13 7 26 3.5t18 -15.5q7 -19 27.5 -69.5t27.5 -68.5z"/>
    <glyph glyph-name="plus" unicode="+" horiz-adv-x="1187" d="M1088 713q9 -11 6 -24q-4 -22 -14 -79t-14 -79q-4 -16 -14 -25q-13 -10 -26 -10h-344l-60 -343q-3 -14 -15 -24q-13 -10 -25 -10h-159q-14 0 -22 10q-9 11 -6 24l60 343h-343q-15 0 -23 10t-5 25q4 22 14 79t14 79q3 15 14 24q13 10 26 10h344l60 344q3 15 14 24 q13 10 26 10h159q14 0 22 -10q9 -11 6 -24l-61 -344h344q14 0 22 -10z"/>
    <glyph glyph-name="comma" unicode="," horiz-adv-x="370" d="M217 227q9 -11 6 -24q-14 -70 -24 -124q-13 -60 -55 -107q-56 -65 -83 -95q-12 -14 -29 -14t-25 12q-13 18 -14 20q-16 23 8 45q48 44 61 61h-68q-14 0 -22 10q-9 11 -6 24q4 23 15 84.5t15 83.5q3 15 14 24q13 10 26 10h159q14 0 22 -10z"/>
    <glyph glyph-name="hyphen" unicode="-" horiz-adv-x="737" d="M642 647q9 -11 6 -24l-28 -159q-3 -14 -15 -24q-13 -10 -26 -10h-493q-14 0 -22 10q-9 11 -6 24l28 159q4 16 14 24q13 10 26 10h494q14 0 22 -10z"/>
    <glyph glyph-name="period" unicode="." horiz-adv-x="370" d="M217 227q9 -11 6 -24l-30 -168q-3 -15 -14 -24q-13 -10 -26 -10h-159q-14 0 -22 10q-9 11 -6 24q4 23 15 84.5t15 83.5q4 16 14 24q13 10 26 10h159q14 0 22 -10z"/>
    <glyph glyph-name="slash" unicode="/" horiz-adv-x="1007" d="M1022 1259q7 -17 -3 -33q-68 -104 -431 -664.5t-413 -637.5q-13 -20 -34 -20h-176q-20 0 -26 16q-7 16 4 33q68 104 431 664.5t413 637.5q13 20 34 20h176q19 0 25 -16z"/>
    <glyph glyph-name="zero" unicode="0" horiz-adv-x="1165" d="M937 1216q161 -138 88 -548q-2 -11 -6 -31q-1 -5 -2.5 -15.5t-2.5 -15.5q-73 -411 -280 -547q-113 -75 -264 -79h-6q-150 4 -236 79q-160 137 -87 547q1 5 2.5 15.5t2.5 15.5t2.5 15.5t2.5 15.5q73 412 281 548q111 74 263 78h7q150 -4 235 -78zM798 668q24 132 21 221 q-3 94 -39 135q-35 41 -122 44q-87 -3 -136 -44q-50 -41 -87 -135q-31 -79 -57 -221q-2 -10 -4 -28l-1 -5q-2 -9 -6 -29q-24 -132 -21 -220q3 -93 40 -135q35 -41 121 -44q87 3 136 44q50 41 87 135q32 80 57 220q2 9 4 29l1 5q4 18 6 28z"/>
    <glyph glyph-name="one" unicode="1" horiz-adv-x="999" d="M799 226q14 0 22.5 -10t6.5 -24q-4 -22 -14 -80t-14 -79q-3 -15 -15 -24q-13 -10 -25 -10h-689q-15 0 -23 10t-5 24q4 21 14 79.5t14 79.5q2 14 14 24t26 10h231l138 784q-121 -63 -181 -94q-14 -6 -26 -3q-13 3 -18 16q-7 19 -27.5 69.5t-27.5 68.5q-4 12 2 26t19 20 q161 83 303 157q10 5 17 5h178q15 0 23 -10q9 -11 6 -24l-179 -1015h230z"/>
    <glyph glyph-name="two" unicode="2" horiz-adv-x="1204" d="M400 306q-57 -43 -88 -79h639q14 0 22 -10t6 -24q-4 -21 -14 -79t-14 -80q-4 -16 -14 -24q-13 -10 -26 -10h-868q-14 0 -22 10q-9 11 -6 24q8 43 14 79q30 174 196 319q96 83 293 194q11 6 43.5 24.5t46 26.5l40.5 24t43.5 27t37 25t37.5 28q84 68 95 129q11 64 -28 111 t-115 47q-49 0 -101 -17.5t-96 -46.5t-73.5 -52.5t-54.5 -48.5q-11 -11 -24.5 -12.5t-23.5 6.5q-14 12 -54 45.5t-56 47.5q-12 10 -10 24q2 15 13 26q39 37 84 71.5t116.5 81t155.5 74.5t164 28q120 0 202.5 -56.5t113.5 -143t14 -185.5q-21 -119 -116 -218t-251 -191 q-26 -15 -101.5 -57.5t-126 -74t-93.5 -63.5z"/>
    <glyph glyph-name="three" unicode="3" horiz-adv-x="1196" d="M738 1294q117 0 206.5 -51.5t130 -137t23.5 -185.5q-10 -56 -38 -104t-61 -76t-64.5 -48.5t-52.5 -27.5l-21 -8q7 -3 19 -8.5t41 -28t49 -51t31.5 -80t0.5 -111.5q-29 -163 -174 -280t-322 -117q-81 0 -153 20t-119 47.5t-86.5 65t-59.5 65t-35 55.5q-6 13 0 27t20 22 q21 11 77.5 39.5t76.5 39.5q12 6 24 3.5t18 -12.5q14 -23 33 -43.5t52 -46t83 -40.5t109 -15q82 0 149.5 49t80.5 121q14 80 -55 128q-58 41 -133 41h-91q-14 0 -22.5 10t-6.5 24q4 22 14 79t14 79q2 14 14 24t26 10h89q90 0 173 52q63 40 73 96q11 64 -40.5 106t-132.5 42 q-77 0 -150 -26t-110.5 -51.5t-67.5 -54.5q-22 -22 -44 -7q-19 13 -67.5 45.5t-55.5 37.5q-11 8 -11 23q0 14 11 27q25 26 54 51t81 60t108 60t133.5 43t158.5 18z"/>
    <glyph glyph-name="four" unicode="4" horiz-adv-x="1226" d="M1040 476q14 0 22 -10q9 -11 6 -24q-4 -22 -14 -79t-14 -79q-4 -16 -14 -24q-13 -10 -26 -10h-97q-26 -148 -38 -216q-3 -15 -14 -24q-13 -10 -26 -10h-159q-14 0 -22 10q-9 11 -6 24l38 216h-604q-14 0 -22 10q-9 11 -6 24q14 82 24 134q1 10 10 20q37 41 365 406 t375 417q12 14 30 14h202q14 0 22 -10q9 -11 6 -24l-135 -765h97zM716 476l79 448l-403 -448h324z"/>
    <glyph glyph-name="five" unicode="5" horiz-adv-x="1214" d="M1153 1265q9 -11 6 -24q-4 -21 -14 -79.5t-14 -79.5q-4 -16 -14 -24q-13 -10 -26 -10h-539l-51 -138q104 9 192 -2q221 -28 307 -178q70 -121 37 -309q-14 -78 -63 -157t-118.5 -142t-159 -102.5t-177.5 -39.5q-94 0 -176.5 26.5t-139.5 68.5t-90 76t-57 68q-8 11 -3 26 q5 16 18 23q77 50 145 93q12 8 25 6.5t20 -11.5q17 -23 39 -44t59 -47t89 -42t111 -16q86 0 161.5 67.5t89.5 146.5q19 111 -16 172q-42 72 -169 89q-128 16 -281 -19q-9 -3 -17 0q-13 4 -105 29q-28 9 -18 39q17 47 95 256t96 260q11 28 38 28h698q14 0 22 -10z"/>
    <glyph glyph-name="six" unicode="6" horiz-adv-x="1146" d="M623 849q6 1 15.5 2t40.5 3t57.5 -1.5t66.5 -11t67.5 -26t60.5 -47t45.5 -72.5t21.5 -103.5t-10 -139.5q-1 -4 -2.5 -10.5t-1.5 -9.5q-2 -12 -3 -19q-34 -198 -145 -304q-131 -126 -366 -130h-4q-233 4 -320 130q-66 97 -43 269h-1q55 522 315 756q51 46 109 79t106.5 48 t97.5 24.5t82.5 7.5t60.5 -2q15 -2 21 -14q7 -14 1 -27q-9 -24 -31 -81.5t-29 -74.5q-5 -12 -16 -20t-24 -7q-134 6 -240 -89q-39 -34 -94.5 -107t-67.5 -129q34 38 108.5 71.5t121.5 34.5zM761 453q10 45 10 88t-18 68q-32 48 -165 51q-134 -3 -183 -51q-27 -25 -40 -62 t-23 -94l-3 -15h-3l-1 -9h3l-3 -15q-10 -45 -10 -88t18 -68q32 -48 165 -51q134 3 183 51q27 25 40 62t23 94l3 15l1 9z"/>
    <glyph glyph-name="seven" unicode="7" horiz-adv-x="1081" d="M1075 1265q9 -11 6 -24q-4 -23 -14 -77.5t-12 -65.5q-3 -10 -4 -13q-188 -319 -619 -1064q-11 -21 -35 -21h-172q-17 0 -25 15q-8 14 2 32l582 1001h-584q-14 0 -22 10t-6 24q4 22 14 80t14 79q3 15 14 24q13 10 26 10h813q14 0 22 -10z"/>
    <glyph glyph-name="eight" unicode="8" horiz-adv-x="1169" d="M989 1194q74 -90 45 -253q0 -3 -1 -7t-2 -7t-1 -8t-1 -7q-9 -49 -32 -90t-49.5 -64.5t-51.5 -40.5t-42 -23l-17 -6q2 -1 6 -2.5t17.5 -7.5t24.5 -13.5t27.5 -21t28 -29t25 -38t18 -48t8 -58.5t-5.5 -71q-1 -3 -2.5 -8.5t-1.5 -7.5q-1 -3 -1.5 -8.5t-0.5 -8.5 q-31 -180 -148 -277q-127 -105 -361 -109h-3q-232 4 -322 109q-81 95 -50 277q2 12 3 17q2 10 3 16q11 65 41 118.5t65 83.5t67.5 51t54.5 28l22 8q-3 1 -8 3.5t-20 10.5t-26.5 19t-27 29.5t-22.5 41t-12.5 53.5t3.5 67l3 15q0 3 1 7.5t1 6.5q29 164 134 253q114 97 322 100 h3q206 -3 286 -100zM759 400q15 85 -10 114q-37 42 -173 45h-4q-140 -2 -193 -45q-37 -30 -51 -114q-1 -4 -1 -12l-2 -10q-1 -2 -1 -5.5t-1 -5.5q-15 -86 10 -115q37 -43 177 -45q140 2 193 45q22 18 32.5 45t17.5 70q2 8 2 11l2 10q1 2 1 6t1 6zM807 941q13 69 -6 92 q-28 33 -136 35h-4q-114 -2 -152 -35q-12 -10 -20 -27t-10.5 -27.5t-7.5 -37.5q-1 -3 -1 -9l-2 -10q0 -2 -1 -5t-1 -5q-13 -69 6 -92q16 -19 48.5 -26t91.5 -8h3q110 2 149 34q12 10 20 27t10.5 27.5t7.5 37.5q1 3 1 10l2 10q1 1 1 4t1 5z"/>
    <glyph glyph-name="nine" unicode="9" horiz-adv-x="1148" d="M1003 1165q66 -97 43 -269q-55 -522 -315 -756q-51 -46 -109 -79t-106.5 -48t-97 -24.5t-82 -7.5t-60.5 2q-16 2 -22 14q-7 13 -1 26q9 23 31 81t29 76q5 12 16 20t24 7q135 -6 240 88q38 34 94 107.5t68 129.5q-35 -38 -109 -72t-121 -35q-6 -1 -15.5 -2t-40.5 -3 t-57.5 1.5t-66.5 11.5t-67.5 26.5t-60.5 47t-45.5 72.5t-21.5 103.5t10 139.5l2.5 10t1.5 9q1 6 3 20q34 198 145 304q130 125 366 129h4q235 -4 321 -129zM814 861q20 115 -9 156q-32 48 -165 51q-133 -3 -182 -51q-44 -42 -64 -156q0 -3 -1 -8t-1 -7l-2 -9l-3 -15 q-20 -115 9 -156q32 -48 164 -51q134 3 183 51q44 42 64 156q1 2 1 7t1 8h3l1 9h-2z"/>
    <glyph glyph-name="colon" unicode=":" horiz-adv-x="479" d="M248 236q14 0 22 -10q9 -11 6 -24l-30 -168q-4 -16 -14 -24q-13 -10 -26 -10h-159q-14 0 -22 10t-5 24q4 22 14.5 83.5t14.5 84.5q3 15 14 24q13 10 26 10h159zM413 1035q9 -11 6 -24l-30 -168q-4 -16 -14 -24q-13 -10 -26 -10h-159q-14 0 -22 10q-9 11 -6 24q4 23 15 84 t15 84q3 15 14 24q13 10 26 10h159q14 0 22 -10z"/>
    <glyph glyph-name="semicolon" unicode=";" horiz-adv-x="477" d="M248 237q14 0 22 -10q9 -11 6 -24q-14 -70 -24 -124q-13 -62 -54 -107q-17 -20 -84 -95q-12 -14 -29 -14t-25 12q-13 18 -14 20q-15 22 9 45q42 38 60 61h-68q-14 0 -22 10t-5 24q4 22 14.5 83.5t14.5 84.5q3 15 14 24q13 10 26 10h159zM413 1035q8 -10 5 -24l-29 -168 q-3 -15 -14 -24q-13 -10 -26 -10h-159q-14 0 -22 10q-9 11 -6 24q4 23 15 84t15 84q3 15 14 24q13 10 26 10h158q15 0 23 -10z"/>
    <glyph glyph-name="less" unicode="&lt;" horiz-adv-x="897" d="M815 1013q15 -10 12 -29q-23 -132 -32 -180q-3 -20 -23 -30l-382 -185q249 -146 316 -185q16 -10 13 -30q-4 -21 -15.5 -89t-15.5 -91q-3 -19 -22 -29t-34 -1q-521 305 -538 315q-16 10 -13 30q3 19 13.5 79.5t14.5 79.5q3 20 23 30q33 16 299 145.5t351 170.5 q18 9 33 -1z"/>
    <glyph glyph-name="equal" unicode="=" horiz-adv-x="1128" d="M962 550q14 0 22 -10t6 -24l-28 -158q-2 -14 -14 -24t-26 -10h-824q-14 0 -22 10t-6 24l28 158q2 14 14 24t26 10h824zM1020 884q14 0 22 -10t6 -24l-27 -159q-2 -14 -14.5 -24t-26.5 -10h-823q-14 0 -22 10t-6 24l28 159q2 14 14 24t26 10h823z"/>
    <glyph glyph-name="greater" unicode="&gt;" horiz-adv-x="897" d="M786 699q16 -10 13 -31q-4 -19 -14.5 -79.5t-13.5 -79.5q-3 -20 -23 -30q-12 -6 -287 -139t-363 -176q-19 -9 -34 1q-14 9 -11 29q23 132 32 180q3 20 23 30l382 185q-249 146 -316 185q-16 10 -13 30q4 21 15.5 89t15.5 91q3 19 22 29t34 1q521 -305 538 -315z"/>
    <glyph glyph-name="question" unicode="?" horiz-adv-x="1032" d="M562 237q14 0 22 -10q9 -11 6 -24l-30 -168q-3 -15 -14 -24q-13 -10 -26 -10h-158q-15 0 -23 10t-5 24q4 23 14.5 84.5t14.5 83.5q3 15 15 24q13 10 25 10h159zM669 1294q151 0 239 -109t60 -265q-27 -153 -184 -261q-61 -42 -102 -103.5t-53 -129.5q-1 -9 -4.5 -26.5 t-4.5 -24.5q-2 -14 -14 -24t-26 -10h-159q-14 0 -22 10t-6 24q4 17 9 51q21 121 93.5 229.5t181.5 182.5q57 38 64 82q11 61 -21.5 104.5t-90.5 43.5q-125 0 -197 -60q-35 -29 -54 -69q-5 -11 -16 -18.5t-23 -6.5q-22 2 -82.5 5.5t-77.5 4.5q-17 2 -23 14q-7 12 -1 27 q45 121 146 205q147 124 368 124z"/>
    <glyph glyph-name="at" unicode="@" horiz-adv-x="1935" d="M1700 1069q140 -200 73 -577q-53 -303 -255 -436q-57 -38 -122 -57t-118.5 -17t-102.5 14q-50 14 -85 42.5t-49 60.5q-1 1 -1 2.5t-1 2.5q-145 -124 -302 -124q-115 0 -189.5 68t-91.5 181t21 261q59 209 206 349.5t313 140.5q139 0 219 -96l9 35q4 14 16 23.5t26 7.5 q21 -2 78 -7t78 -7q14 -2 21.5 -12.5t3.5 -24.5l-21 -79l-159 -601q20 -8 44 -10q76 -3 142.5 66t92.5 217q51 291 -43 427q-33 47 -81.5 78t-111.5 45.5t-121 19.5t-136 5q-149 0 -301 -77.5t-266 -213t-151 -291.5q-63 -267 38 -404q121 -165 477 -165h79q14 0 22 -10 t6 -24l-28 -159q-2 -14 -14 -24t-26 -10h-79q-132 0 -244.5 21t-217.5 76.5t-169 141.5q-154 208 -68 571q51 214 206.5 398.5t363.5 290.5t412 106q209 0 364.5 -50t242.5 -175zM1103 490q18 72 13 130t-38.5 95.5t-87.5 37.5q-90 0 -174.5 -85t-117.5 -202 q-18 -72 -13 -130.5t38.5 -96t87.5 -37.5q90 0 174.5 85.5t117.5 202.5z"/>
    <glyph glyph-name="A" unicode="A" horiz-adv-x="1288" d="M884 1253q89 -438 247 -1207q3 -17 -9 -31q-13 -15 -31 -15h-170q-22 0 -27 22l-58 283h-497q-118 -213 -157 -283q-12 -22 -36 -22h-170q-18 0 -26 15q-8 14 2 31q59 106 346 620t327 587q12 22 35 22h196q23 0 28 -22zM466 532h323l-87 424z"/>
    <glyph glyph-name="B" unicode="B" horiz-adv-x="1179" d="M762 1275q144 0 227.5 -101.5t58.5 -245.5q-10 -55 -37.5 -97t-59.5 -63t-62.5 -34t-50.5 -16l-21 -2q11 -2 28 -7t60 -28.5t73 -54.5t49 -90t6 -132q-29 -167 -168.5 -285.5t-306.5 -118.5h-469q-14 0 -22.5 10t-6.5 24q16 91 106.5 603.5t106.5 603.5q2 14 14 24t26 10 h449zM806 404q13 73 -29.5 124.5t-116.5 51.5h-276l-63 -353h277q74 0 134.5 52t73.5 125zM821 928q9 49 -20 84.5t-79 35.5h-256l-42 -241h256q50 0 91 35.5t50 85.5z"/>
    <glyph glyph-name="C" unicode="C" horiz-adv-x="1189" d="M1172 1048q4 -12 -4 -27q-7 -12 -22 -19q-25 -10 -86.5 -33t-72.5 -27q-13 -5 -24.5 -0.5t-15.5 15.5q-21 59 -71 85t-138 26q-127 0 -209 -57q-38 -26 -68.5 -65t-48 -74t-32.5 -84.5t-21 -78t-14 -72.5q-10 -58 -14 -94.5t-4.5 -95t17 -105t53.5 -78.5q63 -57 189 -57 q88 0 147.5 26t101.5 84q19 26 45 16q8 -4 62 -27.5t76 -32.5q12 -6 15 -19t-6 -27q-77 -119 -188 -180q-123 -67 -293 -67q-207 0 -321 106q-54 49 -84.5 119.5t-36.5 149t-2.5 145.5t16.5 137q70 391 302 552q151 106 358 106q169 0 269 -68q90 -61 125 -179z"/>
    <glyph glyph-name="D" unicode="D" horiz-adv-x="1331" d="M754 1275q157 0 276.5 -77.5t174 -211t26.5 -290.5l-21 -117q-28 -157 -129 -290.5t-248 -211t-304 -77.5h-440q-14 0 -22 10t-6 24q16 91 106 603.5t106 603.5q2 14 14 24t26 10h441zM1004 696q26 146 -59.5 249t-230.5 103h-248l-145 -821h248q146 0 267.5 103 t146.5 248z"/>
    <glyph glyph-name="E" unicode="E" horiz-adv-x="1046" d="M981 1275q14 0 22 -10t6 -24q-4 -21 -14 -79.5t-14 -79.5q-2 -14 -14 -24t-26 -10h-475l-50 -285h380q14 0 22 -10q9 -11 6 -24q-4 -22 -14 -80t-14 -79q-3 -15 -14 -24q-13 -10 -26 -10h-380l-55 -309h522q14 0 22 -10q9 -11 6 -24q-4 -21 -14 -79t-14 -80 q-2 -14 -14 -24t-26 -10h-714q-14 0 -22 10t-6 24q16 91 106 603.5t106 603.5q2 14 14 24t26 10h668z"/>
    <glyph glyph-name="F" unicode="F" horiz-adv-x="978" d="M981 1275q14 0 21.5 -10t5.5 -24q-4 -21 -13.5 -79.5t-13.5 -79.5q-2 -14 -14.5 -24t-26.5 -10h-474l-53 -304h380q15 0 22 -9q9 -11 6 -25q-4 -22 -14 -79.5t-14 -78.5q-3 -15 -14 -24q-13 -10 -26 -10h-380l-86 -484q-2 -14 -14 -24t-26 -10h-158q-14 0 -22 10t-6 24 q16 91 106 603.5t106 603.5q2 14 14 24t26 10h668z"/>
    <glyph glyph-name="G" unicode="G" horiz-adv-x="1282" d="M1204 1049q5 -13 -3 -27q-7 -12 -22 -19q-99 -39 -159 -62q-13 -5 -24 -0.5t-16 15.5q-23 59 -76.5 85t-147.5 26q-135 0 -223 -58q-33 -22 -60 -51t-46 -63.5t-32.5 -64.5t-24 -70.5t-15.5 -63.5t-11 -59q-10 -55 -14 -93t-3.5 -95.5t19.5 -104.5t56 -79q67 -58 202 -58 q94 0 157 26.5t107 85.5q5 7 7 16l21 118h-302q-14 0 -22 10t-6 24q4 21 14 79.5t14 79.5q3 15 14 24q13 10 26 10h426q42 0 67 -30q26 -31 18 -72l-52 -291q-19 -109 -114 -180q-171 -127 -415 -127q-212 0 -331 104q-56 49 -89 120t-40 150t-3.5 146t16.5 137l1 4 q13 70 33 136.5t55 145t92 148.5t130 119q156 105 367 105q176 0 273 -60t136 -186z"/>
    <glyph glyph-name="H" unicode="H" horiz-adv-x="1351" d="M1262 1275q14 0 22 -10t6 -24q-16 -90 -106.5 -603t-106.5 -604q-2 -14 -14 -24t-26 -10h-158q-15 0 -23 10t-5 24l86 490h-563l-87 -490q-4 -16 -14 -24q-13 -10 -26 -10h-158q-14 0 -22.5 10t-6.5 24q16 91 106.5 603.5t106.5 603.5q2 14 14 24t26 10h159q14 0 22 -10 q9 -11 6 -24l-86 -490h563l86 490q3 14 15 24q13 10 25 10h159z"/>
    <glyph glyph-name="I" unicode="I" horiz-adv-x="561" d="M494 1265q9 -11 6 -24q-11 -58 -106.5 -603.5t-106.5 -603.5q-4 -16 -14 -24q-13 -10 -26 -10h-158q-14 0 -22.5 10t-6.5 24q16 91 106.5 603.5t106.5 603.5q2 14 14 24t26 10h159q14 0 22 -10z"/>
    <glyph glyph-name="J" unicode="J" horiz-adv-x="890" d="M830 1265q8 -9 6 -24l-176 -995q-19 -110 -115.5 -188t-236.5 -78q-130 0 -207.5 49.5t-126.5 158.5q-6 11 1 26q6 14 19 21q10 5 154 79q28 15 42 -9q54 -98 158 -98q78 0 85 39l176 995q3 15 14 24q13 10 26 10h158q15 0 23 -10z"/>
    <glyph glyph-name="K" unicode="K" horiz-adv-x="1142" d="M1117 1255q5 -20 -11 -36l-506 -500q285 -497 381 -665q10 -16 -3 -35t-34 -19h-198q-17 0 -25 14l-302 526l-51 -50l-81 -456q-3 -15 -14 -24q-13 -10 -26 -10h-158q-14 0 -22 10t-6 24q16 91 106 603.5t106 603.5q2 14 14 24t26 10h159q14 0 22 -10t6 -24l-70 -397 q353 349 424 419q12 12 28 12h207q21 0 28 -20z"/>
    <glyph glyph-name="L" unicode="L" horiz-adv-x="937" d="M780 227q14 0 22 -10t6 -24q-4 -21 -14 -79t-14 -80q-4 -16 -14 -24q-13 -10 -26 -10h-651q-14 0 -22.5 10t-6.5 24q16 91 106.5 603.5t106.5 603.5q2 14 14 24t26 10h159q14 0 22 -10t6 -24l-179 -1014h459z"/>
    <glyph glyph-name="M" unicode="M" horiz-adv-x="1462" d="M1374 1275q14 0 22 -10t6 -24q-16 -90 -106.5 -603t-106.5 -604q-2 -14 -14 -24t-26 -10h-158q-15 0 -23 10t-5 24l102 580q-255 -480 -314 -591q-11 -23 -36 -23h-192q-23 0 -28 23l-105 591l-103 -580q-3 -15 -14 -24q-13 -10 -26 -10h-158q-14 0 -22.5 10t-6.5 24 q16 91 106.5 603.5t106.5 603.5q2 14 14 24t26 10h176q25 0 28 -23l162 -912q407 769 483 912q12 23 37 23h175z"/>
    <glyph glyph-name="N" unicode="N" horiz-adv-x="1294" d="M1204 1275q14 0 22.5 -10t6.5 -24q-16 -90 -106.5 -603.5t-106.5 -603.5q-2 -14 -14 -24t-26 -10h-219q-20 0 -27 18l-302 835l-145 -819q-2 -14 -14 -24t-26 -10h-158q-14 0 -22.5 10t-6.5 24q16 91 106.5 603.5t106.5 603.5q2 14 14 24t26 10h212q20 0 27 -18l308 -840 l146 824q2 14 14 24t26 10h158z"/>
    <glyph glyph-name="O" unicode="O" horiz-adv-x="1320" d="M1127 1169q138 -149 76 -501q-2 -11 -6 -31q-1 -8 -5 -31q-62 -353 -252 -501q-152 -119 -393 -125h-5q-238 6 -348 125q-137 148 -75 501q2 11 6 31q1 5 2.5 15.5t2.5 15.5q62 353 252 501q153 120 392 126h5q237 -6 348 -126zM976 668q23 105 18.5 195t-49.5 139 q-57 63 -208 66q-152 -3 -232 -66q-61 -48 -93.5 -128.5t-54.5 -205.5q-4 -18 -5 -27l-1 -7q-1 -4 -2.5 -14t-2.5 -14q-23 -105 -19 -195t49 -138q57 -63 209 -66q152 3 232 66q62 48 94 128t54 205q2 8 4 28l2 7q1 5 2.5 14t2.5 13z"/>
    <glyph glyph-name="P" unicode="P" horiz-adv-x="1112" d="M1003 1158q96 -117 67 -280l-4 -25q-14 -79 -57 -152.5t-109 -128.5q-136 -116 -301 -116h-237l-75 -422q-3 -15 -14 -24q-13 -10 -26 -10h-158q-14 0 -22.5 10t-6.5 24q16 91 106.5 603.5t106.5 603.5q2 14 14 24t26 10h430q78 0 146 -30.5t114 -86.5zM843 878 q12 70 -28 120q-41 50 -112 50h-237l-64 -365h237q71 0 129 50q59 51 71 120z"/>
    <glyph glyph-name="Q" unicode="Q" horiz-adv-x="1325" d="M1128 1169q137 -148 75 -501q-2 -11 -6 -31q-1 -5 -2.5 -15.5t-2.5 -15.5q-62 -353 -252 -501q-3 -2 -8.5 -6t-7.5 -6q54 -45 86 -73q10 -8 9.5 -22.5t-10.5 -25.5q-39 -41 -117 -127q-13 -13 -25 -14q-14 -2 -24 7l-179 152q-50 -8 -117 -10h-4q-239 6 -349 125 q-137 148 -75 501q2 11 6 31q1 8 5 31q62 353 252 501q153 120 392 126h5q238 -6 349 -126zM976 668q23 105 18.5 195t-49.5 139q-57 63 -208 66q-152 -3 -232 -66q-62 -48 -94.5 -129t-54.5 -205q-2 -9 -4 -27l-1 -7q-1 -4 -3 -13.5t-3 -14.5q-23 -105 -18.5 -194.5 t49.5 -138.5q57 -63 209 -66q152 3 232 66q62 48 94 128t54 205q2 8 4 28l2 7q1 5 2.5 14t2.5 13z"/>
    <glyph glyph-name="R" unicode="R" horiz-adv-x="1173" d="M759 1275q164 0 260 -116.5t67 -280.5l-4 -25q-18 -103 -83 -191.5t-158 -142.5q126 -250 103 -483q-2 -15 -13 -25q-13 -11 -27 -11h-160q-13 0 -21.5 9t-6.5 23q18 210 -120 424h-234l-75 -422q-3 -15 -14 -24q-13 -10 -26 -10h-158q-14 0 -22.5 10t-6.5 24 q16 91 106.5 603.5t106.5 603.5q2 14 14 24t26 10h446zM859 878q13 70 -28 120t-112 50h-253l-64 -365h253q70 0 128.5 49.5t71.5 120.5z"/>
    <glyph glyph-name="S" unicode="S" horiz-adv-x="1107" d="M632 1068q-88 0 -160 -45t-84 -114t64 -118q31 -20 71 -37.5t98.5 -38.5t79.5 -29q135 -54 202 -131.5t47 -189.5q-27 -156 -176.5 -270.5t-334.5 -114.5q-91 0 -208 41.5t-195 114.5q-9 9 -7 24q2 16 13 26q18 16 66 58.5t64 57.5q10 10 23.5 10.5t22.5 -7.5 q52 -46 127.5 -72t133.5 -26q88 0 160 44.5t84 113.5q2 14 -3.5 25.5t-13 17.5t-21.5 16t-30 18.5t-40.5 19t-34.5 14t-45.5 17t-39.5 14.5q-168 64 -234 119q-130 109 -100 283q27 157 176.5 271.5t334.5 114.5q92 0 208.5 -40.5t193.5 -112.5q10 -10 8 -24q-2 -16 -13 -26 q-15 -13 -64 -57t-68 -61q-25 -21 -45 -4q-129 98 -260 98z"/>
    <glyph glyph-name="T" unicode="T" horiz-adv-x="1169" d="M1198 1275q14 0 22 -10t6 -24q-4 -21 -14 -79.5t-14 -79.5q-3 -15 -14 -24q-13 -10 -26 -10h-387l-179 -1014q-2 -14 -14 -24t-26 -10h-158q-14 0 -22.5 10t-6.5 24l179 1014h-387q-14 0 -22 10q-9 11 -6 24q4 22 14 80t14 79q2 14 14 24t26 10h1001z"/>
    <glyph glyph-name="U" unicode="U" horiz-adv-x="1325" d="M1276 1265q9 -11 6 -24l-144 -817q-21 -118 -106.5 -220t-215 -163t-270.5 -61q-106 0 -195 36t-146.5 96.5t-83 142t-9.5 169.5q116 658 144 817q3 15 14 24q13 10 26 10h159q14 0 22 -10q9 -11 6 -24l-145 -817q-16 -93 57.5 -155t190.5 -62t213 62t112 155l144 817 q3 15 14 24q13 10 26 10h159q14 0 22 -10z"/>
    <glyph glyph-name="V" unicode="V" horiz-adv-x="1165" d="M1210 1261q8 -14 -1 -31q-418 -831 -608 -1207q-11 -23 -36 -23h-190q-25 0 -28 23q-11 73 -88.5 587t-93.5 620q-3 16 10 31q12 14 30 14h167q25 0 28 -24l134 -887q375 744 447 887q12 24 37 24h167q17 0 25 -14z"/>
    <glyph glyph-name="W" unicode="W" horiz-adv-x="1574" d="M1606 1262q8 -12 1 -29q-283 -679 -501 -1207q-10 -26 -37 -26h-180q-26 0 -28 26l-47 760q-259 -624 -315 -760q-10 -26 -38 -26h-180q-26 0 -28 26q-63 1008 -75 1207q-2 16 11 29t29 13h164q26 0 28 -26l47 -760q259 624 315 760q10 26 38 26h180q26 0 28 -26l47 -760 q258 624 315 760q10 26 38 26h163q17 0 25 -13z"/>
    <glyph glyph-name="X" unicode="X" horiz-adv-x="1165" d="M1200 1257q6 -17 -7 -34l-475 -587q198 -432 268 -584q8 -18 -4 -34q-13 -18 -33 -18h-189q-20 0 -26 16l-187 408q-269 -331 -331 -408q-13 -16 -31 -16h-189q-19 0 -26 18q-6 18 7 34l472 584q-200 434 -270 587q-8 16 5 34t33 18h188q20 0 26 -16l189 -412 q271 335 334 412q13 16 31 16h189q19 0 26 -18z"/>
    <glyph glyph-name="Y" unicode="Y" horiz-adv-x="1056" d="M1116 1259q7 -16 -4 -33l-502 -773l-74 -419q-3 -15 -14 -24q-13 -10 -26 -10h-158q-15 0 -23 10t-5 24l74 419q-177 597 -229 773q-5 18 7 33q13 16 32 16h176q22 0 27 -20l151 -511q270 415 332 511q13 20 34 20h176q20 0 26 -16z"/>
    <glyph glyph-name="Z" unicode="Z" horiz-adv-x="1198" d="M1199 1265q9 -11 6 -24q-5 -28 -17 -96.5t-15 -83.5q-2 -14 -12 -23l-857 -811h688q14 0 22 -10q9 -11 6 -24q-4 -21 -14 -79t-14 -80q-4 -16 -14 -24q-13 -10 -26 -10h-931q-14 0 -22 10q-9 11 -6 24q5 28 17 96.5t15 83.5q4 15 12 22l857 812h-688q-14 0 -22 10 q-9 11 -6 24q4 22 14 80t14 79q3 15 14 24q13 10 26 10h931q14 0 22 -10z"/>
    <glyph glyph-name="bracketleft" unicode="[" horiz-adv-x="704" d="M711 1301q9 -11 6 -24q-4 -22 -14 -80t-14 -79q-3 -15 -14 -24q-13 -10 -26 -10h-175l-206 -1169h175q14 0 22 -10q9 -11 6 -24q-4 -22 -14 -80t-14 -79q-3 -15 -14 -24q-13 -10 -26 -10h-368q-14 0 -22 10t-6 24q19 106 137 778t137 777q2 14 14 24t26 10h368 q14 0 22 -10z"/>
    <glyph glyph-name="backslash" unicode="\" horiz-adv-x="1005" d="M822 -47q5 -17 -8 -33t-31 -16h-176q-20 0 -27 20q-19 64 -99 335.5t-171 580t-114 386.5q-5 17 8 33t31 16h176q22 0 27 -20q19 -64 99 -335.5t171 -580t114 -386.5z"/>
    <glyph glyph-name="bracketright" unicode="]" horiz-adv-x="706" d="M624 1311q14 0 22.5 -10t5.5 -24q-19 -106 -137 -778t-137 -777q-2 -14 -14 -24t-26 -10h-368q-14 0 -22 10q-9 11 -6 24q4 21 14 79.5t14 79.5q3 15 14 24q13 10 26 10h175l206 1169h-175q-14 0 -22 10q-9 11 -6 24q4 21 14 79.5t14 79.5q3 15 14 24q13 10 26 10h368z "/>
    <glyph glyph-name="asciicircum" unicode="^" horiz-adv-x="997" d="M733 1284q123 -481 162 -636q4 -15 -9 -32q-12 -15 -31 -15h-173q-23 0 -28 20l-93 367q-174 -287 -223 -367q-13 -20 -35 -20h-172q-19 0 -26 15q-7 14 3 32l386 636q14 21 35 21h176q23 0 28 -21z"/>
    <glyph glyph-name="underscore" unicode="_" horiz-adv-x="1204" d="M1011 -84q14 0 22 -10t6 -24l-28 -159q-2 -14 -14 -24t-26 -10h-779q-14 0 -22 10t-6 24l28 159q2 14 14 24t26 10h779z"/>
    <glyph glyph-name="grave" unicode="`" horiz-adv-x="634" d="M597 1033q10 -17 -4 -36q-13 -18 -33 -18h-153q-17 0 -24 12q-7 10 -76 111t-100 147q-12 17 1 36q13 20 35 20h188q17 0 25 -14q10 -18 64 -116.5t77 -141.5z"/>
    <glyph glyph-name="a" unicode="a" d="M872 891q76 -78 54 -203l-95 -539q-9 -48 -9 -95v-14q0 -16 -12 -28t-28 -12h-158q-13 0 -21 8t-8 20q0 4 0.5 12.5t0.5 13.5q0 52 8 95l1 3q-41 -79 -124 -125.5t-150 -46.5q-132 0 -203 73q-83 85 -57 234q11 60 34.5 104.5t61 76t78.5 52t99 40.5q122 43 341 45l14 83 q5 27 -18 40t-68 13q-61 0 -115.5 -19.5t-87.5 -55.5q-20 -21 -42 -11q-20 9 -72.5 34.5t-63.5 30.5q-14 7 -15 20q-2 16 7 28q69 90 184.5 145t244.5 55q145 0 219 -77zM635 324l16 89q-120 0 -203 -17q-64 -13 -103 -36t-48 -73q-8 -45 9 -62q18 -18 65 -18q64 0 137.5 32 t126.5 85z"/>
    <glyph glyph-name="b" unicode="b" horiz-adv-x="1112" d="M752 968q157 -4 220.5 -129t24.5 -344q-44 -247 -159 -381t-263 -134q-198 0 -261 131l-12 -70q-2 -14 -14 -24t-26 -10h-159q-14 0 -22 10q-9 11 -6 24q16 92 108.5 615t108.5 615q4 16 14 24q13 10 26 10h159q14 0 22 -10t6 -24l-80 -449q114 151 313 146zM770 495 q19 107 -12.5 176t-107.5 70q-49 1 -94 -16t-76.5 -45.5t-50 -50.5t-31.5 -44l-45 -253q8 -18 20.5 -35.5t36 -40t62 -36t86.5 -13.5q57 0 111 59q76 84 101 229z"/>
    <glyph glyph-name="c" unicode="c" horiz-adv-x="954" d="M341 474l-1 -4q-15 -63 -12 -123.5t36 -93.5q46 -46 171 -46q68 0 134 40q27 17 43 -6q22 -30 85 -120q8 -12 4 -25q-5 -15 -17 -24q-138 -92 -288 -92q-211 0 -310 101q-120 120 -72 393l1 4q48 269 209 389q135 101 346 101q150 0 256 -92q10 -11 9 -24t-13 -25 q-80 -76 -127 -121q-10 -10 -23.5 -11.5t-22.5 6.5q-51 40 -119 40q-125 0 -188 -46q-45 -33 -65.5 -85.5t-35.5 -135.5z"/>
    <glyph glyph-name="d" unicode="d" horiz-adv-x="1112" d="M1095 1295q9 -11 6 -24q-16 -91 -108.5 -615t-108.5 -615q-4 -16 -14 -24q-13 -10 -26 -10h-159q-14 0 -22 10t-6 24l12 70q-108 -131 -307 -131q-148 0 -216 134.5t-24 381.5q39 218 146 343t266 129q200 5 261 -146q60 339 79 449q2 14 14 24t26 10h159q14 0 22 -10z M708 332l45 253q-4 17 -11 33.5t-22.5 40.5t-36 41.5t-54 29.5t-73.5 11q-76 -1 -132 -69.5t-75 -176.5q-26 -149 20 -229q33 -59 90 -59q62 0 119 25.5t83 49.5t47 50z"/>
    <glyph glyph-name="e" unicode="e" horiz-adv-x="1038" d="M877 859q86 -111 53 -344l-6 -41q-9 -47 -15 -80q-3 -15 -14 -24q-13 -10 -26 -10h-539q0 -71 36 -107q46 -46 172 -46q81 0 152 40q28 17 43 -5q76 -107 85 -120q9 -12 4 -26q-5 -15 -17 -24q-67 -43 -150 -67.5t-157 -24.5q-211 0 -310 101q-120 120 -72 393v2 q47 263 182 383q122 109 309 109q186 0 270 -109zM703 515q22 138 -18 188q-30 38 -118 38q-90 0 -132 -38q-58 -51 -85 -188h353z"/>
    <glyph glyph-name="f" unicode="f" horiz-adv-x="782" d="M862 1215q9 -11 5 -26q-5 -15 -19 -25q-94 -59 -150 -93q-24 -14 -39 0q-32 27 -80 27q-47 0 -52 -27l-19 -110h259q14 0 22 -10q9 -11 6 -24q-4 -21 -14 -79t-14 -80q-4 -16 -14 -24q-13 -10 -26 -10h-259l-123 -700q-2 -14 -14 -24t-26 -10h-159q-14 0 -22 10t-6 24 l123 700h-69q-14 0 -22 10t-6 24q4 22 14 80t14 79q2 14 14 24t26 10h69l20 109q20 111 105 182q88 73 213 73q157 0 243 -110z"/>
    <glyph glyph-name="g" unicode="g" horiz-adv-x="1114" d="M1032 938q9 -11 6 -24l-162 -919q-14 -77 -81 -145q-65 -67 -169 -113.5t-225 -46.5q-80 0 -145.5 14.5t-106.5 38t-64.5 44.5t-39.5 44q-7 12 -3 27q5 15 20 24q25 14 84 47t72 40q22 12 38 -2q58 -50 185 -50q94 0 166 46q0 1 1 1q40 25 48 70q12 70 14 77 q-108 -131 -307 -131q-148 0 -216.5 134.5t-24.5 380.5q39 219 146 344t266 129q200 5 261 -146q9 55 16 92q2 14 14 24t26 10h159q14 0 22 -10zM709 332l44 253q-4 17 -11 33.5t-22.5 40.5t-36 41.5t-54 29.5t-73.5 11q-76 -1 -132 -69.5t-75 -176.5q-25 -147 21 -229 q33 -59 89 -59q48 0 91.5 13.5t75 35.5t50.5 40t33 36z"/>
    <glyph glyph-name="h" unicode="h" horiz-adv-x="1116" d="M778 968q150 -4 197 -125t7 -347q-61 -350 -81 -462q-4 -16 -14 -24q-13 -10 -26 -10h-159q-14 0 -22 10q-9 11 -6 24l81 462q19 107 -10.5 175.5t-102.5 69.5q-48 1 -91 -16t-73.5 -45.5t-48 -50t-30.5 -43.5l-97 -552q-2 -14 -14 -24t-26 -10h-159q-14 0 -22 10t-6 24 q16 92 109 618.5t109 618.5q2 14 14 24t26 10h159q14 0 22 -10q9 -11 6 -24l-76 -429q154 130 334 126z"/>
    <glyph glyph-name="i" unicode="i" horiz-adv-x="530" d="M513 1291q9 -11 6 -24l-30 -168q-3 -15 -14 -24q-13 -10 -26 -10h-158q-15 0 -23 10t-5 24q4 23 14.5 84t14.5 84q4 16 14 24q13 10 26 10h159q14 0 22 -10zM429 948q14 0 22 -10t6 -24q-13 -74 -77.5 -440t-77.5 -440q-2 -14 -14 -24t-26 -10h-159q-14 0 -22 10t-6 24 q13 74 77.5 440t77.5 440q2 14 14 24t26 10h159z"/>
    <glyph glyph-name="j" unicode="j" horiz-adv-x="536" d="M433 948q14 0 22 -10t6 -24l-171 -968q-21 -121 -106 -192q-61 -52 -145 -62q-83 -11 -179 17q-14 5 -18 16t3 27q7 14 35.5 70.5t40.5 79.5q7 13 20.5 19.5t26.5 1.5q6 -2 19 -6.5t20 -6.5q17 -6 35 5t21 31l171 968q2 14 14 24t26 10h159zM517 1291q9 -11 6 -24 l-30 -168q-4 -16 -14 -24q-13 -10 -26 -10h-158q-15 0 -23 10t-5 24q4 23 14.5 84t14.5 84q4 16 14 24q13 10 26 10h159q14 0 22 -10z"/>
    <glyph glyph-name="k" unicode="k" horiz-adv-x="1026" d="M968 927q5 -21 -15 -37l-337 -281q196 -408 267 -556q9 -17 -4 -35t-33 -18h-190q-18 0 -26 16l-208 432l-56 -47l-64 -367q-2 -14 -14 -24t-26 -10h-159q-14 0 -22 10t-6 24q16 92 109 618.5t109 618.5q2 14 14 24t26 10h159q14 0 22 -10q9 -11 6 -24l-98 -553l265 220 q12 10 26 10h227q23 0 28 -21z"/>
    <glyph glyph-name="l" unicode="l" horiz-adv-x="532" d="M514 1295q9 -11 6 -24q-33 -183 -218 -1237q-2 -14 -14 -24t-26 -10h-159q-14 0 -22 10t-6 24q16 92 109 618.5t109 618.5q2 14 14 24t26 10h159q14 0 22 -10z"/>
    <glyph glyph-name="m" unicode="m" horiz-adv-x="1710" d="M1309 968q158 -4 233.5 -131.5t37.5 -341.5q-61 -349 -81 -461q-3 -15 -14 -24q-13 -10 -26 -10h-159q-14 0 -22 10q-9 11 -6 24l82 461q19 107 -11 176t-103 70q-48 1 -91 -16t-73.5 -46t-48 -50.5t-30.5 -43.5l-97 -551v-1v-1q-3 -11 -12 -20v0l-1 -1l-1 -1l-1 -1h-1 v-1h-1q-12 -8 -21 -8h-2h-161q-8 0 -18 8h-1v1h-1v1l-2 2q-6 7 -4 20v1v1l82 461q19 107 -11 176t-103 70q-48 1 -91 -16t-73.5 -45.5t-48 -50t-30.5 -43.5l-97 -552q-2 -14 -14 -24t-26 -10h-159q-14 0 -22 10t-6 24q97 556 155 880q2 14 14 24t26 10h159q14 0 22 -10 t6 -24l-12 -71q75 63 139 94t160 31q39 0 76 -13t62 -31t44 -36.5t28 -31.5l9 -13q4 5 12.5 14t40 31t68 39t97.5 30t129 11z"/>
    <glyph glyph-name="n" unicode="n" horiz-adv-x="1116" d="M778 968q150 -4 197 -125.5t7 -347.5q-61 -349 -81 -461q-3 -15 -14 -24q-13 -10 -26 -10h-159q-14 0 -22 10q-9 11 -6 24l81 461q19 107 -10.5 176t-102.5 70q-48 1 -91 -16t-73.5 -45.5t-48 -50t-30.5 -43.5l-97 -552q-2 -14 -14 -24t-26 -10h-159q-14 0 -22 10t-6 24 q97 556 155 880q2 14 14 24t26 10h159q14 0 22 -10t6 -24l-13 -72q154 130 334 126z"/>
    <glyph glyph-name="o" unicode="o" horiz-adv-x="1036" d="M865 870q101 -113 55 -374q0 -4 -2 -11t-2 -11t-1 -11.5t-2 -10.5q-45 -259 -188 -374q-117 -94 -292 -98h-5q-177 4 -259 98q-101 113 -55 374q1 9 5 22q1 3 2 10.5t1 11.5q45 260 187 374q117 94 293 98h5q176 -4 258 -98zM693 496q15 65 14.5 122t-26.5 87 q-30 34 -117 36q-85 -2 -128 -36q-37 -30 -55 -78.5t-32 -130.5l-3 -18l-1 -7q-1 -3 -2 -9.5t-2 -9.5q-15 -65 -14.5 -122t27.5 -87q30 -34 116 -36q86 2 129 36q37 30 55 78.5t32 130.5q0 3 1 9.5t2 9.5l1 7z"/>
    <glyph glyph-name="p" unicode="p" horiz-adv-x="1112" d="M753 968q157 -4 220.5 -129t24.5 -344q-44 -247 -159 -381t-263 -134q-198 0 -261 131l-65 -367q-2 -14 -14 -24t-26 -10h-159q-14 0 -22 10q-9 11 -6 24q16 89 103.5 585t103.5 585q4 16 14 24q13 10 26 10h159q14 0 22 -10t6 -24l-17 -92q114 151 313 146zM771 495 q19 107 -12.5 176t-107.5 70q-49 1 -94 -16t-76.5 -45.5t-50.5 -50.5t-32 -44l-44 -253q8 -18 20.5 -35.5t36 -40t62 -36t86.5 -13.5q57 0 111 59q76 84 101 229z"/>
    <glyph glyph-name="q" unicode="q" horiz-adv-x="1114" d="M1032 938q8 -9 6 -24q-15 -88 -102.5 -585t-103.5 -585q-3 -15 -15 -24q-13 -10 -25 -10h-159q-14 0 -22 10t-6 24l64 367q-108 -131 -307 -131q-148 0 -216 134.5t-24 381.5q39 218 146 343t266 129q200 5 261 -146q9 55 16 92q2 14 14 24t26 10h159q14 0 22 -10z M708 332l45 253q-4 17 -11 33.5t-22.5 40.5t-36 41.5t-54 29.5t-73.5 11q-76 -1 -132 -69.5t-75 -176.5q-26 -149 20 -229q33 -59 90 -59q62 0 119 25.5t83 49.5t47 50z"/>
    <glyph glyph-name="r" unicode="r" horiz-adv-x="792" d="M778 968q12 0 19 -9t5 -22q-4 -23 -17.5 -102.5t-19.5 -111.5q-3 -19 -19 -28q-16 -10 -31 -5q-43 16 -79 17q-48 1 -91 -16t-73.5 -45.5t-48 -50t-30.5 -43.5l-91 -518q-2 -14 -14 -24t-26 -10h-159q-14 0 -22 10t-6 24q97 556 155 880q2 14 14 24t26 10h159 q14 0 22 -10t6 -24l-13 -72q154 130 334 126z"/>
    <glyph glyph-name="s" unicode="s" horiz-adv-x="937" d="M415 710q-32 -23 -36 -46q-2 -13 3.5 -23t12 -15t20.5 -14q17 -11 41 -21.5t43 -17.5t48.5 -17t44.5 -16q229 -87 199 -257q-21 -122 -140 -212.5t-267 -90.5q-66 0 -167 34t-163 86q-10 10 -9 24t13 25q19 18 66 61.5t62 57.5q11 10 24.5 11.5t22.5 -6.5 q39 -29 96 -47.5t95 -18.5q60 0 105 31q29 20 34 43l-6 6q-14 11 -27 17q-27 13 -116 46q-125 46 -178 88q-109 87 -84 226q21 122 140 213t267 91q66 0 165 -34t162 -86q10 -10 8 -24q-2 -13 -13 -25q-49 -45 -130 -121q-23 -21 -44 -5q-98 70 -188 68q-61 -2 -104 -31z "/>
    <glyph glyph-name="t" unicode="t" horiz-adv-x="817" d="M672 100q6 -12 0 -26q-7 -15 -19 -22q-144 -72 -272 -72q-129 0 -188 83q-62 85 -33 248l19 110l55 313h-64q-14 0 -22 10t-6 24q4 22 14 80t14 79q2 14 14 24t26 10h64l44 249q2 14 14 24t26 10h159h1h1q11 0 17 -6v-1h1v0l1 -1v-1q0 -1 1 -1l2 -2l1 -1v0v-1l1 -1 q3 -6 3 -15v0v-1v-1l-1 -2l-44 -249h264q14 0 22 -10q9 -11 6 -24q-17 -91 -28 -159q-4 -16 -14 -24q-13 -10 -26 -10h-264l-78 -445q-8 -41 23 -65q31 -25 72 -9q17 7 46.5 17.5t37.5 13.5q26 10 38 -12q10 -18 37 -68.5t35 -65.5z"/>
    <glyph glyph-name="u" unicode="u" horiz-adv-x="1114" d="M1013 948q14 0 22 -10t6 -24q-97 -556 -155 -880q-2 -14 -14 -24t-26 -10h-159q-14 0 -22 10t-6 24l13 72q-154 -130 -334 -126q-150 4 -197 125.5t-7 347.5q61 349 81 461q3 14 15 24q13 10 25 10h159q15 0 23 -10t5 -24l-81 -461q-19 -107 10.5 -176t102.5 -70 q48 -1 91 16t73.5 45.5t48 50t30.5 43.5l97 552q2 14 14 24t26 10h159z"/>
    <glyph glyph-name="v" unicode="v" horiz-adv-x="1021" d="M1032 934q8 -14 -2 -31q-289 -543 -470 -880q-12 -23 -36 -23h-193q-23 0 -28 23q-56 311 -160 880q-3 17 9 31t31 14h168q24 0 29 -23l107 -589q256 479 315 589q12 23 36 23h168q18 0 26 -14z"/>
    <glyph glyph-name="w" unicode="w" horiz-adv-x="1515" d="M1520 934q8 -14 0 -30q-226 -469 -425 -880q-12 -24 -37 -24h-187q-25 0 -28 24l-71 537q-207 -430 -259 -537q-12 -24 -37 -24h-187q-25 0 -28 24q-9 68 -57 438t-58 442q-2 17 10 30q12 14 30 14h166q11 0 19 -6.5t10 -17.5l70 -537q207 430 259 537q12 24 37 24h187 q11 0 19 -6.5t10 -17.5l70 -537q208 430 260 537q12 24 36 24h166q17 0 25 -14z"/>
    <glyph glyph-name="x" unicode="x" horiz-adv-x="980" d="M978 930q7 -18 -8 -34l-346 -422q140 -299 198 -422q8 -17 -5 -34q-13 -18 -33 -18h-187q-20 0 -26 15l-118 251q-158 -194 -205 -251q-12 -15 -32 -15h-187q-20 0 -27 18t8 34l346 422q-139 299 -197 422q-8 18 4 34q13 18 33 18h187q19 0 26 -15l118 -251 q159 193 206 250q13 16 31 16h187q20 0 27 -18z"/>
    <glyph glyph-name="y" unicode="y" horiz-adv-x="989" d="M1001 933q8 -14 -2 -31l-580 -1026q-31 -53 -84 -99q-57 -49 -125 -71.5t-134 -12.5q-18 2 -67 10q-14 2 -20 13t-2 25q7 21 25.5 78.5t24.5 78.5q5 14 17.5 22.5t25.5 6.5q18 -3 37 -9q29 -7 59.5 6t49.5 41l80 133q-126 627 -162 804q-3 17 9 31q13 15 31 15h170 q22 0 27 -22l104 -514q230 413 286 514q12 22 36 22h169q17 0 25 -15z"/>
    <glyph glyph-name="z" unicode="z" horiz-adv-x="983" d="M943 938q8 -10 5 -24q-11 -62 -31 -179q-3 -15 -14 -24l-550 -485h440q14 0 22 -10t6 -24q-4 -22 -14 -80t-14 -79q-3 -15 -14 -24q-13 -10 -26 -10h-691q-14 0 -22 10q-9 11 -6 24q4 21 16.5 90.5t15.5 88.5q3 15 14 24l559 485h-449q-14 0 -22 10t-6 24q4 22 14 80 t14 79q3 15 14 24q13 10 26 10h690q15 0 23 -10z"/>
    <glyph glyph-name="braceleft" unicode="{" horiz-adv-x="905" d="M917 1293q9 -9 6 -24q-16 -88 -28 -160q-2 -13 -12.5 -22.5t-24.5 -11.5q-31 -3 -60.5 -9t-66.5 -18t-62.5 -34.5t-30.5 -52.5q-3 -16 -14 -79t-17 -97q-25 -145 -146 -253q40 -51 55 -117.5t2 -136.5q-38 -217 -43 -245q-5 -29 12 -51.5t50 -34.5t60 -18.5t57 -9.5 q13 -1 20 -11t5 -23q-24 -139 -27 -157q-3 -17 -17 -26t-28 -8q-28 4 -56.5 10.5t-69 20t-75 31t-69 44.5t-56.5 59t-32 77t-1 97q5 28 43 245q11 59 -23 99q-35 41 -92 41h-77q-15 0 -23 10t-5 24q4 21 14 79.5t14 79.5q3 15 14 24q13 10 26 10h77q58 0 106 41t59 99 q6 34 17 97t14 79q12 68 44.5 123t78.5 90.5t94.5 61t102.5 39t90.5 19.5t70.5 9q13 1 24 -10z"/>
    <glyph glyph-name="verticalbar" unicode="|" horiz-adv-x="561" d="M478 1305q14 0 22.5 -10t6.5 -24q-18 -106 -136 -774t-137 -773q-2 -14 -14 -24t-26 -10h-159q-14 0 -22 10t-6 24q19 106 136.5 773.5t136.5 773.5q2 14 14 24t26 10h158z"/>
    <glyph glyph-name="braceright" unicode="}" horiz-adv-x="911" d="M797 635q9 -11 6 -24q-4 -22 -14 -80t-14 -79q-3 -15 -14 -24q-13 -10 -26 -10h-78q-57 0 -106 -41q-47 -39 -58 -99q-38 -217 -43 -245q-12 -71 -56.5 -129.5t-97.5 -93.5t-121 -61.5t-114 -37t-90 -17.5q-15 -2 -25 8q-11 11 -8 26q20 108 28 157q2 13 13 23t24 11 q31 3 60.5 9.5t66.5 18.5t62.5 34.5t30.5 51.5q5 28 43 245q27 149 146 254q-82 107 -57 253q6 34 17 97t14 79q5 30 -12 52.5t-49.5 34.5t-60 18t-57.5 9q-13 2 -20 11.5t-5 22.5q12 72 28 160q3 15 15 24q15 11 27 10q18 -1 37 -3.5t46 -7.5t51 -12.5t53 -18.5t52 -25.5 t47 -34t39 -43t28 -53.5t13 -65.5t-5 -78.5q-3 -16 -14 -79t-17 -97q-10 -58 23.5 -99t91.5 -41h78q14 0 22 -10z"/>
    <glyph glyph-name="asciitilde" unicode="~" horiz-adv-x="1161" d="M1083 777q9 -11 6 -24l-2 -13q-27 -154 -127.5 -259t-233.5 -105q-87 0 -153 68q-12 12 -33 38t-32 38q-39 41 -90 41q-45 0 -81.5 -37.5t-45.5 -89.5l-4 -24q-3 -15 -14 -24q-13 -10 -26 -10h-159q-14 0 -22 10q-9 11 -6 24l4 24q25 140 131.5 241t236.5 112h56 q44 0 83.5 -19t66 -46t48.5 -54t42.5 -46t37.5 -19q33 0 58 40q26 41 36 97l2 13q3 15 14 24q13 10 26 10h159q14 0 22 -10z"/>
    <glyph glyph-name="nonbreakingspace" unicode=" " horiz-adv-x="595"/>
    <glyph glyph-name="exclamdown" unicode="¡" horiz-adv-x="507" d="M418 974q9 -11 6 -24l-30 -168q-3 -15 -14 -24q-13 -10 -26 -10h-159q-14 0 -22 10q-9 11 -6 24q4 22 15 84t15 84q3 15 14 24q13 10 26 10h159q14 0 22 -10zM303 600q14 0 22 -9.5t6 -22.5q-11 -74 -50 -349.5t-39 -277.5q0 -3 -1 -9.5t-2 -9.5q-2 -15 -14.5 -83.5 t-17.5 -94.5q-2 -14 -14 -24t-26 -10h-154q-14 0 -22.5 10t-6.5 24l32 178q0 3 1.5 9.5t2.5 9.5q7 31 33.5 158t57 275t40.5 194q3 13 14.5 22.5t25.5 9.5h112z"/>
    <glyph glyph-name="cent" unicode="¢" horiz-adv-x="999" d="M326 474v-4q-15 -62 -12 -123.5t35 -93.5q46 -46 172 -46q67 0 133 40q28 17 44 -6q23 -30 85 -120q8 -12 4 -25q-5 -15 -17 -24q-112 -75 -240 -89l-24 -137q-2 -14 -14 -24t-26 -10h-159q-14 0 -22 10q-9 11 -6 24l28 157q-83 25 -136 78q-120 120 -71 393v4 q48 268 210 389q69 52 163 78l30 170q2 14 14 24t26 10h159q14 0 22 -10t6 -24l-27 -150q122 -14 208 -89q11 -11 9 -24t-13 -25q-80 -76 -127 -121q-10 -10 -23.5 -11.5t-22.5 6.5q-51 40 -119 40q-125 0 -188 -46q-45 -33 -65.5 -85.5t-35.5 -135.5z"/>
    <glyph glyph-name="sterling" unicode="£" horiz-adv-x="1107" d="M707 1295q139 0 220.5 -98t57.5 -235l-14 -80q-2 -14 -14 -24t-26 -10h-159q-14 0 -22 10t-6 24l14 80q7 44 -19.5 75t-71.5 31t-83.5 -31t-45.5 -75l-43 -247h257q14 0 22 -10t6 -24q-4 -22 -14 -79t-14 -79q-2 -14 -14 -24t-26 -10h-257l-46 -262h470q14 0 22 -10 q9 -11 6 -24q-4 -21 -14 -79t-14 -80q-2 -14 -14 -24t-26 -10h-777q-14 0 -22 10t-6 24q4 21 14 79.5t14 79.5q2 14 14 24t26 10h79h1l46 262h-80q-14 0 -22 9q-9 11 -6 25q4 21 14 78.5t14 79.5q4 16 14 24q13 10 26 10h80l43 247q24 137 140.5 235t255.5 98z"/>
    <glyph glyph-name="yen" unicode="¥" horiz-adv-x="1167" d="M1169 1259q7 -16 -4 -33l-448 -690h138q14 0 22.5 -10t6.5 -24q-2 -7 -4 -23t-4 -23q-3 -15 -15 -24q-13 -10 -25 -10h-178l-14 -81h177q15 0 23 -10t5 -24q-2 -7 -4.5 -22.5t-3.5 -22.5q-4 -16 -14 -24q-13 -10 -26 -10h-177l-34 -194q-2 -14 -14 -24t-26 -10h-159 q-14 0 -22 10t-6 24l34 194h-177q-15 0 -23 10t-5 24q2 7 4.5 22.5t3.5 22.5q3 15 14 24q13 10 26 10h177l14 81h-177q-14 0 -22 10q-9 11 -6 24q1 7 3.5 23t4.5 23q2 14 14 24t26 10h138q-155 525 -204 690q-5 17 8 33t31 16h176q20 0 27 -20l151 -511q270 415 332 511 q13 20 34 20h176q20 0 26 -16z"/>
    <glyph glyph-name="section" unicode="§" horiz-adv-x="1132" d="M1075 1097q9 -9 6 -25t-16 -25q-37 -29 -136 -106q-11 -9 -24.5 -8.5t-21.5 9.5q-17 19 -39 37.5t-55.5 40t-77.5 35t-91 13.5q-69 0 -125 -33.5t-65 -85.5q-5 -29 8.5 -48t41.5 -37q26 -17 60 -31.5t83 -32.5t68 -25q254 -101 221 -288q-26 -143 -163 -246q2 -2 7 -6.5 t8 -6.5q89 -80 68 -199q-24 -137 -157 -238.5t-299 -101.5q-77 0 -147.5 20.5t-122.5 54t-83.5 60.5t-56.5 55q-9 11 -6 26q3 14 16 24q8 6 62.5 47.5t75.5 57.5q11 9 24.5 8.5t21.5 -9.5q105 -117 256 -117q69 0 124.5 31.5t64.5 81.5q2 9 -14 22t-35 23t-139 54 q-13 5 -68 27q-88 36 -136 75q-120 97 -92 252q24 134 150 233q-92 92 -67 234q24 140 157 242.5t299 102.5q75 0 145.5 -21.5t124 -56t86.5 -62.5t59 -57zM496 592q-39 0 -90 -34.5t-58 -75.5q0 -13 -2 -27.5t6 -30t22.5 -27.5t45.5 -20t76 -8q69 0 124.5 33t64.5 85 q1 5 1.5 9.5t-1.5 16t-7.5 21t-19 21t-33.5 19t-53 13t-76 5.5z"/>
    <glyph glyph-name="copyright" unicode="©" horiz-adv-x="1574" d="M901 1008q98 0 168 -61q11 -9 9 -27q-2 -15 -15 -27q-8 -7 -52 -46q-27 -23 -48 -5q-38 31 -86 31q-94 0 -144 -40q-37 -30 -55 -77.5t-31 -118.5l-1 -3q-26 -143 18 -192q36 -40 130 -40q50 0 97 30q29 18 46 -4q7 -7 19.5 -23.5t17.5 -21.5q9 -10 5 -29q-5 -17 -19 -26 q-92 -61 -190 -61q-147 0 -216 77q-78 89 -43 293l1 3q35 202 146 291q95 77 243 77zM905 1295q134 0 246.5 -52t185 -140.5t103 -210t6.5 -255.5q-31 -179 -146 -330t-281.5 -239t-345.5 -88q-134 0 -246.5 52t-185 140t-103.5 209.5t-7 255.5t97.5 255.5t177 210 t234.5 140.5t265 52zM1311 637q25 142 -23.5 262t-156.5 190t-250 70t-274.5 -70t-223.5 -190t-116 -262q-19 -106 5.5 -202.5t82 -166.5t147 -111t195.5 -41t210 41t186 111t140.5 166.5t77.5 202.5z"/>
    <glyph glyph-name="guillemotleft" unicode="«" horiz-adv-x="1345" d="M322 477q155 -158 242 -247q15 -15 3 -37t-36 -22h-243q-13 0 -21 8q-50 50 -198 202q-10 10 -7 26t12.5 70.5t12.5 70.5q3 17 16 25q90 66 301 226q11 8 23 8h243q23 0 28 -22t-16 -38zM1269 785q5 -22 -16 -38l-360 -270q155 -158 242 -247q15 -15 3 -37t-36 -22h-242 q-13 0 -21 8q-50 50 -198 202q-11 11 -8 26q3 16 12.5 70t12.5 71t16 25q90 66 301 226q11 8 24 8h242q23 0 28 -22z"/>
    <glyph glyph-name="softhyphen" unicode="­" horiz-adv-x="0"/>
    <glyph glyph-name="registered" unicode="®" horiz-adv-x="1574" d="M918 1025q98 0 156 -70q57 -70 40 -168q-17 -96 -100 -168q-23 -19 -45 -32q61 -112 66 -224q0 -17 -13 -30t-31 -13q-11 0 -32.5 -0.5t-30.5 -0.5q-13 0 -21.5 8t-9.5 21q-7 103 -76 201h-148l-34 -193q-3 -15 -16 -26t-28 -11h-61q-15 0 -24 11t-6 26q11 61 56 316 t55 316q3 15 15.5 26t27.5 11h260zM935 715q35 29 43 72t-17 73t-67 30h-161l-36 -205h161q41 0 77 30zM905 1294q179 0 314.5 -88t196.5 -239t30 -330t-146 -330t-281.5 -239t-345.5 -88q-134 0 -246.5 52t-185 140t-103.5 209.5t-7 255.5q31 178 146 329.5t282 239.5 t346 88zM1310 637q25 142 -23.5 262t-156 190t-249.5 70t-274.5 -70t-223.5 -190t-116 -262q-19 -106 5.5 -202.5t82 -166.5t147 -111t195.5 -41q142 0 274 69.5t223 189.5t116 262z"/>
    <glyph glyph-name="degree" unicode="°" horiz-adv-x="737" d="M484 1295q109 0 172.5 -77t44.5 -186q-20 -109 -110 -186t-199 -77t-172.5 77t-44.5 186q20 109 110 186t199 77zM432 996q15 0 27 10.5t15 25.5t-5.5 25.5t-23.5 10.5t-27.5 -10.5t-15.5 -25.5t6 -25.5t24 -10.5z"/>
    <glyph glyph-name="twosuperior" unicode="²" horiz-adv-x="868" d="M756 967q-23 -39 -77 -91q-52 -50 -160 -139h207q14 0 22 -10q9 -11 6 -24q-4 -21 -14 -79.5t-14 -79.5q-2 -14 -14 -24t-26 -10h-553q-14 0 -22 10q-9 11 -6 24q5 30 13 71q2 7 6 15q62 88 152 171q35 31 111.5 96t106.5 91q24 20 12 44t-40 13q-16 -5 -27 -9 q-56 -25 -97 -49q-13 -7 -26 -4.5t-19 13.5q-41 77 -69 129q-7 14 -1 27q6 14 20 22q223 121 339 121q60 0 106.5 -30.5t71.5 -80.5t22.5 -109.5t-30.5 -107.5z"/>
    <glyph glyph-name="threesuperior" unicode="³" horiz-adv-x="870" d="M804 1045q-7 -40 -51.5 -72.5t-85.5 -44.5l-41 -13q7 -1 18 -4t38 -15t47 -28t33 -44.5t7 -62.5q-18 -106 -115 -183.5t-218 -77.5q-179 0 -294 126q-9 11 -6 26q3 16 17 25q8 6 141 102q25 18 44 1q58 -53 138 -53q61 0 66 34q1 3 0 5.5t-1.5 4t-3 3t-3.5 2.5t-4 2.5 t-4 2.5q-22 14 -48 14h-23q-14 0 -22 10t-6 24q4 22 14 79.5t14 79.5q2 14 14 24t26 10h15q25 0 49 12l3 1q6 3 8 11t-4 12q-14 10 -38 10q-86 0 -157 -63q-23 -21 -44 -5q-14 10 -58 41.5t-62 44.5q-12 9 -12 23q0 13 12 27q25 25 55.5 48.5t77 50t106 43t122.5 16.5 q118 0 186 -74.5t50 -174.5z"/>
    <glyph glyph-name="periodcentered" unicode="·" horiz-adv-x="430" d="M336 733q9 -11 6 -24l-30 -168q-3 -15 -14 -24q-13 -10 -26 -10h-159q-14 0 -22 10q-9 11 -6 24q4 23 15 84.5t15 83.5q4 16 14 24q13 10 26 10h159q14 0 22 -10z"/>
    <glyph glyph-name="onesuperior" unicode="¹" horiz-adv-x="747" d="M621 757q14 0 22 -10t6 -24q-4 -21 -14 -79t-14 -80q-2 -14 -14 -24t-26 -10h-433q-14 0 -22 10t-6 24q4 22 14 80t14 79q2 14 14 24t26 10h103l40 227q-10 -7 -21 -5.5t-16 10.5q-27 44 -78 132q-7 11 -2 25t17 22q25 17 83.5 57t63.5 43q10 7 22 7h175q14 0 22 -10 t6 -24l-85 -484h103z"/>
    <glyph glyph-name="guillemotright" unicode="»" horiz-adv-x="1345" d="M656 548q-2 -13 -12 -68t-13 -73q-3 -17 -16 -25q-165 -125 -270 -203q-11 -8 -24 -8h-242q-23 0 -28 22t16 38l329 247q-172 175 -265 270q-15 15 -3 37t36 22h243q12 0 20 -8q180 -185 221 -226q11 -11 8 -25zM1220 573q10 -10 7 -25q-3 -16 -12.5 -70.5t-12.5 -70.5 q-3 -17 -16 -25q-165 -125 -270 -203q-11 -8 -23 -8h-243q-23 0 -28 22t16 38l329 247q-171 175 -264 270q-15 15 -3 37t35 22h243q13 0 21 -8q180 -185 221 -226z"/>
    <glyph glyph-name="questiondown" unicode="¿" horiz-adv-x="985" d="M398 748q-14 0 -22 10q-9 11 -6 24l30 168q3 15 14 24q13 10 26 10h159q14 0 22 -10q9 -11 6 -24q-4 -23 -15 -84.5t-15 -83.5q-4 -16 -14 -24q-13 -10 -26 -10h-159zM804 47q8 -12 2 -27q-45 -119 -147 -205q-148 -125 -367 -125q-151 0 -239.5 109.5t-60.5 265.5 q27 153 184 261q61 42 102 103.5t53 129.5q1 9 4.5 26.5t4.5 24.5q2 14 14 24t26 10h159q14 0 22 -10t6 -24q-4 -17 -9 -51q-21 -121 -93.5 -229.5t-181.5 -182.5q-57 -38 -64 -82q-11 -61 22 -104.5t91 -43.5q125 0 197 60q33 27 53 69q5 11 16.5 18.5t23.5 6.5 q22 -2 82.5 -5.5t77.5 -4.5q16 -2 22 -14z"/>
    <glyph glyph-name="Agrave" unicode="À" horiz-adv-x="1288" d="M660 1275h196q23 0 28 -22q89 -438 247 -1207q3 -17 -9 -31q-13 -15 -31 -15h-169q-23 0 -28 22l-58 283h-497q-118 -213 -157 -283q-12 -22 -36 -22h-170q-18 0 -26 15q-8 14 2 31q59 106 346 620t327 587q12 22 35 22zM702 956l-236 -424h323zM665 1355 q-62 99 -111 176q-10 17 2 36q13 20 34 20h174q20 0 26 -16q46 -100 81 -176q8 -17 -5 -35q-12 -17 -33 -17h-143q-18 0 -25 12z"/>
    <glyph glyph-name="Aacute" unicode="Á" horiz-adv-x="1288" d="M661 1275h195q23 0 28 -22q89 -438 247 -1207q3 -17 -9 -31q-13 -15 -31 -15h-169q-23 0 -28 22l-58 283h-497q-118 -213 -157 -283q-12 -22 -36 -22h-170q-18 0 -26 15q-8 14 2 31q59 106 346 620t327 587q12 22 36 22zM702 956l-236 -424h323zM1056 1531 q-114 -116 -174 -176q-12 -12 -29 -12h-143q-21 0 -27 17q-7 19 8 35q22 27 75 92.5t67 83.5q13 16 32 16h174q20 0 27 -20q6 -20 -10 -36z"/>
    <glyph glyph-name="Acircumflex" unicode="Â" horiz-adv-x="1288" d="M660 1275h196q23 0 28 -22q89 -438 247 -1207q3 -17 -9 -31q-13 -15 -31 -15h-169q-23 0 -28 22l-58 283h-497q-118 -213 -157 -283q-12 -22 -36 -22h-170q-18 0 -26 15q-8 14 2 31q59 106 346 620t327 587q12 22 35 22zM702 956l-236 -424h323zM692 1567q13 20 34 20 h175q21 0 28 -20v-4l78 -168q8 -17 -5 -35q-12 -17 -33 -17h-144q-17 0 -24 12l-22 35l-35 -35q-12 -12 -29 -12h-143q-21 0 -27 17t8 35l136 168l2 2t1 2z"/>
    <glyph glyph-name="Atilde" unicode="Ã" horiz-adv-x="1288" d="M660 1275h196q23 0 28 -22q89 -438 247 -1207q3 -17 -9 -31q-13 -15 -31 -15h-169q-23 0 -28 22l-58 283h-497q-118 -213 -157 -283q-12 -22 -36 -22h-170q-18 0 -26 15q-8 14 2 31q59 106 346 620t327 587q12 22 35 22zM702 956l-236 -424h323zM614 1385h-48 q-16 0 -24 13q-8 12 -1 29q25 60 81.5 99t121.5 39q80 0 140 -62q12 -13 24 -24q11 -9 17 -9q37 0 55 45q11 27 38 27h46q16 0 24 -13q7 -11 2 -27q-9 -24 -21.5 -46t-33.5 -46t-55 -38.5t-75 -14.5q-52 0 -97 47q-1 1 -9 10t-11 11.5t-11 9t-14.5 9t-17 5t-21.5 2.5 q-22 0 -42.5 -12t-31.5 -32q-12 -22 -36 -22z"/>
    <glyph glyph-name="Adieresis" unicode="Ä" horiz-adv-x="1288" d="M660 1275h196q23 0 28 -22q89 -438 247 -1207q3 -17 -9 -31q-13 -15 -31 -15h-169q-23 0 -28 22l-58 283h-497q-118 -213 -157 -283q-12 -22 -36 -22h-170q-18 0 -26 15q-8 14 2 31q59 106 346 620t327 587q12 22 35 22zM702 956l-236 -424h323zM478 1569q13 10 26 10 h159q14 0 22 -10q9 -11 6 -24l-30 -168q-4 -17 -14 -25q-13 -10 -26 -10h-159q-14 0 -22 10q-9 11 -6 25q4 22 15 83.5t15 84.5q3 15 14 24zM929 1569q13 10 26 10h159q14 0 22 -10q9 -11 6 -24l-30 -168q-4 -17 -14 -25q-13 -10 -26 -10h-159q-14 0 -22 10q-9 11 -6 25 q4 23 15 84t15 84q3 15 14 24z"/>
    <glyph glyph-name="Aring" unicode="Å" horiz-adv-x="1288" d="M661 1275h195q23 0 28 -22q89 -438 247 -1207q3 -17 -9 -31q-13 -15 -31 -15h-169q-23 0 -28 22l-58 283h-497q-118 -213 -157 -283q-12 -22 -36 -22h-170q-18 0 -26 15q-8 14 2 31q59 106 346 620t327 587q12 22 36 22zM702 956l-236 -424h323zM838 1677q71 0 112 -50 t28 -120q-13 -71 -71.5 -120.5t-128.5 -49.5q-71 0 -112 50t-28 120q13 71 71.5 120.5t128.5 49.5zM818 1563q-23 0 -43 -16.5t-24 -39.5t10 -40t37 -17t42.5 17t23.5 40t-9.5 39.5t-36.5 16.5z"/>
    <glyph glyph-name="AE" unicode="Æ" horiz-adv-x="1525" d="M625 1253q12 22 36 22h799q14 0 22 -10t6 -24q-4 -21 -14 -79.5t-14 -79.5q-2 -14 -14 -24t-26 -10h-475l-50 -285h380q15 0 23 -10t5 -24q-4 -21 -14 -79.5t-14 -79.5q-4 -16 -14 -24q-12 -10 -26 -10h-380l-54 -309h521q15 0 23 -10t5 -24q-4 -21 -14 -79.5t-14 -79.5 q-2 -14 -14 -24t-26 -10h-714q-14 0 -22 10t-6 24l47 271h-248q-118 -213 -157 -283q-12 -22 -36 -22h-170q-18 0 -26 15q-8 14 2 31q59 106 346 620t327 587zM466 532h161l75 424z"/>
    <glyph glyph-name="Ccedilla" unicode="Ç" horiz-adv-x="1189" d="M416 -92l29 79q-133 21 -220 99q-54 49 -84.5 119.5t-36.5 149t-2.5 145.5t16.5 137q70 391 302 552q150 105 358 105q171 0 269 -67q90 -61 125 -179q4 -12 -4 -27q-7 -12 -22 -19q-25 -10 -86.5 -33t-72.5 -27q-13 -5 -24.5 -0.5t-15.5 15.5q-21 59 -71 85t-138 26 q-127 0 -209 -57q-38 -26 -68.5 -65t-48 -74t-32.5 -84.5t-21 -78t-14 -72.5q-10 -58 -14 -94.5t-4.5 -95t17 -105t53.5 -78.5q63 -57 189 -57q88 0 147.5 26t101.5 84q19 26 45 16q18 -8 68.5 -30t68.5 -30q13 -7 16 -19q3 -13 -6 -27q-77 -119 -188 -180 q-116 -64 -281 -67l-9 -25q51 -13 72 -51q21 -39 12 -92q-9 -50 -57 -93t-103 -43q-47 0 -89 26q-14 8 -12 24t14 27q8 8 24 22t18 16q18 16 38 8q16 -10 27 -10q9 0 17 7.5t10 15.5q3 16 -1 24t-24 10q-14 2 -37 0q-22 -3 -30 15q-10 18 -12 22q-5 9 0 25z"/>
    <glyph glyph-name="Egrave" unicode="È" horiz-adv-x="1046" d="M803 0h-714q-14 0 -22.5 10t-6.5 24q16 91 106.5 603.5t106.5 603.5q2 14 14 24t26 10h668q14 0 22 -10t6 -24q-4 -21 -14 -79.5t-14 -79.5q-2 -14 -14 -24t-26 -10h-475l-50 -285h380q14 0 22 -10q9 -11 6 -24q-4 -22 -14 -80t-14 -79q-3 -15 -14 -24q-12 -10 -26 -10 h-380l-55 -309h522q14 0 22 -10q9 -11 6 -24q-4 -21 -14 -79t-14 -80q-2 -14 -14 -24t-26 -10zM605 1355q-13 21 -112 176q-10 17 2 36q13 20 34 20h175q20 0 26 -16q2 -5 33.5 -74t46.5 -102q8 -17 -5 -35q-12 -17 -33 -17h-143q-17 0 -24 12z"/>
    <glyph glyph-name="Eacute" unicode="É" horiz-adv-x="1046" d="M803 0h-714q-14 0 -22.5 10t-6.5 24q16 91 106.5 603.5t106.5 603.5q2 14 14 24t26 10h668q14 0 22 -10t6 -24q-4 -21 -14 -79.5t-14 -79.5q-2 -14 -14 -24t-26 -10h-475l-50 -285h380q15 0 23 -10t5 -24q-4 -22 -14 -80t-14 -79q-3 -15 -14 -24q-13 -10 -26 -10h-380 l-55 -309h522q14 0 22 -10q9 -11 6 -24q-4 -21 -14 -79t-14 -80q-2 -14 -14 -24t-26 -10zM950 1531q-114 -116 -174 -176q-12 -12 -29 -12h-143q-21 0 -27 17q-7 19 7 35q24 29 77 94.5t66 81.5t32 16h174q20 0 27 -20q6 -20 -10 -36z"/>
    <glyph glyph-name="Ecircumflex" unicode="Ê" horiz-adv-x="1046" d="M803 0h-714q-14 0 -22.5 10t-6.5 24q16 91 106.5 603.5t106.5 603.5q2 14 14 24t26 10h668q14 0 22 -10t6 -24q-4 -21 -14 -79.5t-14 -79.5q-2 -14 -14 -24t-26 -10h-475l-50 -285h380q14 0 22 -10q9 -11 6 -24q-4 -22 -14 -80t-14 -79q-4 -16 -14 -24q-12 -10 -26 -10 h-380l-55 -309h522q14 0 22 -10q9 -11 6 -24q-4 -21 -14 -79t-14 -80q-2 -14 -14 -24t-26 -10zM604 1567q13 20 34 20h175q21 0 28 -20v-4l78 -168q8 -17 -5 -35q-12 -17 -33 -17h-144q-17 0 -24 12l-22 35l-35 -35q-12 -12 -28 -12h-144q-21 0 -27 17q-7 19 8 35l136 168 l2 2t1 2z"/>
    <glyph glyph-name="Edieresis" unicode="Ë" horiz-adv-x="1046" d="M803 0h-714q-14 0 -22.5 10t-6.5 24q16 91 106.5 603.5t106.5 603.5q2 14 14 24t26 10h668q14 0 22 -10t6 -24q-4 -21 -14 -79.5t-14 -79.5q-2 -14 -14 -24t-26 -10h-475l-50 -285h380q14 0 22 -10q9 -11 6 -24q-4 -22 -14 -80t-14 -79q-4 -16 -14 -24q-12 -10 -26 -10 h-380l-55 -309h522q14 0 22 -10q9 -11 6 -24q-4 -21 -14 -79t-14 -80q-2 -14 -14 -24t-26 -10zM365 1569q12 10 26 10h159q14 0 22 -10q9 -11 6 -24l-30 -168q-4 -16 -14 -25q-12 -9 -26 -9h-159q-15 0 -22 9q-9 11 -6 25q4 22 15 83.5t15 84.5q3 15 14 24zM816 1569 q12 10 26 10h159q14 0 22 -10q9 -11 6 -24l-30 -168q-4 -16 -14 -25q-12 -9 -26 -9h-159q-14 0 -22 9q-9 11 -6 25q4 23 15 84t15 84q3 15 14 24z"/>
    <glyph glyph-name="Igrave" unicode="Ì" horiz-adv-x="559" d="M494 1265q9 -11 6 -24q-11 -58 -106.5 -603.5t-106.5 -603.5q-3 -15 -14 -24q-13 -10 -26 -10h-158q-14 0 -22.5 10t-6.5 24q16 91 106.5 603.5t106.5 603.5q2 14 14 24t26 10h159q14 0 22 -10zM290 1355q-13 21 -112 176q-10 17 2 36q13 20 34 20h175q20 0 26 -16 q46 -100 81 -176q8 -17 -5 -35q-12 -17 -33 -17h-144q-16 0 -24 12z"/>
    <glyph glyph-name="Iacute" unicode="Í" horiz-adv-x="561" d="M494 1265q9 -11 6 -24q-11 -58 -106.5 -603.5t-106.5 -603.5q-3 -15 -14 -24q-12 -10 -26 -10h-158q-14 0 -22.5 10t-6.5 24q16 91 106.5 603.5t106.5 603.5q2 14 14 24t26 10h159q14 0 22 -10zM684 1531q-114 -116 -174 -176q-12 -12 -29 -12h-143q-21 0 -27 17 q-7 19 8 35q22 27 75 92.5t67 83.5q13 16 32 16h174q21 0 28 -20q6 -19 -11 -36z"/>
    <glyph glyph-name="Icircumflex" unicode="Î" horiz-adv-x="563" d="M494 1265q9 -11 6 -24q-11 -58 -106.5 -603.5t-106.5 -603.5q-3 -15 -14 -24q-13 -10 -26 -10h-158q-14 0 -22.5 10t-6.5 24q16 91 106.5 603.5t106.5 603.5q2 14 14 24t26 10h159q14 0 22 -10zM326 1567q13 20 34 20h175q21 0 28 -20q0 -1 0.5 -2t0.5 -2l77 -168 q8 -17 -5 -35q-12 -17 -33 -17h-143q-18 0 -25 12l-22 35l-35 -35q-12 -12 -28 -12h-144q-20 0 -26 17q-7 19 7 35l136 168l2 2t1 2z"/>
    <glyph glyph-name="Idieresis" unicode="Ï" horiz-adv-x="563" d="M494 1265q9 -11 6 -24q-11 -58 -106.5 -603.5t-106.5 -603.5q-4 -16 -14 -24q-12 -10 -26 -10h-158q-14 0 -22.5 10t-6.5 24q16 91 106.5 603.5t106.5 603.5q2 14 14 24t26 10h159q14 0 22 -10zM115 1569q13 10 26 10h159q14 0 22 -10q9 -11 6 -24l-30 -168 q-4 -16 -14 -25q-12 -10 -26 -10h-158q-15 0 -23 10t-5 25q4 22 14.5 84t14.5 84q3 15 14 24zM567 1569q12 10 25 10h159q14 0 22 -10q9 -11 6 -24l-29 -168q-3 -15 -15 -25t-26 -10h-158q-15 0 -23 10t-5 25q4 22 14.5 84t14.5 84q3 15 15 24z"/>
    <glyph glyph-name="Eth" unicode="Ð" horiz-adv-x="1353" d="M777 1275q157 0 276.5 -77.5t173.5 -211t26 -290.5l-21 -118q-28 -157 -128.5 -290t-247.5 -210.5t-304 -77.5h-441q-14 0 -22 10q-9 11 -6 24l86 490h-32q-14 0 -22 10q-9 11 -6 24q4 21 14 79t14 80q4 16 14 24q13 10 26 10h32l87 490q3 15 14 24q13 10 26 10h441z M1026 696q26 146 -59 249t-230 103h-248l-53 -297h274q14 0 22 -10q9 -11 6 -24q-4 -21 -14 -79t-14 -80q-3 -15 -14 -24q-13 -10 -26 -10h-274l-52 -297h248q146 0 267.5 103.5t146.5 248.5z"/>
    <glyph glyph-name="Ntilde" unicode="Ñ" horiz-adv-x="1292" d="M552 1257l308 -840l146 824q2 14 14 24t26 10h158q14 0 22 -10t6 -24q-16 -90 -106 -603.5t-106 -603.5q-2 -14 -14 -24t-26 -10h-219q-20 0 -27 18l-302 836l-145 -820q-2 -14 -14 -24t-26 -10h-158q-14 0 -22.5 10t-6.5 24q16 91 106.5 603.5t106.5 603.5q2 14 14 24 t26 10h212q20 0 27 -18zM591 1385h-48q-16 0 -24 13q-8 12 -1 29q25 60 81.5 99t121.5 39q80 0 140 -62q12 -13 24 -24q11 -9 17 -9q37 0 55 45q11 27 38 27h46q16 0 24 -13q7 -11 2 -27q-8 -24 -21 -46t-34.5 -46t-55 -38.5t-74.5 -14.5q-52 0 -97 47q-2 2 -9.5 10 t-10.5 11.5t-11 9.5t-14.5 8.5t-16.5 5t-22 2.5q-22 0 -42.5 -12t-31.5 -32q-12 -22 -36 -22z"/>
    <glyph glyph-name="Ograve" unicode="Ò" horiz-adv-x="1320" d="M382 1169q152 119 392 125h5q238 -6 348 -125q138 -149 76 -501q-2 -11 -6 -31q-1 -8 -5 -31q-62 -351 -252 -501q-152 -119 -393 -125h-5q-238 6 -348 125q-137 148 -75 501q2 11 6 31q1 8 5 31q62 353 252 501zM945 1002q-57 63 -208 66q-153 -3 -232 -66 q-61 -48 -93.5 -128.5t-54.5 -205.5q-4 -18 -5 -27l-1 -7q-1 -4 -2.5 -14t-2.5 -14q-23 -105 -19 -195t49 -138q57 -63 209 -66q152 3 232 66q62 48 94 128t54 205q2 8 4 28l2 7q1 5 2.5 14t2.5 13q23 105 18.5 195t-49.5 139zM688 1355q-6 9 -48 75.5t-63 100.5 q-10 17 2 36q13 20 34 20h174q20 0 26 -16q46 -100 81 -176q8 -17 -5 -35q-12 -17 -33 -17h-143q-18 0 -25 12z"/>
    <glyph glyph-name="Oacute" unicode="Ó" horiz-adv-x="1320" d="M382 1169q152 119 392 125h5q238 -6 348 -125q138 -149 76 -501q-2 -11 -6 -31q-1 -8 -5 -31q-62 -351 -252 -501q-153 -119 -393 -125h-4q-239 6 -349 125q-137 148 -75 501q2 11 6 31q1 5 2.5 15.5t2.5 15.5q62 353 252 501zM945 1002q-57 63 -208 66q-152 -3 -232 -66 q-62 -48 -94.5 -129t-54.5 -205q-2 -9 -4 -27l-1 -7q-1 -4 -2.5 -14t-2.5 -14q-23 -105 -19 -195t49 -138q57 -63 209 -66q152 3 232 66q62 48 94 128t54 205q2 8 4 28l2 7q1 5 2.5 14t2.5 13q23 105 18.5 195t-49.5 139zM1049 1531q-171 -174 -173 -176q-12 -12 -29 -12 h-143q-21 0 -27 17q-7 19 7 35q24 29 77 94.5t66 81.5t31 16h175q20 0 27 -20q6 -19 -11 -36z"/>
    <glyph glyph-name="Ocircumflex" unicode="Ô" horiz-adv-x="1320" d="M382 1169q152 119 392 125h5q238 -6 348 -125q138 -149 76 -501q-2 -11 -6 -31q-1 -8 -5 -31q-62 -351 -252 -501q-152 -119 -393 -125h-5q-238 6 -348 125q-137 148 -75 501q2 11 6 31q1 8 5 31q62 351 252 501zM945 1002q-57 63 -208 66q-153 -3 -232 -66 q-61 -48 -93.5 -128.5t-54.5 -205.5q-4 -18 -5 -27l-1 -7q-1 -4 -2.5 -14t-2.5 -14q-23 -105 -19 -195t49 -138q57 -63 209 -66q152 3 232 66q62 48 94 128t54 205q2 8 4 28l2 7q1 5 2.5 14t2.5 13q23 105 18.5 195t-49.5 139zM706 1567q13 20 34 20h176q22 0 27 -20 q0 -1 0.5 -2t0.5 -2l77 -168q8 -17 -5 -35q-12 -17 -33 -17h-143q-16 0 -24 12l-23 35l-34 -35q-12 -12 -29 -12h-143q-21 0 -27 17q-7 19 7 35l137 168q0 1 1 2t1 2z"/>
    <glyph glyph-name="Otilde" unicode="Õ" horiz-adv-x="1320" d="M382 1169q152 119 392 125h5q238 -6 348 -125q138 -149 76 -501q-2 -11 -6 -31q-1 -8 -5 -31q-62 -353 -252 -501q-153 -119 -393 -125h-4q-239 6 -349 125q-137 148 -75 501q2 11 6 31q1 5 2.5 15.5t2.5 15.5q62 353 252 501zM945 1002q-57 63 -208 66q-152 -3 -232 -66 q-62 -48 -94.5 -129t-54.5 -205q-2 -9 -4 -27l-1 -7q-1 -4 -3 -13.5t-3 -14.5q-23 -105 -18.5 -194.5t49.5 -138.5q57 -63 209 -66q152 3 232 66q62 48 94 128t54 205q2 8 4 28l2 7q1 5 2.5 14t2.5 13q23 105 18.5 195t-49.5 139zM605 1385h-48q-16 0 -24 13q-8 12 -1 29 q25 60 81.5 99t121.5 39q80 0 140 -62q12 -13 24 -24q11 -9 17 -9q37 0 55 45q11 27 38 27h46q16 0 24 -13q7 -12 3 -27q-8 -24 -21 -46t-34.5 -46t-55.5 -38.5t-75 -14.5q-52 0 -97 47q-1 1 -9 10t-11 11.5t-11 9t-14.5 9t-17 5t-21.5 2.5q-22 0 -42.5 -12t-31.5 -32 q-12 -22 -36 -22z"/>
    <glyph glyph-name="Odieresis" unicode="Ö" horiz-adv-x="1320" d="M382 1169q152 119 392 125h5q238 -6 348 -125q138 -149 76 -501q-2 -11 -6 -31q-1 -8 -5 -31q-62 -351 -252 -501q-152 -119 -393 -125h-5q-238 6 -348 125q-137 148 -75 501q2 11 6 31q1 8 5 31q62 353 252 501zM945 1002q-57 63 -208 66q-152 -3 -232 -66 q-62 -48 -94.5 -129t-54.5 -205q-2 -9 -4 -27l-1 -7q-1 -4 -2.5 -14t-2.5 -14q-23 -105 -19 -195t49 -138q57 -63 209 -66q152 3 232 66q62 48 94 128t54 205q2 8 4 28l2 7q1 5 2.5 14t2.5 13q23 105 18.5 195t-49.5 139zM496 1569q12 10 26 10h159q14 0 22 -10q9 -11 6 -24 l-30 -168q-4 -16 -14 -25q-12 -10 -26 -10h-159q-14 0 -22 10q-9 11 -6 25q4 22 15 83.5t15 84.5q3 15 14 24zM947 1569q13 10 26 10h159q14 0 22 -10q9 -11 6 -24l-30 -168q-4 -16 -14 -25q-12 -10 -26 -10h-159q-14 0 -22 10q-9 11 -6 25q4 23 15 84t15 84q3 15 14 24z "/>
    <glyph glyph-name="multiply" unicode="×" horiz-adv-x="1056" d="M972 865q8 -10 5.5 -24t-14.5 -24l-284 -242q145 -177 199 -242q8 -10 5.5 -24t-14.5 -24q-18 -15 -66 -56.5t-66 -56.5q-12 -10 -26 -10t-22 10l-199 242q-208 -177 -285 -242q-12 -10 -26 -10t-22 10q-12 15 -45.5 56.5t-46.5 56.5q-8 10 -6 24t14 24l285 242 q-146 177 -200 242q-8 10 -5.5 24t14.5 24q18 15 66 56t66 56q12 10 26 10t22 -10l199 -242q208 177 285 242q12 10 26 10t22 -10q13 -15 47 -56t46 -56z"/>
    <glyph glyph-name="Oslash" unicode="Ø" horiz-adv-x="1335" d="M68 54l95 104q-89 151 -37 448q2 11 6 31q1 5 2.5 15.5t2.5 15.5q62 353 252 501q152 119 393 125h5q206 -4 316 -95l56 62q12 14 30 14h61q20 0 27 -19q6 -18 -9 -35l-94 -104q89 -149 37 -448q-4 -22 -6 -32q-1 -8 -5 -31q-62 -353 -252 -501q-152 -119 -393 -125h-5 q-210 4 -322 100l-60 -66q-12 -14 -30 -14h-51q-21 0 -28 19q-6 18 9 35zM984 668q29 171 10 252l-599 -657q60 -53 198 -56q151 3 231 66q62 48 94.5 128.5t54.5 204.5q2 8 4 28l1 7zM342 357l596 659q-59 49 -194 52q-152 -3 -232 -66q-61 -48 -93.5 -128.5t-54.5 -205.5 q-2 -9 -4 -27l-2 -7q-1 -4 -2.5 -14t-2.5 -14q-29 -167 -11 -249z"/>
    <glyph glyph-name="Ugrave" unicode="Ù" horiz-adv-x="1325" d="M587 207q117 0 212.5 62t111.5 155l144 817q4 16 14 24q12 10 26 10h159q14 0 22 -10q9 -11 6 -24l-144 -817q-21 -118 -106.5 -220t-215 -163t-270.5 -61q-106 0 -195 36t-146.5 96.5t-83 142t-9.5 169.5q116 658 144 817q3 15 14 24q12 10 26 10h159q14 0 22 -10 q9 -11 6 -24l-144 -817q-16 -93 57.5 -155t190.5 -62zM730 1355q-13 21 -112 176q-10 17 2 36q13 20 35 20h174q20 0 26 -16q2 -5 33.5 -74t46.5 -102q9 -17 -4 -35q-12 -17 -33 -17h-144q-16 0 -24 12z"/>
    <glyph glyph-name="Uacute" unicode="Ú" horiz-adv-x="1325" d="M587 207q117 0 212.5 62t111.5 155l144 817q3 15 14 24q13 10 26 10h159q14 0 22 -10q9 -11 6 -24l-144 -817q-21 -118 -106 -220t-214.5 -163t-270.5 -61t-249 61t-157.5 163t-28.5 220q116 658 144 817q3 15 14 24q12 10 26 10h159q14 0 22 -10q9 -11 6 -24l-145 -817 q-16 -93 58 -155t191 -62zM1072 1531q-114 -116 -174 -176q-12 -12 -28 -12h-144q-20 0 -26 17q-7 18 7 35q24 29 77 94.5t66 81.5t31 16h174q21 0 28 -20q6 -19 -11 -36z"/>
    <glyph glyph-name="Ucircumflex" unicode="Û" horiz-adv-x="1325" d="M587 207q117 0 212.5 62t111.5 155l144 817q3 15 14 24q12 10 26 10h159q14 0 22 -10q9 -11 6 -24l-144 -817q-21 -118 -106.5 -220t-215 -163t-270.5 -61q-106 0 -195 36t-146.5 96.5t-83 142t-9.5 169.5q116 658 144 817q4 16 14 24q12 10 26 10h159q14 0 22 -10 q9 -11 6 -24l-144 -817q-16 -93 57.5 -155t190.5 -62zM731 1567q13 20 34 20h176q20 0 27 -20q0 -1 0.5 -2t0.5 -2l77 -168q8 -17 -5 -35q-12 -17 -33 -17h-143q-17 0 -25 12l-22 35l-35 -35q-12 -12 -28 -12h-144q-20 0 -26 17q-7 19 7 35l136 168q0 1 1 2z"/>
    <glyph glyph-name="Udieresis" unicode="Ü" horiz-adv-x="1325" d="M586 207q117 0 213 62t112 155l144 817q3 15 14 24q12 10 26 10h159q14 0 22 -10q9 -11 6 -24l-144 -817q-21 -118 -106.5 -220t-215 -163t-270.5 -61q-106 0 -195 36t-146.5 96.5t-83 142t-9.5 169.5q116 658 144 817q3 15 14 24q13 10 26 10h159q14 0 22 -10t5 -24 l-144 -817q-16 -93 57.5 -155t190.5 -62zM498 1569q12 10 25 10h159q14 0 22 -10q9 -11 6 -24l-30 -168q-4 -17 -14 -25q-11 -9 -26 -9h-158q-16 0 -23 9q-8 10 -5 25q4 22 14.5 84t14.5 84q3 14 15 24zM949 1569q13 10 25 10h159q14 0 22 -10q9 -11 6 -24l-29 -168 q-4 -17 -15 -25q-12 -10 -26 -10h-158q-15 0 -23 10t-5 25q4 22 14.5 84t14.5 84q3 14 15 24z"/>
    <glyph glyph-name="Yacute" unicode="Ý" horiz-adv-x="1056" d="M914 1275h176q20 0 26 -16q7 -16 -4 -33l-501 -773l-74 -419q-3 -14 -15 -24t-26 -10h-158q-15 0 -23 10t-5 24l74 419q-177 597 -229 773q-5 17 8 33t31 16h176q20 0 27 -20l151 -511q270 415 332 511q13 20 34 20zM958 1531q-114 -116 -174 -176q-12 -12 -29 -12h-143 q-21 0 -27 17q-7 18 7 35q24 29 77 94.5t66 81.5t32 16h174q20 0 27 -20q6 -20 -10 -36z"/>
    <glyph glyph-name="germandbls" unicode="ß" horiz-adv-x="1077" d="M922 593q58 -110 30 -267q-28 -159 -140 -255.5t-228 -90.5q-49 3 -103 35q-42 25 -82 61q-11 10 -9 24q2 15 13 26q17 17 63.5 60t62.5 59q11 10 24.5 11.5t22.5 -6.5q13 -11 34 -26q20 -14 29 -17q16 1 38 21q37 36 48 98q14 85 -12 136q-18 35 -55.5 56t-67.5 26 t-61 5l36 201q3 20 23 30q14 8 35 34q48 61 62 148q7 44 -19.5 75t-71.5 31t-83.5 -31t-45.5 -75l-163 -928q-2 -14 -14 -24t-26 -10h-159q-14 0 -22 10t-6 24l163 928q24 137 140 234.5t256 97.5q139 0 220.5 -97.5t57.5 -234.5q-25 -140 -104 -250q75 -45 114 -119z"/>
    <glyph glyph-name="agrave" unicode="à" d="M872 891q76 -78 54 -203l-95 -539q-9 -48 -9 -95v-14q0 -16 -12 -28t-28 -12h-158q-13 0 -21 8t-8 20q0 4 0.5 12.5t0.5 13.5q0 52 8 95l1 3q-41 -79 -124 -125.5t-150 -46.5q-132 0 -203 73q-83 85 -57 234q11 60 34.5 104.5t61 76t78.5 52t99 40.5q122 43 341 45l14 83 q5 27 -18 40t-68 13q-61 0 -115.5 -19.5t-87.5 -55.5q-20 -21 -42 -11q-20 9 -72.5 34.5t-63.5 30.5q-14 7 -15 20q-2 16 7 28q69 90 184.5 145t244.5 55q145 0 219 -77zM635 324l16 89q-120 0 -203 -17q-64 -13 -103 -36t-48 -73q-8 -45 9 -62q18 -18 65 -18q64 0 137.5 32 t126.5 85zM587 1077q-13 21 -112 176q-10 17 2 36q13 20 35 20h174q20 0 26 -16q2 -5 33.5 -74t46.5 -102q8 -17 -5 -35q-12 -17 -32 -17h-144q-17 0 -24 12z"/>
    <glyph glyph-name="aacute" unicode="á" d="M653 968q145 0 219 -77q76 -78 54 -203l-95 -539q-9 -48 -9 -95v-14q0 -16 -12 -28t-28 -12h-158q-13 0 -21 8t-8 20q0 4 0.5 12.5t0.5 13.5q0 52 8 95l1 3q-41 -79 -124 -125.5t-150 -46.5q-132 0 -203 73q-83 85 -57 234q11 60 34.5 104.5t61.5 76t78.5 52t99.5 40.5 q119 42 340 44l14 84q5 27 -18 40t-68 13q-133 0 -202 -75q-20 -22 -43 -11q-20 9 -72.5 34.5t-63.5 30.5q-14 7 -15 20q-2 16 7 28q69 90 184.5 145t244.5 55zM635 324l16 89q-120 0 -203 -17q-64 -13 -103 -36t-48 -73q-8 -45 9 -62q18 -18 65 -18q64 0 137.5 32t126.5 85 zM951 1309q21 0 28 -20q6 -19 -11 -36q-114 -116 -174 -176q-12 -12 -28 -12h-144q-20 0 -26 17q-7 18 7 35q22 27 75 92.5t67 83.5q13 16 32 16h174z"/>
    <glyph glyph-name="acircumflex" unicode="â" d="M458 1065q-21 0 -27 17q-6 16 8 35l136 169q1 0 1 1t1 2q13 20 35 20h175q21 0 28 -20v-3l78 -169q8 -17 -5 -35q-12 -17 -33 -17h-144q-17 0 -24 12l-22 36l-35 -36q-12 -12 -29 -12h-143zM872 891q76 -78 54 -203l-95 -539q-9 -48 -9 -95v-14q0 -16 -12 -28t-28 -12 h-158q-13 0 -21 8t-8 20q0 4 0.5 12.5t0.5 13.5q0 52 8 95l1 3q-41 -79 -124 -125.5t-150 -46.5q-132 0 -203 73q-83 85 -57 234q11 60 34.5 104.5t61 76t78.5 52t99 40.5q122 43 341 45l14 83q5 27 -18 40t-68 13q-61 0 -115.5 -19.5t-87.5 -55.5q-20 -21 -42 -11 q-20 9 -72.5 34.5t-63.5 30.5q-14 7 -15 20q-2 16 7 28q69 90 184.5 145t244.5 55q145 0 219 -77zM635 324l16 89q-120 0 -203 -17q-64 -13 -103 -36t-48 -73q-8 -45 9 -62q18 -18 65 -18q64 0 137.5 32t126.5 85z"/>
    <glyph glyph-name="atilde" unicode="ã" d="M973 1247q8 -12 3 -28q-9 -24 -21.5 -46t-33.5 -46t-55 -38.5t-75 -14.5q-53 0 -98 47q-2 2 -9.5 10t-10.5 11.5t-11 9.5t-14.5 9t-17 5.5t-21.5 2.5q-22 0 -42.5 -12.5t-31.5 -32.5q-12 -22 -35 -22q-33 0 -49 1q-16 0 -24 13q-7 12 -1 28q25 60 81.5 99t121.5 39 q81 0 140 -61q13 -14 25 -25q11 -9 17 -9q37 0 55 46q10 26 38 26h45q17 0 24 -12zM653 968q144 0 219 -77q76 -78 54 -203l-95 -539q-9 -48 -9 -95v-14q0 -16 -12 -28t-28 -12h-158q-13 0 -21 8t-8 20v26q0 47 9 95l1 3q-41 -79 -124 -125.5t-150 -46.5q-132 0 -203 73 q-83 85 -57 234q11 60 34.5 104.5t61 76t78.5 52t99 40.5q122 43 341 45l14 83q5 27 -18 40t-68 13q-61 0 -115.5 -19.5t-87.5 -55.5q-20 -21 -42 -11q-15 7 -40 19t-54.5 26t-42.5 20q-12 6 -14 20q-2 16 7 28q69 90 184.5 145t244.5 55zM635 324l16 89q-120 0 -203 -17 q-64 -13 -103 -36t-48 -73q-8 -45 9 -62q18 -18 65 -18q64 0 137.5 32t126.5 85z"/>
    <glyph glyph-name="adieresis" unicode="ä" d="M359 1059q-15 0 -23 10q-9 11 -6 24q4 22 15 84t15 84q3 15 14 24q13 10 26 10h159q14 0 22 -10q9 -11 6 -24l-30 -168q-4 -16 -14 -24q-13 -10 -26 -10h-158zM1032 1285q9 -11 6 -24l-29 -168q-3 -15 -15 -24q-13 -10 -26 -10h-158q-15 0 -23 10t-5 24q4 23 14.5 84.5 t14.5 83.5q3 15 15 24q13 10 25 10h159q14 0 22 -10zM653 968q144 0 219 -77q76 -78 54 -203l-95 -539q-9 -48 -9 -95v-14q0 -16 -12 -28t-28 -12h-158q-13 0 -21 8t-8 20v26q0 47 9 95l1 3q-41 -79 -124 -125.5t-150 -46.5q-132 0 -203 73q-83 85 -57 234q11 60 34.5 104.5 t61 76t78.5 52t99 40.5q122 43 341 45l14 83q5 27 -18 40t-68 13q-61 0 -115.5 -19.5t-87.5 -55.5q-20 -21 -42 -11q-15 7 -40 19t-54.5 26t-42.5 20q-12 6 -14 20q-2 16 7 28q69 90 184.5 145t244.5 55zM635 324l16 89q-120 0 -203 -17q-64 -13 -103 -36t-48 -73 q-8 -45 9 -62q18 -18 65 -18q64 0 137.5 32t126.5 85z"/>
    <glyph glyph-name="aring" unicode="å" d="M872 891q76 -78 54 -203l-95 -539q-9 -48 -9 -95v-14q0 -16 -12 -28t-28 -12h-158q-13 0 -21 8t-8 20q0 4 0.5 12.5t0.5 13.5q0 52 8 95l1 3q-41 -79 -124 -125.5t-150 -46.5q-132 0 -203 73q-83 85 -57 234q11 60 34.5 104.5t61 76t78.5 52t99 40.5q122 43 341 45l14 83 q5 27 -18 40t-68 13q-61 0 -115.5 -19.5t-87.5 -55.5q-20 -21 -42 -11q-20 9 -72.5 34.5t-63.5 30.5q-14 7 -15 20q-2 16 7 28q69 90 184.5 145t244.5 55q145 0 219 -77zM635 324l16 89q-120 0 -203 -17q-64 -13 -103 -36t-48 -73q-8 -45 9 -62q18 -18 65 -18q64 0 137.5 32 t126.5 85zM650 1055q-71 0 -112 50t-28 120q13 71 71.5 121t128.5 50t111.5 -50t28.5 -121t-71.5 -120.5t-128.5 -49.5zM690 1282q-23 0 -43 -17t-24 -40t10 -39.5t37 -16.5t43 16.5t24 39.5t-10 40t-37 17z"/>
    <glyph glyph-name="ae" unicode="æ" horiz-adv-x="1583" d="M1423 859q85 -110 52 -344l-6 -41q-8 -47 -14 -80q-4 -16 -14 -24q-13 -10 -26 -10h-540q0 -71 36 -107q46 -46 172 -46q81 0 152 40q28 17 43 -5q8 -11 40.5 -56t45.5 -64q8 -11 3 -26q-5 -16 -17 -24q-67 -43 -150 -67.5t-157 -24.5q-79 0 -144.5 17.5t-102.5 43 t-63 51t-35 42.5l-10 18q-4 -7 -13 -18.5t-41 -41t-70 -52.5t-101 -41.5t-132 -18.5q-132 0 -203 73q-83 85 -57 234q11 60 34.5 104.5t61 76t78.5 52t99 40.5q122 43 341 45l14 83q5 27 -18 40t-68 13q-61 0 -115.5 -19.5t-87.5 -55.5q-20 -21 -42 -11q-15 7 -40 19 t-54.5 26t-42.5 20q-12 6 -14 20q-2 16 7 28q69 90 184.5 145t244.5 55q145 0 219 -77l5 -5q113 82 275 82q187 0 271 -109zM635 324l16 89q-120 0 -203 -17q-64 -13 -103 -36t-48 -73q-8 -45 9 -62q18 -18 65 -18q64 0 137.5 32t126.5 85zM1249 515q22 138 -18 188 q-30 38 -119 38q-90 0 -132 -38q-57 -50 -84 -188h353z"/>
    <glyph glyph-name="ccedilla" unicode="ç" horiz-adv-x="1046" d="M341 474l-1 -4q-15 -63 -12 -123.5t36 -93.5q46 -46 172 -46q101 0 209 91q26 21 46 3q14 -14 52 -50.5t52 -50.5q9 -9 8 -24q-2 -15 -14 -26q-30 -26 -66 -50.5t-88.5 -54t-115.5 -47.5t-123 -18h-6l-9 -25q49 -12 72 -51q21 -39 12 -92q-9 -50 -57 -93.5t-103 -43.5 q-45 0 -89 27q-11 7 -11 24q0 15 14 27q8 8 23.5 21.5t17.5 15.5q18 16 38 8q14 -9 27 -9q9 0 17 7.5t10 15.5q3 16 -1 24t-24 10q-14 2 -37 0q-22 -3 -30 14q-5 8 -11 23q-6 10 -1 25l30 81q-121 21 -192 92q-120 120 -72 393l1 4q48 269 209 389q135 101 346 101 q55 0 109.5 -17.5t97.5 -46t71 -51.5t51 -48q10 -10 7 -25t-16 -25q-61 -49 -135 -107q-11 -9 -24.5 -8.5t-21.5 9.5q-84 92 -179 92q-125 0 -188 -46q-45 -33 -65.5 -85.5t-35.5 -135.5z"/>
    <glyph glyph-name="egrave" unicode="è" horiz-adv-x="1038" d="M877 859q86 -111 53 -344l-7 -41q-8 -47 -14 -80q-4 -16 -14 -24q-13 -10 -26 -10h-539q0 -71 36 -107q46 -46 172 -46q81 0 152 40q28 17 43 -5q76 -107 85 -120q9 -12 4 -26q-5 -15 -17 -24q-67 -43 -150 -67.5t-157 -24.5q-211 0 -310 101q-120 120 -72 393v2 q47 264 182 383q122 109 309 109q186 0 270 -109zM704 515q22 137 -19 188q-30 38 -118 38q-90 0 -132 -38q-57 -50 -84 -188h353zM525 1077q-13 21 -112 176q-10 17 2 36q13 20 34 20h175q20 0 26 -16q2 -5 33.5 -74t46.5 -102q8 -17 -5 -35q-12 -17 -33 -17h-143 q-17 0 -24 12z"/>
    <glyph glyph-name="eacute" unicode="é" horiz-adv-x="1038" d="M553 1065q-21 0 -27 17t7 35q24 29 77 94.5t66 81.5t31 16h175q20 0 27 -20q6 -19 -11 -36q-171 -174 -173 -176q-12 -12 -29 -12h-143zM877 859q86 -111 53 -344l-7 -41q-8 -47 -14 -80q-4 -16 -14 -24q-13 -10 -26 -10h-539q0 -71 36 -107q46 -46 172 -46q81 0 152 40 q28 17 43 -5q23 -30 85 -120q9 -12 4 -26q-5 -16 -17 -24q-67 -43 -150 -67.5t-157 -24.5q-211 0 -310 101q-120 120 -72 393v2q47 264 182 383q122 109 309 109q186 0 270 -109zM704 515q22 137 -19 188q-30 38 -118 38q-90 0 -132 -38q-57 -50 -84 -188h353z"/>
    <glyph glyph-name="ecircumflex" unicode="ê" horiz-adv-x="1038" d="M426 1065q-21 0 -27 17q-7 18 7 35l137 169q1 0 1 1t1 2q13 20 34 20h176q20 0 27 -20v-1l1 -2l77 -169q8 -17 -5 -35q-12 -17 -33 -17h-143q-17 0 -24 12l-23 36l-34 -36q-12 -12 -29 -12h-143zM877 859q86 -111 53 -344l-6 -41q-8 -47 -14 -80q-3 -14 -15 -24 q-13 -10 -26 -10h-539q0 -71 36 -107q46 -46 172 -46q81 0 152 40q28 17 43 -5q23 -30 85 -120q9 -12 4 -26q-5 -16 -17 -24q-67 -43 -150 -67.5t-157 -24.5q-211 0 -310 101q-120 120 -72 393v2q47 264 182 383q122 109 309 109q186 0 270 -109zM703 515q22 138 -18 188 q-30 38 -118 38q-90 0 -132 -38q-58 -51 -85 -188h353z"/>
    <glyph glyph-name="edieresis" unicode="ë" horiz-adv-x="1038" d="M607 968q186 0 270 -109q86 -111 53 -344l-7 -41q-8 -47 -14 -80q-4 -16 -14 -24q-13 -10 -26 -10h-539q0 -71 36 -107q46 -46 172 -46q81 0 152 40q28 17 43 -5q76 -107 85 -120q9 -12 4 -26q-5 -15 -17 -24q-67 -43 -150 -67.5t-157 -24.5q-211 0 -310 101 q-120 120 -72 393v2q47 263 182 383q122 109 309 109zM703 515q22 138 -18 188q-30 38 -118 38q-90 0 -132 -38q-58 -51 -85 -188h353zM324 1059q-14 0 -22 10q-9 11 -6 24q4 22 15 84t15 84q3 15 14 24q13 10 26 10h159q14 0 22 -10q9 -11 6 -24l-30 -168q-4 -16 -14 -24 q-13 -10 -26 -10h-159zM998 1285q9 -11 6 -24l-30 -168q-4 -16 -14 -24q-13 -10 -26 -10h-159q-14 0 -22 10q-9 11 -6 24q4 22 15 83.5t15 84.5q3 15 14 24q13 10 26 10h159q14 0 22 -10z"/>
    <glyph glyph-name="igrave" unicode="ì" horiz-adv-x="530" d="M429 948q14 0 22 -10t6 -24q-13 -74 -77.5 -440t-77.5 -440q-2 -14 -14 -24t-26 -10h-159q-14 0 -22 10t-6 24q13 74 77.5 440t77.5 440q2 14 14 24t26 10h159zM248 1077q-13 21 -112 176q-10 17 2 36q13 20 34 20h175q20 0 26 -16q2 -5 33.5 -74t46.5 -102q8 -17 -5 -35 q-12 -17 -33 -17h-143q-16 0 -24 12z"/>
    <glyph glyph-name="iacute" unicode="í" horiz-adv-x="532" d="M429 948q14 0 22 -10t6 -24q-13 -74 -77.5 -440t-77.5 -440q-2 -14 -14 -24t-26 -10h-159q-14 0 -22 10t-6 24q13 74 77.5 440t77.5 440q2 14 14 24t26 10h159zM642 1309q21 0 28 -20q6 -19 -11 -36q-114 -116 -174 -176q-12 -12 -28 -12h-144q-20 0 -26 17t7 35 q22 27 75 92.5t67 83.5q13 16 32 16h174z"/>
    <glyph glyph-name="icircumflex" unicode="î" horiz-adv-x="534" d="M429 948q14 0 22 -10t6 -24q-13 -74 -77.5 -440t-77.5 -440q-2 -14 -14 -24t-26 -10h-159q-14 0 -22 10t-6 24q13 74 77.5 440t77.5 440q2 14 14 24t26 10h159zM606 1117q8 -17 -5 -35q-12 -17 -33 -17h-143q-17 0 -24 12l-23 36l-34 -36q-12 -12 -29 -12h-143 q-21 0 -27 17t7 35l137 169q1 0 1 1t1 2q13 20 34 20h176q20 0 27 -20v-1l1 -2z"/>
    <glyph glyph-name="idieresis" unicode="ï" horiz-adv-x="538" d="M253 1069q-12 -10 -26 -10h-159q-14 0 -22 10q-9 11 -6 24q4 22 15 84t15 84q3 15 14 24q13 10 26 10h159q14 0 22 -10t5 -24l-29 -168q-4 -16 -14 -24zM742 1285q9 -11 6 -24l-30 -168q-4 -16 -14 -24q-13 -10 -26 -10h-159q-14 0 -22 10q-9 11 -6 24q4 22 15 83.5 t15 84.5q3 15 14 24q13 10 26 10h159q14 0 22 -10zM433 948q14 0 22 -10t6 -24q-13 -74 -77.5 -440t-77.5 -440q-2 -14 -14 -24t-26 -10h-159q-14 0 -22 10t-6 24q13 74 77.5 440t77.5 440q2 14 14 24t26 10h159z"/>
    <glyph glyph-name="ntilde" unicode="ñ" horiz-adv-x="1116" d="M778 968q150 -4 197 -125.5t7 -347.5q-61 -349 -81 -461q-3 -15 -15 -24q-13 -10 -25 -10h-159q-15 0 -23 10t-5 24l81 461q19 107 -10.5 176t-102.5 70q-48 1 -91 -16t-73.5 -45.5t-48 -50t-30.5 -43.5l-97 -552q-2 -14 -14 -24t-26 -10h-159q-14 0 -22 10t-6 24 q97 556 155 880q2 14 14 24t26 10h159q14 0 22 -10t6 -24l-13 -72q154 130 334 126zM441 1103q-16 0 -24 13q-7 12 -1 28q25 60 81.5 99t121.5 39q81 0 140 -61q16 -18 24 -25q11 -9 17 -9q37 0 55 46q10 26 38 26h46q17 0 24 -12q7 -11 2 -28q-8 -24 -21 -46t-34.5 -46 t-55 -38.5t-74.5 -14.5q-52 0 -97 47q-2 3 -9 10.5t-10.5 11t-11.5 9.5t-14.5 9t-16.5 5.5t-22 2.5q-22 0 -42.5 -12.5t-31.5 -32.5q-12 -22 -36 -22q-32 0 -48 1z"/>
    <glyph glyph-name="ograve" unicode="ò" horiz-adv-x="1036" d="M509 1077q-13 21 -112 176q-10 17 2 36q13 20 34 20h175q20 0 26 -16q2 -5 33.5 -74t46.5 -102q8 -17 -5 -35q-12 -17 -33 -17h-143q-17 0 -24 12zM865 870q101 -113 55 -374q-2 -16 -4 -22q0 -4 -1 -11.5t-2 -10.5q-45 -259 -188 -374q-117 -94 -292 -98h-5 q-175 4 -259 98q-101 113 -55 374q0 4 2 11.5t2 10.5t2 10.5t2 11.5q45 260 187 374q117 94 293 98h5q174 -4 258 -98zM693 496q15 65 14.5 122t-27.5 87q-30 34 -116 36q-86 -2 -129 -36q-37 -30 -54 -78t-32 -131l-3 -18l-1 -7q-1 -3 -2 -9.5t-2 -9.5q-15 -65 -14.5 -122 t27.5 -87q30 -34 116 -36q86 2 129 36q37 30 55 78.5t32 130.5q0 3 1 9.5t2 9.5l1 7z"/>
    <glyph glyph-name="oacute" unicode="ó" d="M573 1065q-20 0 -26 17t7 35q22 27 75 92.5t67 83.5q13 16 32 16h174q21 0 28 -20q6 -19 -11 -36q-114 -116 -174 -176q-12 -12 -28 -12h-144zM865 870q101 -113 55 -374q-2 -16 -4 -22q0 -4 -1 -11.5t-2 -10.5q-45 -259 -188 -374q-117 -94 -292 -98h-5q-176 4 -258 98 q-101 114 -56 374q1 9 5 22q1 3 2 10.5t1 11.5q45 260 187 374q117 94 293 98h5q176 -4 258 -98zM693 496q15 65 14.5 122t-26.5 87q-30 34 -117 36q-85 -2 -128 -36q-37 -30 -55 -78.5t-32 -130.5l-3 -18l-1 -7q-1 -3 -2 -9.5t-2 -9.5q-15 -65 -14.5 -122t27.5 -87 q30 -34 116 -36q86 2 129 36q37 30 55 78.5t32 130.5q0 3 1 9.5t2 9.5l1 7z"/>
    <glyph glyph-name="ocircumflex" unicode="ô" horiz-adv-x="1036" d="M865 870q101 -113 55 -374q0 -4 -2 -11t-2 -11t-1 -11.5t-2 -10.5q-45 -260 -187 -374q-117 -94 -293 -98h-5q-177 4 -259 98q-101 113 -55 374q2 16 4 22q0 3 2 10.5t2 11.5q45 260 187 374q117 94 293 98h5q174 -4 258 -98zM693 496q15 65 14.5 122t-26.5 87 q-30 34 -117 36q-85 -2 -128 -36q-37 -30 -55 -78.5t-32 -130.5l-3 -18l-1 -7q-1 -3 -2 -9.5t-2 -9.5q-15 -65 -14.5 -122t27.5 -87q30 -34 116 -36q86 2 129 36q37 30 55 78.5t32 130.5q0 3 1 9.5t2 9.5l1 7zM423 1065q-20 0 -26 17q-7 18 7 35l136 169l3 3q13 20 34 20 h175q21 0 28 -20v-1l1 -2l77 -169q8 -17 -5 -35q-12 -17 -33 -17h-144q-16 0 -24 12l-22 36l-35 -36q-12 -12 -29 -12h-143z"/>
    <glyph glyph-name="otilde" unicode="õ" horiz-adv-x="1036" d="M865 870q101 -113 55 -374q0 -4 -2 -11t-2 -11t-1 -11.5t-2 -10.5q-45 -259 -188 -374q-117 -94 -292 -98h-5q-177 4 -259 98q-101 113 -55 374q2 16 4 22q0 3 2 10.5t2 11.5q45 260 187 374q117 94 293 98h5q174 -4 258 -98zM693 496q15 65 14.5 122t-26.5 87 q-30 34 -117 36q-85 -2 -128 -36q-37 -30 -55 -78.5t-32 -130.5l-3 -18l-1 -7q-1 -3 -2 -9.5t-2 -9.5q-15 -65 -14.5 -122t27.5 -87q30 -34 116 -36q86 2 129 36q37 30 55 78.5t32 130.5q0 3 1 9.5t2 9.5l1 7zM393 1103q-16 0 -24 13t-2 28q25 60 81.5 99t121.5 39 q82 0 141 -61q16 -18 24 -25q11 -9 17 -9q37 0 55 46q10 26 38 26h46q17 0 24 -12q7 -11 2 -28q-9 -24 -21.5 -46t-33.5 -46t-55 -38.5t-75 -14.5q-53 0 -98 47q-2 3 -9 10.5t-10.5 11t-11.5 9.5t-14.5 9t-16.5 5.5t-22 2.5q-22 0 -42 -12.5t-31 -32.5q-12 -22 -36 -22 q-32 0 -48 1z"/>
    <glyph glyph-name="odieresis" unicode="ö" d="M315 1059q-14 0 -22 10q-9 11 -6 24q4 22 15 84t15 84q3 15 14 24q13 10 26 10h159q14 0 22 -10q9 -11 6 -24l-30 -168q-4 -16 -14 -24q-13 -10 -26 -10h-159zM607 968q176 -4 258 -98q101 -113 55 -374q-2 -16 -4 -22q0 -4 -1 -11.5t-2 -10.5q-45 -259 -188 -374 q-117 -94 -292 -98h-5q-175 4 -259 98q-101 113 -55 374q0 4 2 11.5t2 10.5t2 10.5t2 11.5q45 260 187 374q117 94 293 98h5zM693 496q15 65 14.5 122t-27.5 87q-30 34 -116 36q-86 -2 -129 -36q-37 -30 -54 -78t-32 -131l-3 -18l-1 -7q-1 -3 -2 -9.5t-2 -9.5 q-15 -65 -14.5 -122t27.5 -87q30 -34 116 -36q86 2 129 36q37 30 55 78.5t32 130.5q0 3 1 9.5t2 9.5l1 7zM989 1285q9 -11 6 -24l-30 -168q-4 -16 -14 -24q-13 -10 -26 -10h-158q-15 0 -23 10t-5 24q4 23 14.5 84.5t14.5 83.5q3 15 14 24q13 10 26 10h159q14 0 22 -10z"/>
    <glyph glyph-name="oslash" unicode="ø" horiz-adv-x="1040" d="M985 1019q6 -17 -6 -34l-99 -130q85 -115 43 -359q-2 -16 -4 -22q-1 -3 -2 -10.5t-2 -11.5q-45 -260 -187 -374q-117 -94 -293 -98h-5q-112 3 -183 40l-82 -107q-12 -17 -32 -17h-55q-20 0 -26 17t6 34l106 140q-91 115 -47 365q1 4 2 11.5t2 10.5t2 10.5t2 11.5 q45 260 187 374q117 94 293 98h5q116 -3 190 -44l72 95q12 17 32 17h55q20 0 26 -17zM344 452q-18 -103 -13 -145l319 420q-29 12 -83 14q-86 -2 -129 -36q-37 -30 -54 -78t-32 -131l-3 -18l-2 -7q-1 -3 -2 -9.5t-1 -9.5zM696 496q16 90 14 134l-313 -412q27 -9 76 -11 q86 2 129 36q37 30 54 78t32 131q0 3 1 9.5t2 9.5l2 7z"/>
    <glyph glyph-name="ugrave" unicode="ù" horiz-adv-x="1114" d="M546 1077q-62 99 -111 176q-10 17 2 36q13 20 34 20h174q20 0 26 -16q46 -100 81 -176q8 -17 -5 -35q-12 -17 -33 -17h-144q-16 0 -24 12zM1013 948q14 0 22 -10t6 -24q-97 -556 -155 -880q-2 -14 -14 -24t-26 -10h-159q-14 0 -22 10t-6 24l13 72q-154 -130 -334 -126 q-150 4 -197 125.5t-7 347.5q61 349 81 461q3 14 15 24q13 10 25 10h159q15 0 23 -10t5 -24l-81 -461q-19 -108 10.5 -176.5t102.5 -69.5q48 -1 91 16t73.5 45.5t48 50t30.5 43.5l97 552q2 14 14 24t26 10h159z"/>
    <glyph glyph-name="uacute" unicode="ú" horiz-adv-x="1114" d="M606 1065q-21 0 -27 17t8 35q22 27 75 92.5t67 83.5q13 16 32 16h174q20 0 27 -20q6 -19 -10 -36q-114 -116 -174 -176q-12 -12 -29 -12h-143zM1013 948q14 0 22 -10t6 -24q-97 -556 -155 -880q-2 -14 -14 -24t-26 -10h-159q-14 0 -22 10t-6 24l13 72 q-154 -130 -334 -126q-150 4 -197 125.5t-7 347.5q61 349 81 461q3 14 15 24q13 10 25 10h159q15 0 23 -10t5 -24l-81 -461q-19 -107 10.5 -176t102.5 -70q48 -1 91 16t73.5 45.5t48 50t30.5 43.5l97 552q2 14 14 24t26 10h159z"/>
    <glyph glyph-name="ucircumflex" unicode="û" horiz-adv-x="1114" d="M431 1065q-20 0 -26 17q-7 18 7 35l137 169q1 0 1 1t1 2q13 20 34 20h175q21 0 28 -20v-1l1 -2l77 -169q8 -17 -5 -35q-12 -17 -33 -17h-144q-16 0 -24 12l-22 36l-35 -36q-12 -12 -28 -12h-144zM1013 948q14 0 22 -10t6 -24q-97 -556 -155 -880q-2 -14 -14 -24t-26 -10 h-159q-14 0 -22 10t-6 24l13 72q-154 -130 -334 -126q-150 4 -197 125.5t-7 347.5q61 349 81 461q3 14 15 24q13 10 25 10h159q14 0 22 -10q9 -11 6 -24l-81 -461q-19 -107 10.5 -176t102.5 -70q48 -1 91 16t73.5 45.5t48 50t30.5 43.5l97 552q2 14 14 24t26 10h159z"/>
    <glyph glyph-name="udieresis" unicode="ü" horiz-adv-x="1114" d="M809 1059q-14 0 -22 10q-9 11 -6 24q4 22 15 83.5t15 84.5q4 16 14 24q13 10 26 10h159q14 0 22 -10q9 -11 6 -24l-30 -168q-3 -15 -14 -24q-13 -10 -26 -10h-159zM1013 948q14 0 22 -10t6 -24q-97 -556 -155 -880q-2 -14 -14 -24t-26 -10h-159q-14 0 -22 10t-6 24l13 72 q-154 -130 -334 -126q-150 4 -197 125.5t-7 347.5q61 349 81 461q3 14 15 24q13 10 25 10h159q14 0 22 -10q9 -11 6 -24l-81 -461q-19 -107 10.5 -176t102.5 -70q48 -1 91 16t73.5 45.5t48 50t30.5 43.5l97 552q2 14 14 24t26 10h159zM358 1059q-14 0 -22 10q-9 11 -6 24 q4 22 15 84t15 84q3 15 14 24q13 10 26 10h159q14 0 22 -10q9 -11 6 -24l-30 -168q-3 -15 -14 -24q-13 -10 -26 -10h-159z"/>
    <glyph glyph-name="yacute" unicode="ý" horiz-adv-x="991" d="M538 1065q-20 0 -26 17q-7 18 7 35q24 29 77 94.5t66 81.5t31 16h175q20 0 27 -20q6 -19 -11 -36q-114 -116 -174 -176q-12 -12 -28 -12h-144zM1000 934q8 -15 -1 -32q-543 -1021 -601 -1100q-74 -100 -163 -110q-67 -7 -179 24q-13 4 -18 17q-4 10 3 26q8 16 36 72.5 t40 78.5q7 13 20 19.5t26 2.5l3 -1q22 -7 45.5 4t35.5 34q9 16 61 118q-128 636 -164 815q-3 17 9 31q13 15 31 15h170q22 0 27 -22l104 -512q228 411 284 512q12 22 35 22h171q17 0 25 -14z"/>
    <glyph glyph-name="ydieresis" unicode="ÿ" horiz-adv-x="991" d="M324 1059q-14 0 -22 10q-9 11 -6 24q4 22 15 84t15 84q3 15 14 24q13 10 26 10h159q14 0 22 -10q9 -11 6 -24l-30 -168q-3 -15 -14 -24q-13 -10 -26 -10h-159zM775 1059q-14 0 -22 10q-9 11 -6 24q4 22 15 83.5t15 84.5q3 15 14 24q13 10 26 10h159q14 0 22 -10 q9 -11 6 -24l-30 -168q-3 -15 -14 -24q-13 -10 -26 -10h-159zM975 948q17 0 25 -15t-1 -31q-543 -1021 -601 -1100q-74 -99 -163 -110q-67 -7 -179 24q-14 5 -18 17q-4 10 3 26q8 16 36 72.5t40 78.5q7 13 20 19.5t26 2.5l3 -1q22 -7 45.5 4t35.5 34q9 16 61 118 q-128 636 -164 815q-3 17 9 31q13 15 30 15h170q23 0 28 -22l104 -512q228 411 284 512q12 22 35 22h171z"/>
    <glyph glyph-name="dotlessi" unicode="ı" horiz-adv-x="528" d="M427 948q14 0 22 -10t6 -24q-13 -74 -77.5 -440t-77.5 -440q-2 -14 -14 -24t-26 -10h-159q-14 0 -22 10t-6 24q13 74 77.5 440t77.5 440q2 14 14 24t26 10h159z"/>
    <glyph glyph-name="Lslash" unicode="Ł" horiz-adv-x="1011" d="M845 227q14 0 22 -10t6 -24q-4 -21 -14 -79t-14 -80q-4 -16 -14 -24q-13 -10 -26 -10h-651q-15 0 -23 10t-5 24l67 383q-46 -39 -77 -66q-13 -10 -26 -10q-14 0 -22 9q-4 5 -13.5 16t-13.5 16q-8 10 -5.5 24.5t14.5 24.5l172 146l116 664q2 14 14.5 24t26.5 10h158 q15 0 23 -10t5 -24l-77 -436q202 172 278 237q12 10 26 10t22 -10q4 -5 13 -16t13 -16q8 -10 6 -24t-14 -24l-372 -318l-74 -417h459z"/>
    <glyph glyph-name="OE" unicode="Œ" horiz-adv-x="1685" d="M1442 0h-714l-22 -2q-80 -17 -159 -18h-4q-239 6 -349 125q-137 148 -75 501q2 11 6 31q1 10 5 32q62 351 252 500q153 120 392 126h5q79 -1 152 -18q13 -2 21 -2h668q14 0 22 -10t6 -24q-4 -21 -14 -79.5t-14 -79.5q-2 -14 -14 -24t-26 -10h-475l-50 -285h380 q15 0 23 -10t5 -24q-4 -21 -14 -79.5t-14 -79.5q-3 -15 -14 -24q-12 -10 -26 -10h-380l-55 -309h522q14 0 22 -10q9 -11 6 -24q-4 -21 -14 -79.5t-14 -79.5q-2 -14 -14 -24t-26 -10zM734 230l144 815q-57 22 -141 23q-152 -3 -232 -66q-61 -48 -93.5 -128.5t-54.5 -205.5 q-4 -18 -5 -27l-1 -7q-1 -4 -2.5 -14t-2.5 -14q-23 -105 -19 -195t49 -138q57 -63 209 -66q84 1 149 23z"/>
    <glyph glyph-name="oe" unicode="œ" horiz-adv-x="1611" d="M1451 859q86 -111 53 -344l-7 -41q-8 -47 -14 -80q-3 -15 -14 -24q-13 -10 -26 -10h-540q0 -71 36 -107q46 -46 172 -46q81 0 152 40q28 17 43 -5q8 -11 40.5 -56t45.5 -64q9 -12 4 -26t-18 -24q-67 -43 -150 -67.5t-157 -24.5q-211 0 -310 101q-6 6 -14 16 q-3 -3 -11 -9.5t-11 -9.5q-117 -94 -292 -98h-5q-175 4 -259 98q-101 113 -55 374q0 4 2 11.5t2 10.5t2 10.5t2 11.5q45 260 187 374q117 94 293 98h5q176 -4 258 -98l4 -4t4 -5q122 107 307 107q187 0 271 -109zM693 496q15 65 14.5 122t-27.5 87q-30 34 -116 36 q-85 -2 -128 -36q-37 -30 -55 -78.5t-32 -130.5l-3 -18l-1 -7q-1 -3 -2 -9.5t-2 -9.5q-15 -65 -14.5 -122t27.5 -87q30 -34 116 -36q86 2 129 36q37 30 55 78.5t32 130.5q0 3 1 9.5t2 9.5l1 7zM1277 515q22 138 -18 188q-30 38 -119 38q-90 0 -132 -38q-57 -50 -84 -188h353 z"/>
    <glyph glyph-name="Scaron" unicode="Š" horiz-adv-x="1107" d="M42 186q18 16 66 58.5t64 57.5q10 10 24 10.5t23 -7.5q52 -46 127 -72t133 -26q88 0 160 44.5t84 113.5q2 14 -3.5 25.5t-13 17.5t-21.5 16t-30 18.5t-40.5 19t-34.5 14t-45.5 17t-39.5 14.5q-166 63 -234 120q-130 109 -100 282q18 102 91.5 190.5t185.5 141.5t234 53 q92 0 208.5 -40t193.5 -112q10 -10 8 -24q-2 -16 -13 -26q-15 -13 -64 -57t-68 -61q-25 -21 -45 -4q-129 98 -260 98q-88 0 -160 -45t-84 -114t64 -118q31 -20 71 -37.5t98.5 -38.5t79.5 -29q135 -54 202 -131.5t47 -189.5q-27 -156 -176.5 -270.5t-334.5 -114.5 q-91 0 -208 41.5t-195 114.5q-9 9 -7 24q2 16 13 26zM592 1343q-22 0 -28 19v4l-78 168q-8 17 5 35t33 18h144q16 0 24 -13l22 -35l35 35q13 13 28 13h144q20 0 27 -18q6 -16 -8 -35l-136 -168l-1 -2l-1 -2q-13 -19 -35 -19h-175z"/>
    <glyph glyph-name="scaron" unicode="š" horiz-adv-x="940" d="M458 1088l-77 169q-8 16 5 34t33 18h143q16 0 24 -13l22 -35l35 35q13 13 29 13h143q20 0 27 -18q6 -17 -7 -34l-137 -169q0 -1 -1 -2l-1 -2q-13 -19 -34 -19h-176q-21 0 -27 19l-1 2v2zM415 710q-32 -23 -36 -46q-2 -13 3.5 -23t12 -15t20.5 -14q17 -11 41 -21.5 t43 -17.5t48.5 -17t44.5 -16q229 -87 199 -257q-21 -122 -140 -212.5t-267 -90.5q-66 0 -166.5 34t-163.5 86q-10 10 -9 24q2 15 13 25q19 18 66 61.5t62 57.5q11 10 24.5 11.5t22.5 -6.5q38 -29 95.5 -47.5t95.5 -18.5q60 0 105 31q30 21 35 43q-1 1 -3.5 3t-3.5 3 q-14 11 -27 17q-27 13 -116 46q-125 46 -178 88q-109 87 -84 226q21 122 140 213t267 91q66 0 165 -34t162 -86q10 -10 8 -24q-2 -15 -13 -25q-49 -45 -130 -121q-23 -21 -44 -5q-98 70 -188 68q-61 -2 -104 -31z"/>
    <glyph glyph-name="Ydieresis" unicode="Ÿ" horiz-adv-x="1058" d="M914 1275h176q20 0 26 -16q7 -16 -4 -33l-501 -773l-74 -419q-3 -14 -15 -24t-26 -10h-158q-15 0 -23 10t-5 24l74 419q-177 597 -229 773q-5 18 7 33q13 16 32 16h176q20 0 27 -20l151 -511q270 415 332 511q13 20 34 20zM365 1569q13 10 26 10h158q15 0 23 -10t5 -24 l-29 -168q-4 -17 -15 -25q-12 -10 -25 -10h-159q-14 0 -22 10q-9 11 -6 25q4 22 15 83.5t15 84.5q3 15 14 24zM816 1569q12 10 26 10h159q14 0 22 -10t5 -24l-29 -168q-4 -17 -14 -25q-12 -10 -26 -10h-159q-14 0 -22 10q-9 11 -6 25q4 23 15 84t15 84q3 15 14 24z"/>
    <glyph glyph-name="Zcaron" unicode="Ž" horiz-adv-x="1198" d="M206 1048q-15 0 -23 10t-5 24q4 22 14 80t14 79q4 16 14 24q12 10 26 10h931q14 0 22 -10q9 -11 6 -24q-5 -28 -17 -96.5t-15 -83.5q-2 -13 -13 -23l-856 -811h688q14 0 22 -10q9 -11 6 -24q-4 -21 -14 -79t-14 -80q-3 -15 -14 -24q-12 -10 -26 -10h-931q-14 0 -22 10 q-9 11 -6 24q5 28 17 96.5t15 83.5q2 14 12 23l857 811h-688zM635 1343q-21 0 -27 19v2l-1 2l-77 168q-8 17 5 35t33 18h143q16 0 24 -13l23 -35l34 35q13 13 29 13h143q20 0 27 -18t-7 -35l-137 -168q-1 0 -1 -2t-1 -2q-13 -19 -34 -19h-176z"/>
    <glyph glyph-name="zcaron" unicode="ž" horiz-adv-x="985" d="M942 938q9 -11 6 -24q-4 -21 -16.5 -90.5t-15.5 -88.5q-4 -16 -13 -24l-550 -485h440q14 0 22 -10t6 -24q-4 -22 -14 -80t-14 -79q-4 -16 -14 -24q-13 -10 -26 -10h-691q-14 0 -22 10t-5 24q11 62 31 179q3 15 14 24l559 485h-449q-14 0 -22 10t-6 24q4 22 14 80t14 79 q3 15 14 24q13 10 26 10h690q14 0 22 -10zM485 1088l-77 169q-8 16 5 34t33 18h143q16 0 24 -13l23 -35l34 35q13 13 29 13h143q20 0 27 -18q6 -17 -7 -34l-137 -169q-1 -1 -1 -2q0 -2 -1 -2q-13 -19 -34 -19h-176q-21 0 -27 19v2z"/>
    <glyph glyph-name="endash" unicode="–" horiz-adv-x="1071" d="M991 733q9 -11 6 -24l-28 -159q-3 -15 -14 -24q-13 -10 -26 -10h-829q-15 0 -23 10t-5 24l28 159q3 15 14 24q13 10 26 10h829q14 0 22 -10z"/>
    <glyph glyph-name="emdash" unicode="—" horiz-adv-x="1333" d="M1231 743q14 0 22 -10t6 -24l-28 -159q-2 -14 -14 -24t-26 -10h-1091q-14 0 -22 10t-6 24l28 159q2 14 14 24t26 10h1091z"/>
    <glyph glyph-name="quoteleft" unicode="‘" horiz-adv-x="481" d="M435 1157q8 -9 6 -25q-4 -23 -14.5 -84t-14.5 -84q-3 -14 -15 -24q-13 -10 -25 -10h-159q-15 0 -23 10t-5 24q14 70 24 124q11 61 54 108q22 25 83 94q13 15 29 15q18 2 26 -12q10 -14 14 -21q15 -22 -9 -45q-44 -40 -60 -60h67q14 0 22 -10z"/>
    <glyph glyph-name="quoteright" unicode="’" horiz-adv-x="475" d="M458 1295q9 -11 6 -24q-14 -70 -24 -124q-11 -61 -54 -108q-15 -18 -47 -53t-37 -41q-13 -15 -29 -15q-17 -2 -25 12q-10 14 -14 21q-15 22 9 45q42 38 60 61h-68q-14 0 -22 9q-9 11 -6 25q4 22 15 83.5t15 84.5q3 15 14 24q13 10 26 10h159q14 0 22 -10z"/>
    <glyph glyph-name="quotedblleft" unicode="“" horiz-adv-x="776" d="M756 1157q8 -9 6 -25q-4 -22 -15 -83.5t-15 -84.5q-3 -15 -14 -24q-13 -10 -26 -10h-158q-15 0 -23 10q-9 11 -6 24q15 70 25 124q11 61 54 108q22 25 83 94q13 15 29 15q17 2 25 -12q10 -14 14 -21q16 -23 -8 -45q-48 -43 -61 -60h68q14 0 22 -10zM389 1167q14 0 22 -10 q9 -11 6 -25q-4 -22 -15 -84t-15 -84q-3 -15 -14 -24q-13 -10 -26 -10h-159q-14 0 -22 10q-9 11 -6 24q14 70 24 124q11 59 55 108q22 25 83 94q13 15 29 15q17 2 25 -12q10 -14 14 -21q15 -22 -9 -45q-44 -40 -60 -60h68z"/>
    <glyph glyph-name="quotedblright" unicode="”" horiz-adv-x="765" d="M777 1295q8 -10 5 -24q-14 -70 -24 -124q-11 -61 -54 -108q-22 -25 -83 -94q-13 -15 -29 -15q-17 -2 -25 12q-2 2 -5 6.5t-5.5 8t-4.5 6.5q-15 22 9 45q42 38 60 61h-67q-14 0 -22 9q-9 11 -6 25q4 22 14.5 84t14.5 84q3 14 15 24q13 10 26 10h158q15 0 23 -10zM409 1305 q14 0 22 -10q9 -11 6 -24q-14 -70 -24 -124q-11 -61 -54 -108q-22 -25 -83 -94q-13 -15 -29 -15q-18 -2 -26 12q-10 14 -14 21q-15 22 9 45q42 38 60 61h-67q-15 0 -23 9q-8 10 -5 25q4 22 14.5 84t14.5 84q3 14 15 24q13 10 25 10h159z"/>
    <glyph glyph-name="quotedblbase" unicode="„" horiz-adv-x="716" d="M195 237q14 0 22 -10q9 -11 6 -24q-14 -70 -24 -124q-11 -61 -54 -108q-17 -20 -84 -95q-12 -14 -29 -14q-17 -2 -25 12q-10 14 -14 21q-15 22 9 45q44 40 60 60h-68q-14 0 -22 10q-9 11 -6 24q4 23 15 85t15 84q3 15 14 24q13 10 26 10h159zM562 227q9 -11 6 -24 q-14 -70 -24 -124q-11 -61 -54 -108q-15 -18 -47 -53t-37 -41q-13 -15 -29 -15q-17 -2 -25 12q-10 14 -14 21q-15 22 9 45q44 40 60 60h-68q-14 0 -22 10q-9 11 -6 24q4 22 15 84.5t15 84.5q3 15 14 24q13 10 26 10h159q14 0 22 -10z"/>
    <glyph glyph-name="uni201f" unicode="‟" horiz-adv-x="765" d="M405 1305q15 0 23 -10t5 -24q-4 -22 -14.5 -84t-14.5 -84q-3 -15 -15 -25q-12 -9 -25 -9h-68q8 -22 39 -61q16 -22 -7 -45q-4 -4 -11.5 -11t-10.5 -10q-12 -12 -29 -12q-16 0 -24 15q-5 9 -50 94q-26 47 -16 108l19 124q3 14 15 24q13 10 25 10h159zM773 1295q8 -9 6 -24 q-4 -22 -15 -84t-15 -84q-4 -16 -14 -25q-13 -10 -26 -10h-68q8 -20 39 -60q16 -22 -7 -45q-3 -4 -11 -11t-11 -10q-12 -12 -29 -12q-16 0 -24 15q-5 9 -50 94q-26 47 -16 108l20 124q3 15 14 24q13 10 26 10h158q15 0 23 -10z"/>
    <glyph glyph-name="dagger" unicode="†" horiz-adv-x="1222" d="M1145 974q14 0 22 -10t6 -24q-4 -21 -14 -79.5t-14 -79.5q-2 -14 -14 -24t-26 -10h-361l-177 -1003q-2 -14 -14 -24t-26 -10h-158q-14 0 -22.5 10t-6.5 24l177 1003h-360q-14 0 -22.5 10t-6.5 24q4 22 14 80t14 79q2 14 14 24t26 10h361l51 286q2 14 14 24t26 10h159 q14 0 22 -10t6 -24l-51 -286h361z"/>
    <glyph glyph-name="bullet" unicode="•" horiz-adv-x="632" d="M550 733q9 -11 6 -24l-29 -168q-3 -15 -15 -24q-13 -10 -26 -10h-385q-14 0 -22 10q-9 11 -6 24q4 22 14.5 84t14.5 84q3 14 15 24q13 10 26 10h385q14 0 22 -10z"/>
    <glyph glyph-name="ellipsis" unicode="…" horiz-adv-x="1619" d="M195 236q14 0 22 -10q9 -11 6 -24l-30 -168q-3 -15 -14 -24q-13 -10 -26 -10h-159q-14 0 -22 10q-9 11 -6 24q4 23 15 84.5t15 83.5q3 15 14 24q13 10 26 10h159zM1466 226q9 -11 6 -24l-30 -168q-3 -15 -14 -24q-13 -10 -26 -10h-158q-15 0 -23 10t-5 24q4 23 14.5 84 t14.5 84q4 16 14 24q13 10 26 10h159q14 0 22 -10zM819 236q15 0 23 -10t5 -24l-29 -168q-3 -15 -14 -24q-13 -10 -26 -10h-159q-14 0 -22 10q-9 11 -6 24q4 22 15 83.5t15 84.5q4 16 14 24q13 10 26 10h158z"/>
    <glyph glyph-name="perthousand" unicode="‰" horiz-adv-x="2326" d="M403 601h-5q-124 3 -185 72q-74 83 -42 261q1 2 2 7t1 7t1 6.5t1 6.5q32 178 134 261q86 69 210 72h6q124 -3 185 -72q73 -82 41 -261q0 -2 -1 -6.5t-1 -6.5t-1 -7t-1 -7q-32 -178 -134 -261q-86 -69 -211 -72zM391 869q0 -23 7 -31q9 -10 42 -10q35 0 47 10q7 6 17 31 q11 31 17 65q1 3 1 10l2 7q0 2 1 5.5t1 4.5q6 36 6 65q0 25 -6 32q-9 10 -43 10t-46 -10q-8 -6 -18 -32q-9 -26 -16 -65q-1 -1 -1 -4.5t-1 -5.5l-1 -7q0 -2 -1 -5t-1 -5q-7 -42 -7 -65zM1385 1259q7 -17 -4 -34q-77 -113 -427 -627.5t-393 -578.5q-13 -19 -33 -19h-178 q-20 0 -26 16q-7 16 4 33q72 106 422.5 622t397.5 585q13 19 34 19h177q20 0 26 -16zM1274 674q122 -3 185 -72q74 -83 42 -262q-1 -2 -2 -6.5t-1 -6.5t-1 -6.5t-1 -6.5q-33 -180 -134 -262q-86 -69 -211 -72h-5q-124 3 -185 72q-74 85 -42 262q1 2 2 6.5t1 6.5t1 6.5t1 6.5 q33 180 134 262q86 69 211 72h5zM1274 340q6 36 6 65q0 26 -6 32q-9 10 -43 10t-46 -10q-8 -6 -18 -32q-9 -26 -16 -65q-2 -6 -2 -10l-1 -7q0 -1 -1 -4t-1 -5q-6 -36 -6 -65q0 -26 6 -32q9 -10 43 -10t46 10q8 6 18 32q9 26 16 65q1 2 1 5t1 4l1 7q0 2 1 5t1 5zM2113 602 q73 -82 42 -262q-1 -2 -1 -6.5t-1 -6.5t-2 -6.5t-1 -6.5q-33 -180 -134 -262q-86 -69 -210 -72h-5q-125 3 -186 72q-73 84 -41 262q0 2 1 6.5t1 6.5t1 6.5t2 6.5q33 181 133 262q86 69 211 72h5q124 -3 185 -72zM1928 340q7 42 7 65q0 25 -7 32q-9 10 -42 10q-35 0 -47 -10 q-7 -5 -17 -32q-11 -31 -17 -65q-1 -3 -1 -10l-1 -7q-1 -1 -1 -4t-1 -5q-7 -42 -7 -65q0 -26 6 -32q9 -10 43 -10q35 0 47 10q7 5 17 32q9 26 16 65q2 6 2 9l1 7q0 2 1 5t1 5z"/>
    <glyph glyph-name="Euro" unicode="€" horiz-adv-x="1187" d="M1151 1227q12 -5 15.5 -18t-3.5 -27q-12 -20 -43.5 -73.5t-42.5 -73.5q-8 -13 -22 -18.5t-26 -0.5l-68 30q-47 21 -138 21q-132 0 -215 -57q-97 -66 -146 -207h304q14 0 22 -10t6 -24q-2 -7 -4.5 -23t-3.5 -23q-2 -14 -14 -24t-26 -10h-314q-2 -11 -10 -52q-3 -18 -6 -39 h314q14 0 22 -10q9 -11 6 -24q-1 -7 -3.5 -23t-4.5 -23q-4 -16 -14 -24q-13 -10 -26 -10h-306q-4 -151 73 -220q63 -57 194 -57q92 0 146 21q46 18 79 30q14 5 26 -0.5t15 -18.5q5 -20 16.5 -73.5t16.5 -73.5q3 -13 -4.5 -26t-21.5 -18l-79 -30q-100 -38 -234 -38 q-208 0 -325 105q-140 126 -128 399h-49q-15 0 -23 10t-5 24q1 7 3.5 23t4.5 23q3 15 14 24q13 10 26 10h40l16 91h-40q-14 0 -22 10q-9 11 -6 24q2 7 4.5 23t3.5 23q3 15 14 24q13 10 26 10h51q84 262 265 386q154 105 362 105q133 0 220 -38q39 -17 68 -29z"/>
    <glyph glyph-name="uni2e41" unicode="⹁" horiz-adv-x="368" d="M215 227q9 -11 6 -24q-4 -22 -15 -84t-15 -85q-3 -15 -14 -24q-13 -10 -26 -10h-68q8 -20 39 -60q16 -22 -7 -45l-21 -21q-12 -12 -30 -12q-16 0 -24 14q-3 5 -21.5 41t-27.5 54q-26 48 -17 108l20 124q3 15 14 24q13 10 26 10h159q14 0 22 -10z"/>
    <glyph glyph-name="uni2e42" unicode="⹂" horiz-adv-x="714" d="M560 227q9 -11 6 -24q-4 -23 -15 -84.5t-15 -84.5q-3 -15 -14 -24q-13 -10 -26 -10h-67q8 -20 39 -60q15 -22 -8 -45l-21 -21q-12 -12 -30 -12q-15 0 -23 14q-23 45 -50 95q-26 48 -17 108l20 124q3 15 14 24q13 10 26 10h159q14 0 22 -10zM193 237q14 0 22 -10 q9 -11 6 -24q-4 -22 -15 -84t-15 -85q-3 -15 -14 -24q-13 -10 -26 -10h-68q8 -20 39 -60q16 -22 -7 -45l-21 -21q-12 -12 -30 -12q-16 0 -24 14q-3 5 -21.5 41t-27.5 54q-26 48 -17 108l20 124q3 15 14 24q13 10 26 10h159z"/>
    </font>
</defs>
</svg>
