<?xml version="1.0" encoding="UTF-8"?>
<svg xmlns="http://www.w3.org/2000/svg" xmlns:xlink="http://www.w3.org/1999/xlink" version="1.1">
<metadata>
Created by FontForge 20170731 at Thu Jan 14 13:05:20 2021
 By Aleksey,,,
Simvoni @2020 all right reserved
</metadata>
<defs>
<font id="SimvoniBold" horiz-adv-x="1030">
  <font-face font-family="Simvoni" font-weight="700" font-stretch="normal" units-per-em="2048" panose-1="0 0 0 0 0 0 0 0 0 0" ascent="1638" descent="-410" x-height="948" cap-height="1275" bbox="-78 -325 2205 1677" underline-thickness="102" underline-position="-307" unicode-range="U+000A-2E42"/>
<missing-glyph horiz-adv-x="1079" d="M102 1434h875v-1434h-875v1434zM160 1393l379 -633l381 633h-760zM514 717l-369 614v-1231zM541 674l-379 -631h758zM565 717l371 -621v1239z"/>
    <glyph glyph-name=".notdef" horiz-adv-x="1079" d="M102 1434h875v-1434h-875v1434zM160 1393l379 -633l381 633h-760zM514 717l-369 614v-1231zM541 674l-379 -631h758zM565 717l371 -621v1239z"/>
    <glyph glyph-name=".null" horiz-adv-x="0"/>
    <glyph glyph-name=".null" horiz-adv-x="0"/>
    <glyph glyph-name="nonmarkingreturn" horiz-adv-x="682"/>
    <glyph glyph-name="controlLF" unicode="&#xA;" horiz-adv-x="0"/>
    <glyph glyph-name="controlCR" unicode="&#xD;" horiz-adv-x="0"/>
    <glyph glyph-name="space" unicode=" " horiz-adv-x="536"/>
    <glyph glyph-name="exclam" unicode="!" horiz-adv-x="526" d="M171 417q-2 50 -11 319t-10 308v19v178q0 14 10 24t24 10h154q14 0 24 -10t10 -24v-178v-19q-1 -39 -10 -308t-11 -319q-1 -14 -11 -23.5t-23 -9.5h-112q-13 0 -23 9.5t-11 23.5zM366 227q10 -10 10 -24v-168q0 -14 -10 -24t-24 -10h-159q-14 0 -24 10q-9 9 -9 24v168 q0 15 9 24q10 10 24 10h159q14 0 24 -10z"/>
    <glyph glyph-name="quotedbl" unicode="&#34;" horiz-adv-x="733" d="M273 1305q14 0 24 -10t10 -24q-2 -70 -3 -124q-2 -61 -35 -108q-28 -40 -66 -94q-10 -15 -27 -15q-15 -1 -27 12l-18 21q-19 22 1 45q36 38 50 61h-68q-15 0 -24 9q-10 10 -10 25v168q0 14 10 24t24 10h159zM642 1295q10 -10 10 -24q-1 -70 -2 -124q-2 -59 -36 -108 q-28 -40 -66 -94q-10 -15 -26 -15q-16 -1 -28 12l-18 21q-19 22 1 45q36 38 50 61h-68q-14 0 -24 10t-10 24v168q0 14 10 24t24 10h159q14 0 24 -10z"/>
    <glyph glyph-name="numbersign" unicode="#" horiz-adv-x="1204" d="M1062 947q10 -10 10 -24v-158q0 -15 -10 -25t-24 -10h-127l-20 -165h110q14 0 24 -10t10 -24v-158q0 -14 -10 -24t-24 -10h-138q-28 -226 -38 -309q-2 -13 -11 -21.5t-22 -8.5h-160q-16 0 -26 12q-9 11 -8 26l37 301h-161q-28 -226 -38 -309q-2 -13 -11 -21.5t-22 -8.5 h-160q-16 0 -26 12q-9 11 -8 26l37 301h-79q-14 0 -24 10t-10 24v159q0 14 10 24t24 10h107l20 165h-90q-14 0 -24 10t-10 24v158q0 14 10 24t24 10h118q25 209 35 288q1 13 11 21.5t23 8.5h160q15 0 25 -12t9 -26l-35 -280h161q25 209 35 288q1 13 11 21.5t23 8.5h160 q15 0 25 -12t9 -26l-35 -280h99q14 0 24 -10zM663 565l20 165h-160l-21 -165h161z"/>
    <glyph glyph-name="percent" unicode="%" horiz-adv-x="1669" d="M1274 1259q9 -16 1 -34q-152 -303 -607 -1206q-10 -19 -30 -19h-178q-19 0 -29 16q-9 15 -1 33q343 684 607 1207q9 19 30 19h178q19 0 29 -16zM1551 340v-13v-13q0 -178 -88 -262q-74 -69 -198 -72h-5q-124 3 -198 72q-88 84 -88 262v13v13q0 178 88 262q74 69 198 72h5 q124 -3 198 -72q88 -84 88 -262zM1324 314v9v7v10q0 41 -5 65q-6 27 -12 32q-11 10 -45 10q-33 0 -44 -10q-6 -5 -12 -32q-5 -24 -5 -65v-10v-7v-9q0 -41 5 -65q6 -27 12 -32q11 -10 44 -10q34 0 45 10q6 5 12 32q5 24 5 65zM693 934q0 -177 -88 -261q-74 -69 -198 -72h-5 q-124 3 -198 72q-87 83 -87 261v14v13q0 178 87 261q74 69 198 72h5q124 -3 198 -72q88 -84 88 -261v-13v-14zM466 934v10v7v10q0 41 -5 65q-4 25 -12 32q-11 10 -44 10q-34 0 -45 -10q-8 -7 -12 -32q-5 -24 -5 -65q0 -2 0.5 -5.5t0.5 -4.5v-7q0 -2 -0.5 -5t-0.5 -5 q0 -41 5 -65q4 -24 12 -31q11 -10 45 -10q33 0 44 10q8 7 12 31q5 24 5 65z"/>
    <glyph glyph-name="ampersand" unicode="&amp;" horiz-adv-x="1306" d="M1165 207q14 0 24 -10t10 -24v-159q0 -14 -10 -24t-24 -10h-25q-137 0 -237 97q-145 -97 -347 -97q-123 0 -218.5 41.5t-153 126.5t-57.5 203q0 234 222 399q-33 42 -53 75q-51 83 -51 158v1q0 129 91 219.5t220 90.5t220 -90.5t91 -219.5q0 -121 -98 -231 q-34 -38 -81 -74q71 -91 202 -243q6 31 6 62v37q0 14 10 24t24 10h159q14 0 24 -10t10 -24v-37q0 -136 -66 -254q34 -37 83 -37h25zM556 1068q-35 0 -60 -25t-25 -59q0 -6 1.5 -11.5t5.5 -12.5t7 -11.5t9.5 -13.5t9.5 -13q16 -23 47 -63q24 18 48 45q41 45 41 80 q0 34 -25 59t-59 25zM556 207q117 0 195 42q-170 198 -265 320q-132 -93 -132 -218q0 -74 57 -109t145 -35z"/>
    <glyph glyph-name="quotesingle" unicode="'" horiz-adv-x="387" d="M297 1295q10 -10 10 -24q-2 -70 -3 -124q-2 -61 -35 -108q-28 -40 -66 -94q-10 -15 -27 -15q-16 0 -27 12l-18 21q-19 22 1 45q37 39 49 61h-67q-15 0 -24 9q-10 10 -10 25v168q0 14 10 24t24 10h159q14 0 24 -10z"/>
    <glyph glyph-name="parenleft" unicode="(" horiz-adv-x="681" d="M551 -213l26 -46q10 -18 0 -34q-10 -17 -29 -17h-181q-21 0 -31 19q-26 52 -52 117t-61 170.5t-56.5 238t-21.5 262.5q0 131 22 263.5t57 239t61 170.5t52 116q10 19 30 19h181q20 0 30 -17q9 -17 0 -34l-27 -47q-7 -13 -19 -36.5t-43 -100t-54.5 -155t-43 -193.5 t-19.5 -225t18.5 -223.5t45 -197t52.5 -151.5t44 -103z"/>
    <glyph glyph-name="parenright" unicode=")" horiz-adv-x="681" d="M344 1286q26 -52 52 -116t61 -170.5t56.5 -239t21.5 -263.5q0 -130 -21.5 -262.5t-56.5 -238t-61 -170.5t-52 -117q-10 -19 -30 -19h-181q-19 0 -29 17q-9 17 0 34l26 46q7 13 19 36.5t43 100t54.5 155t42.5 193.5t19 225t-18.5 223.5t-44.5 197t-52 151.5t-45 103 l-18 35q-14 23 -27 47q-10 18 0 34q10 17 29 17h181q21 0 31 -19z"/>
    <glyph glyph-name="asterisk" unicode="*" d="M901 797q12 -7 16 -21t-3 -26q-11 -19 -40 -68.5t-39 -68.5q-7 -12 -21 -15.5t-26 3.5q-4 2 -30 17t-37 21q-10 6 -38 24l-63 43l6 -75q2 -30 2 -45v-78q0 -14 -10 -24t-24 -10h-159q-14 0 -24 10t-10 24v78q0 15 2 45l6 76l-63 -43q-17 -13 -38 -24q-18 -11 -67 -39 q-12 -7 -25.5 -3.5t-20.5 15.5q-10 18 -39.5 69t-40.5 69q-7 12 -3 25.5t16 20.5q49 28 67 39q33 18 40 21l68 33l-68 32q-7 3 -40 21q-18 11 -67 39q-12 7 -16 20.5t3 25.5q11 18 40.5 68.5t39.5 69.5q7 12 20.5 15.5t25.5 -3.5q4 -2 30 -17t37 -21q26 -16 38 -24l63 -44 l-6 76q-2 30 -2 45v78q0 14 10 24t24 10h159q14 0 24 -10t10 -24v-78q0 -15 -2 -45l-6 -76l63 43q17 13 38 24q18 11 67 39q12 7 26 3.5t21 -15.5q10 -19 39 -69.5t40 -68.5q7 -12 3 -25.5t-16 -20.5q-49 -28 -67 -39q-33 -18 -40 -21l-68 -33l68 -32q7 -3 40 -21 q18 -11 67 -39z"/>
    <glyph glyph-name="plus" unicode="+" horiz-adv-x="1179" d="M1071 713q10 -10 10 -24v-158q0 -15 -10 -25t-24 -10h-344v-343q0 -14 -10 -24t-24 -10h-159q-14 0 -24 10t-10 24v343h-344q-14 0 -24 10t-10 25v158q0 14 10 24t24 10h344v344q0 14 10 24t24 10h159q14 0 24 -10t10 -24v-344h344q14 0 24 -10z"/>
    <glyph glyph-name="comma" unicode="," horiz-adv-x="366" d="M287 227q9 -9 9 -24q-1 -70 -2 -124q-2 -60 -35 -107q-12 -17 -36.5 -51.5t-30.5 -43.5q-9 -14 -26 -14q-16 0 -27 12q-3 4 -9 10.5t-9 9.5q-19 22 1 45q37 39 49 61h-67q-14 0 -24 10t-10 24v168q0 14 10 24t24 10h158q15 0 25 -10z"/>
    <glyph glyph-name="hyphen" unicode="-" horiz-adv-x="698" d="M619 647q10 -10 10 -24v-159q0 -14 -10 -24t-24 -10h-493q-14 0 -24 10t-10 24v159q0 14 10 24t24 10h493q14 0 24 -10z"/>
    <glyph glyph-name="period" unicode="." horiz-adv-x="366" d="M287 227q10 -10 10 -24v-168q0 -14 -10 -24t-25 -10h-158q-14 0 -24 10t-10 24v168q0 14 10 24t24 10h158q15 0 25 -10z"/>
    <glyph glyph-name="slash" unicode="/" horiz-adv-x="1001" d="M910 1259q10 -16 2 -33q-353 -747 -614 -1302q-10 -20 -31 -20h-176q-18 0 -28 16t-2 33q353 747 614 1302q10 20 30 20h176q19 0 29 -16z"/>
    <glyph glyph-name="zero" unicode="0" horiz-adv-x="1161" d="M1017 668q0 -5 -0.5 -15.5t-0.5 -15.5t0.5 -15t0.5 -16q0 -410 -184 -547q-100 -75 -250 -79h-6q-150 4 -250 79q-184 136 -184 547q0 6 0.5 16t0.5 15t-0.5 15t-0.5 16q0 411 184 548q99 74 250 78h6q151 -4 250 -78q184 -137 184 -548zM790 606q0 5 -0.5 15t-0.5 14v5 q0 4 0.5 13.5t0.5 14.5q0 134 -18 221q-20 93 -63 135q-42 41 -129 44q-87 -3 -129 -44q-43 -42 -63 -135q-18 -87 -18 -221q0 -5 0.5 -14.5t0.5 -13.5v-5q0 -4 -0.5 -14t-0.5 -15q0 -133 18 -220q20 -93 63 -135q42 -41 129 -44q87 3 129 44q43 42 63 135q18 87 18 220z "/>
    <glyph glyph-name="one" unicode="1" horiz-adv-x="993" d="M869 226q14 0 24 -10t10 -24v-159q0 -14 -10 -24t-24 -10h-689q-14 0 -24 10t-10 24v159q0 14 10 24t24 10h231v784q-111 -63 -165 -94q-12 -6 -25 -3q-15 3 -21 16q-11 19 -40 69t-39 69q-6 12 -3 26q3 13 16 20q161 91 275 157q8 5 16 5h179q14 0 24 -10t10 -24v-1015 h231z"/>
    <glyph glyph-name="two" unicode="2" horiz-adv-x="1183" d="M1019 230q18 0 27 -11t3 -28v-160q0 -15 -7 -22q-8 -8 -23 -8h-869q-8 0 -23 15q-8 8 -8 23v76q0 171 138 320q117 106 266 198q121 67 221 153q69 69 69 129t-49 106.5t-126 46.5q-62 0 -127.5 -32.5t-101 -64.5t-61.5 -63q-6 -11 -20.5 -13t-25.5 5q-19 12 -64.5 46 t-64.5 46q-15 15 -15 23q0 22 15 30q24 27 51 53.5t75.5 64.5t98 66t116 48t131.5 20q121 0 213.5 -56.5t138 -142t45.5 -183.5q0 -63 -22 -122t-63.5 -110t-91 -93.5t-113.5 -85.5q-24 -16 -132.5 -87t-157.5 -111q-43 -33 -76 -76h633z"/>
    <glyph glyph-name="three" unicode="3" horiz-adv-x="1189" d="M856 656q8 -3 20.5 -8.5t45.5 -28t58 -51t45.5 -80t20.5 -111.5q0 -163 -124.5 -280t-301.5 -117q-81 0 -156 20t-127 47.5t-98.5 65t-71 65t-44.5 55.5q-8 13 -5 27t16 22q18 10 69 39t70 40q26 14 44 -9q18 -22 40.5 -43t60 -46t90.5 -40.5t112 -15.5q81 0 140 49 t59 121q0 80 -77 128q-66 41 -140 41h-91q-14 0 -24 10t-10 24v158q0 14 10 24t24 10h88q91 0 164 52q56 40 56 96q0 64 -59 106t-140 42q-77 0 -145 -26t-100.5 -51.5t-58.5 -54.5q-8 -10 -21 -12t-23 5q-3 2 -137 83q-11 7 -15 23q-3 15 6 27q27 34 62.5 67t96 74 t148.5 66.5t187 25.5q178 0 302 -111t124 -264q0 -56 -19.5 -104t-47.5 -76t-56 -48.5t-47 -27.5z"/>
    <glyph glyph-name="four" unicode="4" horiz-adv-x="1224" d="M1090 466q10 -10 10 -24v-158q0 -14 -10 -24t-24 -10h-97v-216q0 -14 -10 -24t-24 -10h-159q-14 0 -24 10t-10 24v216h-603q-15 0 -25 10t-10 24v134q0 10 7 20q19 26 156.5 217t271 376t166.5 230q9 14 28 14h202q14 0 24 -10t10 -24v-765h97q14 0 24 -10zM742 476v448 l-324 -448h324z"/>
    <glyph glyph-name="five" unicode="5" horiz-adv-x="1212" d="M981 729q91 -123 91 -308q0 -78 -35 -157t-93.5 -142t-141 -102.5t-170.5 -39.5q-94 0 -181.5 26.5t-151.5 68.5t-103 76t-69 68q-10 11 -8 26t14 23q119 86 129 93q24 17 45 -5q20 -22 46.5 -43.5t68 -47.5t96.5 -42t114 -16q86 0 149.5 67.5t63.5 146.5q0 111 -46 172 q-54 72 -185 89q-132 16 -277 -19q-8 -3 -17 0q-25 7 -110 29q-13 4 -20 15t-5 24q10 51 50.5 260t49.5 256q2 12 11.5 20t21.5 8h698q14 0 24 -10t10 -24v-159q0 -14 -10 -24t-24 -10h-539l-27 -138q97 8 192 -3q226 -28 339 -178z"/>
    <glyph glyph-name="six" unicode="6" horiz-adv-x="1142" d="M1018 453q0 -4 -0.5 -10.5t-0.5 -9.5t0.5 -9t0.5 -10q0 -198 -92 -304q-109 -126 -343 -130h-4q-234 4 -343 130q-83 96 -91 269q-38 522 181 756q43 46 95 79t98 48t93.5 24.5t81 7.5t60.5 -2q15 -1 24 -14q9 -12 6 -27q-2 -9 -15 -70.5t-18 -85.5q-2 -12 -12 -20 t-23 -7q-135 6 -224 -89q-33 -35 -75.5 -107.5t-44.5 -128.5q28 38 96 71.5t115 34.5q9 2 24.5 4t61 1t86.5 -9.5t91 -35t86.5 -68t61 -116t24.5 -172.5zM791 414q0 3 -0.5 8t-0.5 7v9q0 2 0.5 7t0.5 8q0 114 -36 156q-41 48 -174 51q-133 -3 -174 -51q-36 -42 -36 -156 q0 -3 0.5 -8t0.5 -7h-4l1 -9h3q0 -2 -0.5 -7t-0.5 -8q0 -114 36 -156q41 -48 174 -51q133 3 174 51q36 42 36 156z"/>
    <glyph glyph-name="seven" unicode="7" horiz-adv-x="1077" d="M963 1265q9 -9 9 -24v-143q0 -9 -2 -13q-112 -281 -431 -1064q-8 -21 -32 -21h-171q-18 0 -28 15q-9 14 -3 32l405 1001h-584q-14 0 -24 10t-10 24v159q0 14 10 24t24 10h813q14 0 24 -10z"/>
    <glyph glyph-name="eight" unicode="8" horiz-adv-x="1163" d="M1023 399v-16v-17q0 -181 -99 -277q-108 -105 -341 -109h-3q-233 4 -341 109q-100 97 -100 277v17v16q0 65 20.5 118.5t50 83.5t59 51t49.5 28l21 8q-6 2 -16.5 6.5t-36.5 22.5t-46 41t-36.5 64t-16.5 90v15v14q0 165 88 253q98 98 305 101h3q206 -3 304 -101 q89 -89 89 -253v-14v-15q0 -49 -15.5 -90t-38 -64.5t-45 -40.5t-37.5 -23l-16 -6q8 -2 21.5 -7.5t48 -28t60.5 -52t47.5 -83t21.5 -118.5zM413 941q0 -2 0.5 -5t0.5 -4v-11q0 -1 -0.5 -4t-0.5 -5q0 -70 22 -92q32 -32 146 -34h4q110 2 142 34q22 22 22 92v9v11v9 q0 70 -22 92q-33 33 -142 35h-4q-112 -2 -145 -35q-23 -23 -23 -92zM797 366q0 2 -0.5 6t-0.5 6v10q0 2 0.5 5.5t0.5 5.5q0 85 -31 115q-43 42 -180 45h-5q-140 -2 -185 -45q-30 -29 -30 -115v-11v-10v-12q0 -85 30 -114q45 -43 185 -45q140 2 185 45q31 30 31 114z"/>
    <glyph glyph-name="nine" unicode="9" horiz-adv-x="1142" d="M998 895q38 -522 -182 -755q-43 -46 -95 -79t-98 -48t-93.5 -24.5t-81 -7.5t-60.5 2q-14 1 -23 14q-9 12 -6 26q20 96 32 157q2 12 12 20t23 7q137 -6 225 88q33 35 75.5 108t44.5 129q-28 -38 -96 -72t-115 -35q-9 -2 -24.5 -4t-61 -1t-86.5 10t-91 35.5t-86.5 68 t-61 116t-24.5 172.5v19v20q0 199 91 304q108 125 344 129h4q235 -4 343 -129q83 -96 91 -270zM771 822v15h3v9h-3v15q0 114 -36 156q-41 48 -173 51q-133 -3 -174 -51q-36 -42 -36 -156v-15v-9v-15q0 -114 36 -156q41 -48 174 -51q132 3 173 51q36 42 36 156z"/>
    <glyph glyph-name="colon" unicode=":" horiz-adv-x="423" d="M291 236q14 0 24 -10t10 -24v-168q0 -14 -10 -24t-24 -10h-159q-14 0 -24 10t-10 24v168q0 14 10 24t24 10h159zM315 1035q10 -10 10 -24v-168q0 -14 -10 -24t-24 -10h-159q-14 0 -24 10t-10 24v168q0 14 10 24t24 10h159q14 0 24 -10z"/>
    <glyph glyph-name="semicolon" unicode=";" horiz-adv-x="423" d="M291 237q14 0 24 -10t10 -24q-1 -70 -2 -124q-2 -60 -35 -107q-12 -17 -36.5 -51.5t-30.5 -43.5q-9 -14 -26 -14t-28 12q-3 3 -8.5 9.5t-8.5 10.5q-19 23 0 45q36 38 50 61h-68q-14 0 -24 10t-10 24v168q0 14 10 24t24 10h159zM315 1035q10 -10 10 -24v-168 q0 -14 -10 -24t-24 -10h-159q-14 0 -24 10t-10 24v168q0 14 10 24t24 10h159q14 0 24 -10z"/>
    <glyph glyph-name="less" unicode="&lt;" horiz-adv-x="884" d="M763 804q0 -20 -18 -30l-349 -185q275 -146 349 -185q18 -10 18 -30v-180q0 -19 -17 -29t-33 -1q-38 20 -184.5 97.5t-259.5 137.5t-151 80q-18 10 -18 30v159q0 20 18 30q183 98 595 316q16 9 33 -1t17 -29v-180z"/>
    <glyph glyph-name="equal" unicode="=" horiz-adv-x="1085" d="M954 884q14 0 24 -10t10 -24v-159q0 -14 -10 -24t-24 -10h-824q-14 0 -24 10t-10 24v159q0 14 10 24t24 10h824zM954 550q14 0 24 -10t10 -24v-158q0 -14 -10 -24t-24 -10h-824q-14 0 -24 10t-10 24v158q0 14 10 24t24 10h824z"/>
    <glyph glyph-name="greater" unicode="&gt;" horiz-adv-x="884" d="M765 699q18 -10 18 -31v-159q0 -20 -18 -30q-97 -52 -594 -315q-17 -9 -34 1q-16 10 -16 29v180q0 20 18 30l349 185q-275 146 -349 185q-18 10 -18 30v180q0 19 16 29q17 10 34 1q497 -263 594 -315z"/>
    <glyph glyph-name="question" unicode="?" horiz-adv-x="1026" d="M629 237q14 0 24 -10t10 -24v-168q0 -14 -10 -24t-24 -10h-159q-14 0 -24 10t-10 24v168q0 14 10 24t24 10h159zM549 1294q151 0 258.5 -109t107.5 -265q0 -154 -138 -261q-54 -42 -84.5 -103.5t-30.5 -129.5v-51q0 -14 -10 -24t-24 -10h-158q-14 0 -24 10t-10 24v51 q0 121 53 229.5t149 182.5q50 38 50 82q0 61 -40.5 104.5t-98.5 43.5q-127 0 -187 -60q-31 -29 -41 -69q-3 -11 -13 -18.5t-22 -6.5q-23 2 -83 5.5t-79 4.5q-16 2 -25 14t-6 27q25 121 110 205q124 124 346 124z"/>
    <glyph glyph-name="at" unicode="@" horiz-adv-x="1933" d="M1622 1069q175 -200 175 -577q0 -302 -179 -436q-51 -38 -112 -57t-115 -17t-105 14q-105 29 -152 103q0 1 -1 2.5t-2 2.5q-124 -124 -280 -124q-115 0 -200.5 66.5t-125 183.5t-24.5 260q22 209 144.5 349.5t288.5 140.5q138 0 235 -95l3 34q2 14 12.5 23t24.5 8 q21 -2 79 -7t80 -7q14 -2 22.5 -12t7.5 -24l-6 -80l-53 -601q22 -8 45 -10q77 -3 131.5 66t54.5 217q0 292 -119 428q-78 89 -195 118.5t-281 29.5q-149 0 -287.5 -78t-228.5 -213.5t-99 -291.5q-16 -267 109 -404q150 -165 506 -165h79q14 0 24 -10t10 -24v-159 q0 -14 -10 -24t-24 -10h-79q-204 0 -380.5 56t-292.5 183q-191 209 -169 571q10 161 85 309t190.5 254t264.5 169.5t302 63.5q450 0 647 -226zM1127 490q12 107 -32.5 185t-126.5 78q-91 0 -160.5 -85t-81.5 -202q-12 -107 33 -185.5t127 -78.5q90 0 159.5 85.5t81.5 202.5z "/>
    <glyph glyph-name="A" unicode="A" horiz-adv-x="1286" d="M1233 46q6 -16 -4 -31t-28 -15h-170q-24 0 -32 22l-108 283h-496q-81 -213 -108 -283q-8 -22 -32 -22h-170q-18 0 -28 15t-4 31q43 114 239.5 629t220.5 578q8 22 32 22h196q24 0 32 -22q24 -63 220.5 -578t239.5 -629zM481 532h324l-162 424z"/>
    <glyph glyph-name="B" unicode="B" horiz-adv-x="1171" d="M798 716q11 -2 29.5 -7t65 -28.5t82 -54.5t65 -90t29.5 -132q0 -167 -118.5 -285.5t-285.5 -118.5h-469q-14 0 -24 10t-10 24v1207q0 14 10 24t24 10h449q144 0 245.5 -101.5t101.5 -245.5q0 -55 -20 -97t-48.5 -63t-57 -34t-48.5 -16zM389 1048v-241h256q49 0 84.5 35.5 t35.5 84.5v1q0 50 -35.5 85t-84.5 35h-256zM665 227q73 0 125 51.5t52 125.5q0 73 -51.5 124.5t-125.5 51.5h-276v-353h276z"/>
    <glyph glyph-name="C" unicode="C" horiz-adv-x="1183" d="M1097 254q5 -15 -1 -27q-57 -119 -156 -180q-111 -67 -282 -67q-206 0 -339 106q-204 162 -204 551q0 390 204 552q133 106 339 106q170 0 282 -68q100 -61 156 -179q6 -12 1 -27q-4 -12 -19 -19q-23 -10 -80 -32.5t-68 -27.5q-12 -5 -24.5 -0.5t-18.5 15.5 q-31 59 -86 85t-143 26q-125 0 -198 -57q-41 -32 -67 -78.5t-36 -105.5t-12.5 -96t-2.5 -94t2.5 -94t12.5 -95.5t36 -105t67 -78.5q73 -57 198 -57q88 0 143 26t86 84q6 11 18.5 16t24.5 0q78 -32 148 -60q15 -7 19 -19z"/>
    <glyph glyph-name="D" unicode="D" horiz-adv-x="1325" d="M637 1275q157 0 290 -77.5t210.5 -211t77.5 -290.5v-117q0 -157 -77.5 -290.5t-210.5 -211t-290 -77.5h-441q-14 0 -24 10t-10 24v1207q0 14 10 24t24 10h441zM988 578v118q0 146 -103 249t-248 103h-248v-821h248q145 0 248 102.5t103 248.5z"/>
    <glyph glyph-name="E" unicode="E" horiz-adv-x="1042" d="M936 217q10 -10 10 -24v-159q0 -14 -10 -24t-24 -10h-714q-14 0 -24 10t-10 24v1207q0 14 10 24t24 10h667q14 0 24 -10t10 -24v-159q0 -14 -10 -24t-24 -10h-474v-285h380q14 0 24 -10t10 -24v-159q0 -14 -10 -24t-24 -10h-380v-309h521q14 0 24 -10z"/>
    <glyph glyph-name="F" unicode="F" horiz-adv-x="974" d="M863 1275q14 0 24 -10t10 -24v-159q0 -14 -10 -24t-24 -10h-474v-304h380q14 0 24 -10t10 -24v-158q0 -14 -10 -24t-24 -10h-380v-484q0 -14 -10 -24t-24 -10h-159q-14 0 -24 10t-10 24v1207q0 14 10 24t24 10h667z"/>
    <glyph glyph-name="G" unicode="G" horiz-adv-x="1275" d="M1123 650q29 -29 29 -72v-291q0 -109 -82 -180q-149 -127 -393 -127q-213 0 -349 104q-213 162 -213 553v4q0 387 213 549q137 105 349 105q176 0 283.5 -60t168.5 -186q6 -12 1 -27q-4 -12 -19 -19q-115 -49 -147 -62q-12 -5 -24.5 -0.5t-18.5 15.5q-33 59 -91.5 85.5 t-152.5 26.5q-134 0 -212 -59q-35 -26 -59.5 -65t-36.5 -74t-18.5 -83.5t-7.5 -77t-1 -72.5t1 -72.5t7.5 -77t18.5 -83.5t36.5 -74t59.5 -65q77 -58 212 -58q94 0 152.5 26.5t91.5 85.5q4 7 4 17l1 117h-303q-14 0 -24 10t-10 24v159q0 14 10 24t24 10h427q43 0 73 -30z"/>
    <glyph glyph-name="H" unicode="H" horiz-adv-x="1341" d="M1145 1275q14 0 24 -10t10 -24v-1207q0 -14 -10 -24t-24 -10h-159q-14 0 -24 10t-10 24v490h-563v-490q0 -14 -10 -24t-24 -10h-159q-14 0 -24 10t-10 24v1207q0 14 10 24t24 10h159q14 0 24 -10t10 -24v-490h563v490q0 14 10 24t24 10h159z"/>
    <glyph glyph-name="I" unicode="I" horiz-adv-x="550" d="M379 1265q10 -10 10 -24v-1207q0 -14 -10 -24t-24 -10h-159q-14 0 -24 10t-10 24v1207q0 14 10 24t24 10h159q14 0 24 -10z"/>
    <glyph glyph-name="J" unicode="J" horiz-adv-x="884" d="M716 1265q10 -10 10 -24v-995q0 -110 -82.5 -188t-222.5 -78q-130 0 -216.5 49.5t-154.5 158.5q-7 12 -4 26q3 13 16 21q22 13 76 43t64 36q11 7 23.5 4.5t20.5 -13.5q71 -98 175 -98q78 0 78 39v995q0 14 10 24t24 10h159q14 0 24 -10z"/>
    <glyph glyph-name="K" unicode="K" horiz-adv-x="1136" d="M1079 54q13 -16 3 -35t-31 -19h-198q-18 0 -27 14l-395 526l-42 -50v-456q0 -14 -10 -24t-24 -10h-159q-14 0 -24 10t-10 24v1207q0 14 10 24t24 10h159q14 0 24 -10t10 -24v-397q291 349 350 419q9 12 26 12h207q21 0 31 -20q9 -21 -5 -36l-418 -500q373 -497 499 -665z "/>
    <glyph glyph-name="L" unicode="L" horiz-adv-x="931" d="M847 227q14 0 24 -10t10 -24v-159q0 -14 -10 -24t-24 -10h-651q-14 0 -24 10t-10 24v1207q0 14 10 24t24 10h159q14 0 24 -10t10 -24v-1014h458z"/>
    <glyph glyph-name="M" unicode="M" horiz-adv-x="1456" d="M1259 1275q14 0 24 -10t10 -24v-1207q0 -14 -10 -24t-24 -10h-159q-14 0 -24 10t-10 24v580q-170 -480 -209 -591q-8 -23 -33 -23h-192q-24 0 -32 23l-209 591v-580q0 -14 -10 -24t-24 -10h-159q-14 0 -24 10t-10 24v1207q0 14 10 24t24 10h176q24 0 32 -23l322 -912 q272 769 323 912q8 23 32 23h176z"/>
    <glyph glyph-name="N" unicode="N" horiz-adv-x="1284" d="M1087 1275q14 0 24 -10t10 -24v-1207q0 -14 -10 -24t-24 -10h-219q-20 0 -30 18l-449 835v-819q0 -14 -10 -24t-24 -10h-159q-14 0 -24 10t-10 24v1207q0 14 10 24t24 10h211q20 0 30 -18l457 -840v824q0 14 10 24t24 10h159z"/>
    <glyph glyph-name="O" unicode="O" horiz-adv-x="1314" d="M1194 668q0 -6 -0.5 -16t-0.5 -15t0.5 -15t0.5 -16q0 -352 -164 -501q-131 -119 -370 -125h-5q-240 6 -371 125q-163 148 -163 501v31v31q0 353 163 501q132 120 371 126h5q238 -6 370 -126q164 -149 164 -501zM967 606v28v7v27q0 125 -18 205t-71 128q-70 64 -221 67 q-150 -3 -220 -67q-53 -48 -71 -128t-18 -205v-27v-7v-28q0 -125 18 -205t71 -128q69 -63 220 -66q152 3 221 66q53 48 71 128t18 205z"/>
    <glyph glyph-name="P" unicode="P" horiz-adv-x="1105" d="M906 1158q116 -114 116 -280v-25q0 -79 -30 -152.5t-86 -128.5q-116 -116 -280 -116h-237v-422q0 -14 -10 -24t-24 -10h-159q-14 0 -24 10t-10 24v1207q0 14 10 24t24 10h430q163 0 280 -117zM796 853v25q0 70 -50 120t-120 50h-237v-365h237q70 0 120 50t50 120z"/>
    <glyph glyph-name="Q" unicode="Q" horiz-adv-x="1320" d="M1194 606q0 -352 -164 -501q-2 -2 -7 -6t-7 -6q63 -45 100 -73q11 -8 13 -22.5t-6 -25.5q-42 -55 -95 -127q-9 -13 -22 -14t-25 7l-207 152q-49 -8 -114 -10h-5q-240 6 -371 125q-163 148 -163 501v31v31q0 353 163 501q132 120 371 126h5q238 -6 370 -126 q164 -149 164 -501v-31v-31zM967 606v28v7v27q0 125 -18 205t-71 128q-70 64 -221 67q-150 -3 -220 -67q-53 -48 -71 -128t-18 -205v-27v-7v-28q0 -125 18 -205t71 -128q69 -63 220 -66q152 3 221 66q53 48 71 128t18 205z"/>
    <glyph glyph-name="R" unicode="R" horiz-adv-x="1165" d="M857 519q170 -249 188 -483q1 -13 -9 -25q-9 -11 -25 -11h-159q-14 0 -23.5 9.5t-10.5 22.5q-8 87 -47 179.5t-74 145t-74 99.5h-234v-422q0 -14 -10 -24t-24 -10h-159q-14 0 -24 10t-10 24v1207q0 14 10 24t24 10h446q164 0 280.5 -116.5t116.5 -280.5v-25 q0 -103 -49.5 -191.5t-132.5 -142.5zM812 853v25q0 70 -50 120t-120 50h-253v-365h253q70 0 120 49.5t50 120.5z"/>
    <glyph glyph-name="S" unicode="S" horiz-adv-x="1101" d="M688 686q306 -114 306 -321q0 -156 -129 -270.5t-314 -114.5q-91 0 -215.5 41.5t-214.5 114.5q-10 9 -12 24q-2 14 9 26q13 14 53 56.5l56 59.5q9 10 22.5 10.5t23.5 -7.5q60 -46 140 -72t138 -26q88 0 152 44.5t64 113.5q0 20 -12 32.5t-36 26.5q-16 10 -34 18.5 t-42.5 18.5t-38.5 15t-47 16.5t-43 14.5q-179 63 -255 119q-150 109 -150 283q0 157 129 271.5t314 114.5q92 0 215.5 -40.5t213.5 -112.5q11 -10 13 -24q1 -13 -10 -26q-99 -105 -111 -118q-21 -21 -44 -4q-144 98 -277 98q-88 0 -152 -45t-64 -114t85 -118 q35 -20 77.5 -37t105 -38.5t84.5 -29.5z"/>
    <glyph glyph-name="T" unicode="T" horiz-adv-x="1167" d="M1084 1275q14 0 24 -10t10 -24v-159q0 -14 -10 -24t-24 -10h-387v-1014q0 -14 -10 -24t-24 -10h-159q-14 0 -24 10t-10 24v1014h-387q-14 0 -24 10t-10 24v159q0 14 10 24t24 10h1001z"/>
    <glyph glyph-name="U" unicode="U" horiz-adv-x="1316" d="M1162 1265q9 -9 9 -24v-817q0 -88 -40 -169.5t-108 -142t-163.5 -96.5t-201.5 -36t-201.5 36t-163.5 96.5t-108 142t-40 169.5v817q0 14 10 24t24 10h159q14 0 24 -10t10 -24v-817q0 -93 84.5 -155t201.5 -62t202 62t85 155v817q0 14 10 24t24 10h158q15 0 25 -10z"/>
    <glyph glyph-name="V" unicode="V" horiz-adv-x="1159" d="M1097 1261q10 -15 4 -31q-315 -963 -395 -1207q-8 -23 -32 -23h-189q-25 0 -33 23q-80 244 -395 1207q-5 16 5 31q9 14 27 14h168q23 0 32 -24l290 -887q244 744 291 887q9 24 32 24h167q19 0 28 -14z"/>
    <glyph glyph-name="W" unicode="W" horiz-adv-x="1570" d="M1493 1262q10 -13 7 -29q-87 -361 -288 -1207q-7 -26 -33 -26h-180q-26 0 -33 26l-181 760q-149 -624 -181 -760q-7 -26 -33 -26h-180q-26 0 -33 26q-265 1116 -287 1207q-3 17 6 29q10 13 27 13h163q26 0 33 -26l181 -760q149 624 181 760q7 26 33 26h180q26 0 33 -26 l181 -760q148 624 181 760q7 26 33 26h164q16 0 26 -13z"/>
    <glyph glyph-name="X" unicode="X" horiz-adv-x="1161" d="M715 636q275 -432 372 -584q11 -17 1 -34q-10 -18 -30 -18h-188q-19 0 -29 16l-260 408q-209 -331 -258 -408q-10 -16 -29 -16h-188q-20 0 -30 18q-10 17 1 34l370 584q-277 433 -374 586q-11 16 -1 35q10 18 30 18h188q19 0 29 -16l262 -412q211 335 260 412 q10 16 29 16h188q20 0 30 -18q10 -17 -1 -34z"/>
    <glyph glyph-name="Y" unicode="Y" horiz-adv-x="1054" d="M1004 1259q9 -15 1 -33l-365 -773v-419q0 -14 -10 -24t-24 -10h-159q-14 0 -24 10t-10 24v419q-282 597 -365 773q-8 17 2 33t29 16h176q20 0 30 -20l242 -511q196 415 241 511q10 20 31 20h176q19 0 29 -16z"/>
    <glyph glyph-name="Z" unicode="Z" horiz-adv-x="1191" d="M1095 1061q0 -13 -8 -23l-714 -811h688q14 0 24 -10t10 -24v-159q0 -14 -10 -24t-24 -10h-931q-14 0 -24 10t-10 24v180q0 11 9 22l713 812h-688q-14 0 -24 10t-10 24v159q0 14 10 24t24 10h931q14 0 24 -10t10 -24v-180z"/>
    <glyph glyph-name="bracketleft" unicode="[" horiz-adv-x="696" d="M566 1084h-175v-1169h175q14 0 24 -10t10 -24v-159q0 -14 -10 -24t-24 -10h-368q-14 0 -24 10t-10 24v1555q0 14 10 24t24 10h368q14 0 24 -10t10 -24v-159q0 -14 -10 -24t-24 -10z"/>
    <glyph glyph-name="backslash" unicode="\" horiz-adv-x="1001" d="M940 -47q8 -17 -2 -33t-28 -16h-176q-21 0 -31 20q-261 555 -614 1302q-8 17 2 33t29 16h176q20 0 30 -20q261 -555 614 -1302z"/>
    <glyph glyph-name="bracketright" unicode="]" horiz-adv-x="696" d="M498 1311q14 0 24 -10t10 -24v-1555q0 -14 -10 -24t-24 -10h-368q-14 0 -24 10t-10 24v159q0 14 10 24t24 10h175v1169h-175q-14 0 -24 10t-10 24v159q0 14 10 24t24 10h368z"/>
    <glyph glyph-name="asciicircum" unicode="^" horiz-adv-x="962" d="M874 648q6 -17 -3 -32t-28 -15h-173q-24 0 -32 20l-158 367q-124 -287 -158 -367q-8 -20 -31 -20h-173q-19 0 -28 15q-10 17 -3 32l274 636q9 21 31 21h176q23 0 32 -21q207 -481 274 -636z"/>
    <glyph glyph-name="underscore" unicode="_" horiz-adv-x="1175" d="M976 -84q14 0 24 -10t10 -24v-159q0 -14 -10 -24t-24 -10h-778q-14 0 -24 10t-10 24v159q0 14 10 24t24 10h778z"/>
    <glyph glyph-name="grave" unicode="`" horiz-adv-x="569" d="M497 1033q13 -17 3 -36q-10 -18 -30 -18h-153q-15 0 -26 12q-4 5 -92.5 108t-128.5 150q-15 16 -5 36t30 20h189q18 0 27 -14q96 -132 186 -258z"/>
    <glyph glyph-name="a" unicode="a" d="M893 54q2 -10 3 -14q3 -14 -8 -28q-9 -12 -26 -12h-158q-13 0 -22 8t-11 20q0 4 -1.5 12.5t-2.5 13.5q-8 50 -8 95v3q-27 -79 -102 -125.5t-142 -46.5q-131 0 -216 73q-99 85 -99 234q0 59 16 104t48.5 76t69.5 52t92 41q114 43 333 45v83q0 53 -96 53q-61 0 -112 -19.5 t-77 -55.5q-15 -22 -41 -11q-17 7 -43.5 18.5t-59 26t-45.5 20.5t-18 20q-5 16 2 28q54 90 159.5 145t234.5 55q145 0 232 -77q90 -78 90 -203v-539q0 -44 8 -95zM659 324v89q-120 0 -200 -17q-62 -13 -97 -36t-35 -73q0 -45 20 -62q20 -18 68 -18q64 0 132 32t112 85z"/>
    <glyph glyph-name="b" unicode="b" horiz-adv-x="1107" d="M663 968q158 -4 243.5 -129t85.5 -344q0 -246 -92 -380.5t-240 -134.5q-200 0 -284 131v-70q0 -14 -10 -24t-24 -10h-158q-15 0 -25 10q-9 9 -9 24v1230q0 15 9 24q10 10 25 10h158q14 0 24 -10t10 -24v-449q88 151 287 146zM704 266q61 83 61 229q0 107 -44 176t-120 70 q-50 1 -91.5 -16t-68 -45.5t-41 -50.5t-24.5 -44v-253q78 -125 227 -125q57 0 101 59z"/>
    <glyph glyph-name="c" unicode="c" horiz-adv-x="950" d="M856 121q10 -12 9 -25q-2 -14 -13 -24q-122 -92 -273 -92q-209 0 -327 101q-141 121 -141 393v4q2 270 141 389q118 101 327 101q150 0 272 -92q11 -10 13 -24t-8 -25q-29 -33 -106 -121q-8 -10 -21.5 -11.5t-23.5 6.5q-58 40 -126 40q-125 0 -180 -46q-39 -33 -50.5 -86 t-11.5 -135v-4q0 -80 12 -132t50 -85q55 -46 180 -46q67 0 126 40q11 7 24 5.5t21 -11.5q20 -22 106 -120z"/>
    <glyph glyph-name="d" unicode="d" horiz-adv-x="1107" d="M947 1295q10 -10 10 -24v-1230q0 -14 -10 -24t-24 -10h-159q-14 0 -24 10t-10 24v70q-84 -131 -284 -131q-148 0 -239.5 134.5t-91.5 381.5q0 219 85 343.5t243 128.5q199 5 287 -146v449q0 14 10 24t24 10h159q14 0 24 -10zM730 332v253q-7 17 -17 33.5t-30 40.5 t-43.5 41.5t-59 29.5t-75.5 11q-76 -1 -119.5 -70t-43.5 -176q0 -146 61 -229q43 -59 100 -59q149 0 227 125z"/>
    <glyph glyph-name="e" unicode="e" horiz-adv-x="1034" d="M919 515l1 -41v-80q0 -14 -10 -24t-24 -10h-539q12 -71 54 -107q55 -46 180 -46q81 0 146 40q10 8 23 6.5t21 -11.5q20 -22 106 -120q10 -11 8 -26q-2 -14 -13 -24q-60 -43 -138.5 -67.5t-152.5 -24.5q-209 0 -327 101q-141 121 -141 393v2q0 264 114 383 q104 109 289 109q186 0 290 -109q105 -110 113 -344zM340 515h353q-2 138 -51 188q-37 38 -126 38q-90 0 -125 -38q-49 -52 -51 -188z"/>
    <glyph glyph-name="f" unicode="f" horiz-adv-x="778" d="M467 1098q-47 0 -47 -28v-109h259q14 0 24 -10t10 -24v-159q0 -14 -10 -24t-24 -10h-259v-700q0 -14 -10 -24t-24 -10h-158q-14 0 -24 10t-10 24v700h-70q-14 0 -24 10t-10 24v159q0 14 10 24t24 10h70v109q0 111 73 182q75 73 200 73q158 0 263 -110q11 -11 9 -27 q-1 -15 -14 -24q-21 -15 -72 -50.5t-62 -42.5q-21 -14 -40 0q-38 27 -84 27z"/>
    <glyph glyph-name="g" unicode="g" horiz-adv-x="1107" d="M947 938q10 -10 10 -24v-919q0 -75 -56 -145q-53 -67 -148.5 -113.5t-216.5 -46.5q-80 0 -148 14.5t-113.5 38t-73 44.5t-47.5 44q-10 13 -7 27q3 17 15 24q18 11 71 43.5t71 43.5q21 12 38 -2q68 -50 194 -50q92 0 157 46l2 1q35 25 35 70v77q-84 -131 -284 -131 q-148 0 -239.5 134t-91.5 381q0 219 85 344t243 129q199 5 287 -146v92q0 14 10 24t24 10h159q14 0 24 -10zM730 332v253q-7 17 -17 33.5t-30 40.5t-43.5 41.5t-59 29.5t-75.5 11q-76 -1 -119.5 -70t-43.5 -176q0 -146 61 -229q43 -59 100 -59q149 0 227 125z"/>
    <glyph glyph-name="h" unicode="h" horiz-adv-x="1114" d="M688 968q151 -4 219 -125.5t68 -347.5v-461q0 -14 -10 -24t-24 -10h-158q-15 0 -25 10t-10 24v461q0 107 -41.5 176t-114.5 70q-39 1 -73 -11t-56.5 -29.5t-42 -41.5t-28.5 -40.5t-16 -32.5v-552q0 -14 -10 -24t-24 -10h-159q-14 0 -23.5 10t-9.5 24v1237q0 14 9.5 24 t23.5 10h159q14 0 24 -10t10 -24v-429q132 130 312 126z"/>
    <glyph glyph-name="i" unicode="i" horiz-adv-x="522" d="M364 1291q10 -10 10 -24v-168q0 -14 -10 -24t-24 -10h-158q-15 0 -25 10t-10 24v168q0 14 10 24t25 10h158q14 0 24 -10zM340 948q14 0 24 -10t10 -24v-880q0 -14 -10 -24t-24 -10h-158q-14 0 -24 10t-10 24v880q0 14 10 24t24 10h158z"/>
    <glyph glyph-name="j" unicode="j" horiz-adv-x="526" d="M342 948q14 0 24 -10t10 -24v-968q0 -122 -72 -192q-52 -52 -135 -62q-80 -10 -181 17q-16 5 -21 16q-7 13 -2 27q7 23 26 78t24 72q4 13 16.5 19.5t26.5 1.5q8 -2 24 -7.5t18 -5.5q18 -6 34 5q15 10 15 31v968q0 14 10 24t24 10h159zM366 1291q10 -10 10 -24v-168 q0 -14 -10 -24t-24 -10h-159q-14 0 -24 10t-10 24v168q0 14 10 24t24 10h159q14 0 24 -10z"/>
    <glyph glyph-name="k" unicode="k" horiz-adv-x="1019" d="M952 53q11 -18 2 -35q-10 -18 -30 -18h-190q-18 0 -28 16l-284 432l-48 -47v-367q0 -14 -10 -24t-24 -10h-159q-14 0 -24 10t-10 24v1237q0 14 10 24t24 10h159q14 0 24 -10t10 -24v-553q181 176 226 220q10 10 24 10h227q24 0 32 -21t-8 -37l-288 -281 q268 -408 365 -556z"/>
    <glyph glyph-name="l" unicode="l" horiz-adv-x="522" d="M364 1295q10 -10 10 -24v-1237q0 -14 -10 -24t-24 -10h-159q-14 0 -24 10t-10 24v1237q0 14 10 24t24 10h159q14 0 24 -10z"/>
    <glyph glyph-name="m" unicode="m" horiz-adv-x="1712" d="M1219 968q159 -4 257.5 -131.5t97.5 -341.5v-461q0 -14 -10 -24t-24 -10h-159q-14 0 -24 10t-10 24v461q0 107 -42 176t-115 70q-48 1 -87.5 -16t-65 -45.5t-39.5 -50t-23 -43.5v-554q0 -12 -8 -20h-1v-1l-1 -1l-1 -1l-1 -1h-1q-10 -8 -19 -8h-2h-161q-9 0 -19 8h-1l-1 1 v0l-1 1l-2 2q-8 10 -8 20v463q0 107 -41.5 176t-114.5 70q-39 1 -73 -11t-56.5 -29.5t-42 -41.5t-28.5 -40.5t-16 -32.5v-552q0 -14 -10 -24t-24 -10h-159q-14 0 -23.5 10t-9.5 24v880q0 14 10 24t24 10h158q14 0 24 -10t10 -24v-71q64 63 123 94t155 31q39 0 78.5 -13 t67.5 -31t50.5 -36.5t33.5 -31.5l11 -13q3 5 10 14t34 31t60.5 39t92.5 30t127 11z"/>
    <glyph glyph-name="n" unicode="n" horiz-adv-x="1114" d="M688 968q151 -4 219 -125.5t68 -347.5v-461q0 -14 -10 -24t-24 -10h-158q-15 0 -25 10q-9 9 -9 24v461q0 107 -42 176t-115 70q-39 1 -73 -11t-56.5 -29.5t-42 -41.5t-28.5 -40.5t-16 -32.5v-552q0 -14 -10 -24t-24 -10h-158q-14 0 -24 10t-10 24v880q0 14 10 24t24 10 h158q14 0 24 -10t10 -24v-72q132 130 312 126z"/>
    <glyph glyph-name="o" unicode="o" horiz-adv-x="1032" d="M915 496v-22v-22q0 -260 -121 -374q-100 -94 -276 -98h-5q-174 4 -275 98q-121 114 -121 374v22v22q0 260 121 374q101 94 275 98h5q176 -4 276 -98q121 -114 121 -374zM688 452v19v7v18q0 82 -9.5 130.5t-40.5 78.5q-37 34 -122 36q-86 -2 -123 -36q-31 -30 -40.5 -78.5 t-9.5 -130.5q0 -3 0.5 -9t0.5 -9v-7q0 -3 -0.5 -9.5t-0.5 -9.5q0 -82 9.5 -130.5t40.5 -78.5q37 -34 123 -36q85 2 122 36q31 30 40.5 78.5t9.5 130.5z"/>
    <glyph glyph-name="p" unicode="p" horiz-adv-x="1107" d="M663 968q158 -4 243 -129t85 -344q0 -247 -91.5 -381t-239.5 -134q-200 0 -284 131v-367q0 -14 -10 -24t-24 -10h-158q-14 0 -24 10t-10 24v1170q0 14 10 24t24 10h158q14 0 24 -10t10 -24v-92q88 151 287 146zM703 266q62 84 62 229q0 107 -44 176t-120 70 q-50 1 -91.5 -16t-68 -45.5t-41 -50.5t-24.5 -44v-253q78 -125 227 -125q56 0 100 59z"/>
    <glyph glyph-name="q" unicode="q" horiz-adv-x="1107" d="M947 938q10 -10 10 -24v-1170q0 -14 -10 -24t-24 -10h-159q-14 0 -24 10t-10 24v367q-84 -131 -284 -131q-148 0 -239.5 134.5t-91.5 381.5q0 219 85 343.5t243 128.5q199 5 287 -146v92q0 14 10 24t24 10h159q14 0 24 -10zM730 332v253q-10 22 -24.5 44t-41 50.5 t-68 45.5t-91.5 16q-76 -1 -120 -70t-44 -176q0 -145 62 -229q43 -59 100 -59q149 0 227 125z"/>
    <glyph glyph-name="r" unicode="r" horiz-adv-x="788" d="M688 968q13 0 21.5 -9t8.5 -22v-214q0 -19 -14 -28q-14 -10 -30 -5q-47 16 -82 17q-39 1 -73 -11t-56.5 -29.5t-42 -41.5t-28.5 -40.5t-16 -32.5v-518q0 -14 -10 -24t-24 -10h-159q-14 0 -23.5 10t-9.5 24v880q0 14 9.5 24t23.5 10h159q14 0 24 -10t10 -24v-72 q132 130 312 126z"/>
    <glyph glyph-name="s" unicode="s" horiz-adv-x="935" d="M578 540q244 -86 244 -257q0 -122 -102.5 -212.5t-250.5 -90.5q-66 0 -173 34t-179 86q-10 9 -12 24q-2 14 8 25q17 20 107 119q9 10 22 11.5t24 -6.5q44 -29 104.5 -47.5t98.5 -18.5q60 0 99 31q26 21 27 43q-1 1 -3.5 3t-3.5 3q-14 9 -31 17q-31 14 -124 46 q-132 45 -194 88q-123 86 -123 226q0 122 102.5 213t250.5 91q66 0 171 -34t177 -86q11 -10 13 -24q1 -13 -9 -25q-16 -18 -56 -62.5t-52 -58.5q-19 -21 -44 -5q-112 70 -200 68q-61 -2 -98 -31q-28 -22 -28 -46q0 -13 7.5 -23t14.5 -15t23 -14q25 -14 54 -25.5t77 -27 t59 -19.5z"/>
    <glyph glyph-name="t" unicode="t" horiz-adv-x="843" d="M738 100q8 -13 5 -26q-3 -14 -16 -22q-133 -72 -259 -72q-128 0 -202 83q-77 86 -77 248v423h-65q-14 0 -24 10t-10 24v159q0 14 10 24t24 10h65v249q0 14 9.5 24t23.5 10h159h1h1q11 0 18 -6l1 -1v0h1v-1q1 0 1 -1l2 -1l2 -2v-1h1v-1v0l1 -1q3 -4 5 -15v0v-1q0 -1 1 -3 v-249h263q14 0 24 -10t10 -24v-159q0 -14 -10 -24t-24 -10h-263v-445q0 -42 34 -65q36 -25 74 -9q17 7 46.5 18.5t31.5 12.5q26 10 41 -12q12 -18 47.5 -68t47.5 -66z"/>
    <glyph glyph-name="u" unicode="u" horiz-adv-x="1112" d="M927 948q14 0 24 -10t10 -24v-880q0 -14 -10 -24t-24 -10h-159q-14 0 -24 10t-10 24v72q-132 -130 -311 -126q-288 7 -288 473v461q0 14 10 24t24 10h159q14 0 24 -10t10 -24v-461q0 -107 42 -176t115 -70q48 -1 87.5 16t65 45.5t39.5 50t23 43.5v552q0 14 10 24t24 10 h159z"/>
    <glyph glyph-name="v" unicode="v" horiz-adv-x="1015" d="M947 934q10 -15 4 -31q-23 -63 -315 -880q-8 -23 -32 -23h-193q-24 0 -32 23q-9 27 -145 404t-171 476q-6 15 5 31q9 14 27 14h169q24 0 32 -23l211 -589q172 479 211 589q8 23 32 23h169q19 0 28 -14z"/>
    <glyph glyph-name="w" unicode="w" horiz-adv-x="1513" d="M1438 934q10 -14 5 -30q-11 -36 -129 -421t-141 -459q-7 -24 -32 -24h-187q-26 0 -33 24l-165 537q-132 -430 -165 -537q-7 -24 -32 -24h-187q-26 0 -33 24q-23 74 -141 459t-129 421q-5 16 5 30q9 14 28 14h166q25 0 32 -24l165 -537q132 430 165 537q7 24 33 24h187 q25 0 32 -24l165 -537q132 430 165 537q7 24 33 24h166q18 0 27 -14z"/>
    <glyph glyph-name="x" unicode="x" horiz-adv-x="978" d="M623 474q192 -299 272 -422q11 -17 1 -34q-10 -18 -29 -18h-187q-20 0 -29 15l-162 251q-125 -194 -162 -251q-9 -15 -28 -15h-187q-20 0 -30 18t1 34l272 422q-192 299 -272 422q-11 17 -1 34q10 18 30 18h187q18 0 28 -16l162 -250q125 193 162 250q10 16 29 16h187 q19 0 29 -18t-1 -34z"/>
    <glyph glyph-name="y" unicode="y" horiz-adv-x="980" d="M916 933q10 -14 3 -31l-400 -1026q-24 -56 -66 -99q-48 -49 -112.5 -71.5t-131.5 -12.5q-27 3 -69 10q-14 2 -22.5 13t-6.5 25q3 21 11.5 78.5t11.5 78.5q2 14 13 22.5t25 6.5t38 -9q30 -7 58.5 6t42.5 41l57 133q-237 627 -304 804q-6 16 4 31t28 15h169q24 0 32 -22 l195 -514q157 413 195 514q8 22 32 22h168q19 0 29 -15z"/>
    <glyph glyph-name="z" unicode="z" horiz-adv-x="980" d="M869 735q0 -15 -9 -24l-465 -485h440q14 0 24 -10t10 -24v-159q0 -14 -10 -24t-24 -10h-690q-14 0 -24 10t-10 24v179q0 15 9 24l474 485h-449q-14 0 -24 10t-10 24v159q0 14 10 24t24 10h690q14 0 24 -10t10 -24v-179z"/>
    <glyph glyph-name="braceleft" unicode="{" horiz-adv-x="901" d="M809 -115v-157q0 -16 -12 -26q-11 -10 -27 -8q-34 5 -69.5 14t-87 25.5t-94.5 42.5t-82.5 61t-62 85.5t-22.5 110.5v246q0 57 -41 98t-99 41h-78q-14 0 -24 10t-10 24v159q0 14 10 24t24 10h78q58 0 99 41t41 99v176q0 81 34.5 143.5t81.5 97.5t111 58.5t108 31.5t86 11 q13 1 25 -9q11 -9 11 -25v-160q0 -13 -9 -22.5t-22 -11.5q-30 -3 -59 -9t-63.5 -18t-56 -34.5t-21.5 -52.5v-176q0 -147 -101 -253q101 -106 101 -253v-246q0 -29 21 -51.5t56.5 -34.5t63.5 -18.5t59 -9.5q13 -2 22 -11.5t9 -22.5z"/>
    <glyph glyph-name="verticalbar" unicode="|" horiz-adv-x="555" d="M357 1305q14 0 24 -10t10 -24v-1547q0 -14 -10 -24t-24 -10h-159q-14 0 -24 10t-10 24v1547q0 14 10 24t24 10h159z"/>
    <glyph glyph-name="braceright" unicode="}" horiz-adv-x="901" d="M789 635q10 -10 10 -24v-159q0 -14 -10 -24t-24 -10h-78q-58 0 -99 -41q-40 -40 -40 -99v-245q0 -71 -34 -129.5t-81 -93.5t-110 -61.5t-107 -37t-87 -17.5q-16 -2 -27 8q-12 10 -12 26v157q0 13 9 22.5t22 11.5q31 3 59 9.5t63.5 18.5t56.5 34.5t21 51.5v245 q0 148 101 254q-101 106 -101 253v176q0 30 -21.5 52.5t-56 34.5t-63.5 18t-59 9q-13 2 -22 11.5t-9 22.5v160q0 15 11 24q13 11 25 10q42 -3 86 -11t108 -31.5t111.5 -58.5t82 -97.5t34.5 -143.5v-176q0 -58 40.5 -99t98.5 -41h78q14 0 24 -10z"/>
    <glyph glyph-name="asciitilde" unicode="~" horiz-adv-x="1136" d="M1041 777q10 -10 10 -24v-13q0 -154 -82 -259t-215 -105q-87 0 -165 68q-14 12 -40 38t-39 38q-47 41 -96 41q-45 0 -75 -38t-30 -89v-24q0 -14 -10 -24t-24 -10h-159q-14 0 -24 10t-10 24v24q0 140 89 241t216 112h57q44 0 86.5 -19t74 -46t58.5 -54t50.5 -46t40.5 -19 q33 0 51 40q19 41 19 97v13q0 14 10 24t24 10h159q14 0 24 -10z"/>
    <glyph glyph-name="nonbreakingspace" unicode=" " horiz-adv-x="536"/>
    <glyph glyph-name="exclamdown" unicode="¡" horiz-adv-x="483" d="M330 568q2 -60 11.5 -325.5t10.5 -301.5v-19v-178q0 -14 -10 -24t-24 -10h-155q-14 0 -24 10t-10 24v178v19q1 36 10.5 301.5t11.5 325.5q1 13 10.5 22.5t23.5 9.5h111q14 0 23.5 -9.5t10.5 -22.5zM346 974q10 -10 10 -24v-168q0 -14 -10 -24t-24 -10h-159q-14 0 -24 10 t-10 24v168q0 14 10 24t24 10h159q14 0 24 -10z"/>
    <glyph glyph-name="cent" unicode="¢" horiz-adv-x="997" d="M873 121q10 -11 8 -25t-13 -24q-100 -76 -224 -89v-137q0 -14 -10 -24t-24 -10h-159q-14 0 -24 10t-10 24v157q-86 25 -149 78q-141 121 -141 393v4q2 270 141 389q63 53 149 78v170q0 14 10 24t24 10h159q14 0 24 -10t10 -24v-150q124 -13 224 -89q11 -10 13 -24 q1 -13 -9 -25q-16 -18 -54 -62.5t-51 -58.5q-8 -10 -21.5 -11.5t-23.5 6.5q-58 40 -126 40q-126 0 -181 -46q-39 -33 -50 -85.5t-11 -135.5v-4q0 -81 11.5 -132.5t49.5 -84.5q55 -46 181 -46q67 0 126 40q24 17 44 -6q57 -63 107 -120z"/>
    <glyph glyph-name="sterling" unicode="£" horiz-adv-x="1101" d="M970 217q10 -10 10 -24v-159q0 -14 -10 -24t-24 -10h-777q-14 0 -24 10t-10 24v159q0 14 10 24t24 10h80v261h-80q-14 0 -24 10t-10 24v159q0 14 10 24t24 10h80v247q0 137 99 234.5t238 97.5t238 -97.5t99 -234.5v-80q0 -14 -10 -24t-24 -10h-159q-14 0 -24 10t-10 24 v80q0 44 -32.5 75t-77.5 31t-77.5 -31t-32.5 -75v-247h258q14 0 24 -10t10 -24v-159q0 -14 -10 -23.5t-24 -9.5h-258v-262h470q14 0 24 -10z"/>
    <glyph glyph-name="yen" unicode="¥" horiz-adv-x="1165" d="M1059 1259q10 -16 2 -33l-326 -690h138q14 0 24 -10t10 -24v-46q0 -14 -10 -24t-24 -10h-177v-81h177q14 0 24 -10t10 -24v-45q0 -14 -10 -24t-24 -10h-177v-194q0 -14 -10 -24t-24 -10h-159q-14 0 -24 10t-10 24v194h-177q-14 0 -24 10t-10 24v45q0 14 10 24t24 10h177 v81h-177q-14 0 -24 10t-10 24v46q0 14 10 24t24 10h138q-248 525 -326 690q-8 17 2 33t28 16h176q21 0 31 -20l241 -511q197 415 242 511q10 20 31 20h175q19 0 29 -16z"/>
    <glyph glyph-name="section" unicode="§" horiz-adv-x="1126" d="M541 1068q-69 0 -119 -33.5t-50 -85.5q0 -29 17 -47.5t48 -37.5q30 -17 66 -31.5t88.5 -32.5t71.5 -25q273 -101 273 -288q0 -142 -120 -246q5 -3 17 -13q103 -79 103 -199q0 -137 -115 -238.5t-281 -101.5q-77 0 -151.5 20.5t-132 54t-94.5 60.5t-66 55q-10 10 -10 26 q0 14 12 24q102 89 119 105q10 9 23 8.5t23 -9.5q126 -117 277 -117q68 0 118.5 31t50.5 82q0 10 -18 22q-18 13 -39 23t-148 54q-7 2 -73 27q-97 37 -150 75q-136 97 -136 251q0 134 110 234q-110 94 -110 234t115 242.5t281 102.5q75 0 149.5 -21.5t133.5 -56t97.5 -62.5 t68.5 -57q11 -9 11 -25t-11 -25q-17 -16 -60.5 -55t-57.5 -51q-10 -9 -23 -9t-23 9q-139 127 -285 127zM501 592q-39 0 -84 -34.5t-45 -75.5q0 -20 5 -36t20 -35.5t51.5 -30.5t91.5 -11q69 0 119 33t50 85q0 5 -0.5 9.5t-4.5 16t-11 21t-22.5 21t-37 19t-55.5 13t-77 5.5z "/>
    <glyph glyph-name="copyright" unicode="©" horiz-adv-x="1568" d="M969 428q6 -6 14 -13.5t17 -17t14 -14.5q12 -12 10 -29t-14 -26q-81 -61 -179 -61q-148 0 -230 77q-94 89 -94 293v3q0 202 94 291q82 77 230 77q98 0 179 -61q12 -9 14 -27q2 -15 -10 -27q-7 -7 -22 -23t-22 -23q-23 -23 -48 -5q-42 31 -91 31q-94 0 -137 -40 q-31 -30 -41.5 -77.5t-10.5 -118.5v-3q0 -69 10.5 -116t41.5 -76q43 -40 137 -40q48 0 91 30q10 8 24 7t23 -11zM784 1295q134 0 255.5 -52t209.5 -140.5t140 -210t52 -255.5q0 -179 -88 -330t-239 -239t-330 -88t-330 88t-239 239t-88 330q0 134 52 255.5t140 210 t209.5 140.5t255.5 52zM784 116q142 0 262 69.5t190 189.5t70 262t-70 262t-190 190t-262 70t-262 -70t-190 -190t-70 -262t70 -262t190 -189.5t262 -69.5z"/>
    <glyph glyph-name="guillemotleft" unicode="«" horiz-adv-x="1331" d="M1239 785q9 -23 -10 -38l-312 -270q183 -158 286 -247q18 -14 9 -37q-8 -22 -32 -22h-242q-13 0 -23 8q-142 121 -234 202q-11 9 -11 26v141q0 16 11 25q27 23 137 118.5t124 107.5q10 8 22 8h243q24 0 32 -22zM636 807q24 0 32 -22q9 -23 -10 -38l-312 -270 q182 -158 285 -247q18 -15 10 -37t-32 -22h-243q-12 0 -22 8q-142 121 -234 202q-12 10 -12 26v141q0 15 12 25q27 23 137 118.5t124 107.5q10 8 22 8h243z"/>
    <glyph glyph-name="softhyphen" unicode="­" horiz-adv-x="0"/>
    <glyph glyph-name="registered" unicode="®" horiz-adv-x="1568" d="M845 1025q98 0 168 -70t70 -168t-70 -168q-18 -18 -40 -32q82 -113 106 -224q3 -17 -8 -30t-28 -13q-11 0 -32.5 -0.5t-30.5 -0.5q-29 0 -36 29q-25 102 -112 201h-148v-193q0 -15 -11 -26t-26 -11h-62q-15 0 -25.5 11t-10.5 26v632q0 15 10.5 26t25.5 11h260zM917 715 q30 30 30 72q0 43 -30 73q-29 29 -72 29h-161v-204h161q42 0 72 30zM784 1294q179 0 330 -88t239 -239t88 -330t-88 -330t-239 -239t-330 -88t-330 88t-239 239t-88 330t88 330t239 239t330 88zM784 116q142 0 262 69.5t190 189.5t70 262t-70 262t-190 190t-262 70t-262 -70 t-190 -190t-70 -262t70 -262t190 -189.5t262 -69.5z"/>
    <glyph glyph-name="degree" unicode="°" horiz-adv-x="710" d="M355 1295q109 0 185.5 -77t76.5 -186t-76.5 -186t-185.5 -77t-186 77t-77 186t77 186t186 77zM355 996q15 0 25.5 10.5t10.5 25.5t-10.5 25.5t-25.5 10.5t-25.5 -10.5t-10.5 -25.5t10.5 -25.5t25.5 -10.5z"/>
    <glyph glyph-name="twosuperior" unicode="²" horiz-adv-x="841" d="M717 727q10 -10 10 -24v-159q0 -14 -10 -24t-24 -10h-552q-15 0 -25 10t-10 24v71q0 6 4 16q46 89 122 170q30 32 96 97.5t89 89.5q20 20 4 44q-15 24 -42 13q-18 -5 -25 -9q-53 -25 -89 -49q-11 -7 -24.5 -4.5t-21.5 13.5q-12 17 -92 129q-8 13 -5 27q3 15 15 22 q201 121 318 121q60 0 112 -30.5t86 -80.5q33 -50 41 -109.5t-12 -107.5q-17 -42 -60 -91q-36 -41 -136 -139h207q14 0 24 -10z"/>
    <glyph glyph-name="threesuperior" unicode="³" horiz-adv-x="851" d="M568 915q7 -1 18.5 -4t40.5 -15t51.5 -28t41 -44.5t18.5 -62.5q0 -106 -83 -183.5t-204 -77.5q-181 0 -316 126q-11 11 -11 26q0 14 13 25q76 65 123 103q21 17 43 0q66 -53 148 -53q60 0 60 34q0 3 -1 6t-3.5 5t-4.5 3l-6 3t-5 3q-23 14 -50 14h-23q-14 0 -24 10t-10 24 v159q0 14 10 24t24 10h15q26 0 47 12l2 1q7 3 7 11t-7 12q-16 10 -39 10q-86 0 -146 -63q-19 -21 -43 -5q-20 13 -72.5 46t-63.5 40q-12 7 -15 23q-3 14 7 27q21 25 47.5 48t68 50t98 43.5t119.5 16.5q118 0 198.5 -75t80.5 -175q0 -25 -16 -48t-38.5 -37t-45 -24.5 t-38.5 -14.5z"/>
    <glyph glyph-name="periodcentered" unicode="·" horiz-adv-x="366" d="M287 733q10 -10 10 -24v-168q0 -14 -10 -24t-25 -10h-158q-14 0 -24 10t-10 24v168q0 14 10 24t24 10h158q15 0 25 -10z"/>
    <glyph glyph-name="onesuperior" unicode="¹" horiz-adv-x="718" d="M585 757q14 0 24 -10t10 -24v-159q0 -14 -10 -24t-24 -10h-433q-14 0 -24 10t-10 24v159q0 14 10 24t24 10h103v227q-22 -16 -38 5q-62 83 -101 132q-8 12 -7 25q2 14 13 22q75 57 129 100q8 7 21 7h176q14 0 24 -10t10 -24v-484h103z"/>
    <glyph glyph-name="guillemotright" unicode="»" horiz-adv-x="1329" d="M387 799q14 -12 124 -107.5t137 -118.5q11 -9 11 -25v-141q0 -17 -11 -26q-92 -81 -234 -202q-10 -8 -22 -8h-243q-24 0 -32 22q-9 23 10 38l285 246q-202 175 -312 270q-19 15 -10 38q8 22 32 22h243q12 0 22 -8zM1219 573q12 -10 12 -25v-141q0 -15 -12 -25 q-122 -107 -234 -203q-10 -8 -22 -8h-243q-24 0 -32 22q-9 23 10 38l285 247q-202 175 -312 270q-18 14 -9 37q8 22 31 22h243q13 0 23 -8q16 -14 125 -109t135 -117z"/>
    <glyph glyph-name="questiondown" unicode="¿" horiz-adv-x="978" d="M374 748q-14 0 -24 10t-10 24v168q0 14 10 24t24 10h159q14 0 24 -10t10 -24v-168q0 -14 -10 -24t-24 -10h-159zM903 47q10 -13 7 -27q-25 -121 -110 -205q-125 -125 -346 -125q-151 0 -258.5 109.5t-107.5 265.5q0 154 138 261q54 42 84 103.5t30 129.5v51q0 14 10 24 t24 10h159q14 0 24 -10t10 -24v-51q0 -121 -53 -229.5t-149 -182.5q-50 -38 -50 -82q0 -61 40.5 -104.5t98.5 -43.5q126 0 186 60q32 31 42 69q3 11 13 18.5t22 6.5q23 -2 83 -5.5t79 -4.5q15 -1 24 -14z"/>
    <glyph glyph-name="Agrave" unicode="À" horiz-adv-x="1286" d="M545 1275h196q24 0 32 -22q24 -63 220.5 -578t239.5 -629q6 -16 -4 -31t-28 -15h-170q-24 0 -32 22l-108 283h-496q-81 -213 -108 -283q-8 -22 -32 -22h-170q-18 0 -28 15t-4 31q43 114 239.5 629t220.5 578q8 22 32 22zM643 956l-162 -424h324zM536 1355l-143 176 q-14 17 -4 36q10 20 31 20h174q19 0 29 -16q5 -8 47.5 -75.5t63.5 -100.5q11 -16 1 -35q-9 -17 -29 -17h-144q-17 0 -26 12z"/>
    <glyph glyph-name="Aacute" unicode="Á" horiz-adv-x="1286" d="M545 1275h196q24 0 32 -22q24 -63 220.5 -578t239.5 -629q6 -16 -4 -31t-28 -15h-170q-24 0 -32 22l-108 283h-496q-81 -213 -108 -283q-8 -22 -32 -22h-170q-18 0 -28 15t-4 31q287 750 460 1207q8 22 32 22zM643 956l-162 -424h324zM895 1531q-25 -31 -77.5 -96 t-64.5 -80q-9 -12 -27 -12h-143q-21 0 -30 17q-10 19 1 35q20 32 62 97.5t50 78.5q10 16 28 16h175q20 0 30 -20q10 -19 -4 -36z"/>
    <glyph glyph-name="Acircumflex" unicode="Â" horiz-adv-x="1286" d="M545 1275h196q24 0 32 -22q24 -63 220.5 -578t239.5 -629q6 -16 -4 -31t-28 -15h-170q-24 0 -32 22l-108 283h-496q-81 -213 -108 -283q-8 -22 -32 -22h-170q-18 0 -28 15t-4 31q43 114 239.5 629t220.5 578q8 22 32 22zM643 956l-162 -424h324zM525 1567q10 20 30 20 h176q21 0 31 -20q1 -1 1 -4l107 -168q11 -17 1 -35q-9 -17 -30 -17h-143q-17 0 -26 12l-29 35l-28 -35q-9 -12 -27 -12h-143q-21 0 -30 17q-10 19 1 35l107 168q0 2 2 4z"/>
    <glyph glyph-name="Atilde" unicode="Ã" horiz-adv-x="1290" d="M547 1275h196q24 0 32 -22q24 -63 220.5 -578t239.5 -629q6 -16 -4 -31t-28 -15h-170q-24 0 -32 22l-108 283h-496q-81 -213 -108 -283q-8 -22 -32 -22h-170q-18 0 -28 15t-4 31q43 114 239.5 629t220.5 578q8 22 32 22zM645 956l-162 -424h324zM482 1385h-49 q-16 0 -26 13q-9 12 -6 29q14 60 63.5 99t114.5 39q80 0 152 -62q18 -16 28 -24q13 -9 19 -9q38 0 47 45q7 27 33 27h46q16 0 26 -13t7 -27q-27 -145 -159 -145q-52 0 -106 47l-9 8q-9 9 -11 10.5t-10.5 8t-13.5 8.5t-13.5 6t-17 5t-18.5 1q-23 0 -41 -12t-25 -32 q-8 -22 -31 -22z"/>
    <glyph glyph-name="Adieresis" unicode="Ä" horiz-adv-x="1286" d="M545 1275h196q24 0 32 -22q24 -63 220.5 -578t239.5 -629q6 -16 -4 -31t-28 -15h-170q-24 0 -32 22l-108 283h-496q-81 -213 -108 -283q-8 -22 -32 -22h-170q-18 0 -28 15t-4 31q43 114 239.5 629t220.5 578q8 22 32 22zM643 956l-162 -424h324zM311 1569q10 10 24 10 h159q14 0 24 -10t10 -24v-168q0 -15 -10 -25t-24 -10h-159q-14 0 -24 10t-10 25v168q0 14 10 24zM762 1569q10 10 24 10h159q14 0 24 -10t10 -24v-168q0 -15 -10 -25t-24 -10h-159q-14 0 -24 10t-10 25v168q0 14 10 24z"/>
    <glyph glyph-name="Aring" unicode="Å" horiz-adv-x="1286" d="M545 1275h196q24 0 32 -22q24 -63 220.5 -578t239.5 -629q6 -16 -4 -31t-28 -15h-170q-24 0 -32 22l-108 283h-496q-81 -213 -108 -283q-8 -22 -32 -22h-170q-18 0 -28 15t-4 31q43 114 239.5 629t220.5 578q8 22 32 22zM643 956l-162 -424h324zM651 1677q71 0 121 -50 t50 -120t-50 -120t-121 -50t-120.5 49.5t-49.5 120.5t49.5 120.5t120.5 49.5zM651 1563q-23 0 -39.5 -16.5t-16.5 -39.5t16.5 -40t39.5 -17t40 17t17 40t-17 39.5t-40 16.5z"/>
    <glyph glyph-name="AE" unicode="Æ" horiz-adv-x="1521" d="M513 1253q8 22 32 22h799q14 0 24 -10t10 -24v-159q0 -14 -10 -24t-24 -10h-474v-285h380q14 0 24 -10t10 -24v-159q0 -14 -10 -24t-24 -10h-380v-309h521q14 0 24 -10t10 -24v-159q0 -14 -10 -24t-24 -10h-714q-14 0 -24 10t-10 24v271h-248q-81 -213 -108 -283 q-8 -22 -32 -22h-170q-18 0 -28 15t-4 31q43 114 239.5 629t220.5 578zM481 532h162v424z"/>
    <glyph glyph-name="Ccedilla" unicode="Ç" horiz-adv-x="1183" d="M541 -92l15 79q-137 21 -237 99q-204 162 -204 551q0 390 204 552q132 105 339 105q171 0 282 -67q100 -61 156 -179q6 -12 1 -27q-4 -12 -19 -19q-23 -10 -80 -32.5t-68 -27.5q-12 -5 -24.5 -0.5t-18.5 15.5q-31 59 -86 85t-143 26q-125 0 -198 -57q-41 -32 -67 -78.5 t-36 -105.5t-12.5 -96t-2.5 -94t2.5 -94t12.5 -95.5t36 -105t67 -78.5q73 -57 198 -57q88 0 143 26t86 84q6 11 18.5 16t24.5 0q78 -32 148 -60q15 -7 19 -19q5 -15 -1 -27q-57 -119 -156 -180q-105 -64 -270 -67l-5 -25q54 -13 82 -51t28 -92q0 -50 -40.5 -93t-95.5 -43 q-48 0 -94 26q-14 8 -16 24q-2 15 10 27q7 9 34 38q15 17 37 8q18 -10 29 -10q9 0 15.5 7t6.5 16q0 16 -5 24q-6 8 -25 10q-14 2 -37 0q-21 -3 -33 15q-12 17 -15 22q-8 11 -5 25z"/>
    <glyph glyph-name="Egrave" unicode="È" horiz-adv-x="1040" d="M910 0h-714q-14 0 -24 10t-10 24v1207q0 14 10 24t24 10h667q14 0 24 -10t10 -24v-159q0 -14 -10 -24t-24 -10h-474v-285h380q14 0 24 -10t10 -24v-159q0 -14 -10 -24t-24 -10h-380v-309h521q14 0 24 -10t10 -24v-159q0 -14 -10 -24t-24 -10zM473 1355l-143 176 q-14 17 -4 36q10 20 31 20h174q19 0 29 -16q50 -80 112 -176q11 -16 1 -35q-9 -17 -30 -17h-144q-17 0 -26 12z"/>
    <glyph glyph-name="Eacute" unicode="É" horiz-adv-x="1040" d="M910 0h-714q-14 0 -24 10t-10 24v1207q0 14 10 24t24 10h667q14 0 24 -10t10 -24v-159q0 -14 -10 -24t-24 -10h-474v-285h380q14 0 24 -10t10 -24v-159q0 -14 -10 -24t-24 -10h-380v-309h521q14 0 24 -10t10 -24v-159q0 -14 -10 -24t-24 -10zM787 1531l-143 -176 q-9 -12 -26 -12h-144q-20 0 -29 17q-10 19 1 35q20 33 63 100.5t48 75.5q10 16 29 16h175q20 0 30 -20q10 -19 -4 -36z"/>
    <glyph glyph-name="Ecircumflex" unicode="Ê" horiz-adv-x="1040" d="M910 0h-714q-14 0 -24 10t-10 24v1207q0 14 10 24t24 10h667q14 0 24 -10t10 -24v-159q0 -14 -10 -24t-24 -10h-474v-285h380q14 0 24 -10t10 -24v-159q0 -14 -10 -24t-24 -10h-380v-309h521q14 0 24 -10t10 -24v-159q0 -14 -10 -24t-24 -10zM435 1567q10 20 30 20h176 q21 0 31 -20q1 -1 1 -4l107 -168q11 -17 1 -35q-9 -17 -30 -17h-143q-17 0 -26 12l-29 35l-28 -35q-11 -12 -27 -12h-143q-21 0 -30 17q-10 19 1 35l107 168q0 2 2 4z"/>
    <glyph glyph-name="Edieresis" unicode="Ë" horiz-adv-x="1040" d="M910 0h-714q-14 0 -24 10t-10 24v1207q0 14 10 24t24 10h667q14 0 24 -10t10 -24v-159q0 -14 -10 -24t-24 -10h-474v-285h380q14 0 24 -10t10 -24v-159q0 -14 -10 -24t-24 -10h-380v-309h521q14 0 24 -10t10 -24v-159q0 -14 -10 -24t-24 -10zM196 1569q10 10 24 10h159 q14 0 24 -10t10 -24v-168q0 -15 -10 -25t-24 -10h-159q-14 0 -24 10t-10 25v168q0 14 10 24zM647 1569q10 10 24 10h159q14 0 24 -10t10 -24v-168q0 -15 -10 -25t-24 -10h-159q-14 0 -24 10t-10 25v168q0 14 10 24z"/>
    <glyph glyph-name="Igrave" unicode="Ì" horiz-adv-x="555" d="M381 1265q10 -10 10 -24v-1207q0 -14 -10 -24t-24 -10h-159q-14 0 -24 10t-10 24v1207q0 14 10 24t24 10h159q14 0 24 -10zM161 1355l-143 176q-14 17 -4 36q10 20 30 20h175q18 0 28 -16q8 -13 50 -78.5t62 -97.5q11 -16 1 -35q-9 -17 -30 -17h-143q-17 0 -26 12z"/>
    <glyph glyph-name="Iacute" unicode="Í" horiz-adv-x="557" d="M381 1265q10 -10 10 -24v-1207q0 -14 -10 -24t-24 -10h-159q-14 0 -24 10t-10 24v1207q0 14 10 24t24 10h159q14 0 24 -10zM523 1531l-143 -176q-9 -12 -26 -12h-143q-21 0 -30 17q-10 19 1 35q21 33 63.5 100.5t47.5 75.5q10 16 29 16h175q20 0 30 -20q10 -19 -4 -36z "/>
    <glyph glyph-name="Icircumflex" unicode="Î" horiz-adv-x="555" d="M381 1265q10 -10 10 -24v-1207q0 -14 -10 -24t-24 -10h-159q-14 0 -24 10t-10 24v1207q0 14 10 24t24 10h159q14 0 24 -10zM159 1567q10 20 31 20h175q21 0 31 -20q2 -2 2 -4l106 -168q11 -18 2 -35t-30 -17h-144q-17 0 -26 12l-29 35l-28 -35q-9 -12 -27 -12h-143 q-21 0 -30 17q-10 19 1 35l107 168q0 2 2 4z"/>
    <glyph glyph-name="Idieresis" unicode="Ï" horiz-adv-x="550" d="M379 1265q10 -9 10 -24v-1207q0 -14 -10 -24t-24 -10h-159q-14 0 -24 10t-10 24v1207q0 14 10 24t24 10h159q14 0 24 -10zM-54 1569q10 10 25 10h158q14 0 24 -10t10 -24v-168q0 -15 -10 -25t-24 -10h-158q-15 0 -25 10q-9 9 -9 25v168q0 15 9 24zM398 1569q10 10 24 10 h158q14 0 24 -10t10 -24v-168q0 -15 -10 -25t-24 -10h-158q-14 0 -24 10t-10 25v168q0 14 10 24z"/>
    <glyph glyph-name="Eth" unicode="Ð" horiz-adv-x="1347" d="M660 1275q117 0 224.5 -46t185 -123.5t123.5 -185t46 -224.5v-118q0 -157 -77.5 -290t-211 -210.5t-290.5 -77.5h-441q-14 0 -24 10t-10 24v490h-32q-14 0 -24 10t-10 24v159q0 14 10 24t24 10h32v490q0 14 10 24t24 10h441zM1012 578v118q0 146 -103 249t-249 103h-248 v-297h274q14 0 24 -10t10 -24v-159q0 -14 -10 -24t-24 -10h-274v-297h248q146 0 249 103t103 248z"/>
    <glyph glyph-name="Ntilde" unicode="Ñ" horiz-adv-x="1284" d="M437 1257l457 -840v824q0 14 10 24t24 10h159q14 0 24 -10t10 -24v-1207q0 -14 -10 -24t-24 -10h-219q-20 0 -30 18l-449 835v-819q0 -14 -10 -24t-24 -10h-159q-14 0 -24 10t-10 24v1207q0 14 10 24t24 10h211q20 0 30 -18zM454 1385h-48q-17 0 -27 13q-9 12 -6 29 q14 60 64 99t115 39q79 0 151 -62q18 -17 29 -24q14 -9 18 -9q38 0 47 45q3 11 12.5 19t21.5 8h45q16 0 26 -13q11 -14 8 -27q-4 -24 -13 -46t-26.5 -46t-48.5 -38.5t-72 -14.5q-52 0 -106 47q-1 1 -10.5 10t-12.5 11.5t-12.5 9t-16.5 9t-17.5 5t-22.5 2.5q-22 0 -40.5 -12 t-25.5 -32q-8 -22 -32 -22z"/>
    <glyph glyph-name="Ograve" unicode="Ò" horiz-adv-x="1314" d="M284 1169q131 119 371 125h5q239 -6 370 -125q164 -149 164 -501q0 -6 -0.5 -16t-0.5 -15t0.5 -15t0.5 -16q0 -352 -164 -501q-131 -119 -370 -125h-5q-240 6 -371 125q-163 148 -163 501v31v31q0 353 163 501zM878 1002q-69 63 -221 66q-151 -3 -220 -66 q-53 -48 -71 -128.5t-18 -205.5v-27v-7v-28q0 -125 18 -205t71 -128q69 -63 220 -66q152 3 221 66q53 48 71 128t18 205v28v7v27q0 125 -18 205.5t-71 128.5zM558 1355q-12 15 -64.5 80t-77.5 96q-14 17 -4 36q10 20 30 20h175q18 0 28 -16q8 -13 50 -78.5t62 -97.5 q11 -16 1 -35q-9 -17 -30 -17h-143q-18 0 -27 12z"/>
    <glyph glyph-name="Oacute" unicode="Ó" horiz-adv-x="1316" d="M284 1169q131 119 371 125h5q239 -6 370 -125q164 -149 164 -501v-31v-31q0 -352 -164 -501q-131 -119 -370 -125h-5q-240 6 -371 125q-163 148 -163 501v31v31q0 353 163 501zM878 1002q-69 63 -221 66q-151 -3 -220 -66q-53 -48 -71 -128.5t-18 -205.5v-27v-7v-28 q0 -125 18 -205t71 -128q69 -63 220 -66q152 3 221 66q53 48 71 128t18 205v28v7v27q0 125 -18 205.5t-71 128.5zM888 1531q-25 -31 -77.5 -96t-64.5 -80q-9 -12 -27 -12h-143q-21 0 -30 17q-10 19 1 35q20 32 62 97.5t50 78.5q10 16 29 16h174q21 0 31 -20q9 -18 -5 -36z "/>
    <glyph glyph-name="Ocircumflex" unicode="Ô" horiz-adv-x="1314" d="M284 1169q131 119 371 125h5q239 -6 370 -125q164 -149 164 -501q0 -6 -0.5 -16t-0.5 -15t0.5 -15t0.5 -16q0 -352 -164 -501q-131 -119 -370 -125h-5q-240 6 -371 125q-163 148 -163 501v31v31q0 353 163 501zM878 1002q-69 63 -221 66q-151 -3 -220 -66 q-53 -48 -71 -128.5t-18 -205.5v-27v-7v-28q0 -125 18 -205t71 -128q69 -63 220 -66q152 3 221 66q53 48 71 128t18 205v28v7v27q0 125 -18 205.5t-71 128.5zM539 1567q10 20 31 20h175q21 0 31 -20q1 -1 1 -4l107 -168q11 -17 1 -35q-9 -17 -29 -17h-144q-17 0 -26 12 l-29 35l-28 -35q-9 -12 -27 -12h-143q-21 0 -30 17q-10 19 1 35l107 168q0 2 2 4z"/>
    <glyph glyph-name="Otilde" unicode="Õ" horiz-adv-x="1316" d="M284 1169q131 119 371 125h5q239 -6 370 -125q164 -149 164 -501v-31v-31q0 -352 -164 -501q-131 -119 -370 -125h-5q-240 6 -371 125q-163 148 -163 501v31v31q0 353 163 501zM878 1002q-69 63 -221 66q-151 -3 -220 -66q-53 -48 -71 -128.5t-18 -205.5v-27v-7v-28 q0 -125 18 -205t71 -128q69 -63 220 -66q152 3 221 66q53 48 71 128t18 205v28v7v27q0 125 -18 205.5t-71 128.5zM470 1385h-48q-16 0 -26 13q-11 15 -7 29q14 60 64 99t115 39q79 0 151 -62q18 -17 29 -24q13 -9 18 -9q38 0 47 45q3 11 12.5 19t21.5 8h45q16 0 26 -13 q11 -14 8 -27q-5 -24 -13.5 -46t-26 -46t-48.5 -38.5t-72 -14.5q-52 0 -106 47q-2 2 -9.5 9t-10.5 9.5t-10.5 8.5t-13 8.5t-13.5 5.5t-16.5 4.5t-18.5 1.5q-22 0 -40.5 -12t-25.5 -32q-8 -22 -32 -22z"/>
    <glyph glyph-name="Odieresis" unicode="Ö" horiz-adv-x="1314" d="M284 1169q131 119 371 125h5q239 -6 370 -125q164 -149 164 -501q0 -6 -0.5 -16t-0.5 -15t0.5 -15t0.5 -16q0 -352 -164 -501q-131 -119 -370 -125h-5q-240 6 -371 125q-163 148 -163 501v31v31q0 353 163 501zM878 1002q-69 63 -221 66q-151 -3 -220 -66 q-53 -48 -71 -128.5t-18 -205.5v-27v-7v-28q0 -125 18 -205t71 -128q69 -63 220 -66q152 3 221 66q53 48 71 128t18 205v28v7v27q0 125 -18 205.5t-71 128.5zM328 1569q10 10 24 10h159q14 0 24 -10t10 -24v-168q0 -15 -10 -25t-24 -10h-159q-14 0 -24 10t-10 25v168 q0 14 10 24zM779 1569q10 10 24 10h159q14 0 24 -10t10 -24v-168q0 -15 -10 -25t-24 -10h-159q-14 0 -24 10t-10 25v168q0 14 10 24z"/>
    <glyph glyph-name="multiply" unicode="×" horiz-adv-x="1042" d="M681 575q176 -177 242 -242q10 -10 10 -24t-10 -24q-15 -15 -56 -56.5t-56 -56.5q-10 -10 -24 -10t-24 10l-242 242l-242 -242q-10 -10 -24 -10t-24 10l-113 113q-10 10 -10 24t10 24l242 242l-242 242q-10 10 -10 24t10 24q15 15 56.5 56t56.5 56q10 10 24 10t24 -10 l242 -242l242 242q10 10 24 10t24 -10l112 -112q10 -10 10 -24t-10 -24z"/>
    <glyph glyph-name="Oslash" unicode="Ø" horiz-adv-x="1333" d="M168 54l76 104q-115 150 -115 448v31v31q0 352 164 501q131 119 370 125h5q207 -4 333 -95l45 62q9 14 28 14h61q20 0 30 -19q11 -19 -2 -35l-76 -104q115 -150 115 -448v-32v-31q0 -353 -163 -501q-131 -119 -371 -125h-5q-211 4 -339 100l-49 -66q-9 -14 -27 -14h-52 q-20 0 -30 19q-10 18 2 35zM975 668q0 173 -33 252l-484 -657q71 -53 208 -56q151 3 220 66q53 48 71 128t18 205v28v7v27zM389 357l479 659q-68 49 -202 52q-152 -3 -221 -66q-53 -48 -71 -128.5t-18 -205.5v-27v-7v-28q0 -167 33 -249z"/>
    <glyph glyph-name="Ugrave" unicode="Ù" horiz-adv-x="1323" d="M660 207q117 0 202 62t85 155v817q0 14 10 24t24 10h159q14 0 24 -10t10 -24v-817q0 -118 -67.5 -220t-186.5 -163t-260 -61q-106 0 -201.5 36t-163.5 96.5t-108 142t-40 169.5v817q0 14 10 24t24 10h159q14 0 24 -10t10 -24v-817q0 -93 84.5 -155t201.5 -62zM602 1355 l-143 176q-14 17 -4 36q10 20 30 20h175q19 0 29 -16q5 -8 47.5 -75.5t63.5 -100.5q11 -16 1 -35q-9 -17 -29 -17h-144q-17 0 -26 12z"/>
    <glyph glyph-name="Uacute" unicode="Ú" horiz-adv-x="1323" d="M661 207q117 0 201.5 62t84.5 155v817q0 14 10 24t24 10h159q14 0 24 -10t10 -24v-817q0 -88 -40 -169.5t-108 -142t-163.5 -96.5t-201.5 -36q-141 0 -260 61t-186.5 163t-67.5 220v817q0 14 10 24t25 10h158q14 0 24 -10t10 -24v-817q0 -93 85 -155t202 -62zM913 1531 l-143 -176q-9 -12 -27 -12h-143q-21 0 -30 17q-10 19 1 35q62 96 112 176q10 16 29 16h174q21 0 31 -20q10 -19 -4 -36z"/>
    <glyph glyph-name="Ucircumflex" unicode="Û" horiz-adv-x="1320" d="M660 207q117 0 202 62t85 155v817q0 14 10 24t24 10h158q14 0 24 -10t10 -24v-817q0 -88 -40 -169.5t-108 -142t-163.5 -96.5t-201.5 -36t-201.5 36t-163.5 96.5t-108 142t-40 169.5v817q0 14 10 24t24 10h159q14 0 24 -10t10 -24v-817q0 -93 84.5 -155t201.5 -62z M565 1567q10 20 31 20h175q21 0 31 -20q1 -1 1 -4l107 -168q11 -18 2 -35t-30 -17h-144q-17 0 -26 12l-29 35l-28 -35q-9 -12 -27 -12h-143q-21 0 -30 17q-10 19 1 35l107 168q0 2 2 4z"/>
    <glyph glyph-name="Udieresis" unicode="Ü" horiz-adv-x="1320" d="M660 207q117 0 202 62t85 155v817q0 14 10 24t24 10h158q14 0 24 -10t10 -24v-817q0 -88 -40 -169.5t-108 -142t-163.5 -96.5t-201.5 -36t-201.5 36t-163.5 96.5t-108 142t-40 169.5v817q0 14 10 24t24 10h159q14 0 24 -10t10 -24v-817q0 -93 84.5 -155t201.5 -62z M332 1569q10 10 24 10h158q14 0 24 -10t10 -24v-168q0 -15 -10 -25t-24 -10h-158q-14 0 -24 10t-10 25v168q0 14 10 24zM783 1569q10 10 24 10h158q14 0 24 -10t10 -24v-168q0 -15 -10 -25t-24 -10h-158q-14 0 -24 10t-10 25v168q0 14 10 24z"/>
    <glyph glyph-name="Yacute" unicode="Ý" horiz-adv-x="1054" d="M799 1275h176q19 0 29 -16t2 -33l-366 -773v-419q0 -14 -10 -24t-24 -10h-158q-14 0 -24 10t-10 24v419q-283 597 -366 773q-8 17 2 33t29 16h176q21 0 31 -20l241 -511q196 415 241 511q10 20 31 20zM797 1531q-25 -31 -77.5 -96t-64.5 -80q-9 -12 -27 -12h-143 q-21 0 -30 17q-10 19 1 35q62 96 112 176q10 16 28 16h175q21 0 31 -20q9 -18 -5 -36z"/>
    <glyph glyph-name="germandbls" unicode="ß" horiz-adv-x="1073" d="M898 593q77 -110 77 -267q0 -159 -94 -255.5t-212 -90.5q-49 3 -110 35q-49 27 -93 61q-10 9 -12 24t8 26q17 19 56.5 64.5t47.5 54.5q9 10 22.5 11.5t24.5 -6.5q19 -14 38 -26q19 -11 33 -17q16 1 34 21q30 34 30 98q0 84 -36 136q-62 87 -199 87v201q0 20 18 30 q14 8 29 34q36 60 36 148q0 44 -32.5 75t-77.5 31t-77.5 -31t-32.5 -75v-928q0 -14 -10 -24t-24 -10h-158q-14 0 -24 10t-10 24v928q0 137 98.5 234.5t237.5 97.5t238 -97.5t99 -234.5q0 -138 -60 -250q83 -45 135 -119z"/>
    <glyph glyph-name="agrave" unicode="à" d="M894 54q0 -2 0.5 -7t1.5 -7q3 -14 -8 -28q-9 -12 -26 -12h-158q-13 0 -22 8t-11 20q0 4 -1.5 12.5t-2.5 13.5q-9 56 -9 95v3q-18 -54 -62.5 -95t-91.5 -59t-89 -18q-131 0 -216 73q-99 85 -99 234q0 60 16 104.5t48.5 76t69.5 52t92 40.5q114 43 332 45v83q0 53 -95 53 q-61 0 -112 -19.5t-77 -55.5q-15 -22 -41 -11q-17 7 -43.5 18.5t-59 26t-45.5 20.5t-18 20q-5 16 2 28q54 90 159.5 145t234.5 55q145 0 232 -77q90 -78 90 -203v-539q0 -37 9 -95zM659 324v89q-120 0 -200 -17q-62 -13 -97 -36t-35 -73q0 -45 20 -62q20 -18 68 -18 q64 0 132 32t112 85zM478 1077q-6 8 -35.5 44t-58 71t-49.5 61q-14 17 -4 36q10 20 30 20h175q18 0 28 -16q8 -13 50 -78.5t62 -97.5q11 -16 1 -35q-9 -17 -30 -17h-143q-17 0 -26 12z"/>
    <glyph glyph-name="aacute" unicode="á" d="M515 1065q-21 0 -30 17q-10 18 1 35q20 32 62 97.5t50 78.5q10 16 29 16h174q21 0 31 -20q9 -18 -5 -36q-25 -31 -77.5 -96t-64.5 -80q-9 -12 -27 -12h-143zM893 54q2 -10 3 -14q3 -14 -8 -28q-9 -12 -26 -12h-158q-13 0 -22 8t-11 20q0 4 -1.5 12.5t-2.5 13.5 q-9 56 -9 95v3q-18 -54 -62.5 -95t-91.5 -59t-89 -18q-131 0 -216 73q-99 85 -99 234q0 59 16 104t48.5 76t69.5 52t92 41q114 43 332 45v83q0 53 -95 53q-62 0 -113 -19.5t-77 -55.5q-15 -22 -40 -11q-17 7 -43.5 18.5t-59 26t-45.5 20.5q-14 6 -19 20q-5 15 3 28 q54 90 159.5 145t234.5 55q145 0 232 -77q90 -78 90 -203v-539q0 -44 8 -95zM658 324v89q-119 0 -199 -17q-62 -13 -97 -36t-35 -73q0 -45 20 -62q20 -18 68 -18q64 0 131.5 32t111.5 85z"/>
    <glyph glyph-name="acircumflex" unicode="â" d="M351 1065q-21 0 -30 17q-10 18 1 35l107 169q0 1 2 3q10 20 30 20h176q21 0 31 -20q1 -1 1 -3l107 -169q11 -16 1 -35q-9 -17 -30 -17h-143q-17 0 -26 12l-29 36l-28 -36q-9 -12 -27 -12h-143zM893 54q2 -10 3 -14q3 -14 -8 -28q-9 -12 -26 -12h-158q-13 0 -22 8t-11 20 q-2 18 -4 26q-8 50 -8 95v3q-27 -79 -102 -125.5t-142 -46.5q-131 0 -216 73q-99 85 -99 234q0 60 16 104.5t48.5 76t69.5 52t92 40.5q114 43 333 45v83q0 53 -96 53q-61 0 -112 -19.5t-77 -55.5q-15 -22 -41 -11q-17 7 -43.5 18.5t-59 26t-45.5 20.5t-18 20q-5 16 2 28 q54 90 159.5 145t234.5 55q145 0 232 -77q90 -78 90 -203v-539q0 -44 8 -95zM658 324v89q-119 0 -199 -17q-62 -13 -97 -36t-35 -73q0 -45 20 -62q20 -18 68 -18q64 0 131.5 32t111.5 85z"/>
    <glyph glyph-name="atilde" unicode="ã" d="M893 54q2 -10 3 -14q3 -14 -8 -28q-9 -12 -26 -12h-158q-13 0 -22 8t-11 20q0 4 -1.5 12.5t-2.5 13.5q-9 56 -9 95v3q-26 -79 -101 -125.5t-142 -46.5q-131 0 -216 73q-99 85 -99 234q0 60 16 104.5t48.5 76t69.5 52t92 40.5q114 43 333 45v83q0 53 -96 53 q-61 0 -112 -19.5t-77 -55.5q-15 -22 -41 -11q-17 7 -43.5 18.5t-59 26t-45.5 20.5t-18 20q-5 16 2 28q54 90 159.5 145t234.5 55q145 0 232 -77q90 -78 90 -203v-539q0 -44 8 -95zM658 324v89q-119 0 -199 -17q-62 -13 -97 -36t-35 -73q0 -45 20 -62q20 -18 68 -18 q64 0 131.5 32t111.5 85zM337 1103q-16 0 -26 13q-9 12 -6 28q14 60 64 99t115 39q80 0 151 -61q26 -24 28 -25q13 -9 19 -9q38 0 47 46q7 26 33 26h46q17 0 26 -12q10 -13 7 -28q-27 -145 -159 -145q-52 0 -106 47q-2 2 -9.5 9t-10.5 9.5t-10.5 8.5t-13 8.5t-14 6t-17 5 t-18.5 1.5q-22 0 -40 -12.5t-25 -32.5q-8 -22 -32 -22q-33 0 -49 1z"/>
    <glyph glyph-name="adieresis" unicode="ä" d="M252 1059q-14 0 -24 10t-10 24v168q0 14 10 24t24 10h159q14 0 24 -10t10 -24v-168q0 -14 -10 -24t-24 -10h-159zM885 149q0 -45 8 -95q1 -2 2 -6.5t1 -7.5q3 -14 -8 -28q-9 -12 -26 -12h-158q-13 0 -22 8t-11 20q0 4 -1.5 12.5t-2.5 13.5q-8 50 -8 95v3 q-26 -79 -101.5 -125.5t-142.5 -46.5q-131 0 -216 73q-99 85 -99 234q0 60 16 104.5t48.5 76t69.5 52t92 40.5q114 43 333 45v83q0 53 -96 53q-61 0 -112 -19.5t-77 -55.5q-15 -22 -41 -11q-17 7 -43.5 18.5t-59 26t-45.5 20.5t-18 20q-5 16 2 28q54 90 159.5 145t234.5 55 q145 0 232 -77q90 -78 90 -203v-539zM659 324v89q-120 0 -200 -17q-62 -13 -97 -36t-35 -73q0 -45 20 -62q20 -18 68 -18q64 0 132 32t112 85zM886 1285q10 -10 10 -24v-168q0 -14 -10 -24t-24 -10h-159q-14 0 -24 10t-10 24v168q0 14 10 24t24 10h159q14 0 24 -10z"/>
    <glyph glyph-name="aring" unicode="å" d="M893 54q2 -10 3 -14q3 -14 -8 -28q-9 -12 -26 -12h-158q-13 0 -22 8t-11 20q0 4 -1.5 12.5t-2.5 13.5q-9 56 -9 95v3q-18 -54 -62.5 -95t-91.5 -59t-89 -18q-131 0 -216 73q-99 85 -99 234q0 60 16 104.5t48.5 76t69.5 52t92 40.5q114 43 332 45v83q0 53 -95 53 q-61 0 -112 -19.5t-77 -55.5q-15 -22 -41 -11q-17 7 -43.5 18.5t-59 26t-45.5 20.5t-18 20q-5 16 2 28q54 90 159.5 145t234.5 55q145 0 232 -77q90 -78 90 -203v-539q0 -44 8 -95zM659 324v89q-120 0 -200 -17q-62 -13 -97 -36t-35 -73q0 -45 20 -62q20 -18 68 -18 q64 0 132 32t112 85zM545 1055q-71 0 -121 50t-50 120q0 71 50 121t121 50q70 0 120 -50t50 -121t-49.5 -120.5t-120.5 -49.5zM545 1282q-23 0 -40 -17t-17 -40t17 -39.5t40 -16.5t39.5 16.5t16.5 39.5t-16.5 40t-39.5 17z"/>
    <glyph glyph-name="ae" unicode="æ" horiz-adv-x="1579" d="M1465 515l1 -41v-80q0 -14 -10 -24t-24 -10h-540q13 -72 55 -107q55 -46 180 -46q80 0 145 40q10 8 23.5 6.5t21.5 -11.5q20 -22 106 -120q10 -11 8 -26q-2 -16 -13 -24q-60 -43 -138.5 -67.5t-152.5 -24.5q-79 0 -147.5 17.5t-110.5 43t-72.5 51t-42.5 42.5l-13 18 q-3 -7 -10 -18.5t-33.5 -41t-60.5 -52.5t-93.5 -41.5t-128.5 -18.5q-131 0 -216 73q-99 85 -99 234q0 60 16 104.5t48.5 76t69.5 52t92 40.5q111 42 332 44v84q0 53 -95 53q-61 0 -112 -19.5t-77 -55.5q-15 -22 -41 -11q-17 7 -43.5 18.5t-59 26t-45.5 20.5t-18 20 q-5 16 2 28q54 90 159.5 145t234.5 55q145 0 232 -77q1 -1 3 -2.5t3 -2.5q98 82 261 82q186 0 290 -109q105 -110 113 -344zM658 324v89q-119 0 -199 -17q-62 -13 -97 -36t-35 -73q0 -45 20 -62q20 -18 68 -18q64 0 131.5 32t111.5 85zM886 515h353q-4 137 -52 188 q-37 38 -125 38q-90 0 -125 -38q-47 -50 -51 -188z"/>
    <glyph glyph-name="ccedilla" unicode="ç" horiz-adv-x="1042" d="M579 -20h-5l-5 -25q52 -11 82 -51q28 -38 28 -92q0 -50 -41 -93.5t-96 -43.5q-45 0 -93 27q-14 8 -16 24t9 27q6 7 19 20t16 17q15 17 37 8q16 -9 28 -9q9 0 16 7.5t7 15.5q0 16 -5 24q-6 8 -25 10q-14 2 -38 0q-21 -3 -32 14q-14 20 -16 23q-8 11 -5 25l16 81 q-125 21 -208 92q-141 121 -141 393v4q2 270 141 389q118 101 327 101q72 0 151 -32.5t123.5 -64t83.5 -66.5q11 -9 11 -25t-11 -25q-65 -61 -116 -107q-10 -9 -23 -8.5t-23 9.5q-100 92 -196 92q-125 0 -180 -46q-39 -33 -50.5 -86t-11.5 -135v-4q0 -80 12 -132t50 -85 q55 -46 180 -46q101 0 193 92q21 21 46 2q26 -22 122 -101q12 -10 12 -24q0 -16 -10 -26q-26 -26 -57.5 -50.5t-79 -54t-107 -47.5t-119.5 -18z"/>
    <glyph glyph-name="egrave" unicode="è" horiz-adv-x="1034" d="M919 515l1 -41v-80q0 -14 -10 -24t-24 -10h-539q14 -73 54 -107q55 -46 180 -46q82 0 145 40q10 8 23.5 6.5t21.5 -11.5q20 -22 106 -120q10 -11 8 -26q-2 -14 -13 -24q-60 -43 -138.5 -67.5t-152.5 -24.5q-209 0 -327 101q-141 121 -141 393v2q0 264 114 383 q104 109 289 109q186 0 290 -109q105 -110 113 -344zM340 515h353q-4 138 -51 188q-37 38 -126 38q-90 0 -125 -38q-47 -50 -51 -188zM415 1077l-143 176q-14 17 -4 36q10 20 31 20h174q19 0 29 -16q5 -8 48 -75.5t63 -100.5q11 -16 1 -35q-9 -17 -29 -17h-144q-17 0 -26 12 z"/>
    <glyph glyph-name="eacute" unicode="é" horiz-adv-x="1034" d="M445 1065q-21 0 -30 17q-10 18 1 35q20 32 62 97.5t50 78.5q10 16 29 16h174q21 0 31 -20q9 -18 -5 -36q-25 -31 -77.5 -96t-64.5 -80q-9 -12 -27 -12h-143zM919 515l1 -41v-80q0 -14 -10 -24t-24 -10h-539q14 -73 54 -107q55 -46 180 -46q80 0 145 40q10 8 23.5 6.5 t21.5 -11.5q20 -22 106 -120q10 -11 8 -26q-2 -14 -13 -24q-60 -43 -138.5 -67.5t-152.5 -24.5q-209 0 -327 101q-141 121 -141 393v2q0 264 114 383q104 109 289 109q186 0 290 -109q105 -110 113 -344zM340 515h353q-4 138 -51 188q-37 38 -126 38q-90 0 -125 -38 q-47 -50 -51 -188z"/>
    <glyph glyph-name="ecircumflex" unicode="ê" horiz-adv-x="1034" d="M318 1065q-21 0 -30 17q-10 18 1 35l107 169q0 1 2 3q10 20 31 20h175q21 0 31 -20q1 -1 1 -3l107 -169q11 -16 1 -35q-9 -17 -29 -17h-144q-17 0 -26 12l-29 36l-28 -36q-9 -12 -27 -12h-143zM919 515l1 -41v-80q0 -14 -10 -24t-24 -10h-540q13 -72 55 -107 q55 -46 180 -46q80 0 145 40q10 8 23.5 6.5t21.5 -11.5q20 -22 106 -120q10 -11 8 -26q-2 -14 -13 -24q-60 -43 -138.5 -67.5t-152.5 -24.5q-210 0 -328 101q-140 120 -140 393v2q0 264 114 383q104 109 289 109q186 0 290 -109q105 -110 113 -344zM340 515h353 q-4 138 -51 188q-37 38 -126 38q-90 0 -125 -38q-49 -52 -51 -188z"/>
    <glyph glyph-name="edieresis" unicode="ë" horiz-adv-x="1034" d="M669 1059q-14 0 -24 10t-10 24v168q0 14 10 24t24 10h158q14 0 24 -10t10 -24v-168q0 -14 -10 -24t-24 -10h-158zM218 1059q-14 0 -24 10t-10 24v168q0 14 10 24t24 10h158q14 0 24 -10t10 -24v-168q0 -14 -10 -24t-24 -10h-158zM919 515l1 -41v-80q0 -14 -10 -24 t-24 -10h-539q14 -73 54 -107q55 -46 180 -46q82 0 145 40q10 8 23.5 6.5t21.5 -11.5q20 -22 106 -120q10 -11 8 -26q-2 -14 -13 -24q-60 -43 -138.5 -67.5t-152.5 -24.5q-209 0 -327 101q-141 121 -141 393v2q0 264 114 383q104 109 289 109q186 0 290 -109 q105 -110 113 -344zM340 515h353q-4 138 -51 188q-37 38 -126 38q-90 0 -125 -38q-47 -50 -51 -188z"/>
    <glyph glyph-name="igrave" unicode="ì" horiz-adv-x="522" d="M306 1065h-144q-17 0 -26 12q-6 8 -35.5 44t-58 71t-49.5 61q-14 17 -4 36q10 20 31 20h174q19 0 29 -16q50 -80 112 -176q11 -16 1 -35q-9 -17 -30 -17zM340 948q14 0 24 -10t10 -24v-880q0 -14 -10 -24t-24 -10h-159q-14 0 -24 10t-10 24v880q0 14 10 24t24 10h159z "/>
    <glyph glyph-name="iacute" unicode="í" horiz-adv-x="522" d="M340 948q14 0 24 -10t10 -24v-880q0 -14 -10 -24t-24 -10h-159q-14 0 -24 10t-10 24v880q0 14 10 24t24 10h159zM521 1289q10 -19 -4 -36l-143 -176q-9 -12 -26 -12h-144q-21 0 -30 17q-10 18 1 35q62 96 112 176q10 16 29 16h174q21 0 31 -20z"/>
    <glyph glyph-name="icircumflex" unicode="î" horiz-adv-x="522" d="M340 948q14 0 24 -10t10 -24v-880q0 -14 -10 -24t-24 -10h-158q-14 0 -24 10t-10 24v880q0 14 10 24t24 10h158zM488 1117q11 -16 1 -35q-9 -17 -29 -17h-144q-17 0 -26 12l-29 36l-28 -36q-9 -12 -27 -12h-143q-21 0 -30 17q-10 18 1 35l107 169q0 1 2 3q10 20 30 20 h176q21 0 31 -20q1 -1 1 -3z"/>
    <glyph glyph-name="idieresis" unicode="ï" horiz-adv-x="522" d="M149 1261v-168q0 -14 -10 -24t-24 -10h-159q-14 0 -24 10t-10 24v168q0 14 10 24t24 10h159q14 0 24 -10t10 -24zM590 1285q10 -10 10 -24v-168q0 -14 -10 -24t-24 -10h-159q-14 0 -24 10t-10 24v168q0 14 10 24t24 10h159q14 0 24 -10zM341 948q14 0 24 -10t10 -24v-880 q0 -14 -10 -24t-24 -10h-159q-14 0 -24 10t-10 24v880q0 14 10 24t24 10h159z"/>
    <glyph glyph-name="ntilde" unicode="ñ" horiz-adv-x="1114" d="M327 1103q-17 0 -27 13q-9 12 -6 28q14 60 64 99t115 39q80 0 151 -61q20 -18 29 -25q13 -9 18 -9q38 0 47 46q7 26 34 26h45q17 0 26 -12q11 -14 8 -28q-4 -24 -13 -46t-26.5 -46t-48.5 -38.5t-72 -14.5q-52 0 -106 47q-2 2 -10.5 10t-12.5 11.5t-13 9.5t-16 9 t-17.5 5.5t-22.5 2.5q-22 0 -40.5 -12.5t-25.5 -32.5q-8 -22 -32 -22q-32 0 -48 1zM688 968q151 -4 219 -125.5t68 -347.5v-461q0 -14 -10 -24t-24 -10h-159q-14 0 -24 10t-10 24v461q0 107 -41.5 176t-114.5 70q-39 1 -73 -11t-56.5 -29.5t-42 -41.5t-28.5 -40.5t-16 -32.5 v-552q0 -14 -10 -24t-24 -10h-159q-14 0 -23.5 10t-9.5 24v880q0 14 9.5 24t23.5 10h159q14 0 24 -10t10 -24v-72q132 130 312 126z"/>
    <glyph glyph-name="ograve" unicode="ò" horiz-adv-x="1032" d="M401 1077l-143 176q-14 17 -4 36q10 20 30 20h175q19 0 29 -16q5 -8 48 -75.5t63 -100.5q12 -17 2 -35q-9 -17 -30 -17h-144q-15 0 -26 12zM915 496v-22v-22q0 -260 -121 -374q-100 -94 -276 -98h-5q-174 4 -275 98q-121 114 -121 374v22v22q0 260 121 374q101 94 275 98 h5q176 -4 276 -98q121 -114 121 -374zM688 452v19v7v18q0 82 -9.5 130.5t-40.5 78.5q-37 34 -122 36q-86 -2 -123 -36q-31 -30 -40 -78t-9 -131v-18v-7v-19q0 -83 9 -131t40 -78q37 -34 123 -36q85 2 122 36q31 30 40.5 78.5t9.5 130.5z"/>
    <glyph glyph-name="oacute" unicode="ó" horiz-adv-x="1032" d="M468 1065q-21 0 -30 17q-10 18 1 35q62 96 112 176q10 16 28 16h175q20 0 30 -20q10 -19 -4 -36l-143 -176q-9 -12 -26 -12h-143zM915 496v-22v-22q0 -260 -121 -374q-100 -94 -276 -98h-5q-174 4 -275 98q-121 114 -121 374v22v22q0 260 121 374q101 94 275 98h5 q176 -4 276 -98q121 -114 121 -374zM688 452v19v7v18q0 82 -9.5 130.5t-40.5 78.5q-37 34 -122 36q-86 -2 -123 -36q-31 -30 -40 -78t-9 -131v-18v-7v-19q0 -83 9 -131t40 -78q37 -34 123 -36q85 2 122 36q31 30 40.5 78.5t9.5 130.5z"/>
    <glyph glyph-name="ocircumflex" unicode="ô" horiz-adv-x="1032" d="M318 1065q-21 0 -30 17q-10 18 1 35l107 169q0 2 1 3q10 20 31 20h176q20 0 30 -20q2 -2 2 -3l107 -169q11 -16 1 -35q-9 -17 -30 -17h-143q-18 0 -27 12l-28 36l-29 -36q-9 -12 -26 -12h-143zM915 496v-22v-22q0 -260 -121 -374q-100 -94 -276 -98h-5q-174 4 -275 98 q-121 114 -121 374v22v22q0 260 121 374q101 94 275 98h5q176 -4 276 -98q121 -114 121 -374zM688 452v19v7v18q0 82 -9.5 130.5t-40.5 78.5q-37 34 -122 36q-86 -2 -123 -36q-31 -30 -40 -78t-9 -131v-18v-7v-19q0 -83 9 -131t40 -78q37 -34 123 -36q85 2 122 36 q31 30 40.5 78.5t9.5 130.5z"/>
    <glyph glyph-name="otilde" unicode="õ" horiz-adv-x="1032" d="M915 496v-22v-22q0 -260 -121 -374q-100 -94 -276 -98h-5q-174 4 -275 98q-121 114 -121 374v22v22q0 260 121 374q101 94 275 98h5q176 -4 276 -98q121 -114 121 -374zM688 452v19v7v18q0 82 -9.5 130.5t-40.5 78.5q-37 34 -122 36q-86 -2 -123 -36q-31 -30 -40 -78 t-9 -131v-18v-7v-19q0 -83 9 -131t40 -78q37 -34 123 -36q85 2 122 36q31 30 40.5 78.5t9.5 130.5zM280 1103q-16 0 -26 13q-9 12 -6 28q14 60 64 99t115 39q80 0 151 -61q26 -24 28 -25q14 -9 19 -9q38 0 47 46q7 26 33 26h46q17 0 26 -12q10 -13 7 -28q-27 -145 -159 -145 q-52 0 -106 47q-2 2 -10.5 10t-12.5 11.5t-13 9.5t-16 9t-17.5 5.5t-22.5 2.5q-22 0 -40.5 -12.5t-25.5 -32.5q-8 -22 -32 -22q-33 0 -49 1z"/>
    <glyph glyph-name="odieresis" unicode="ö" horiz-adv-x="1032" d="M662 1059q-14 0 -24 10t-10 24v168q0 14 10 24t24 10h159q14 0 24 -10t10 -24v-168q0 -14 -10 -24t-24 -10h-159zM915 496v-22v-22q0 -260 -121 -374q-100 -94 -276 -98h-5q-174 4 -275 98q-121 114 -121 374v22v22q0 260 121 374q101 94 275 98h5q176 -4 276 -98 q121 -114 121 -374zM688 452v19v7v18q0 82 -9.5 130.5t-40.5 78.5q-37 34 -122 36q-86 -2 -123 -36q-31 -30 -40.5 -78.5t-9.5 -130.5q0 -3 0.5 -9t0.5 -9v-7q0 -3 -0.5 -9.5t-0.5 -9.5q0 -82 9.5 -130.5t40.5 -78.5q37 -34 123 -36q85 2 122 36q31 30 40.5 78.5t9.5 130.5z M211 1059q-14 0 -24 10t-10 24v168q0 14 10 24t24 10h159q14 0 24 -10t10 -24v-168q0 -14 -10 -24t-24 -10h-159z"/>
    <glyph glyph-name="oslash" unicode="ø" horiz-adv-x="1036" d="M917 496v-22v-22q0 -260 -121 -374q-100 -94 -276 -98h-5q-111 3 -190 40l-63 -107q-9 -17 -29 -17h-55q-21 0 -30 17q-9 16 1 34l81 140q-111 115 -111 365v22v22q0 260 121 374q101 94 275 98h5q116 -3 198 -44l56 95q9 17 29 17h55q20 0 29 -17t0 -34l-76 -130 q106 -116 106 -359zM345 452q0 -102 13 -145l245 420q-32 12 -85 14q-86 -2 -123 -36q-31 -30 -40.5 -78.5t-9.5 -130.5q0 -3 0.5 -9t0.5 -9v-7q0 -3 -0.5 -9.5t-0.5 -9.5zM690 452v19v7v18q0 92 -10 134l-240 -412q29 -9 78 -11q85 2 122 36q31 30 40.5 78.5t9.5 130.5z "/>
    <glyph glyph-name="ugrave" unicode="ù" horiz-adv-x="1112" d="M437 1077q-6 8 -35.5 44t-58 71t-49.5 61q-14 17 -4 36q10 20 31 20h174q19 0 29 -16q50 -80 112 -176q11 -16 1 -35q-9 -17 -30 -17h-143q-18 0 -27 12zM927 948q14 0 24 -10t10 -24v-880q0 -14 -10 -24t-24 -10h-159q-14 0 -24 10t-10 24v72q-132 -130 -311 -126 q-288 7 -288 473v461q0 14 10 24t24 10h159q14 0 24 -10t10 -24v-461q0 -107 42 -176t115 -70q48 -1 87.5 16t65 45.5t39.5 50t23 43.5v552q0 14 10 24t24 10h159z"/>
    <glyph glyph-name="uacute" unicode="ú" horiz-adv-x="1112" d="M499 1065q-21 0 -30 17t2 35q21 33 63.5 100.5t47.5 75.5q10 16 29 16h175q20 0 30 -20q10 -19 -4 -36l-143 -176q-9 -12 -26 -12h-144zM927 948q14 0 24 -10t10 -24v-880q0 -14 -10 -24t-24 -10h-159q-14 0 -24 10t-10 24v72q-132 -130 -311 -126q-288 7 -288 473v461 q0 14 10 24t24 10h159q14 0 24 -10t10 -24v-461q0 -107 42 -176t115 -70q48 -1 87.5 16t65 45.5t39.5 50t23 43.5v552q0 14 10 24t24 10h159z"/>
    <glyph glyph-name="ucircumflex" unicode="û" horiz-adv-x="1112" d="M325 1065q-21 0 -30 17q-10 18 1 35l107 169q0 1 2 3q10 20 30 20h176q21 0 31 -20q1 -1 1 -3l107 -169q11 -16 1 -35q-9 -17 -30 -17h-143q-18 0 -27 12l-28 36l-29 -36q-9 -12 -26 -12h-143zM927 948q14 0 24 -10t10 -24v-880q0 -14 -10 -24t-24 -10h-159q-14 0 -24 10 t-10 24v72q-132 -130 -311 -126q-288 7 -288 473v461q0 14 10 24t24 10h159q14 0 24 -10t10 -24v-461q0 -107 42 -176t115 -70q48 -1 87.5 16t65 45.5t39.5 50t23 43.5v552q0 14 10 24t24 10h159z"/>
    <glyph glyph-name="udieresis" unicode="ü" horiz-adv-x="1112" d="M704 1059q-14 0 -24 10t-10 24v168q0 14 10 24t24 10h158q14 0 24 -10t10 -24v-168q0 -14 -10 -24t-24 -10h-158zM252 1059q-14 0 -24 10t-10 24v168q0 14 10 24t24 10h159q14 0 24 -10t10 -24v-168q0 -14 -10 -24t-24 -10h-159zM927 948q14 0 24 -10t10 -24v-880 q0 -14 -10 -24t-24 -10h-159q-14 0 -24 10t-10 24v72q-132 -130 -311 -126q-288 7 -288 473v461q0 14 10 24t24 10h159q14 0 24 -10t10 -24v-461q0 -107 42 -176t115 -70q48 -1 87.5 16t65 45.5t39.5 50t23 43.5v552q0 14 10 24t24 10h159z"/>
    <glyph glyph-name="yacute" unicode="ý" horiz-adv-x="985" d="M430 1065q-21 0 -30 17q-10 18 1 35q20 32 62 97.5t50 78.5q10 16 28 16h175q20 0 30 -20q10 -19 -4 -36l-143 -176q-9 -12 -26 -12h-143zM915 934q10 -15 4 -32q-367 -1030 -407 -1100q-57 -99 -144 -110q-65 -7 -183 24q-15 5 -21 17q-6 13 -2 26q19 56 50 151 q5 13 17 19.5t25 2.5l3 -1q23 -7 44.5 4t29.5 34q4 12 19 54t22 64q-241 636 -308 815q-7 17 3 31q10 15 28 15h170q24 0 32 -22l194 -512q155 411 193 512q8 22 32 22h171q19 0 28 -14z"/>
    <glyph glyph-name="ydieresis" unicode="ÿ" horiz-adv-x="985" d="M668 1059q-15 0 -25 10q-9 9 -9 24v168q0 15 9 24q10 10 25 10h158q14 0 24 -10t10 -24v-168q0 -14 -10 -24t-24 -10h-158zM217 1059q-15 0 -25 10q-9 9 -9 24v168q0 15 9 24q10 10 25 10h158q14 0 24 -10t10 -24v-168q0 -14 -10 -24t-24 -10h-158zM915 934q10 -15 4 -32 q-365 -1025 -407 -1100q-57 -99 -144 -110q-65 -7 -183 24q-15 5 -21 17q-6 13 -2 26q19 56 50 151q5 13 17 19.5t25 2.5l3 -1q23 -7 44.5 4t29.5 34q4 12 19 54t22 64q-240 636 -308 815q-6 16 4 31t27 15h170q24 0 32 -22l194 -512q155 411 193 512q8 22 32 22h171 q19 0 28 -14z"/>
    <glyph glyph-name="dotlessi" unicode="ı" horiz-adv-x="522" d="M181 948h159q14 0 24 -10t10 -24v-880q0 -14 -10 -24t-24 -10h-159q-14 0 -24 10t-10 24v880q0 14 10 24t24 10z"/>
    <glyph glyph-name="Lslash" unicode="Ł" horiz-adv-x="1007" d="M915 227q14 0 24 -10t10 -24v-159q0 -14 -10 -24t-24 -10h-651q-14 0 -24 10t-10 24v383l-66 -66q-10 -10 -24 -10q-15 0 -24 9l-32 32q-10 10 -10 24.5t10 24.5l146 146v664q0 14 10 24t24 10h159q14 0 24 -10t10 -24v-436q171 172 235 237q10 10 24 10t24 -10l32 -32 q10 -10 10 -24t-10 -24l-315 -318v-417h458z"/>
    <glyph glyph-name="OE" unicode="Œ" horiz-adv-x="1681" d="M1551 0h-714l-22 -2q-77 -17 -155 -18h-5q-240 6 -371 125q-163 148 -163 501v31v32q0 352 163 500q132 120 371 126h5q78 -1 155 -18q14 -2 22 -2h667q14 0 24 -10t10 -24v-159q0 -14 -10 -24t-24 -10h-474v-285h380q14 0 24 -10t10 -24v-159q0 -14 -10 -24t-24 -10 h-380v-309h521q14 0 24 -10t10 -24v-159q0 -14 -10 -24t-24 -10zM803 230v815q-62 22 -146 23q-151 -3 -220 -66q-53 -48 -71 -128.5t-18 -205.5v-27v-7v-28q0 -125 18 -205t71 -128q69 -63 220 -66q84 1 146 23z"/>
    <glyph glyph-name="oe" unicode="œ" horiz-adv-x="1609" d="M1495 515l1 -41v-80q0 -14 -10 -24t-24 -10h-540q11 -70 55 -107q55 -46 180 -46q80 0 145 40q10 8 23 6.5t21 -11.5q57 -63 107 -120q10 -11 8 -26q-2 -14 -13 -24q-60 -43 -138.5 -67.5t-152.5 -24.5q-210 0 -328 101q-6 5 -17 16q-3 -3 -9 -9.5t-9 -9.5 q-100 -94 -276 -98h-5q-174 4 -275 98q-121 114 -121 374v22v22q0 260 121 374q101 94 275 98h5q176 -4 276 -98l10 -10q105 108 288 108q185 0 289 -109q106 -111 114 -344zM688 452v19v7v18q0 82 -9.5 130.5t-40.5 78.5q-37 34 -122 36q-86 -2 -123 -36 q-31 -30 -40.5 -78.5t-9.5 -130.5q0 -3 0.5 -9t0.5 -9v-7q0 -3 -0.5 -9.5t-0.5 -9.5q0 -82 9.5 -130.5t40.5 -78.5q37 -34 123 -36q85 2 122 36q31 30 40.5 78.5t9.5 130.5zM915 515h353q-2 138 -51 188q-37 38 -125 38q-91 0 -126 -38q-49 -52 -51 -188z"/>
    <glyph glyph-name="Scaron" unicode="Š" horiz-adv-x="1101" d="M118 186q13 14 53 56.5l56 59.5q9 10 22.5 10.5t23.5 -7.5q60 -46 140 -72t138 -26q88 0 152 44.5t64 113.5q0 20 -12 32.5t-36 26.5q-16 10 -34 18.5t-42.5 18.5t-38.5 15t-47 16.5t-43 14.5q-178 63 -256 120q-149 108 -149 282q0 157 129 271t314 114q92 0 215.5 -40 t213.5 -112q12 -10 12 -24q2 -14 -9 -26q-99 -105 -111 -118q-21 -21 -44 -4q-144 98 -277 98q-88 0 -152 -45t-64 -114q0 -68 85 -118q35 -20 77.5 -37t105 -38.5t84.5 -29.5q306 -114 306 -321q0 -156 -129 -270.5t-314 -114.5q-91 0 -215.5 41.5t-214.5 114.5 q-10 9 -12 24q0 16 9 26zM463 1343q-21 0 -31 19q-1 1 -1 4l-107 168q-11 16 -1 35q10 18 30 18h143q17 0 27 -13l28 -35l29 35q10 13 26 13h143q20 0 30 -18t-1 -35l-107 -168q0 -3 -1 -4q-10 -19 -31 -19h-176z"/>
    <glyph glyph-name="scaron" unicode="š" horiz-adv-x="935" d="M347 1088l-107 169q-11 16 -1 34t30 18h143q17 0 27 -13l28 -35l29 35q10 13 26 13h143q20 0 30 -18t-1 -34l-107 -169q0 -3 -1 -4q-10 -19 -31 -19h-176q-21 0 -30 19q-2 2 -2 4zM578 540q244 -86 244 -257q0 -122 -102.5 -212.5t-250.5 -90.5q-66 0 -173 34t-179 86 q-10 9 -12 24q-2 14 8 25q17 20 107 119q9 10 22 11.5t24 -6.5q44 -29 104.5 -47.5t98.5 -18.5q60 0 99 31q26 22 27 43q-1 1 -3.5 3t-3.5 3q-14 9 -31 17q-31 14 -124 46q-132 45 -194 88q-123 86 -123 226q0 122 103 213t251 91q66 0 170.5 -34t176.5 -86q11 -10 13 -24 q1 -13 -9 -25q-16 -18 -56 -62.5t-52 -58.5q-19 -21 -44 -5q-112 70 -199 68q-62 -2 -99 -31q-28 -22 -28 -46q0 -13 7.5 -23t14.5 -15t23 -14q25 -14 54 -25.5t77 -27t59 -19.5z"/>
    <glyph glyph-name="Ydieresis" unicode="Ÿ" horiz-adv-x="1054" d="M799 1275h176q18 0 28 -16q10 -17 3 -33l-366 -773v-419q0 -14 -10 -24t-24 -10h-158q-15 0 -25 10q-9 9 -9 24v419q-283 597 -366 773q-8 17 2 33t29 16h176q20 0 30 -20l242 -511q196 415 241 511q10 20 31 20zM198 1569q10 10 24 10h159q14 0 24 -10t10 -24v-168 q0 -15 -10 -25t-24 -10h-159q-14 0 -24 10t-10 25v168q0 14 10 24zM649 1569q10 10 24 10h159q14 0 24 -10t10 -24v-168q0 -15 -10 -25t-24 -10h-159q-14 0 -24 10t-10 25v168q0 14 10 24z"/>
    <glyph glyph-name="Zcaron" unicode="Ž" horiz-adv-x="1191" d="M130 1048q-14 0 -24 10t-10 24v159q0 14 10 24t24 10h931q14 0 24 -10t10 -24v-180q0 -15 -8 -23l-714 -811h688q14 0 24 -10t10 -24v-159q0 -14 -10 -24t-24 -10h-931q-14 0 -24 10t-10 24v180q0 13 9 22l713 812h-688zM508 1343q-22 0 -31 19q-1 1 -1 4l-107 168 q-11 16 -1 35q10 18 29 18h144q16 0 26 -13l29 -35l28 35q10 13 27 13h143q20 0 30 -18t-1 -35l-107 -168q0 -2 -2 -4q-10 -19 -31 -19h-175z"/>
    <glyph glyph-name="zcaron" unicode="ž" horiz-adv-x="980" d="M375 1088l-107 169q-11 16 -1 34t30 18h143q17 0 27 -13l28 -35l29 35q10 13 26 13h144q20 0 30 -18t-2 -34l-106 -169q0 -2 -2 -4q-10 -19 -31 -19h-175q-22 0 -31 19q-2 2 -2 4zM869 735q0 -15 -9 -24l-465 -485h440q14 0 24 -10t10 -24v-159q0 -14 -10 -24t-24 -10 h-690q-14 0 -24 10t-10 24v179q0 15 9 24l474 485h-449q-14 0 -24 10t-10 24v159q0 14 10 24t24 10h690q14 0 24 -10t10 -24v-179z"/>
    <glyph glyph-name="endash" unicode="–" horiz-adv-x="1034" d="M955 733q10 -10 10 -24v-159q0 -14 -10 -24t-24 -10h-829q-14 0 -24 10t-10 24v159q0 14 10 24t24 10h829q14 0 24 -10z"/>
    <glyph glyph-name="emdash" unicode="—" horiz-adv-x="1296" d="M1193 743q14 0 24 -10t10 -24v-159q0 -14 -10 -24t-24 -10h-1091q-14 0 -24 10t-10 24v159q0 14 10 24t24 10h1091z"/>
    <glyph glyph-name="quoteleft" unicode="‘" horiz-adv-x="391" d="M299 1157q10 -10 10 -25v-168q0 -14 -10 -24t-24 -10h-159q-14 0 -24 10t-10 24q1 70 2 124q2 61 35 108q11 16 34.5 49t32.5 45q10 15 26 15q16 1 28 -12l18 -21q19 -22 -1 -45q-38 -40 -50 -60h68q14 0 24 -10z"/>
    <glyph glyph-name="quoteright" unicode="’" horiz-adv-x="387" d="M297 1295q10 -10 10 -24q-2 -70 -3 -124q-2 -61 -35 -108q-28 -40 -66 -94q-10 -15 -27 -15q-15 -1 -27 12l-18 21q-19 22 1 45q36 38 50 61h-68q-15 0 -24 9q-10 10 -10 25v168q0 14 10 24t24 10h159q14 0 24 -10z"/>
    <glyph glyph-name="quotedblleft" unicode="“" horiz-adv-x="737" d="M275 1167q14 0 24 -10t10 -25v-168q0 -14 -10 -24t-24 -10h-159q-14 0 -24 10t-10 24q1 70 2 124q2 61 35 108q11 16 34.5 49t32.5 45q10 15 26 15q16 1 28 -12l18 -21q19 -22 -1 -45q-38 -40 -50 -60h68zM644 1157q10 -10 10 -25v-168q0 -14 -10 -24t-24 -10h-159 q-14 0 -24 10t-10 24q1 70 2 124q2 61 35 108q11 16 34.5 49t32.5 45q10 15 26 15q16 1 28 -12l18 -21q19 -22 -1 -45q-38 -40 -50 -60h68q14 0 24 -10z"/>
    <glyph glyph-name="quotedblright" unicode="”" horiz-adv-x="733" d="M273 1305q14 0 24 -10t10 -24q-2 -70 -3 -124q-2 -61 -35 -108q-28 -40 -66 -94q-10 -15 -27 -15q-15 -1 -27 12l-18 21q-19 22 1 45q36 38 50 61h-68q-15 0 -24 9q-10 10 -10 25v168q0 14 10 24t24 10h159zM642 1295q10 -10 10 -24q-1 -70 -2 -124q-2 -61 -35 -108 q-11 -16 -34.5 -49t-32.5 -45q-10 -15 -26 -15q-16 -1 -28 12l-18 21q-19 22 1 45q36 38 50 61h-68q-15 0 -24 9q-10 10 -10 25v168q0 14 10 24t24 10h159q14 0 24 -10z"/>
    <glyph glyph-name="quotedblbase" unicode="„" horiz-adv-x="712" d="M262 237q13 0 25 -10q9 -9 9 -24q-1 -70 -2 -124q-2 -61 -35 -108q-12 -17 -36.5 -51.5t-30.5 -43.5q-9 -14 -26 -14q-15 -1 -27 12l-18 21q-19 22 1 45q35 37 49 60h-67q-14 0 -24 10t-10 24v169q0 14 10 24t24 10h158zM632 227q10 -10 10 -24q-2 -70 -3 -124 q-2 -61 -35 -108q-10 -14 -33 -47.5t-33 -47.5q-9 -14 -27 -14q-15 -1 -27 12l-18 21q-19 22 1 45q38 40 50 60h-68q-14 0 -24 10t-10 24v169q0 14 10 24t24 10h159q14 0 24 -10z"/>
    <glyph glyph-name="uni201f" unicode="‟" horiz-adv-x="733" d="M273 1305q14 0 24 -10t10 -24v-168q0 -15 -10 -25t-24 -10h-68q12 -20 50 -60q19 -22 0 -45q-3 -4 -8.5 -11t-8.5 -10q-10 -12 -28 -12q-16 0 -26 15q-9 12 -32.5 45t-34.5 49q-33 47 -35 108l-2 124q0 14 10 24t24 10h159zM642 1295q10 -10 10 -24v-168q0 -15 -10 -25 t-24 -10h-68q12 -20 50 -60q20 -23 1 -45l-18 -21q-11 -12 -28 -12q-16 0 -26 15q-9 12 -32.5 45t-34.5 49q-33 47 -35 108l-2 124q0 14 10 24t24 10h159q14 0 24 -10z"/>
    <glyph glyph-name="dagger" unicode="†" horiz-adv-x="1218" d="M1083 974q14 0 24 -10t10 -24v-159q0 -14 -10 -24t-24 -10h-361v-1003q0 -14 -10 -24t-24 -10h-159q-14 0 -24 10t-10 24v1003h-361q-14 0 -24 10t-10 24v159q0 14 10 24t24 10h361v286q0 14 10 24t24 10h159q14 0 24 -10t10 -24v-286h361z"/>
    <glyph glyph-name="bullet" unicode="•" horiz-adv-x="593" d="M513 733q10 -10 10 -24v-168q0 -14 -10 -24t-24 -10h-385q-14 0 -24 10t-10 24v168q0 14 10 24t24 10h385q14 0 24 -10z"/>
    <glyph glyph-name="ellipsis" unicode="…" horiz-adv-x="1615" d="M887 236q14 0 24 -10t10 -24v-168q0 -14 -10 -24t-24 -10h-159q-14 0 -24 10t-10 24v168q0 14 10 24t24 10h159zM262 236q14 0 24 -10t10 -24v-168q0 -14 -10 -24t-24 -10h-158q-15 0 -25 10q-9 9 -9 24v168q0 15 9 24q10 10 25 10h158zM1536 226q10 -10 10 -24v-168 q0 -14 -10 -24t-24 -10h-159q-14 0 -24 10t-10 24v168q0 14 10 24t24 10h159q14 0 24 -10z"/>
    <glyph glyph-name="perthousand" unicode="‰" horiz-adv-x="2322" d="M1274 1259q9 -16 1 -34q-152 -303 -607 -1206q-10 -19 -30 -19h-178q-19 0 -29 16q-9 15 -1 33q343 684 607 1207q9 19 30 19h178q19 0 29 -16zM693 934q0 -178 -87 -261q-74 -69 -198 -72h-6q-123 3 -197 72q-88 84 -88 261v14v13q0 177 88 261q74 69 197 72h6 q124 -3 198 -72q87 -83 87 -261v-13v-14zM466 934v10v7v10q0 46 -4 65q-4 25 -12 32q-11 10 -45 10t-45 -10q-7 -6 -11 -32q-5 -24 -5 -65v-10v-7v-10q0 -41 5 -65q4 -25 11 -31q11 -10 45 -10t45 10q8 7 12 31q4 19 4 65zM1463 602q88 -84 88 -262v-13v-13q0 -178 -88 -262 q-74 -69 -198 -72h-5q-124 3 -198 72q-88 84 -88 262q0 2 0.5 6.5t0.5 6.5t-0.5 6.5t-0.5 6.5q0 178 88 262q74 69 198 72h5q124 -3 198 -72zM1324 314v9v7v10q0 41 -5 65q-4 25 -12 32q-11 10 -44 10q-34 0 -45 -10q-8 -7 -12 -32q-5 -24 -5 -65v-10v-7v-9q0 -41 5 -65 q4 -25 12 -32q11 -10 45 -10q33 0 44 10q8 7 12 32q5 24 5 65zM2205 340v-13v-13q0 -178 -88 -262q-74 -69 -197 -72h-5q-124 3 -198 72q-88 84 -88 262v13v13q0 178 88 262q74 69 198 72h5q123 -3 197 -72q88 -84 88 -262zM1978 314v9v7v10q0 46 -4 65q-6 27 -12 32 q-11 10 -45 10t-45 -10q-6 -5 -12 -32q-4 -19 -4 -65v-10v-7v-9q0 -46 4 -65q6 -27 12 -32q11 -10 45 -10t45 10q6 5 12 32q4 19 4 65z"/>
    <glyph glyph-name="Euro" unicode="€" horiz-adv-x="1183" d="M1004 240q8 -20 30 -74t30 -74q5 -13 -0.5 -26t-18.5 -18l-74 -30q-94 -38 -227 -38q-208 0 -343 105q-162 126 -199 399h-49q-14 0 -24 10t-10 24v46q0 14 10 24t24 10h40v91h-40q-14 0 -24 10t-10 24v46q0 14 10 24t24 10h51q38 264 197 387q135 105 343 105 q130 0 227 -39q43 -17 74 -29q13 -5 18.5 -18.5t0.5 -26.5q-8 -20 -30 -73.5t-30 -73.5q-5 -13 -18 -18.5t-26 -0.5l-74 30q-52 22 -142 22q-130 0 -204 -58q-86 -67 -110 -207h304q14 0 24 -10t10 -24v-45q0 -14 -10 -24t-24 -10h-314v-52v-40h314q15 0 25 -10t10 -24v-45 q0 -14 -10 -24t-25 -10h-306q22 -152 112 -221q72 -57 204 -57q90 0 142 22q43 18 74 30q13 5 26 -0.5t18 -18.5z"/>
    <glyph glyph-name="uni2e41" unicode="⹁" horiz-adv-x="366" d="M286 227q10 -10 10 -24v-169q0 -14 -10 -24t-24 -10h-67q12 -20 50 -60q19 -22 0 -45l-18 -21q-11 -12 -27 -12q-17 0 -26 14q-6 9 -30.5 43.5t-36.5 51.5q-33 47 -35 108l-2 124q0 15 9 24q10 10 25 10h158q14 0 24 -10z"/>
    <glyph glyph-name="uni2e42" unicode="⹂" horiz-adv-x="712" d="M262 237q14 0 24 -10t10 -24v-169q0 -14 -10 -24t-24 -10h-67q12 -20 50 -60q19 -22 0 -45l-18 -21q-11 -12 -27 -12q-17 0 -26 14q-6 9 -30.5 43.5t-36.5 51.5q-33 47 -35 108l-2 124q0 15 9 24q10 10 25 10h158zM632 227q10 -10 10 -24v-169q0 -14 -10 -24t-25 -10h-67 q12 -20 50 -60q19 -22 0 -45l-18 -21q-10 -12 -27 -12t-26 14q-6 9 -30.5 43.5t-36.5 51.5q-33 47 -35 108l-2 124q0 14 10 24t24 10h158q15 0 25 -10z"/>
    </font>
</defs>
</svg>
