<svg xmlns="http://www.w3.org/2000/svg">
<defs>
<font id="DogtownTypewriter" horiz-adv-x="1308">
  <font-face font-family="Dogtown Typewriter" font-weight="400" font-stretch="normal" units-per-em="2048" panose-1="2 0 5 0 0 0 0 0 0 0" ascent="1638" descent="-410" x-height="922" cap-height="1283" bbox="-13 -406 2666 1852" underline-thickness="150" underline-position="-442" unicode-range="U+001D-263A"/>

<glyph glyph-name=".notdef" horiz-adv-x="2003" d="M56 1128q0 -98 193 -166q127 -36 231 -36q6 0 53 -34q95 -61 168 -61h3v1q-50 24 -83 97q113 17 173 38q179 68 179 161q0 103 -204 170q-124 35 -256 35q-237 0 -390 -97q-67 -52 -67 -108zM499 1339h33q193 0 350 -80q97 -61 97 -128v-5q0 -105 -211 -175 q-72 -19 -138 -27q28 -58 81 -90v-7q0 -1 -4 -4q-99 0 -224 95q-124 0 -269 49q-164 68 -164 158v11q0 70 120 136q152 67 329 67zM977 904h11q72 0 138 -136q21 -36 31 -42q136 -102 178 -143q65 -7 77 -20l97 -41q36 -19 47 -54q6 -8 11 -24q-6 -3 -17 -6v-2q14 -3 70 -34 q191 -46 222 -80q11 -13 11 -20v-2q0 -3 -3 -3q-10 0 -42 11q0 -5 -2 -8q-6 0 -130 35q-31 8 -94 19q114 -84 140 -99l101 -55l5 -6v-5h-2q-14 3 -15 3v-7q0 -4 -3 -4l-28 8q-2 0 -10 -1q-1 0 -17 9q0 -14 -9 -14q-10 0 -27 11q-1 -8 -5 -8h-3q-9 0 -39 19q0 -2 -5 -5 l-43 24q0 -3 -4 -3h-3q-42 20 -50 20q-14 -3 -20 -3h-3q-8 0 -132 29l-15 2q-28 0 -41 -22l-3 -1q-45 21 -56 21q-10 -1 -10 -4l5 -3q0 -5 -6 -5l14 -13q-6 -2 -6 -4q1 0 1 -2l-8 -1q5 -24 5 -44l-3 -2q0 2 -2 2q0 -13 -28 -53q-23 -64 -23 -69t-2 -11q2 -10 2 -20v-8 q0 -3 11 -11q6 0 15 3q27 -10 27 -30q1 -6 1 -11l-3 -1q-11 28 -22 28h-9q-4 -10 -8 -11q-7 0 -28 11q-7 -14 -23 -31q0 -7 -8 -11h-3l-11 1q-10 -14 -10 -28h-3v16q0 9 25 51l-14 -11h-8q-2 0 -6 7q-3 0 -19 -16v3q0 20 30 25q43 28 45 44q18 53 25 102v1q0 11 -6 52l2 9 q0 4 -2 13q3 11 3 17q-19 17 -28 17v-2l6 -20l-9 -8l2 -3v-1h-4v3h-4q6 -10 6 -14v-2q0 -8 -6 -11h-2l-17 16l-3 -2q-3 2 -5 2q0 -2 -1 -2q4 -8 4 -14l-3 -1h-8l-7 11h-2v-4q2 -33 2 -39q0 -31 -52 -76q-19 -20 -19 -27v-3q2 -5 10 -5l39 11q20 -5 20 -25q0 -3 -3 -3 q-7 17 -14 17q-10 0 -13 -17q-5 -3 -9 -3h-2q-17 0 -42 3q-12 -8 -17 -8h-11q-4 0 -16 6l-7 -1h-4q-6 0 -12 1q-6 -1 -13 -1q-4 0 -4 8q-11 -10 -11 -14h-3v3q0 10 9 22v1q0 3 -8 5q-9 -2 -17 -9h-2q0 12 19 17q3 0 30 -11h22q23 0 23 11q17 7 60 56q0 2 1 5 q-15 106 -33 156q-39 96 -79 136q-1 13 -54 63q-15 26 -17 51l2 26q-6 22 -6 32l-5 -3q-3 0 -3 3q1 3 1 7q-4 0 -4 14h-2v-5h-3v2q0 6 5 34l-2 3q5 17 6 56v4h-1q0 -9 -7 -11h-1v42q0 56 -50 56q-83 5 -83 11q0 12 34 35q59 25 104 26q38 25 65 25zM594 1282h3q11 0 11 -10 v-18h11q3 0 7 -6v-3q0 -2 -7 -6h-11v-37q0 -11 7 -12l9 1h3q3 0 5 -4v-4q0 -7 -22 -9q-24 0 -24 32v33q-12 0 -12 4v5q0 5 12 6v9q0 17 8 19zM395 1255h8q6 -2 6 -12q12 12 24 12h7q25 -3 25 -23v-51q-1 -4 -11 -7q-9 0 -11 16v37q0 12 -11 12h-5q-16 0 -16 -24v-29 q-2 -12 -12 -12q-11 4 -11 13v55q0 11 7 13zM518 1255h11q32 0 37 -38v-3q-5 -40 -41 -40q-44 6 -44 35v8q5 38 37 38zM504 1218v-7q2 -21 19 -21h2q16 0 19 21v7q0 22 -21 22q-16 0 -19 -22zM295 1132q10 0 10 -11v-89q-2 -12 -11 -12t-10 14q-15 -14 -29 -14q-35 7 -35 44 v1q6 37 30 37h10q11 0 24 -10v29q0 11 11 11zM448 1132h8q16 -1 16 -9q-3 -7 -6 -8q-12 2 -13 2q-7 -1 -7 -12v-4h7q8 0 11 -6v-3q0 -3 -6 -6h-12v-54q-1 -12 -11 -12q-11 5 -11 14v52h-10q-3 0 -6 7q2 8 11 8h5v4q0 27 24 27zM486 1132q12 -4 12 -11q0 -8 -13 -10 q-7 0 -10 6v7q1 5 11 8zM780 1132q10 0 10 -11v-89q-2 -12 -11 -12t-10 14q-15 -14 -29 -14q-35 7 -35 44v1q6 37 30 37h10q11 0 24 -10v29q0 11 11 11zM363 1102h6q29 0 36 -34q0 -10 -18 -12h-42v-1q0 -20 23 -20q8 0 24 14h6q4 0 5 -8q-11 -21 -37 -21q-27 0 -40 21 q-5 10 -5 23q5 38 42 38zM482 1102h8q8 -3 8 -15v-50q-2 -17 -12 -17q-9 0 -11 12v60q0 8 7 10zM523 1102h8q7 -2 7 -12q12 12 24 12h6q26 -3 26 -24v-50q-1 -5 -11 -8q-9 0 -11 17v37q0 12 -12 12h-5q-16 0 -16 -24v-30q-1 -12 -11 -12q-11 5 -11 14v55q0 11 6 13z M652 1102h6q30 0 36 -34q0 -12 -18 -12h-42v-3q4 -18 19 -18h4q8 0 24 14h6q2 0 5 -5v-1q0 -17 -37 -23q-45 5 -45 42q0 26 27 39q9 1 15 1zM242 1062q3 -25 21 -25q20 0 20 27q-3 23 -21 23q-16 0 -20 -25zM345 1069h37v2q-3 16 -16 16h-5q-14 0 -16 -18zM634 1069h37 q0 13 -11 18h-10q-13 0 -16 -18zM727 1062q3 -25 21 -25q19 0 19 27q-2 23 -20 23q-16 0 -20 -25z"/>
    <glyph glyph-name="uni0000" horiz-adv-x="751"/>
    <glyph glyph-name="uni0000" horiz-adv-x="751"/>
    <glyph glyph-name="nonmarkingreturn" horiz-adv-x="682"/>
    <glyph glyph-name="space" unicode=" " horiz-adv-x="751"/>
    <glyph glyph-name="space" unicode=" " horiz-adv-x="751"/>
    <glyph glyph-name="exclam" unicode="!" horiz-adv-x="761" d="M350 1308q18 0 88 -34q41 -23 72 -74q60 -40 108 -44l4 -8q-24 -26 -24 -28l8 -20q0 -7 -36 -68q8 -26 8 -36v-8q-24 -28 -24 -44q0 -9 28 -56v-4q-52 -27 -52 -76q0 -48 48 -84q2 -3 2 -8q0 -18 -22 -64l-20 -40q0 -11 15 -53q0 -18 -35 -51q-16 -17 -74 -100 q0 -39 64 -66q40 -28 58 -68q0 -45 84 -60v-8q-52 -26 -52 -72q-10 -4 -123 -108l-113 -22q-21 -4 -40 -4h-20q-31 0 -112 52q-36 38 -36 56q-15 35 -15 67q0 28 11 53q0 62 108 128q36 31 36 40v12l-64 96q-4 5 -12 60q12 62 12 68l-20 136v52q0 27 -24 92v8q0 22 8 60 l-20 124q0 120 64 160q46 44 112 44z"/>
    <glyph glyph-name="quotedbl" unicode="&#34;" horiz-adv-x="853" d="M334 1299q11 -39 11 -101q0 -23 1 -51q-27 -85 -27 -141q0 -32 10 -54q8 -18 8 -44q0 -36 -16 -87l-45 -107q-39 -74 -72 -74q-56 0 -93 219q0 14 -30 51q16 43 16 70q0 25 -13 37q-3 4 -3 16q0 22 11 68q-11 23 -38 69q8 11 23 112q3 27 36 84q16 23 64 23q19 0 44 -4 q26 -19 60 -19q40 -11 53 -67zM514 1355q25 24 94 47q99 -12 139 -67l5 -8q3 -74 9 -111l-1 -32q-2 -32 -16 -102l-25 -87l-17 -126q-13 -108 -24 -136q-67 -125 -102 -125q-30 0 -36 92q-14 18 -49 119q-13 29 -20 109l7 126l-26 115q16 90 16 98q0 44 44 86z"/>
    <glyph glyph-name="numbersign" unicode="#" horiz-adv-x="2726" d="M2404 430h11q107 -19 157 -69q94 -99 94 -144v-15q-24 -99 -76 -137q-80 -69 -185 -69h-3q-24 1 -109 55q-57 52 -62.5 101.5t-5.5 57.5q47 162 69 162h2q41 0 90 54zM1147 127l5 -1l23 1q200 27 201 85v16q-11 39 -11 44l21 115q-8 61 -14 140l4 25q0 5 17 68 q-34 184 -134 185q-26 11 -43 37v20q0 33 56 55q33 6 67 6q100 0 213 -53q7 -4 20 -4h17q21 0 75 47h2q45 0 195 49h4q163 -44 199 -66q110 -112 110 -168v-1q-1 -128 -26 -156q-45 -47 -79 -47h-1q-86 7 -135 58q-32 38 -32 76l17 72v5q0 31 -71 31q-26 13 -64 13h-2 q-55 0 -119 -70q-46 -12 -107 -83q-12 -14 -12 -28v-8q0 -5 15 -68l-17 -92q5 -48 15 -86q2 -3 2 -11q0 -11 -4 -32q-1 -7 -1 -16q0 -34 22 -90q4 -15 60 -38h9q36 0 100 -29q19 -13 39 -45l-1 -12q0 -32 -64 -63q-35 -8 -74 -12l-13 2q-70 8 -92 11q-48 -5 -93 -10l-22 4 q-41 5 -93 15l-164 14l-12 -2q-47 -14 -104 -40h-17l-90 11q-93 -14 -115 -20q-135 42 -135 90v4q-1 3 -1 7q0 43 96 81q61 42 61 86v12q0 63 -18 126q21 62 21 70q0 17 -31 72v8q0 8 18 75v8q-44 142 -94 143q-54 16 -75 16l-8 1q-31 0 -169 -82q-37 -46 -90 -99v-24 q3 -41 3 -59v-2q-20 -57 -21 -79v-4q16 -63 16 -68l-1 -24l-21 -88q27 -81 99 -124q55 -45 55 -69v-13q-7 -52 -85 -55l-58 -11l-45 5q-57 8 -101 8q-28 0 -75 -5q-9 -1 -16 -1q-31 0 -41 14q-26 13 -26 35q0 14 11 32l27 40q76 43 88 121l-8 113l1 18l14 84q1 12 1 27 q0 50 -13 131q17 56 17 64l5 99l-5 33q-51 61 -51 91q0 46 107 65l191 -59h1q43 0 156 47q18 0 53 4q83 -9 153 -25t107 -62q61 -64 73 -119q7 -33 7 -65q0 -22 -3 -43l-3 -42l13 -67q0 -10 -13 -58v-36l7 -49q2 -67 4 -150q21 -63 69 -84q35 -17 51 -18z"/>
    <glyph glyph-name="dollar" unicode="$" horiz-adv-x="1279" d="M705 476q-4 -8 -4 -24q0 -33 17 -98q-28 -42 -28 -102q0 -19 11 -60l24 -17q18 4 49 4h16q39 0 112 84q40 58 40 108q0 92 -104 173q-43 10 -56 10l-26 -3q-15 0 -27 -13t-24 -62zM528 1102q-8 24 -22 24q-36 -13 -59 -32l-19 -12q-22 -2 -41 -2q-19 -5 -57 -70v-4 q0 -6 12 -44q0 -8 -4 -40q49 -113 125 -121q18 -5 31 -5q19 0 22 14q2 6 2 15q0 20 3 57q3 11 3 30q0 37 -12 106q13 55 16 84zM710 1310q19 0 100 -44q7 -4 20 -4h8q23 0 60 44l20 4h8q120 -25 120 -72q0 -24 10 -106q26 -55 26 -70v-16q0 -21 48 -52v-12q-5 -6 -72 -36 q-49 -44 -80 -44h-4q-48 0 -84 116q-50 60 -135 84l-39 2q-22 -4 -22 -17q-6 -20 -6 -46q0 -20 4 -44l8 -14q-7 -33 -7 -68q0 -42 10 -88q0 -19 9 -41q45 -37 126 -52q22 0 88 -60q76 -18 120 -76q105 -118 105 -263q0 -56 -16 -116l-15 -28q-8 -56 -53 -106q-13 0 -87 -49 q-13 0 -56 -32q-70 -13 -193 -59q-21 -9 -30 -38q-18 -132 -42 -179q-3 -7 -60 -46q-8 -2 -15 -2q-38 0 -61 45q-12 23 -18 59q0 41 -1 100l-1 40q1 6 1 12q0 30 -17 57q-26 37 -70 37h-15q-8 0 -56 -28q-33 0 -88 -16q-67 0 -69 171q-47 69 -51 89q4 27 4 44v16 q0 12 -20 72v12q30 76 84 76q42 0 96 -92q50 -65 124 -98q44 -29 63 -29q14 0 26 31q0 78 -12 141q18 29 18 64v7q0 31 -8 64q-18 37 -55 58q-107 53 -156 114q-122 109 -124 156q-4 54 -4 80q17 27 24 128q31 71 120 144l148 68q43 0 67 12q13 27 13 86q0 23 -2 50 q22 101 28 104q13 11 25 17q18 9 32 9q25 0 39 -27q17 -34 17 -110l5 -63q1 -36 4.5 -50.5t15.5 -19.5z"/>
    <glyph glyph-name="percent" unicode="%" horiz-adv-x="1430" d="M1101 1391h4q50 0 76 -40q0 -39 -26 -136q-52 -67 -80 -150q-24 -52 -42 -70l-36 -70l-10 -10l-50 -53q-14 -21 -24 -63q-20 -39 -68 -106q-10 -27 -10 -41q0 -17 13 -17q23 0 93 60q71 32 132 32q8 1 17 1q28 0 57 -10q166 -62 166 -163q4 -7 4 -20q0 -25 -4 -60 q4 -50 4 -100q0 -15 -22 -93t-76.5 -149.5t-92.5 -93.5q-18 0 -93 -47q-83 0 -180 11q-114 35 -132 68q-30 83 -56 150q12 61 12 92q0 34 -14 34q-10 0 -28 -19q-114 -141 -133 -190l-71 -61q0 -5 -17 -71q-3 -9 -56 -53q-44 -37 -47 -37h-8q-24 3 -78 3q-32 18 -32 80v36 q0 22 80 112q47 105 55 154q88 64 106 165q0 5 32 25q74 60 83 136q0 24 -28 44h-8q-13 0 -72 -28q-49 0 -104 -16h-8q-140 34 -168 76q-57 64 -72 136q0 14 5 83.5t63 204.5q20 20 58 76.5t138.5 106t123.5 49.5h8q13 0 128 -56q124 -56 124 -136q14 -57 14 -73v-4 q0 -8 -18 -63v-8q-3 -19 -3 -34q0 -45 25 -48h4q5 0 79 99q48 41 71 103l9 41l23 15q28 31 40 80q0 9 56 56q22 60 64 60zM457 1119q-31 32 -48 32h-4q-27 0 -64 -72q-52 -21 -66 -88q-5 -25 -5 -52q0 -46 15 -100q12 -40 40 -40q12 0 40 28h4l44 -16q96 70 96 104 q80 0 80 112q0 124 -36 124q0 11 -40 16h-4q-26 0 -48 -48h-4zM861 365q0 -8 18 -80q19 -93 49 -93h12q55 0 112.5 35t96.5 129q4 24 4 34q0 23 -36 60v5q0 9 12 55q-25 69 -60 69h-4q-109 -33 -148 -111q-47 -77 -56 -103z"/>
    <glyph glyph-name="ampersand" unicode="&amp;" d="M773 854l-95 -107q-43 -38 -61 -93v-13q32 -130 65 -130h20q30 0 41 102q72 192 225 196q67 -4 122.5 -25t67.5 -94q-10 -98 -67 -120q-34 -13 -80 -13q-34 0 -75 7h-16q-59 -12 -59 -110q-23 -46 -23 -96q0 -10 1 -21q67 -81 102 -137q14 -22 43 -27q65 0 121 86 q23 20 49 20q65 -6 65 -45v-8q0 -90 -102 -187q-63 -47 -133 -47q-26 0 -53 7h-8q-47 0 -159 105l-20 4h-5q-63 -12 -94 -49q-18 -26 -158 -85h-13q-114 20 -179 57q-206 87 -206 232q0 15 13.5 107t81.5 186q55 63 140 114q36 46 36 118v8q-44 110 -44 126q4 36 4 61 l-13 86q0 66 131 171q91 48 138 48h20q24 0 110 -48q62 -17 82 -49q15 -30 35 -74q19 -42 19 -102q0 -3 -1 -36.5t-68 -124.5zM514 1084l-34 -70q5 -130 62 -136q12 0 54 32q56 12 56 37v7q1 18 1 33q0 131 -61 131q-31 0 -78 -34zM287 341v-25q0 -39 28 -83q53 -63 115 -63 q33 0 69 18q78 40 78 96q0 17 -7 35q-9 52 -69 105q-16 43 -28 43h-14q-19 0 -66 -38q-9 -7 -60 -25q-46 -39 -46 -63z"/>
    <glyph glyph-name="quotesingle" unicode="'" horiz-adv-x="467" d="M303 1358l2 -2q44 -42 44 -86q0 -8 16 -98l-26 -115l7 -126q-7 -80 -20 -109q-35 -101 -49 -119q-6 -92 -36 -92q-35 0 -102 125q-11 28 -24 136l-17 126l-25 87q-14 70 -16 102l-1 32q6 37 9 111l5 8q40 55 139 67q69 -23 94 -47z"/>
    <glyph glyph-name="parenleft" unicode="(" horiz-adv-x="740" d="M546 1488q68 -14 68 -60v-12q-64 -67 -100 -156q-48 -58 -48 -108q-72 -64 -72 -124q-36 -123 -36 -192q0 -26 32 -104q-24 -62 -24 -76v-76q33 -164 79 -249l37 -75q65 -70 96 -128q88 -104 88 -136v-24q-18 -88 -60 -88q-104 0 -164 44q-43 17 -80 33l-6 10l-12 48 q-6 42 -36 62l-13 41l-12 19q-61 56 -61 75q0 13 8 56q0 14 -4 36q-36 45 -36 100q-44 59 -44 72v8q16 66 16 84q0 13 -16 72v4q12 40 20 184v36q32 70 32 92q60 140 60 180q50 70 84 156q42 78 96 132q71 64 104 64h4z"/>
    <glyph glyph-name="parenright" unicode=")" horiz-adv-x="889" d="M138 1512l23 9q8 3 18 3q54 0 138 -114q39 -32 92 -116q43 -60 43 -75.5t52 -149.5q17 -52 49 -159l28 -228v-8l-16 -108l4 -36q-21 -81 -26 -140l-2 -24q-48 -63 -48 -128q0 -44 -43 -98q-32 -59 -41 -95l-9 -30l-12 -17q-64 -38 -131 -92q-29 -12 -60 -16 q-116 25 -116 76q6 74 68 148l61 86l16 30q74 79 91 172q52 138 52 256v20q-4 42 -4 48q4 45 4 84q-20 107 -40 144l-20 41l-4 16q0 36 -32 111v4q0 56 -52 100q-15 50 -49 106q-37 33 -58 110q-3 15 -3 26q0 34 27 44zM548 1313q28 -14 28 -36q-5 -16 -20 -24h-16 q-6 0 -16 16v12q5 32 24 32zM659 1074q16 0 28 -20v-16q-6 -16 -28 -16q-32 4 -32 16v4q0 32 32 32zM707 898l8 -1q9 -2 32 -54q17 -21 17 -38v-3q-19 -42 -42 -42h-1q-17 24 -17 40v2l-7 76l1 12q2 8 9 8zM741 696h4q16 0 40 -108v-16q-12 -100 -44 -100q-40 17 -40 44 q24 58 24 96v20l-4 24q9 40 20 40zM598 40h-8q-12 4 -12 24q0 19 52 180q0 41 76 160h20q12 -4 12 -24v-60q-28 -139 -40 -176z"/>
    <glyph glyph-name="asterisk" unicode="*" horiz-adv-x="980" d="M269 1396q80 -16 136 -104q60 -72 72 -72h16q35 0 105 77q60 69 113 69h3q33 -5 33 -54v-9l-16 -59q-21 -55 -39 -135q-1 -6 -1 -12q0 -27 17 -40.5t51 -21.5l101 -16q93 -21 93 -51v-4q0 -53 -134 -92q-87 -20 -116 -30q-17 -7 -17 -21q0 -9 7 -20q18 -27 64 -104 q4 -7 13 -35l2 -27v-1q0 -35 -34 -35q-23 0 -63 17q-54 25 -92 67q-53 53 -80 53h-16q-18 0 -71 -78q-57 -98 -123 -110q-55 9 -55 72q0 14 3 31q24 91 32.5 115.5t13.5 53.5q0 30 -174 47q-84 17 -104 53l-4 24q18 51 168 84q106 40 124 80q0 38 -55 125q-22 50 -38 110v4 q0 50 49 50q8 0 16 -1z"/>
    <glyph glyph-name="plus" unicode="+" horiz-adv-x="1019" d="M446 1149h9q26 0 40 -9q34 -46 56 -112q11 -72 11 -100q0 -80 60 -100q58 0 76 104q0 27 20 36q44 -8 56 -92l6 -38q24 -45 94 -48q132 -51 132 -86v-4q-19 -51 -49 -57q-40 -7 -111 -35q-68 -20 -68 -64v-16q8 -118 8 -128q0 -100 -60 -100q-48 5 -48 32q32 68 32 128 q0 8 -16 50q-27 74 -72 74q-52 0 -52 -128l1 -35q3 -33 3 -61q-23 -100 -88 -100h-4q-80 17 -80 80v24q0 19 -5 90q-11 100 -67 124q-40 8 -72 26q-7 4 -16 4q-7 0 -67 -10l-34 6q-140 51 -143 108q9 53 111 72q53 14 93 16q48 -8 72 -8q75 0 102 82v4q6 58 6 82 q12 167 44 184zM708 1040q4 2 7 2t7 -2.5t6 -7.5q2 -3 2 -7v-4.5t-11 -16.5q-2 -2 -5 -2q-4 0 -8 6l-4 8q-3 7 -3 11q0 3 2 6.5t7 6.5z"/>
    <glyph glyph-name="comma" unicode="," horiz-adv-x="576" d="M267 355h12q112 -7 160 -120l40 -100q5 -29 5 -59q0 -57 -17 -121q-44 -100 -115 -175q-103 -134 -223 -164q-30 0 -30 56v7q35 152 56 172l48 80l4 8v6q0 60 -92 126q-32 49 -32 108q0 19 3 39v3q0 35 64 90q63 44 117 44z"/>
    <glyph glyph-name="hyphen" unicode="-" horiz-adv-x="913" d="M316 811h8q4 0 46.5 -10.5t49.5 -10.5l97 18q16 0 100 -20l36 -4q27 0 116 12q132 -39 132 -96q0 -47 -96 -96l-16 -4q-32 8 -80 8q-57 -12 -112 -21l-21 -2q-77 11 -103 15l-144 -20q-71 20 -88 20q-89 -4 -96 -4q-140 39 -140 96v12q2 52 64 81q52 19 70 19h12 q4 0 58 -8h12q11 0 95 15z"/>
    <glyph glyph-name="hyphen" unicode="­" horiz-adv-x="913" d="M316 811h8q4 0 46.5 -10.5t49.5 -10.5l97 18q16 0 100 -20l36 -4q27 0 116 12q132 -39 132 -96q0 -47 -96 -96l-16 -4q-32 8 -80 8q-57 -12 -112 -21l-21 -2q-77 11 -103 15l-144 -20q-71 20 -88 20q-89 -4 -96 -4q-140 39 -140 96v12q2 52 64 81q52 19 70 19h12 q4 0 58 -8h12q11 0 95 15z"/>
    <glyph glyph-name="period" unicode="." horiz-adv-x="604" d="M266 384h4q148 0 175 -56q33 -38 67 -117q29 -40 47 -57v-14q-33 -31 -71 -83q-49 -93 -132 -93q-24 0 -86 -4q-59 0 -165 93q-18 32 -22 89q-1 16 -1 30q0 37 11 68t59 76q80 68 114 68z"/>
    <glyph glyph-name="slash" unicode="/" horiz-adv-x="990" d="M962 1508q17 3 30 3q55 0 55 -48q0 -38 -35 -106l-24 -58q-26 -52 -40 -111.5t-21 -59.5q-4 0 -51 -64q-42 -42 -61 -107l-19 -77l-9 -19q-63 -69 -101 -173q-15 -48 -18.5 -58t-41.5 -40q-25 -38 -48 -76q-20 -22 -42 -88q-40 -32 -63 -75l-11 -31q-20 -37 -33 -87 q0 -21 -30 -43.5t-50 -58.5q-74 -141 -113 -190q-35 -54 -84 -84q-5 -5 -74 -13q-48 13 -48 72q0 53 76 144q47 82 68 176q0 23 92 112q48 91 48 160q90 52 114 156q58 35 78 112q83 62 108 164q24 25 60 136q102 128 144 236q33 25 72 116q65 80 72 80z"/>
    <glyph glyph-name="zero" unicode="0" horiz-adv-x="1330" d="M682 1366q34 0 55 -66q22 0 77 62h12q19 0 70 -89q25 -8 31 -8q19 12 31 12h15q20 0 35 -101q-6 -85 -23 -85h-12q-28 8 -66 116l-23 20h-74q-29 0 -70 42h-31q-40 0 -58 66q0 18 31 31zM589 1335q47 -10 47 -42q0 -57 -97 -109q-57 -63 -68.5 -101.5t-21.5 -119.5 q-58 -46 -58 -51q-8 -27 -8 -47v-89q0 -42 24 -128l-4 -54q0 -103 93 -179q23 -85 43 -85h15q47 66 70 66h8q20 0 23 -121q13 -50 39 -50q81 29 128 77h19q34 -34 51 -34h4q89 52 89 132q70 27 70 50q7 9 12 109q19 31 19 58q-25 35 -31 54l27 62l-4 24q8 43 8 66 q-27 74 -27 85v4q12 37 12 47q0 52 -90 89q-4 0 -4 4v15q6 9 82 28q0 5 31 23h8q18 0 35 -109q17 -39 77 -39q8 -1 8 -7q0 -8 -58 -51q-8 -31 -8 -50q0 -56 35 -86v-11q-31 -69 -31 -117q0 -32 54 -78v-7q-39 -84 -39 -175q-14 -17 -38 -113q-9 -6 -31 -70q-8 0 -78 -77 l-159 -113q-74 -11 -163 -39q-42 0 -97 -15h-16q-9 0 -62 35q-60 0 -89 54q-24 26 -90 58q-41 49 -66 83q-52 56 -74 148q-33 32 -33 85q-5 37 -5 61v4l-35 109v7q0 10 27 86v46q-8 28 -8 31v20q0 11 43 74l4 23q-4 34 -4 58v4q55 59 62 120q27 43 66 94l16 33l31 21l81 62 q102 58 113 58h23z"/>
    <glyph glyph-name="one" unicode="1" horiz-adv-x="1029" d="M290 1327q19 0 114 -7l61 11l14 -2q51 -27 101 -42q64 -32 64 -119v-61q0 -43 21 -162q-12 -55 -12 -68q0 -26 15 -88l-2 -14q-6 -85 -9 -85q4 -10 15 -102q0 -9 -18 -93l2 -18q9 -42 18 -82l6 -75v-25l20 -46q45 -59 84 -61l77 -12l55 -29q78 -26 88 -37l32 -43 q-18 -47 -66 -63q-29 -9 -66 -22l-63 -9q-13 -2 -28 -3q-63 6 -94 7q-64 -15 -68 -15q-11 0 -69 13q-60 -10 -136 -33q-91 17 -106 17l-36 -3q-34 -8 -53 -8h-7q-59 25 -84 36q-52 25 -57 54q10 37 49 63q72 32 133 48l40 23q54 16 58 16q32 16 60 46q28 60 28 82 q-2 65 -2 81q11 66 19 99q-3 5 -26 99v15q17 73 17 84q-4 33 -14 92v8l15 75l-9 66q12 49 13 65q0 45 -88 82q-38 -8 -56 -8q-9 0 -88 45h-4q-3 0 -51 -3q-39 13 -77 43q-36 27 -46 52l-5 33q43 54 127 63z"/>
    <glyph glyph-name="two" unicode="2" horiz-adv-x="1216" d="M1034 1023q8 -30 34 -54v-12q0 -11 -11 -48q1 -15 16 -41q15 -33 17 -45q-18 -35 -77 -64q-19 -22 -19 -66q-3 -24 -39 -24l-47 -3h-7q-6 0 -43 -70q-38 -39 -97 -39q-20 -50 -47 -50l-39 3q-65 0 -73 -50q3 -49 3 -51l-7 -3h-8q-9 0 -50 -8q-59 -32 -62 -65v-4 q0 -33 30 -56l24 -15q37 -12 46 -12h20q7 0 62 28l70 -28h19q34 23 42 23q6 0 52 -21q25 -8 47 -8q13 0 25 3l46 7q10 0 65 -65q27 -28 111 -47l8 -20q-68 -76 -188 -118l-34 -13q-70 -20 -92 -20l-47 -3q-38 0 -73 9l-31 9q-56 15 -85 20l-97 4q-101 45 -220 51 q-36 28 -78 60q-64 55 -64 110v19q0 11 20 65q3 33 20 75q0 7 53 70q18 35 147 155l106 76q97 25 193 84q72 12 97 69q9 10 67 51q19 27 24 51q6 44 8 57l-4 20l-11 24q-52 86 -98 86q-52 52 -72 52h-4q-5 0 -44 -8q-48 20 -56 20q-25 0 -40 -64l-8 -4h-4l-68 28 q-22 0 -28 -44l4 -40q-8 -24 -16 -24h-36q-48 0 -60 -80q-24 -54 -36 -56h-12q-68 46 -68 96q4 73 64 176q45 19 94 89q35 31 109 31h5q34 24 108 24q29 0 64 -4q66 -8 120 -28q79 -31 113 -60q87 -52 129 -142q7 -41 18 -68z"/>
    <glyph glyph-name="three" unicode="3" horiz-adv-x="1043" d="M474 1282q157 -6 233 -67q76 -52 103 -153q20 -81 28 -152q-19 -89 -57 -174l-7 -33q-3 -11 -3 -22q0 -34 22 -75q48 -80 78 -162q23 -47 23 -62q9 -47 9 -69q8 -57 8 -80l1 -77q-28 -70 -54 -144q-54 -98 -102 -147q-76 -29 -149 -57q-55 -10 -89 -10q-13 0 -22 1 q-61 4 -95 4l-62 -12h-11q-91 0 -166 35q-136 77 -156 136q-10 23 -10 38q0 24 29 24q27 0 63 -6q12 -2 26 -2q27 0 75 10h13q39 -22 106 -31h12q72 6 159 56l16 6h3q54 0 93 30q41 38 69 117q50 37 50 111v11q0 119 -71 140q-31 58 -79 79q-75 48 -130 73q-22 19 -22 26 l10 18q26 43 70 67q46 19 102 53q57 41 89 72q27 32 27 106v12q-16 54 -68 82q-30 40 -40 50q-15 8 -32 8q-18 0 -46 -14l-13 2q-30 28 -61 28l-20 -4l-28 -15h-15l-37 19q-29 -1 -60 -38l-19 -3q-38 7 -60 18q-58 34 -69 69q0 44 188 80q67 28 148 28z"/>
    <glyph glyph-name="four" unicode="4" horiz-adv-x="1116" d="M733 1350h16q22 -32 43 -159q12 -28 21 -56l2 -9l1 -71v-18q24 -92 24 -97v-3q-17 -38 -29 -63v-8q0 -42 39 -117l4 -20q-27 -66 -40 -101v-19l23 -61l1 -10q-1 -12 -1 -23q0 -43 22 -68.5t104 -43.5q97 -28 111 -76q9 -49 9 -52q0 -35 -120 -82q-43 4 -74 4 q-37 0 -51 -47q0 -8 28 -70q-24 -67 -24 -116q8 -47 8 -51q-41 -112 -151 -112q-14 0 -94 97q-22 21 -35 43q0 5 3 68l-13 70l7 48q0 62 -132 62q-76 -12 -105 -12q-37 32 -187 47q-50 44 -50 70q6 77 70 167q33 33 33 72q13 53 13 64q0 10 82 54q18 26 31 86q47 55 66 129 v16q5 13 64 54q17 16 38 53l9 30l21 84q0 27 105 103q28 18 42 64q33 28 66 80z"/>
    <glyph glyph-name="five" unicode="5" horiz-adv-x="1056" d="M457 1270q13 0 64 -16h16q4 0 56 12q42 -24 64 -24q57 8 80 8h48q57 0 132 -80v-4q-20 -99 -148 -114q-48 -4 -52 -8q-55 24 -156 24h-32l-68 -16q-42 24 -64 24q-48 -16 -48 -60q-31 -25 -32 -68v-36q19 -90 44 -90q68 4 108 16q16 0 93 12q55 -16 76 -16 q43 -14 136 -54q29 -40 79 -94q56 -74 56 -240q-20 -139 -76 -244q-51 -101 -168 -204q-34 -45 -140 -116q-29 -24 -117 -56q-82 -43 -205 -52q-18 0 -30 4q-61 20 -92 72v20q0 24 40 61q36 32 72 46h12q4 0 61 8q68 5 107 49q93 0 140 64l48 82l56 30l42 97l48 43 q25 31 50 68l8 28v20q0 52 -72 88l-4 8v28q-10 80 -80 80q-28 0 -68 32q-15 8 -32 8q-43 0 -108 -52q-71 -29 -103 -68q-21 -28 -37 -36h-24q-59 0 -80 84q4 34 4 56v36q0 34 -18 128q14 81 14 88q0 24 -13 93l29 155q35 48 112 48q47 12 172 28z"/>
    <glyph glyph-name="six" unicode="6" horiz-adv-x="1137" d="M832 1355h12q144 0 144 -92q0 -60 -105 -65q-86 -11 -134 -41l-10 -5l-79 -11q-45 -10 -108 -74l-9 -8q-88 -46 -97 -121l-5 -14q-40 -40 -40 -94v-5q0 -18 10 -23q94 27 160 27q18 0 33 -2q35 -12 128 -16q120 -56 148 -76q37 -32 92 -116l45 -67l7 -121q16 -65 16 -72 q-24 -84 -44 -184q-9 -21 -58 -94q-41 -50 -148 -106q-75 -20 -163 -36l-139 12q-25 5 -144 79l-78 96q-34 23 -64 120q-15 24 -30 117q4 35 4 44q0 56 -8 152q4 34 20 104q-4 28 -4 48q17 61 17 71q11 83 11 85q0 8 44 75l32 91l48 50l66 93l82 43q41 13 90 66l8 5 q79 3 134 49l48 4q17 0 68 12zM606 677h-5q-46 17 -50 17h-9q-18 0 -140 -87q-50 -71 -68 -205q66 -197 123 -197q16 0 81 -61q54 -16 95 -16q17 0 32 3h4q140 63 140 135q28 22 52 74q9 19 9 46q0 44 -26 110q-1 100 -94 176q-53 17 -63 17q-19 0 -81 -12z"/>
    <glyph glyph-name="seven" unicode="7" horiz-adv-x="1165" d="M1041 1288q70 -36 70 -74q0 -76 -43 -132q-29 -89 -70 -89q-6 0 -12 12q5 63 41 112l6 16q9 30 9 54q0 16 -4 29q-11 28 -11 47q0 25 14 25zM962 940h12q8 -3 8 -17v-6q-12 -74 -31 -74q-30 -5 -31 -5q-12 12 -12 23v17q0 62 54 62zM885 811q20 -9 20 -39v-4 q0 -61 -59 -89q0 -23 -31 -90q0 -30 -11 -95q0 -8 -24 -95q-11 -19 -11 -43l-13 -74h-4q-29 0 -29 33v48q0 48 12 140q30 98 53 152l39 35l17 72q32 46 41 49zM738 240q25 -27 25 -66q-17 -19 -17 -167q-11 -54 -33 -54q-31 18 -31 50q14 55 14 74q4 104 4 111q0 34 35 52h3 zM726 -115l-5 -22q-1 -6 -18 -12l-8 1q-16 17 -16 34q0 5 1 9l3 15q2 6 19 12q25 -5 25 -27q0 -5 -1 -10zM468 1359q73 -24 136 -24l84 24h12q59 -16 164 -28q84 -14 95 -71l1 -43q0 -18 -23 -79l-51 -96q-64 -67 -98 -207q-46 -93 -84 -152q-16 -33 -16 -96l-18 -55 q0 -13 -27 -96l-2 -19l-3 -61q0 -10 -26 -73q-8 -38 -8 -60q0 -11 12 -76q-23 -42 -28 -76q0 -9 6 -92q2 -12 2 -24q0 -80 -74 -118h-16q-59 0 -98 133l-1 41l8 90q13 76 13 102v12l20 152v40q24 103 64 224q30 158 64 220q21 27 48 120q40 55 40 112q-2 55 -59 63l-51 -4 l-74 -10l-17 1l-79 18q-108 -9 -108 -64q-59 -25 -72 -100l4 -36l-20 -16h-12q-64 2 -103 66q-13 26 -13 42q20 86 20 108q0 26 -8 56q0 57 108 124l28 4h4q95 -12 112 -12q31 0 144 36z"/>
    <glyph glyph-name="eight" unicode="8" horiz-adv-x="1399" d="M574 1380q88 -33 144 -34h39l54 11q43 -19 82 -28t79 -35q101 -55 142 -154q19 -49 19 -129v-15q-8 -56 -54 -136q-8 -18 -12 -54q0 -15 51 -148v-39q0 -32 58 -104v-12q-8 -49 -8 -82q0 -6 31 -69v-4l-31 -70v-12l16 -74v-4q-24 -23 -60 -28q-53 -40 -53 -123l-11 -8h-8 q-43 3 -73 3q-40 0 -64.5 -6.5t-117.5 -31.5l-130 -7q-66 1 -139 27q-231 102 -288 182q-51 67 -64 126.5t-25 110.5q21 93 58 163q74 80 74 210q-16 107 -52 162q-18 49 -30 85q9 40 47.5 114t72 102t109.5 69q89 15 144 42zM590 1168q-59 22 -74 22h-12q-85 -37 -85 -66 q0 -9 9 -35v-4l-31 -15q-21 -24 -21 -46v-7q0 -57 155 -129q48 -51 105 -51q74 0 156 29q79 0 108 21q30 17 66 60q12 33 12 44q0 39 -62 70l-4 18q0 5 8 41v7q0 31 -47 37l-50 -11q-27 0 -39 55q-19 18 -43 18h-4q-8 0 -58 -29h-8q-36 29 -46 29q-20 0 -24 -51zM1175 673 l2 3q4 3 8 3q8 0 18 -8t10 -25v-6l-5 -7q-1 -2 -6 -2t-13 2q-15 21 -15 35q0 2 1 5zM671 635q-13 0 -42 23q-15 0 -43 -74q-33 -54 -55 -54q-7 0 -7 8q7 38 7 43v7q0 39 -38 39q-39 -5 -39 -35v-15q-70 -54 -86 -110q-11 -36 -11 -75v-6q0 -40 19 -62t39.5 -22h28.5l12 -8 l8 -26q0 -20 84 -23q12 -11 28.5 -23.5t38.5 -17.5l60 8h4l85 -27h24q64 0 112 73q17 17 82 51q35 37 35 58v19q0 12 -27 63q0 13 3 66q-9 9 -46 23v31q0 58 -89 81h-8q-28 -7 -31 -7h-4q-31 46 -66 46h-4q-43 0 -66 -54h-8zM1155 786q-3 -3 -8 -3t-13 6q-7 8 -10 23 q0 17 11 17h4q18 -11 18 -31q0 -5 -2 -12zM1254 548q47 0 47 -62q0 -26 -23 -39h-12q-35 27 -43 66v15q10 20 31 20zM1301 321q10 -4 16 -28l6 -30q2 -20 2 -35q-15 -31 -39 -31h-4q-35 0 -55 42q41 82 74 82zM1190 135q43 -43 43 -66v-3q0 -12 -43 -24h-8q-34 20 -34 43v12 q0 31 42 38z"/>
    <glyph glyph-name="nine" unicode="9" horiz-adv-x="1183" d="M613 1409q57 -34 84 -41q12 -3 32 -3q27 0 67 5l9 -6q57 -99 165 -117q12 -15 12 -28q-2 -12 -2 -24q0 -25 8 -52q20 -51 20 -54q-8 -73 -8 -94v-7q0 -32 21 -78q8 -13 8 -23v-8q-16 -57 -16 -62v-4q0 -25 23 -99q4 -7 4 -20v-3q-10 -10 -23 -86q-15 -32 -15 -63 q0 -25 9 -48q-51 -64 -52 -110q0 -10 4 -58q-17 -40 -80 -105q-8 -16 -56 -121q-133 -66 -211 -140q-73 -53 -170 -84q-54 -16 -74 -16h-34q-90 23 -90 70q4 43 41 81q22 33 82 68l26 12q103 6 157 55q97 39 126 119q20 9 79 64q49 52 52 125q0 46 -50 46q-67 0 -135 -29 l-12 -8h-7q-67 22 -84 22q-37 0 -98 -3q-17 7 -70 30l-78 26q-48 77 -81 103t-33 57q0 59 -43 128v4q16 48 16 59v3q0 13 -24 70q24 69 31 139q0 11 25.5 39t57.5 109l10 11q66 29 121 98q94 8 144 28l93 23h19zM290 936q0 -12 22 -64q0 -73 79 -106q17 0 37 -66 q39 -39 92 -39q29 0 61 11h4q50 -16 86 -16q26 0 45 9q31 18 72 45q37 51 59 118q23 32 30 60v16q0 16 -24 68q0 7 4 49q-21 79 -112 180q-60 32 -112 32h-12q-82 13 -111 13q-110 -31 -133 -113q-79 -72 -79 -132q0 -24 -8 -65z"/>
    <glyph glyph-name="colon" unicode=":" horiz-adv-x="619" d="M498 845v-9q0 -51 -70 -127q-60 -27 -91 -28h-17q-37 0 -140 57q-46 46 -51 100q-3 34 -3 55q0 13 2 28.5t17 40.5q46 42 73.5 52t63.5 14l16 1h4q111 0 182 -120q13 -26 14 -64zM245 162l-16 7q-103 49 -107 182l1 9q24 145 136 167q18 6 43 6q20 0 44 -4l7 -1 q41 -7 108 -80q21 -35 85 -54v-9q-48 -26 -86 -150q-82 -81 -164 -81q-26 0 -51 8z"/>
    <glyph glyph-name="semicolon" unicode=";" horiz-adv-x="678" d="M141 785q0 47 50 99q61 41 86 41q12 1 24 1q102 0 166 -72q39 -79 42 -157q-68 -101 -148 -128l-20 -4h-24q-133 0 -168 140q-8 46 -8 80zM335 355h12q112 -7 160 -120l40 -100q5 -29 5 -59q0 -57 -17 -121q-44 -100 -115 -175q-103 -134 -223 -164q-30 0 -30 56v7 q35 152 56 172l48 80l4 8v6q0 60 -92 126q-32 49 -32 108q0 19 3 39v3q0 35 64 90q63 44 117 44z"/>
    <glyph glyph-name="semicolon" unicode=";" horiz-adv-x="678" d="M141 785q0 47 50 99q61 41 86 41q12 1 24 1q102 0 166 -72q39 -79 42 -157q-68 -101 -148 -128l-20 -4h-24q-133 0 -168 140q-8 46 -8 80zM335 355h12q112 -7 160 -120l40 -100q5 -29 5 -59q0 -57 -17 -121q-44 -100 -115 -175q-103 -134 -223 -164q-30 0 -30 56v7 q35 152 56 172l48 80l4 8v6q0 60 -92 126q-32 49 -32 108q0 19 3 39v3q0 35 64 90q63 44 117 44z"/>
    <glyph glyph-name="less" unicode="&lt;" horiz-adv-x="1061" d="M973 733q1 3 1 8q0 9 -3 24q-3 17 -6 18l-6 -6v-1q1 -34 6 -54zM425 526l-1 -1l1 -1h1q2 0 7 3v1h-1q-1 1 -2 1q-2 0 -5 -3zM434 533v-3h4v3h-4zM841 535v-4h4q11 0 14 15v2h-2q-7 0 -16 -13zM939 519h3q14 7 14 26h-1q-16 -8 -16 -26zM903 529v-4h4q21 16 21 29v5h-1 q-24 -18 -24 -30zM787 517v-2q31 11 31 33q3 0 7 14h-4q-34 -25 -34 -45zM874 534q2 0 2 -2q21 14 21 39v3h-3q-20 -14 -20 -40zM945 560h2q15 5 15 33q-17 -11 -17 -33zM865 607q0 -3 -19 -17q-8 -13 -8 -29v-4l2 -3q10 0 23 19l5 5q2 6 2 13v6l-1 10h-4zM936 621 q-22 -30 -22 -39q0 -8 -1 -14h3q20 13 20 39q3 0 3 12zM829 621q0 -3 -23 -27q0 -16 -3 -18v-8q25 17 25 20q4 16 4 33h-3zM386 608v-1q17 6 19 12v2h-2zM413 624h4q3 0 3 3v1h-3q-2 0 -4 -4zM277 630h4q0 2 2 5h-2q-2 0 -4 -5zM907 649q0 -4 -19 -25q-3 -15 -3 -17v-16h1 l22 22v5q0 10 2 31h-3zM294 642h3q2 0 6 7l-3 1q-3 -1 -6 -8zM965 653q-6 -7 -10 -34l1 -3q-1 -3 -1 -6h1q10 7 13 17l-2 14l2 11zM311 656v-3q10 2 10 6v2q-7 -5 -10 -5zM848 625q0 -3 1 -6q-1 -3 -1 -6l3 -2q17 17 23 25l-1 11v3q0 11 3 11q-2 3 -2 5h-1q-25 -23 -25 -41z M808 624q1 0 1 -2q7 0 26 25q0 3 2 6l-2 8l2 9h-2l-23 -23zM922 625h2q21 15 21 47v9h-1q-22 -13 -22 -56zM910 707l-19 -24q-1 -2 -3 -31q23 15 23 28v18l2 8zM871 717q-13 -16 -22 -30q2 -7 2 -20q4 0 25 25v3q0 4 -3 14q1 3 1 6zM832 717q-20 -20 -21 -41v-1l1 -8h3 l22 28q-1 22 -5 22zM928 729v-15l2 -10q-2 -2 -2 -7v-5q1 -3 3 -3q17 20 17 31q-1 23 -4 32h-2q-12 -12 -14 -23zM783 751v-5q0 -15 3 -34t3 -29v-11q1 -14 1 -16l-3 -38q-4 -41 -12 -65q-12 -34 -20 -34h-3q-6 0 -10 4t-27 38h-1v-4q23 -47 39 -47q3 0 5 1q23 18 29 49 l5 33l3 19q0 15 3 29l-1 8v10q0 34 -10 95h-1q-3 -1 -3 -3zM862 755q-14 -21 -14 -27q0 -4 3 -14q18 19 18 31q-3 4 -3 10h-4zM886 728q0 -2 5 -14h2q17 16 17 18q-2 25 -8 25q-16 -16 -16 -29zM809 743v-28q16 13 22 26q-5 15 -5 17h-3q-1 0 -14 -15zM840 774v-9q1 -3 3 -3 q7 2 16 10q-1 25 -8 25t-11 -23zM931 802l-9 -11q-3 -4 -3 -6q0 -7 4 -15q1 -9 1 -12q1 -3 1 -4h2q0 7 12 20v8q0 5 -5 20h-3zM893 803q-14 -21 -14 -26q3 -11 3 -15h3q14 14 14 23q-2 18 -6 18zM808 805l-11 -20q4 -20 7 -20q13 12 13 20q0 7 -5 20h-4zM947 830v-3 q6 -22 6 -27h5q0 7 1 10q-4 20 -8 20h-4zM825 827q7 -25 9 -25q11 13 11 18q-4 0 -7 14l-3 2q-7 -3 -10 -9zM783 827q6 -12 6 -16h1q2 0 11 12v4q0 8 -4 9h-7q-7 -5 -7 -9zM732 831v-4l10 1h2q13 0 28 -42q4 -28 12 -28v4l-11 34q-8 27 -23 45h-1q-17 -4 -17 -10zM908 830 v-7q0 -17 5 -17q9 9 14 21q-7 15 -10 15zM865 825v-6q4 -17 8 -17q12 16 12 23t-6 17q-6 -1 -14 -17zM936 853v-2q0 -2 5 -4q3 0 4 7l-4 4q-3 0 -5 -5zM975 707q-12 -8 -14 -17q0 -1 1 -1l-1 -16v-6q0 -3 3 -3h1q3 0 7 6v2zM986 710q0 -10 -2 -30v-16q0 -44 -11 -108 q-5 -7 -9 -48q0 -6 -11 -11q-61 8 -99 15h-14q-10 0 -74 -24l-11 -2q-16 0 -31 15q-16 15 -30 59q-1 9 -1 17q0 3 3 8h-2q-14 0 -54 -29q-55 -27 -83 -33q-27 -1 -41 -1q-19 0 -51 14v-2q0 -21 -82 -45l-29 -3l-26 3q-36 16 -36 34v3q0 7 3 25l-3 -2h-14q-16 0 -31 28v20 q0 7 8 16v1q-38 7 -42 27l-3 11v10q8 30 28 39q18 25 48 44q2 0 4 4v2q-5 0 -17 2l-23 7h-8q-24 -14 -51 -15h-24q-3 1 -22 4q-31 -17 -85 -28q-64 2 -71 36l-2 8q13 26 28 26q19 7 39 11q5 4 63 18q31 14 64 21q30 9 71 13q40 10 90 28q31 7 38 7h23q54 -11 101 -24 q11 0 56 -6q66 -9 102 -23q20 -5 51 -6q8 31 35 31l25 3q22 -4 50 -6h11l97 12q10 2 24 11h3q8 0 12 -8v-15q0 -21 12 -75l5 -31q0 -32 -1 -42z"/>
    <glyph glyph-name="equal" unicode="=" horiz-adv-x="1026" d="M484 980l118 -11q14 -3 42 -3h15q121 13 158 14q70 -9 131 -85q8 -13 8 -24v-12q-10 -16 -50 -49q-35 -26 -63 -26q-54 23 -67 23q-23 0 -65 -32h-12q-30 18 -51 20q-16 0 -73 -33h-8q-48 29 -112 29l-19 -1q-60 -15 -81 -15h-3q-42 12 -44 12h-8q-36 0 -43 -43h-16 q-36 15 -65 35q-42 12 -67 33q-33 38 -33 75v16q0 60 134 70h4q80 -14 100 -14h3q32 0 150 21h17zM393 616h8q4 0 46.5 -10.5t49.5 -10.5l97 18q16 0 100 -20l36 -4q27 0 116 12q132 -39 132 -96q0 -47 -96 -96l-16 -4q-32 8 -80 8q-57 -12 -112 -21l-21 -2q-77 11 -103 15 l-144 -20q-71 20 -88 20q-89 -4 -96 -4q-140 39 -140 96v12q2 52 64 81q52 19 70 19h12q4 0 58 -8h12q11 0 95 15z"/>
    <glyph glyph-name="greater" unicode="&gt;" horiz-adv-x="1051" d="M723 893l16 3h3l73 -9q8 1 11 1q43 -5 47 -11q31 0 123 -36q63 -11 63 -50v-2q0 -21 -40 -26h-8q-20 1 -36 2t-36 6q-41 4 -48 4h-34q-24 0 -58 6h-21q-7 -5 -7 -8q37 -19 39 -19q32 -29 37 -57v-21q-8 -34 -45 -34h-13q8 -19 8 -24v-12q0 -18 -5 -25q-9 -18 -45 -21 l-16 3h-2l2 -13q0 -31 -52 -45q-33 3 -39 3q-78 15 -92 32q-45 8 -65 15q0 -1 -2 -1q-4 0 -17 4l-58 11q-49 25 -67 25q-4 0 -7 -1l-9 -7q-18 -88 -53 -88h-39q-13 0 -31 5q-3 0 -42 -8h-29l-13 3q0 -3 -8 -3h-11q-9 0 -18 39q0 12 5 21q21 9 21 16q-5 0 -16 -8h-5 q-5 0 -5 5v3q0 17 5 37q-5 17 -5 23v37q10 13 10 16q-7 14 -7 21q0 8 2 49q0 2 -2 16q5 25 10 34l-8 16q3 18 3 29q0 39 21 39q20 0 78 -8q35 8 79 8q11 0 21 -5l42 -26q144 20 186 31l16 1l154 9h18q8 0 21 -5zM211 811l2 -10h6v2q-4 8 -8 8zM129 809v-7l2 -14h3q6 0 8 16 l-5 8q-5 -3 -8 -3zM171 796q0 -8 5 -8q6 0 8 16l-3 5q-5 -1 -10 -13zM190 750q1 -11 7 -11l3 1l5 9l-4 13q-6 0 -11 -12zM158 760h-3q-8 -5 -8 -8v-8q0 -13 8 -16q2 0 13 13q-4 19 -10 19zM110 752q-7 -8 -7 -17v-10h5q4 0 8 21zM218 723q-5 0 -8 -16l8 -13q5 1 10 13 q-5 16 -10 16zM661 712h-6v-2q3 0 8 -3h5v3q-2 0 -7 2zM173 710v-5q0 -8 6 -16q4 0 5 5v3l-3 13h-8zM129 710q-5 0 -5 -5v-11q0 -19 7 -21q7 0 11 18q-9 19 -13 19zM200 663q-6 0 -6 -6v-5q0 -5 6 -5h2q5 0 5 5v3q-4 8 -7 8zM163 660h-3l-2 -13v-16h7l3 19v5q0 4 -5 5z M110 652l-10 -2v-3q4 -29 13 -29h3l2 13v19q-2 0 -8 2zM620 639h-10q3 -12 17 -12h2v3q-6 9 -9 9zM223 623v-13q5 0 5 6v7h-5zM184 613l-3 -18h3q4 0 5 5v13h-5zM139 597q-4 0 -8 -10q0 -8 6 -8h5l2 13q0 4 -5 5zM210 587v-11h5v5q0 5 -5 6zM163 568v-21q0 -5 5 -5q8 4 8 8 v5q0 7 -5 16q-5 -3 -8 -3zM222 548v-2h6v8q-6 0 -6 -6zM126 545q0 -3 -2 -8q0 -3 2 -8q5 0 5 5v11h-5z"/>
    <glyph glyph-name="question" unicode="?" horiz-adv-x="980" d="M561 309q26 -31 68 -79q15 -55 15 -82q0 -7 -1 -12l-4 -33q-8 -29 -35.5 -67t-108.5 -58l-42 -3q-157 53 -157 199l1 10q36 85 61 102q18 18 63 34q16 5 40 5q40 0 100 -16zM412 395q-22 46 -40 114q-10 48 -10 91q0 23 3 45q0 59 8 85q14 51 38 92q13 44 91 92 q95 37 152 56q50 46 54 115q-14 48 -52 49l-40 -7q-13 0 -27 48q-31 13 -40 13q-28 0 -68 -47h-8q-8 0 -12 40q-15 12 -28 13h-5q-64 0 -80 -91q3 -50 3 -60q-14 -108 -126 -138q-33 -8 -56 -8q-20 0 -32 6q-76 22 -106 99q0 47 13 130q42 144 151 182q100 38 138 73l24 4 q47 -9 60 -9q9 0 80 19l16 -1q124 -24 175 -28q54 -36 115 -76q51 -22 74 -110q41 -44 43 -64q-33 -80 -35 -176q-2 -18 -49 -79q-40 -54 -107 -87q-54 -19 -83 -30q-76 -23 -78 -99v-4q0 -15 19 -83v-12q-18 -58 -35 -102l-45 -80q-17 -8 -33 -8q-33 0 -62 33z"/>
    <glyph glyph-name="at" unicode="@" horiz-adv-x="1689" d="M879 1284q63 -10 124 -10h11q136 -24 199 -64q249 -128 249 -228q84 -85 99 -293q1 -94 1 -143q1 -43 1 -52q0 -24 -8 -37q-41 -86 -81 -224q-62 -105 -107 -111q-49 -24 -94 -24h-18q-145 0 -266 51q-10 4 -23 4q-22 0 -53 -12l-17 -2q-55 -11 -120 -21 q-208 16 -281 166q-33 45 -33 53v22q1 42 1 81l-10 52q10 102 42 188q97 124 135 124q40 0 40 -33q0 -19 -13 -49l-8 -92l-42 -89q4 -82 34 -152l57 -54q33 -54 116 -54q21 0 45 3q52 32 52 75q29 36 65 99q41 71 41 115q0 13 11 81l28 79q1 7 1 14q0 69 -74 100 q-65 28 -99 28q-8 0 -14 -2q-81 -36 -136 -57h-62q-21 0 -21 20v11q95 125 240 125l46 -5l47 5q19 0 78 -38l35 -14q9 -5 24 -5q19 0 47 7l23 -10l3 -102q-14 -39 -14 -74q0 -36 4 -115l-43 -151q-11 -129 -11 -186q2 -23 63 -63q127 0 166 209q41 156 41 312 q-51 147 -51 177v32q-25 0 -156 103q-139 43 -334 74h-5q-87 0 -234 -94q-57 -13 -135 -94q-70 -103 -113 -246q-20 -96 -20 -108q0 -18 -4 -124l13 -61q0 -20 3 -57t35.5 -113t193.5 -240q0 -6 42 -25q31 -22 107 -31q139 5 158 5l206 21q23 0 190 52l10 -20v-31 q0 -102 -197 -178q-20 -14 -58 -14q-21 0 -47 4q-17 0 -62 -21l-73 10q-26 0 -83 -10q-218 0 -427 177q-229 206 -229 490q21 67 21 94v187q28 27 156 281q57 62 135 103q108 105 140 128l84 40q130 10 141 10q66 21 72 21z"/>
    <glyph glyph-name="A" unicode="A" horiz-adv-x="1250" d="M636 1382q32 -32 78 -133l33 -68l14 -74q22 -32 39 -81v-44q1 -40 35 -81q5 -8 5 -12q0 -48 4 -74q30 -71 64 -105v-6q0 -126 44 -184v-8q0 -76 37 -213q34 -73 76 -125q39 -10 75 -51q30 -27 39 -52q11 -44 11 -67q0 -25 -13 -25q-4 0 -9 2q-45 10 -55 11h-3 q-10 0 -32 -6l-46 -15l-12 -1l-82 6l-15 -1l-88 -6q-53 7 -93 39q-40 28 -48 71q-2 10 -2 18q0 22 16 22q2 0 5 -1q30 0 60 21q43 43 43 93q0 8 -1 16v17q-36 92 -122 92q-8 0 -80 -17q-44 4 -72 4q-113 -8 -113 -88v-4q-1 -6 -1 -13q0 -56 73 -105q50 -31 50 -71l4 -42 l-50 -39l-13 -2l-100 9l-85 -21h-10l-58 16h-12l-55 -8q-82 0 -122 92q-11 25 -16 49v2q0 13 42.5 16t70.5 29q37 22 82 105l50 125l30 155q57 135 64 176l13 139l6 20l61 144l16 112l4 12q38 46 73 139q41 57 76 95zM583 907l15 -41l-46 -66l-3 -85l-2 -40l-19 -31 q-21 -41 -26 -63v-5q0 -20 37 -44q15 -6 38 -6q16 0 36 3l7 -1q20 -6 43 -6q13 0 25 1q59 11 66 51l-11 23l-6 48q-12 59 -49 99l-6 101q-42 73 -42 97l-1 35l-17 2q-39 -53 -39 -72z"/>
    <glyph glyph-name="B" unicode="B" horiz-adv-x="1484" d="M330 1293q55 5 74 5q83 -23 166 -25l71 13q49 -26 177 -30q31 10 48 10h3q11 0 75 -37q37 -11 87 -22q2 -28 62 -81q49 -36 69 -165q15 -90 15 -94q0 -26 -65 -91q-15 -33 -21 -61v-2q0 -51 109 -127l-1 -5v-5q0 -80 56 -182v-4q-6 -58 -8 -85q10 -56 10 -70v-4 q-48 -29 -50 -91q-5 -19 -6 -54q21 -23 23.5 -23.5t10.5 -1.5q14 5 35 60q16 15 41 15h3q28 -9 28 -31q0 -9 -5 -21l-19 -41q-34 -29 -68.5 -39.5t-90.5 -13.5q-28 -6 -129 -11q-42 -19 -54 -19l-39 2h-5q-42 0 -115 -23q-6 -3 -13 -3h-11q-8 0 -106 20h-13l-114 -12h-12 q-43 0 -159 -13q-6 0 -103 15h-40q-135 2 -141 35q-1 7 -1 14q0 32 28.5 72.5t103.5 112.5q26 40 26 51q-6 33 -6 38q17 62 18 74q0 36 -28 105l1 12q31 33 33 61v17q0 47 -32 100q2 47 36 127v1q0 13 -29 55l26 81q-6 9 -19 113q13 36 13 43v1q0 34 -59 68q-83 65 -83 87 l2 35q2 41 73 41h6q102 3 116 3zM714 1146q-28 2 -49 6h-16q-84 0 -138 -41h-4q-47 0 -60 -67l-2 -82q-1 -38 -22 -120v-3q0 -51 51 -53q14 -54 59 -56q49 5 69 5h6l134 -25q10 0 80 29h6q54 0 81 55q65 40 66 51q-6 27 -6 50v6q28 11 31 53l5 35q0 33 -87 104 q-30 39 -59 41h-4q-19 0 -38 -7q-33 45 -45 45h-7q-11 0 -51 -26zM563 1106l12 -1q6 0 15 -16q0 -5 -12 -11l-12 1q-5 0 -11 12v7q2 8 8 8zM540 1012q23 -9 23 -27q-7 -18 -25 -27l-8 1q-21 0 -30 20l1 8q20 26 38 26zM1251 636q56 -41 56 -78v-1q-5 -15 -28 -23 q-35 1 -52 76q3 26 24 26zM656 527h-4q-35 44 -101 46h-2q-31 0 -65 -51q27 -53 27 -64l-1 -27q-60 -47 -61 -79v-20q0 -42 42 -43q17 -17 17 -25q-5 -45 -5 -66q4 -42 35 -43q8 0 74 44q7 3 15 3q31 -22 39 -42v-2q47 -56 104 -58q130 4 149 45q14 14 67 36q46 63 46 80 q-8 48 -8 68v3l32 68q-45 134 -152 184l-21 2q-17 0 -31 -8q-50 18 -68 19q-11 0 -75 -37h-2q-20 0 -51 -33zM1349 477q20 -1 41 -71q-2 -25 -37 -31h-4q-33 7 -33 33v4q15 65 32 65h1zM614 494q35 -11 35 -21v-8q0 -16 -56 -25h-8q-4 1 -10 13v3q8 38 38 38h1zM572 375 q20 -1 41 -33q0 -9 -31 -10q-23 0 -30 24q0 10 20 19zM1382 312h1q6 0 12 -10l-8 -91q-30 -44 -50 -47h-5q-6 0 -17 18q17 125 44 127zM615 272q19 -11 19 -32v-4q-1 -7 -8 -7l-9 1q-10 0 -14 31v4q1 7 7 7h5z"/>
    <glyph glyph-name="C" unicode="C" horiz-adv-x="1212" d="M665 1276h12q14 0 100 -46q20 -8 53 -8h7q139 25 152 25q41 0 52 -56q0 -29 -13 -93l-4 -12q7 -27 18 -60v-10q-20 -51 -22 -64v-1q0 -9 13 -34l15 -21l-2 -10l-20 -59l-9 -65q7 -30 7 -50q0 -36 -23 -36h-12q-54 61 -97 121l-51 110q0 46 -35.5 110t-146.5 86 q-34 20 -73 20q-18 0 -63 -40q-75 0 -112 -80q-82 -64 -88 -112q-48 -45 -48 -72q0 -4 16 -56v-8l-28 -92q4 -48 4 -72q-16 -44 -16 -52q0 -12 36 -64q0 -101 100 -136q12 -15 12 -24l26 -75q35 -56 106 -97l20 -4l68 28q8 0 71 -10q63 10 109 82q48 118 76 132l92 72h12 q68 -58 84 -120q-8 -84 -24 -114.5t-88 -133.5q-75 -20 -160 -80q-63 -36 -171 -36h-17l-68 24h-52q-91 13 -146 73q-50 55 -105 94q-20 65 -33 115q-31 57 -36 166q-20 51 -20 68q8 36 8 52v12q-28 67 -28 96v32q40 119 44 141t4 35l12 77l8 19q75 92 86 151l8 11 q51 13 114 82q76 24 132 48q19 0 40 -4q25 0 94 25z"/>
    <glyph glyph-name="D" unicode="D" horiz-adv-x="1345" d="M330 1317q13 0 58 -35q25 -8 31 -8q108 0 163 27h8q31 -35 39 -35q20 0 106 23q96 -20 189 -73q88 -43 101 -93q17 -43 47 -57q19 -3 36 -3q14 0 28 2l4 -13q-3 -18 -10 -46q-3 -14 -3 -27q0 -29 17 -49q32 -26 32 -51v-1q-11 -34 -11 -50q0 -8 23 -59q-12 -50 -12 -66 q0 -40 39 -108l-39 -140q4 -42 4 -74v-8q0 -19 39 -46v-8q0 -11 -36 -34q-21 -11 -30 -28q-47 -49 -51 -66.5t-15 -53.5l-9 -13q-84 -85 -150.5 -117.5t-109.5 -46.5l-21 2l-84 -7l-74 -18l-17 2q-70 17 -113 25q-11 2 -24 2q-39 0 -98 -16l-19 1l-58 18l-42 1 q-83 0 -175 132v19q11 27 27 27l20 -4h15q21 0 58 12l39 -4q66 0 74 82q12 42 12 50l-20 70q0 3 27 78q-27 120 -27 139q0 10 27 144q13 63 13 107q0 9 -1 17q0 6 -18 76q14 43 14 76q0 78 -62 109q-14 20 -116 54q-66 44 -70 54v12q0 14 97 50q96 0 116 47h12zM643 1081h-4 q-12 0 -84 29l-23 4q-55 0 -58 -103q10 -41 14 -50l5 -22l-6 -33v-2q0 -21 41 -88q12 -31 12 -44v-4q-35 -76 -35 -85v-4q0 -29 128 -153q7 -3 31 -64l-8 -4h-27q-27 9 -27 48q0 25 -8 44h-35q-54 0 -54 -72q0 -61 35 -89l21 -18q18 -21 48 -38q26 -25 51 -25q55 13 58 13h4 q5 0 19 -21q-8 -16 -19 -16q-52 8 -66 8h-70q-15 0 -66 12q-15 -4 -15 -24v-12q0 -52 147 -84q21 0 74 16q30 -14 49 -14q44 0 101 53q52 59 52 102q0 27 70 125q15 32 15 44q0 23 -38 79v20q0 8 38 54l7 23q-3 16 -46 86v20q0 12 20 64v21q-2 10 -29 64q-36 39 -82 39h-2 l-11 16q-16 67 -66 81q-30 37 -75 39q-33 -5 -78 -31zM577 790h4q23 -18 41 -65q-9 -23 -16 -23q-25 7 -35 31l-4 25q-1 5 -1 10q0 15 11 22z"/>
    <glyph glyph-name="E" unicode="E" horiz-adv-x="1368" d="M751 1293l92 -16q16 4 121 8q75 -5 118 -39q31 -33 69 -89q8 -52 8 -96q-24 -119 -24 -132l12 -96q0 -21 -20 -32h-8q-38 0 -84 100q0 83 -68 152q-26 60 -60 60q-124 -16 -161 -49h-15l-36 22q-18 7 -37 10q-76 -10 -111 -31q-48 -33 -48 -96v-16q36 -75 36 -92 q0 -52 44 -68q7 0 40 -40q29 -12 32 -12q59 0 76 84q-20 62 -20 72q10 24 24 24q100 -35 110 -76q8 -15 14 -36v-4q0 -12 -12 -80q0 -30 32 -100q-24 -52 -24 -72v-4q0 -21 24 -100v-4q-19 -48 -100 -48h-12q-13 0 -72 140q-28 28 -124 28q-60 -11 -60 -80q-8 -55 -8 -60 q0 -22 48 -60q4 -7 4 -16q-24 -40 -24 -52v-4q1 -34 39 -34l42 11l20 -8l17 -35q25 -30 146 -30q9 0 68 16l48 -4q24 3 84 64q10 13 16 36q-8 32 -8 48q72 64 104 136h12q14 0 32 -100q0 -24 80 -44v-12q-56 -39 -56 -56v-4q0 -31 44 -36q22 4 36 4h16q9 0 12 -20 q-85 -46 -100 -76v-12q36 -43 36 -112q0 -28 -115 -47q-43 3 -90 6h-4q-40 0 -120 -18q-97 19 -99 19q-99 -4 -168 -20q-99 10 -103 14l-128 -15q-32 8 -48 8l-157 13q-60 0 -67 80v8q15 37 86 69q63 11 113 91q44 30 44 112v4q0 12 -16 60q16 100 16 116t-12 68v8 q0 22 16 128q0 10 -20 92q4 11 12 76q-24 74 -32 160q-23 47 -192 52q-32 23 -32 68q0 46 92 74q40 18 92 30l88 -12q60 4 148 20l72 -16h20z"/>
    <glyph glyph-name="F" unicode="F" horiz-adv-x="1317" d="M972 1299h42q87 0 152 -97q20 -22 40 -42l-5 -32l31 -54v-4l-12 -39v-23q19 -25 19 -39q0 -8 -31 -58l-3 -23l23 -74q-8 -9 -27 -30q-37 -19 -66 -19h-12q-101 69 -101 115v50q0 28 -43 74v4q5 21 5 49q0 9 -1 19q-7 45 -43 45h-23q-12 0 -104 -35h-17q-65 38 -85 38 q-33 0 -58 -38q-127 -6 -128 -78q-10 -13 -10 -28q0 -10 4 -20q8 -26 18 -64l4 -8v-4q-13 -37 -13 -82q0 -11 1 -23q11 -27 35 -27q4 0 43 7q56 -7 58 -7q31 0 52 86q30 50 65 65q15 8 61 12q24 0 24 -27v-43q0 -11 35 -101v-27q0 -4 -8 -31v-16q31 -81 31 -97 q0 -14 -23 -85v-4q0 -21 23 -70q-23 -70 -82 -70q-21 -4 -31 -4q-14 0 -70 62q-28 23 -46 113q0 5 -12 12h-19q-92 -19 -111 -58q-21 -67 -21 -78q0 -23 17 -53l2 -12q-6 -16 -6 -32q0 -43 45 -80q28 -72 100 -82l11 -5q41 -42 91 -47q28 -19 62 -31l8 -12v-7q0 -8 -47 -34 q-16 -15 -118 -41l-80 -1l-163 -25q-24 0 -81 7q-10 1 -21 1q-46 0 -97 -11q-63 16 -115 53q-51 38 -51 54q0 9 54 29q26 12 59 50q66 15 107 69q25 10 40 74q0 11 -12 88v12q25 71 27 107l-13 64l-2 15q13 37 23 117l-13 82l-1 18q7 51 7 54v12q0 12 -4 60v15q12 38 12 59 v15q0 69 -82 120q0 11 -31 16h-12q-24 0 -58 -4q-62 11 -62 27v47q0 81 105 101h8q3 0 58 -12q38 12 50 12q10 0 47 -8q60 16 70 16l77 -20q18 0 47 16q46 -4 66 -4t54 8q34 -4 59 -4h7q5 0 39 11h12l39 -11h11q49 15 94 15z"/>
    <glyph glyph-name="G" unicode="G" horiz-adv-x="1326" d="M597 1083q12 -6 12 -32q0 -10 -2 -24l-4 -10q-14 -22 -31 -22q-7 0 -15 3q-10 4 -10 29v9q27 48 45 48q3 0 5 -1zM590 241q16 -29 35 -36l67 -21q47 3 124 70q48 0 105 124l4 19q-7 86 -51 86q-35 -12 -46 -12h-8q-57 28 -78 97q-7 31 -7 39v8q22 31 46 31l66 9l84 18 q18 -4 40 -4q36 0 82 12h4q61 -20 95 -20q95 -11 100 -45l-1 -9q-2 -46 -109 -105q-51 -50 -54 -93v-47l32 -118q-5 -66 -5 -80l4 -50q-1 -20 -18 -92l-17 -13l-35 -23q-23 7 -71 18l-23 28q-6 2 -13 2q-13 0 -27 -8l-25 -13q-126 -27 -206 -54h-12q-94 0 -198 50l-84 24 l-24 34l-100 78l-28 74l-38 47l-17 75q-6 43 -39 80q0 8 -4 15q12 80 12 109l-19 74q23 96 23 128q-5 34 -7 88l-1 49q41 76 58 150q18 24 51 86q31 30 64 85q23 21 63 49q34 19 73 48q32 6 89 19q63 4 76 4q36 8 58 8q35 -11 64 -19l73 4q11 0 80 -26h20q75 9 78 9h15 q60 0 93 -38v-11q-58 -36 -58 -117q0 -12 23 -62v-4l-11 -39v-4q19 -58 27 -135v-4q0 -42 -58 -51q-85 0 -159 229q-68 81 -113 81h-16q-16 0 -73 -23q-10 0 -59 31h-11q-31 0 -103 -42q-17 -9 -50 -66q-46 0 -82 -54q-18 -35 -18 -51l4 -47l-27 -58q0 -9 4 -58q0 -5 -4 -39 q8 -27 8 -46q-27 -72 -27 -78v-31q0 -12 39 -74v-21q0 -35 3 -67q18 -70 74 -121l38 -59q21 -21 34 -21q16 0 22 32v9q0 19 -6 45q-1 12 -1 22q0 21 4 31l10 6l4 1q4 0 6 -4l2 -4l13 -41q3 -4 33 -43zM475 459q-2 8 -2 14q0 15 7 17l12 4h2q11 0 28 -43q1 -9 1 -14 q0 -11 -4 -12l-8 -2q-26 5 -36 36zM486 663q31 -10 31 -35v-7q0 -6 -15 -16h-8q-35 5 -35 35v4q12 19 27 19zM529 899q9 -19 12 -19q-5 -78 -28 -78h-4q-27 0 -27 27q24 70 47 70z"/>
    <glyph glyph-name="H" unicode="H" d="M963 1235q84 -21 147 -21q69 -15 85 -81v-8q0 -24 -86 -72q-44 -29 -57 -65q-6 -16 -6 -38q0 -29 10 -68q-29 -94 -29 -153v-20q7 -78 7 -95q0 -14 -11 -85q2 -30 9 -69q-2 -29 -2 -60q0 -58 8 -123q23 -114 73 -144q15 -18 78 -64v-19q0 -85 -92 -97q-71 4 -140 11 q-109 -11 -120 -11q-67 0 -140 124v16q13 12 86 36q69 59 76 80q24 33 24 143v33q-15 87 -46 121q-28 35 -58 35h-4q-21 0 -48 -32h-16q-33 24 -56 24q-8 0 -56 -28h-16q-36 28 -52 28h-4q-96 -32 -96 -108v-7q0 -48 12 -110q24 -54 24 -67v-36q0 -73 128 -116v-12 q-18 -47 -64 -92q-27 -24 -52 -32q-7 -2 -20 -2q-36 0 -121 18l-39 -4q-56 -12 -72 -12q-77 9 -106 60q-4 9 -10 47q0 22 75 52q85 58 85 101v64q20 172 20 180v12q0 22 -12 104q12 87 12 132q0 9 -14 128q11 51 12 94l-1 14q-29 96 -44 116q-117 73 -117 92q-7 0 -8 28v8 q0 6 16 16h32q21 0 95 33h4q6 0 45 -13q34 4 56 14h8q22 -10 60 -18q45 12 56 12q56 -31 56 -68v-12q0 -56 -84 -76q-56 -69 -56 -132v-12q0 -18 16 -80l-5 -80v-12q0 -45 65 -68q31 -7 41 -7q53 13 75 13q58 -14 64 -14q61 17 70 17q51 -16 72 -16q86 19 86 63q4 27 4 50 q0 13 -1 25q-3 49 -11 81q4 23 4 61v16q-7 35 -44 85q-36 50 -96 50l-16 16v16q46 61 134 67q76 23 98 23z"/>
    <glyph glyph-name="I" unicode="I" horiz-adv-x="1168" d="M729 1283h8q84 -11 88 -11q46 -2 79 -2q94 0 159 -83v-12q-62 -83 -95 -83l-83 -13h-100q-98 -18 -103 -74l-2 -29q3 -35 22 -81v-4l-16 -73q-3 -6 -3 -15q0 -15 7 -39l15 -67l-19 -61q0 -71 29 -112q-17 -89 -17 -95q0 -41 50 -71l4 -8q-21 -49 -21 -79v-17 q0 -62 102 -98q68 -32 170 -57l98 -24q9 -9 9 -20q0 -13 -20 -34t-95 -40l-58 -21q-31 8 -58 8h-5q-37 -2 -95 -5q-33 3 -90 7l-96 -11l-18 2q-48 14 -141 21l-166 -10l-58 21q-73 22 -109 67v12q0 18 87 33l86 33l67 23q100 19 118 48q16 27 25 68v8l-14 65l2 25l11 33 q7 17 7 41q0 16 -3 34q-8 29 -8 45q29 49 29 71q0 17 -34 103v4q34 76 34 108q0 27 -29 79v4q8 62 8 66v5q0 86 -83 99q-50 -8 -54 -8q-43 20 -54 20h-25q-14 0 -37 -4q-59 0 -141 96v4q0 37 120 91h9q10 0 62 -4l58 12l74 -12q78 8 114 16q110 -4 135 -4q47 9 64 9z"/>
    <glyph glyph-name="J" unicode="J" horiz-adv-x="1174" d="M956 1259q36 -10 65 -22q67 -9 116 -68l4 -20q-17 -45 -90 -59q-2 0 -80 -5q-48 0 -84 -124q8 -122 24 -208q-20 -64 -20 -80q16 -66 16 -80q0 -12 -8 -104q0 -9 16 -104q-12 -53 -26 -184q-40 -47 -92 -124q-161 -123 -284 -152h-4q-161 24 -216 68q-106 37 -160 100 q-52 87 -61 228l9 112q0 13 40 96q7 18 24 28h12q37 0 104 4q96 -49 96 -132q0 -13 11 -52v-8q0 -6 -43 -50q-28 -29 -28 -70q0 -55 104 -100q5 -4 28 -4q164 6 164 44q69 66 92 92q36 44 36 116v12q0 4 -9 63q0 10 17 57q12 30 12 52q-10 74 -10 82l14 74q-20 139 -20 164 v56q-40 105 -71 122q-27 5 -53 12q-43 11 -80 30q-30 22 -32 48v4q0 44 76 65q60 10 93 23q58 -20 71 -20l56 16q7 -4 72 -12q15 0 52 8q43 6 47 6z"/>
    <glyph glyph-name="K" unicode="K" horiz-adv-x="1495" d="M407 1270q13 0 112 -29q136 -22 136 -35q4 0 4 -4v-16q0 -49 -92 -124q-3 0 -32 8h-4q-44 0 -60 -104l-4 -24l28 -96v-36q0 -21 16 -28h12q36 0 84 84l73 49l13 16l30 63q40 16 40 76q0 29 -56 56l-4 20q26 64 80 64q17 0 136 44h8q68 -16 92 -16h48q36 0 92 20 q67 -37 116 -96q8 -19 8 -32q0 -23 -28 -24h-4q-17 0 -44 4q-23 0 -95.5 -22t-154.5 -90q-45 -48 -66 -105l-6 -8q-60 -40 -102 -103q-10 -14 -10 -28q0 -6 2 -12q40 -74 40 -84q-12 -56 -12 -80q5 -40 40 -40h12q52 12 56 12h8q8 0 12 -28l-20 -84v-12q12 -24 36 -24 q18 7 40 28h16q15 0 28 -64v-4q0 -5 -8 -44q21 -32 136 -32q12 -3 56 -88q136 -80 188 -124q29 -30 48 -76q-39 -32 -64 -32q-63 12 -88 12l-143 -27q-21 8 -129 15l-120 -12q-133 19 -220 48h-16q-17 0 -108 -40q-23 11 -55 11q-38 0 -89 -15l-80 12q-60 -8 -124 -8 q-71 0 -112 96v4q28 43 111 86q66 38 85 206v8q-16 59 -16 64q32 121 32 200l-20 144v12q0 21 28 104v12q0 8 -28 52q4 40 4 60q-26 36 -84 68l-60 26q-32 13 -36 57v7q0 37 50 52q113 27 238 50zM899 758l8 -12v-4q0 -57 -40 -80h-12q-6 0 -12 12v12q16 72 56 72zM483 418 q21 -125 37 -170q-1 -5 -1 -9q0 -62 182 -145q125 67 134 84v12q0 13 -65 135q-18 74 -117 106l-77 91q-2 0 -24 8q-64 -56 -69 -112z"/>
    <glyph glyph-name="L" unicode="L" horiz-adv-x="1300" d="M565 1265q47 -20 60 -21q26 8 36 8h8q103 -38 103 -65v-21q-21 -48 -113 -70q-13 0 -65 -67q-53 -35 -53 -71q0 -9 43 -57v-8q-8 -34 -58 -91l-4 -20q23 -60 23 -72v-12q-1 -15 -25 -68l-1 -12q23 -58 23 -60q-3 -52 -8 -52q26 -84 41 -165q-12 -36 -13 -48v-34 q0 -81 74 -101q7 -4 20 -4h4q18 -1 88 -20q51 -9 68 -9l96 30q64 18 64 84v10q16 37 16 79q0 31 -9 64l37 72q50 41 74 41q75 -24 75 -41v-4q-10 -19 -10 -50q0 -24 6 -55q-13 -30 -18 -58l26 -89l-5 -88l19 -121q-51 -28 -169 -40h-31l-123 -29l-75 36h-8l-188 -33 q-39 16 -48 16l-20 1q-64 -27 -68 -27q-65 25 -123 26l-59 -18q-36 1 -109 31q-51 27 -51 74q0 9 2 20l29 43l72 23l42 46q93 22 94 90l-27 47l21 108q-7 35 -7 64q0 18 9 68l-18 112v12l21 79v5q0 22 -6 84l13 111q-14 117 -66 117q-174 36 -174 94v1q-4 0 -4 16v8 q1 61 61 79q45 -20 83 -20q23 0 44 7l72 7l85 -17q20 0 100 25h4z"/>
    <glyph glyph-name="M" unicode="M" horiz-adv-x="1430" d="M319 1309h15q20 -15 51 -15l35 3q84 0 105 -77q0 -11 38 -74v-8q0 -21 -1 -78q0 -34 64 -61l-10 -78q45 -6 45 -32q0 -9 -8 -42v-4q-4 -10 -4 -19q0 -29 40 -55q15 -23 15 -46q0 -12 -5 -25l-15 -41q4 -50 4 -58q0 -35 31 -35q28 0 35 66q46 39 46 73q0 13 -39 97v16 q0 9 43 23l12 16v27q0 18 -51 109v4q0 15 16 23h15q26 -19 39 -19h8q19 9 19 31v3q0 29 -50 55q0 4 -4 11q0 29 66 39q47 36 47 66q-4 21 -4 24q0 29 143 77q38 -8 47 -8q45 7 65 7l27 6q35 -1 37 -102q-16 -38 -63 -66q-16 -17 -16 -35q8 -34 8 -62q-9 -46 -11 -46l3 -20 v-50q0 -27 8 -74q-4 -85 -4 -113l16 -50v-12q-20 -58 -20 -70q0 -9 20 -85q-16 -65 -16 -82l35 -182v-8q0 -4 -7 -43v-11q0 -41 118 -97q20 -32 20 -54q0 -51 -100 -55q0 -10 -205 -16q-105 14 -105 39q-25 39 -31 39h-16q-8 0 -50 -51q-13 -9 -35 -15q-60 8 -156 12 q-100 -39 -159 -39h-194q-66 -8 -74 -8q-59 0 -81 97q57 66 97 81q43 50 43 129q-12 55 -12 66q12 60 19 151q4 0 4 20q-23 124 -23 132q12 54 12 70q0 15 -20 85q12 62 12 78q0 28 -8 50q4 33 4 51q0 20 -4 66q8 36 8 46q-12 35 -27 35q-4 0 -46 23l-7 8q-44 51 -44 70v19 q10 66 46 66h4q60 -15 78 -15h4q27 0 58 27zM950 780q16 -47 16 -64q-39 -81 -39 -107v-4q19 -54 19 -67v-4q0 -18 -39 -88q20 -65 20 -67q0 -48 -64 -99l-4 -40v-8q0 -55 56 -55q31 10 31 35v40q0 34 84 63q12 14 12 40q0 14 -52 79v16q0 9 56 44v16l-32 107v4q0 31 32 99 v4q0 35 -64 91h-8q-19 0 -24 -35zM439 625v-20q0 -61 35 -61h16q15 11 15 48v13q-20 177 -59 195q-16 -8 -16 -65q0 -41 9 -110zM427 412q0 -15 35 -58v-16q-23 -50 -23 -101v-3q0 -40 58 -74q14 -23 47 -23h16q6 0 15 15v19q0 24 -47 55q0 4 -3 11q27 47 27 55 q-20 77 -43 120q23 48 23 55v15q0 6 -15 16h-4q-46 0 -86 -70v-16z"/>
    <glyph glyph-name="N" unicode="N" horiz-adv-x="1295" d="M169 1222q15 6 77 14l80 -13q40 1 97 15q31 -13 75 -36q43 -22 61 -68v-44q15 -64 76 -100q37 -18 40 -50q14 -60 14 -79v-4q0 -17 12.5 -44.5t40.5 -40.5q39 -21 39 -49l23 -97q22 -55 71 -80q30 1 34 56l-16 81q21 55 21 69l-2 25q0 6 -15 71q18 51 18 88 q-18 35 -18 43q4 33 4 51q0 12 -14 25t-56 23q-37 14 -54 30l-30 42q10 32 28 44t26.5 17.5t35.5 12.5t29 7q50 -11 59 -11l87 16l16 -1l129 -33q32 -5 47 -32v-8q-7 -44 -109 -88q-39 -19 -40 -56l9 -42q-9 -47 -9 -54l15 -63q-15 -56 -15 -89q0 -26 9 -57 q-13 -53 -13 -151q0 -3 4 -56q5 -65 9 -80l-13 -112v-52l13 -32q-5 -78 -5 -84v-36q-11 -121 -33.5 -126.5t-42.5 -5.5h-12q-54 0 -140 128q0 33 -76 109v16l-5 54q0 62 -96 161l-5 17q2 49 2 71l-45 34l-9 14l-2 56q0 41 -80 88l-4 8v44q0 8 -8 8q-31 0 -64 -64v-8 q8 -38 8 -60v-4q0 -9 -32 -96q0 -13 44 -88v-12q0 -20 -8 -76q8 -51 8 -96v-4q-12 -40 -12 -52q11 -72 79 -101l93 -72v-21q-11 -29 -53 -50l-24 -8l-39 -10l-56 -12q-66 20 -84 20q-13 0 -86 -16q-13 0 -58 36q-23 11 -64 18l-54 45l2 27q124 56 132 76q56 84 56 160 q-8 47 -8 60l24 124v8q0 9 -16 60l4 48q-16 92 -16 112q12 49 12 68q0 17 -12 108q16 69 16 76q-10 43 -39 82q-24 14 -29 14h-1q-58 26 -97 76l-10 16q10 35 50 52z"/>
    <glyph glyph-name="O" unicode="O" horiz-adv-x="1282" d="M644 1308q54 -28 64 -28h8q5 0 56 24h12q8 0 56 -64q26 -8 32 -8q3 0 24 4q43 0 75 -112q18 -16 20 -16l52 -41q16 -4 36 -102l48 -63v-12q-29 -41 -29 -66v-24q0 -20 34 -60q0 -28 -32 -124q0 -22 44 -64q4 -7 4 -16v-4q-24 -68 -32 -156q-28 -33 -28 -104q-5 0 -44 -93 q-13 -31 -18 -34q-64 -51 -78 -116l-8 -4h-12q-4 0 -67 -9l-46 -18q-68 -33 -189 -33h-21l-110 28q-46 13 -58 13q-21 4 -62 40q-33 32 -63 54q-26 22 -61 91l-49 63l-22 62q-28 41 -44 84v68l-28 100v8q24 92 24 100q-4 27 -4 44v24q0 11 36 100q0 73 40 112q21 75 88 164 l21 41l55 27q58 55 160 100l20 4l36 -4q49 20 60 20zM360 756q0 -48 24 -140q-4 -27 -4 -44v-12q0 -83 64 -112l68 -84h4l62 6q36 0 46 -110q12 -24 32 -24q25 0 116 60h8q52 -20 56 -20q53 0 80 92q0 19 56 52q14 21 32 160q-12 52 -12 68q16 47 16 104v24q0 25 -24 96 l4 24v12q-7 45 -41 66q-21 11 -49 16l-6 9q-8 80 -48 137q-13 16 -108 28q-41 32 -84 32h-20q-43 0 -152 -100q-36 -34 -56 -176q-64 -44 -64 -140v-24z"/>
    <glyph glyph-name="P" unicode="P" horiz-adv-x="1290" d="M503 913v-11q0 -39 39 -99q0 -13 10 -106q60 -54 89 -54h4q5 0 75 16q57 -23 73 -23h20q23 0 82 24q82 35 82 109q0 22 -19 49l-8 11q15 35 15 53v8q0 90 -125 147q-60 0 -113 25l-39 -16q-43 29 -51 29q-21 0 -107 -33q-27 -54 -27 -129zM334 233q11 22 11 42l-12 64 q0 10 4 60q-4 47 -4 68q8 36 8 52q0 25 -32 64v20q20 59 20 100q0 15 -17 122q12 70 12 88l-11 32q-21 53 -43 77q-15 18 -41 18q-9 0 -19 -2h-8q-20 0 -63.5 30t-64.5 58v8q0 24 64 52q72 24 135 49q43 -12 72 -12l77 24h17l84 -28l72 20l86 -16q34 -4 52 -4q48 12 60 12 q36 -16 124 -20q116 -72 160 -108q2 -36 66 -79l5 -10l1 -59q0 -16 -4 -72l30 -100l-50 -100q0 -19 31 -34q13 -15 13 -26v-4q0 -16 -24 -26h-5q-20 6 -31 6h-4q-29 0 -56 -56q-13 -6 -64 -35q-44 -45 -48 -45l-109 -9h-4q-6 0 -123 -39h-4q-40 5 -52 5q-51 -8 -69 -47 q-5 -13 -5 -32t5 -45l-8 -45v-20q1 -18 1 -29q0 -40 186 -117q49 -37 49 -66q0 -16 -17 -30q-88 -22 -161 -37l-61 10h-10q-56 0 -120 -21l-109 13q-23 -6 -51 -6q-25 2 -61 12q-60 22 -76 63l9 22q66 31 120 85q74 35 74 76zM1195 1066h3q16 0 26 -11l4 -11v-2q0 -6 -9 -18 l-7 -4q-21 -4 -34 -4t-17 4q-1 2 -2 5l-3 5v2q0 7 10 16q10 8 29 18z"/>
    <glyph glyph-name="Q" unicode="Q" horiz-adv-x="1325" d="M925 22v-2q0 -32 52 -51h6q46 0 103 70q61 -27 94 -65q10 -28 10 -54q0 -34 -19 -63q-83 -135 -260 -161q-7 -1 -15 -1q-55 0 -122 57q-64 56 -118 122q-41 57 -74 77q-114 45 -164.5 56.5t-96 55.5t-70.5 111q-18 36 -45 68q-29 164 -52 164l-4 8q0 6 4 56 q-44 98 -44 112q36 47 36 64q-16 55 -16 76q25 79 29 116q-1 79 -1 108q64 38 83 106q50 39 65 98q97 59 152 124q43 0 136 36q8 4 12 4q14 2 28 2q77 0 165 -50q63 -31 100 -41.5t39 -18.5q0 -72 96 -72l4 -8q-20 -52 -20 -64v-16q0 -55 88 -76l4 -8v-8q-40 -31 -40 -56 v-16q0 -23 52 -120q24 -146 24 -152l-16 -68v-8q0 -27 20 -104q-73 -115 -79 -171l-9 -45q-23 -50 -47 -92q-10 -16 -27 -34q-25 -19 -45 -30q-18 -18 -18 -36zM530 350q18 5 101 22h20q58 0 99 -19q42 -25 91 -53l21 -11q36 25 45 78q13 22 63 75q25 70 25 134q0 22 -3 44 l5 25q6 32 6 64q0 62 -24 120q7 63 7 73v4q0 25 -84 84q-23 90 -80 116q-17 23 -56 40q-24 5 -50 5q-47 0 -102 -17l-60 24q-48 -9 -48 -48q4 -50 4 -60q-14 -18 -84 -64q-38 -55 -56 -88q-8 -16 -8 -28q0 -22 48 -80q-40 -65 -40 -68q-8 -15 -8 -32q10 -35 25 -37 q5 -1 9 -1q10 0 22 5.5t20 5.5q15 -2 15 -31v-4l-4 -18q-10 -25 -23 -46l-12 -22v-16q0 -33 84 -84q15 0 28 -84q1 -4 4 -8z"/>
    <glyph glyph-name="R" unicode="R" horiz-adv-x="1330" d="M341 1252q62 -24 76 -24h36q46 0 120 24h8l92 -24h20q44 0 120 20q9 0 80 -48q110 -43 136 -120q60 -57 60 -96q0 -9 31 -89q-17 -95 -17 -154l-38 -61q-60 -63 -92 -124q-8 -45 -8 -84q8 -38 13 -68v-1q0 -24 37 -90q0 -19 11 -60q19 -34 62 -59q27 -71 131 -106 q16 -15 18 -30q-9 -62 -78 -86q-29 -16 -74 -16h-10q-114 13 -152 60q-38 48 -57 84l-27 108q-3 21 -3 49q0 44 -3 107v12q-47 128 -124 128q-12 0 -48 8q-56 -4 -72 -4q-48 8 -56 8q-46 0 -46 -100q-24 -33 -24 -60q0 -39 28 -95q-6 -25 -6 -45q0 -26 10 -44q0 -44 110 -88 q56 -31 56 -64v-28q-15 -36 -72 -36q-41 -1 -70 -2q-41 -7 -95 -17h-18l-25 2q-75 26 -259 26q-33 17 -37 35v16q0 9 66 65q57 28 89 57q32 27 35 49v11q0 28 -6 101q11 31 24 173q-4 63 -10 127v16q14 100 14 113q-16 128 -23 159l7 97q-4 48 -40 63l-32 6l-28 30 q-43 15 -56 37v8q0 46 128 92q19 0 88 32zM547 1057q-69 -36 -69 -74q0 -3 18 -48v-7q-32 -32 -32 -48q0 -4 25 -48q-14 -31 -14 -41v-11q0 -27 39 -33q0 -48 25 -48q38 11 47 11l83 -26q4 0 50 11q3 0 28 -3q10 0 83 29q50 0 72 67q12 0 18 59q14 12 14 29v11q0 15 -39 67 q0 69 -83 77q0 20 -151 30q-58 -4 -114 -4z"/>
    <glyph glyph-name="S" unicode="S" horiz-adv-x="1281" d="M803 1238h12q103 20 132 20h8q56 -34 56 -100q-11 -28 -11 -47q0 -7 1 -12l13 -43l3 -50l19 -56l-1 -28q0 -29 -43 -65l-21 1q-11 11 -131 186q-104 74 -137 74h-16q-17 0 -71 -11h-4q-14 0 -85 5q-7 4 -16 4q-60 -5 -134 -77q-31 -20 -31 -50q0 -22 16 -48 q-3 -16 -3 -30q0 -80 86 -112l114 -45q38 4 114 5q23 0 94 -57q88 -9 116 -28q1 -7 156 -104q5 0 57 -49q51 -42 63 -79q8 -54 8 -68l22 -61q-19 -34 -38 -88l-20 -65l-40 -41l-24 -58l-52 -15l-64 -56q-73 0 -132 -36l-78 8l-79 11q-70 -7 -95 -7q-89 20 -156 44 q-74 -20 -104 -20h-44q-50 12 -66 90l-7 65l-23 43v17q0 37 -7 67l-23 35l-6 47q0 54 76 68q34 0 156 -156q38 -44 127 -66q81 -3 91 -3q6 0 70 -39l57 23l74 -12q70 22 149 129l-2 106q-38 74 -54.5 87t-91.5 55q-38 40 -172 40q-48 20 -76 20q-43 -8 -56 -8h-4l-84 40 q-82 0 -132 80q-88 97 -88 128v20q0 58 -4 132q0 44 52 126q44 58 90 91q89 18 178 55l98 -1l68 20l81 -21z"/>
    <glyph glyph-name="T" unicode="T" horiz-adv-x="1318" d="M828 1293q52 -15 74 -15q42 7 55 7l147 -23q43 -32 43 -89v-55q0 -20 19 -54q-4 -91 -8 -124l22 -55q9 -69 9 -119v-8q-3 -75 -75 -75h-22q-23 0 -62 59q-7 69 -23 134v4q-7 71 -27 95q-26 39 -35 81v12l4 23q-6 20 -27 20q-24 0 -47 -66l-23 -20q-27 0 -27 82 q-15 11 -28 11q-58 -14 -58 -70v-3q0 -27 35 -66v-4q-47 -114 -47 -144q12 -42 12 -50q-27 -64 -27 -78v-51q0 -8 15 -58q0 -6 -11 -46q0 -11 35 -66v-4q-19 -33 -19 -112q0 -22 2 -49q14 -138 69 -138h4q41 0 41 47q0 20 -3 49q5 67 30 82q20 0 28 -45l10 -71 q0 -64 94 -117q58 -26 116 -44q54 -24 55 -57v-3q-42 -28 -74 -28q-52 -13 -58 -13l-51 -18l-120 -15h-19q-73 11 -78 11l-183 -15q-44 8 -81 8q-55 -20 -62 -20q-46 12 -121 20q-101 51 -101 93q120 105 132 105q13 0 55 -8q3 0 31 4q36 -8 58 -8q66 11 66 117 q-15 61 -15 73q19 83 19 101l-16 70q20 51 20 74q0 50 -35 124v20q15 57 15 62v15q0 21 -42 62v4q23 59 23 62v4q0 39 -66 47v8l47 35q6 6 7 19q0 61 -101 70q-58 0 -85 -101q-39 -29 -39 -70q0 -20 39 -50v-4q-54 -44 -54 -86q-52 -112 -82 -112h-8q-73 12 -73 73 q15 71 15 74q0 6 -12 58l4 28l-4 54l4 35q-4 21 -4 43q12 35 12 46v12q-12 50 -12 66q30 105 74 105h47q16 0 85 11q62 -7 66 -7q52 7 55 7q46 -4 50 -7q4 0 62 11q20 0 78 -4q54 4 70 4q31 -8 50 -8q53 12 62 12zM863 894h7q18 -7 18 -34q-5 -57 -23 -57h-9q-16 0 -16 40 q0 39 23 51zM867 707h4q6 0 12 -20v-19q0 -13 -23 -27q-18 13 -20 27v13q6 26 27 26zM863 547q34 -29 34 -50v-12q0 -21 -23 -39h-4q-33 37 -34 55q0 24 27 46z"/>
    <glyph glyph-name="U" unicode="U" horiz-adv-x="1268" d="M315 1325q90 -33 147 -33q11 0 20 1q12 -21 12 -88q0 -13 -80 -60q-38 -49 -38 -58q0 -4 -10 -40q0 -6 12 -72q-1 -10 -1 -18q0 -16 3 -25q2 -17 11 -42l18 -34v-16q0 -21 -9 -60l-4 -29q0 -19 36 -81v-16q0 -9 -32 -65v-16q24 -56 24 -69q0 -8 -8 -49q27 -86 88 -136 q11 -78 78 -88q10 0 21 3l85 -25l59 7q96 33 110 126q40 26 41 97v8q-20 50 -20 53v4q32 34 32 53v28q0 46 -32 77v12q28 59 28 61q0 12 4 29q0 13 -28 93q33 63 33 97v12q0 30 -33 74q0 5 -4 12q1 14 1 25q0 22 -5 31q-16 51 -108 73q-8 26 -8 28q0 37 112 94q22 0 77 -4 q48 4 108 10q116 -21 116 -37q18 -5 18 -28q0 -7 -1 -14l-7 -18q-27 -24 -57 -53l-36 -49q-35 -35 -39 -150q-7 -50 -7 -90q0 -61 17 -94q-20 -52 -20 -69v-8l28 -59q0 -10 -16 -75l17 -92q-24 -77 -24 -155q0 -26 3 -53v-4q0 -27 -68 -98q-48 -137 -137 -147 q-66 -39 -96 -39l-29 4q-5 0 -64 -16q-32 8 -76 8h-68q-22 0 -77 50q-86 37 -129 130l-52 96q-4 82 -23 160q11 49 11 99v16q0 5 -26 80q0 11 14 99q0 22 -12 69q6 36 12 65q0 40 -10 92q10 40 10 66q-13 133 -83 158l-50 40v27q24 61 125 77q45 20 96 28z"/>
    <glyph glyph-name="V" unicode="V" horiz-adv-x="1170" d="M1026 1264q40 0 132 -64v-16q-36 -44 -110 -92q-43 -29 -53 -59l-4 -12q-5 -71 -5 -81v-4q-43 -47 -52 -116v-8q0 -14 4 -36q0 -6 -42 -71q-14 -32 -15 -53q3 -28 5 -135q-47 -111 -48 -150q-4 -95 -4 -115q-23 -40 -40 -80q-24 -50 -68 -164q-44 -56 -72 -56h-12 q-70 9 -128 68q-15 50 -60 188q-21 53 -48 96v17q0 87 -47 161q1 8 1 17q0 65 -46 165q-4 7 -4 16l-9 103q0 24 -53 127q-2 153 -74 182q-132 67 -132 108q14 56 44 56q17 0 83 -3l25 -1q73 24 84 24q66 -12 83 -12l57 4q65 -32 100 -32q27 0 40 -24q0 -35 -76 -76 q-35 -33 -44 -76q-40 -20 -40 -56q0 -23 40 -76q19 -83 57 -127q41 -69 43 -77v-16l11 -59l16 -46q26 -67 39.5 -69t17.5 -2h12q6 0 12 12q29 44 29 64q0 8 43 90l14 76l11 71q35 76 36 107.5t1 41.5q31 50 31 65q-5 18 -44 44q-61 33 -61 53q-4 22 -4 32q9 53 80 72l27 3h7 q30 0 54 -7q29 -11 56 -14z"/>
    <glyph glyph-name="W" unicode="W" horiz-adv-x="1376" d="M1113 1287l67 -26l40 -2q18 0 93 -81q1 -2 1 -4q0 -4 -6 -4h-3l-39 4h-4q-46 0 -46 -35q0 -28 7 -43q-40 -42 -40 -73q0 -18 13 -32q-23 -34 -23 -42q0 -16 31 -47q8 -10 8 -16q-25 -35 -42 -72q-3 -23 -3 -49q0 -29 9 -96q-31 -48 -46 -74l-19 -58q2 -50 2 -54v-4 q11 -45 11 -68q0 -14 -4 -20q-32 -44 -36 -91q0 -12 19 -58q0 -4 4 -12q-12 -46 -12 -73v-55q0 -6 24 -54q0 -42 -183 -86q-47 17 -67 38q-7 30 -54 67q16 32 16 50q0 15 -46 70q4 34 4 56q0 24 -2 33.5t-19 34.5q-17 24 -34 43q0 15 18 49q2 5 2 10q0 7 -4 15q-5 9 -17 9 q-5 0 -19.5 -4t-24 -21.5t-9.5 -22.5v-4q-51 -27 -51 -66q0 -25 39 -71q23 -30 23 -38q0 -5 -11 -11h-31q-39 -7 -39 -39l5 -32q12 -54 12 -76v-20q0 -17 -82 -58q-32 -18 -79 -23q-53 0 -97 93q-29 116 -47 166q-11 42 -11 59v20q19 20 19 35v3q0 20 -73 94v7q23 51 23 63 l-57 79q25 96 25 103q0 9 -66 54q17 40 17 65q0 12 -4 21v4q19 22 19 38v20q0 16 -47 27q-4 8 -4 12q16 28 33 56l5 22q-14 27 -58 40v3q0 15 16 42q8 20 8 37v6l-5 24v1q0 26 -83 44l-12 16q5 10 116 63q15 1 30 1q42 0 86 -10q22 6 37.5 7t31.5 1l17 -2q55 -14 63 -55v-4 q-52 -30 -87 -86q-6 -16 -6 -35q7 -59 7 -74q0 -5 -14 -67q2 -46 34 -91l8 -27q2 -71 2 -79v-12q32 -67 32 -128q0 -26 58 -39q46 5 46 35q0 10 -11 47q27 56 27 62v8q-20 50 -20 62v23q0 43 39 85q4 7 4 16v8q0 2 -39 39v11q0 14 39 58l8 28q0 12 -17 55l-1 15q-1 4 -1 11 q0 13 3 35q0 39 83 49q28 13 65 21l82 -31h81q51 0 93 50q61 0 130 34zM820 1088q0 -20 19 -77v-12q-19 -50 -19 -54v-43q0 -42 69 -78q16 -22 16 -31q-43 -49 -43 -66v-19q0 -10 35 -58q0 -70 20 -70h7q55 8 55 54v12q0 18 -29 50q21 18 38 62q-34 24 -34 46q64 39 64 60v3 q0 21 -79 70v15q76 30 82 94q0 22 -54 54q47 9 47 35q-26 47 -78 47q-42 -22 -101 -43q-15 -38 -15 -51z"/>
    <glyph glyph-name="X" unicode="X" horiz-adv-x="1275" d="M827 1229q85 -24 136 -24q8 0 64 20q70 -33 112 -44q21 0 32 -32q0 -29 -96 -62q-44 -37 -68 -58l-25 -67q-50 -33 -91 -129q-56 -34 -56 -136q-68 -55 -68 -108v-4q0 -33 52 -100q10 -34 68 -92v-24q0 -50 64 -132q25 -67 76 -88q77 -24 123 -44q12 0 33 -84 q0 -35 -108 -81q-8 0 -66 10h-5q-27 0 -73 -17q-42 12 -123 48l-84 18l-20 4q-62 -5 -127 -12q-42 -10 -94 -27q-92 -33 -108 -33q-62 19 -167 19q-14 0 -29 -1q-92 32 -92 56q0 44 65 98q8 -1 16 -1q89 0 151 103q47 43 59 117q57 38 75 123q46 34 58 120l4 28 q-37 152 -120 227q-14 40 -59 117q-48 58 -82 84q-7 7 -60 30l-76 58v19q48 72 87 72h40l78 17q29 -12 52 -16l72 16q77 -47 160 -64q13 -7 13 -16q-21 -34 -93 -62q-36 -22 -44 -58v-16q4 -50 62 -83l29 -72q30 -45 57 -45h4q104 15 104 96q49 78 49 134q0 7 -1 14v4 q0 45 -100 92v20q10 15 76 36q43 16 64 32zM511 145q37 -104 84 -104q43 0 84 45q83 28 83 70q0 12 -7 25v16q0 48 -51 88q-12 62 -61 68q-43 0 -78 -97q-39 -39 -50 -91z"/>
    <glyph glyph-name="Y" unicode="Y" horiz-adv-x="1167" d="M273 1283l23 -1q117 -28 198 -31h49q18 -7 20 -16v-8q0 -15 -43.5 -46t-56.5 -57q-8 -15 -8 -29q0 -9 4 -18q0 -17 44 -78q16 -91 52 -118q35 -21 68 -28q43 0 70 97q64 37 64 102q-5 77 -58 77q-28 -4 -48 -4l-8 13v16q2 8 52 47q52 40 136 59l76 12q60 -16 72 -16 q42 4 48 4q96 -28 96 -86q-21 -53 -142 -92q-75 -64 -90 -136q-57 -63 -92 -168q-59 -53 -87 -149l1 -67l-19 -66l5 -29l15 -88l-3 -18q-12 -34 -12 -65v-9q8 -87 72 -113q32 -9 84 -15l15 -3q69 -34 111 -65q35 -36 54 -64q0 -25 -103 -42q-93 -16 -171 -22q-94 14 -114 14 q-9 0 -110 -13h-4q-89 22 -214 22q-82 0 -120 74v8q0 35 116 85q80 7 176 69q24 22 24 53q-20 74 -20 94q0 10 14 95v5q0 28 -22 79q0 6 4 40q-5 52 -56 131q-20 42 -64 111l-38 58l-24 67q-85 130 -162 139q-104 16 -104 64v8q0 52 51 73q57 10 179 44z"/>
    <glyph glyph-name="Z" unicode="Z" horiz-adv-x="1256" d="M1071 513q30 -24 64 -152q-28 -69 -28 -116q0 -120 12 -154q-66 -110 -84 -110l-135 -30q-26 3 -51 3q-53 0 -146 -11l-74 7l-30 4l-35 2l-92 1q-41 -3 -74 -3t-59 3q-184 20 -184 80q5 64 32 144q56 45 69 133q10 14 90 84q53 67 89 159q97 92 116 113q24 52 47 103 q109 92 129 152q21 42 38 93v12q0 20 -42 31q-42 -4 -75 -15l-57 -7l-42 19q-37 11 -54 11h-8q-12 0 -56 -28q-8 -4 -12 -4q-29 16 -44 16q-40 0 -40 -104q-18 -91 -104 -184q-7 -4 -16 -4h-12q-20 30 -31 79q0 27 3 68v26q-12 70 -12 115l35 97q19 65 57 95q68 20 205 39 l147 -19q97 8 152 22q56 -7 152 -10q92 -20 117 -35q24 -18 47 -59l-17 -60q-12 -89 -70 -154q-54 -73 -109 -149q-29 -64 -75 -141q-53 -50 -83 -84q-49 -71 -104 -159l-12 -17q-110 -118 -110 -161v-20q0 -36 42 -41q18 -5 39 -5q18 0 37 4l79 14l96 -14l45 -3q47 6 63 33 l46 85q19 27 28 62q7 75 13 120v24q10 10 32 10t56 -10z"/>
    <glyph glyph-name="bracketleft" unicode="[" horiz-adv-x="730" d="M450 1488q68 -14 68 -60v-12q-64 -67 -100 -156q-48 -58 -48 -108q-72 -64 -72 -124q-36 -123 -36 -192q0 -26 32 -104q-24 -62 -24 -76v-76q33 -164 79 -249l37 -75q65 -70 96 -128q88 -104 88 -136v-24q-18 -88 -60 -88q-104 0 -164 44q-43 17 -80 33l-6 10l-12 48 q-6 42 -36 62l-13 41l-12 19q-61 56 -61 75q0 13 8 56q0 14 -4 36q-36 45 -36 100q-44 59 -44 72v8q16 66 16 84q0 13 -16 72v4q12 40 20 184v36q32 70 32 92q60 140 60 180q50 70 84 156q42 78 96 132q71 64 104 64h4z"/>
    <glyph glyph-name="backslash" unicode="\" horiz-adv-x="1138" d="M85 1458q7 0 72 -80q39 -91 72 -116q42 -108 144 -236q35 -111 60 -136q25 -102 108 -164q20 -77 78 -112q24 -104 114 -156q0 -69 48 -160q92 -89 92 -112q21 -94 68 -176q76 -91 76 -144q0 -59 -48 -72q-70 8 -74 13q-49 30 -84 84q-39 49 -113 190q-21 36 -64 68 q-47 17 -47 38q-2 46 -2 83v16q-21 66 -74 90q-14 81 -34 94q-32 32 -56 70q-30 21 -49 35q-13 11 -13 37q0 12 2 26q-24 106 -92 144h-16q-16 10 -16 16v4q-5 64 -5 89v16q-34 112 -85 160q-23 11 -27 11q-7 0 -21 59.5t-40 111.5l-24 58q-35 68 -35 106q0 48 55 48 q13 0 30 -3z"/>
    <glyph glyph-name="bracketright" unicode="]" horiz-adv-x="878" d="M107 1512l23 9q8 3 18 3q54 0 138 -114q39 -32 92 -116q43 -60 43 -75.5t52 -149.5q17 -52 49 -159l28 -228v-8l-16 -108l4 -36q-21 -81 -26 -140l-2 -24q-48 -63 -48 -128q0 -44 -43 -98q-32 -59 -41 -95l-9 -30l-12 -17q-64 -38 -131 -92q-29 -12 -60 -16 q-116 25 -116 76q6 74 68 148l61 86l16 30q74 79 91 172q52 138 52 256v20q-4 42 -4 48q4 45 4 84q-20 107 -40 144l-20 41l-4 16q0 36 -32 111v4q0 56 -52 100q-15 50 -49 106q-37 33 -58 110q-3 15 -3 26q0 34 27 44zM517 1313q28 -14 28 -36q-5 -16 -20 -24h-16 q-6 0 -16 16v12q5 32 24 32zM628 1074q16 0 28 -20v-16q-6 -16 -28 -16q-32 4 -32 16v4q0 32 32 32zM676 898l8 -1q9 -2 32 -54q17 -21 17 -38v-3q-19 -42 -42 -42h-1q-17 24 -17 40v2l-7 76l1 12q2 8 9 8zM710 696h4q16 0 40 -108v-16q-12 -100 -44 -100q-40 17 -40 44 q24 58 24 96v20l-4 24q9 40 20 40zM567 40h-8q-12 4 -12 24q0 19 52 180q0 41 76 160h20q12 -4 12 -24v-60q-28 -139 -40 -176z"/>
    <glyph glyph-name="asciicircum" unicode="^" horiz-adv-x="881" d="M590 1334h-16q-47 0 -124 104q-64 84 -92 84h-20q-65 0 -152 -96q-80 -60 -96 -60q-51 0 -51 100q19 129 104 213l95 67q111 76 180 76q41 0 100 -56q21 -14 88 -36q37 -72 80 -72q39 -29 56 -88q5 0 36 -36v-12q0 -23 -104 -156q-59 -32 -84 -32z"/>
    <glyph glyph-name="underscore" unicode="_" horiz-adv-x="1008" d="M346 57h8q4 0 46.5 -10.5t49.5 -10.5l97 18q16 0 100 -20l36 -4q27 0 116 12q132 -39 132 -96q0 -47 -96 -96l-16 -4q-32 8 -80 8q-57 -12 -112 -21l-21 -2q-77 11 -103 15l-144 -20q-71 20 -88 20q-89 -4 -96 -4q-140 39 -140 96v12q2 52 64 81q52 19 70 19h12 q4 0 58 -8h12q11 0 95 15z"/>
    <glyph glyph-name="grave" unicode="`" horiz-adv-x="733" d="M276 1831h3q9 -3 21 -30q52 -18 52 -41v-3l-20 -23v-3q3 -9 17 -9q11 18 15 18q12 -4 18 -15q-3 -30 -3 -35q6 -33 38 -61q14 0 20 -56q118 -127 134 -178q6 -13 9 -26v-6q0 -17 -47 -61q-5 -3 -15 -3q-111 6 -155 23q-74 52 -126 82q-37 57 -96 93q-73 119 -73 132v3 q28 67 82 111q88 32 88 53q12 35 38 35z"/>
    <glyph glyph-name="a" unicode="a" horiz-adv-x="1177" d="M632 955q98 -21 157 -67q105 -71 139 -121q27 -62 27 -85l-12 -68q18 -81 25 -114q-2 -33 -7 -64l-5 -59q1 -16 12 -65l1 -8q4 -77 36 -129q71 -79 71 -102q-36 -69 -117 -69h-20q-21 5 -100 42l-21 3q-76 0 -153 -45q-109 -4 -145.5 -11.5t-64.5 -7.5l-126 11 q-59 0 -161 105q-57 63 -57 162q30 108 83 177q54 38 103 101l-1 8q-45 25 -88 61q-36 55 -36 101q0 49 143 194q20 20 178 44q80 6 139 6zM438 565q10 0 32 -8.5t81 -13.5h8q33 0 55.5 17t52 21.5t51.5 15.5q34 21 43 85v9q-5 36 -28 40q-4 1 -9 1q-16 0 -36 -9 q-7 0 -80 44h-12q-5 0 -37 -32h-4q-44 35 -67 35h-4q-10 0 -30 -30q-8 -80 -35 -125q-9 -17 -18 -31q-4 -7 -4 -11t6 -6t35 -2zM629 377q-45 9 -50 9q-29 1 -54 1q-74 0 -114 -10q-80 -52 -80 -145v-9q17 -51 142 -63q78 15 155 63q81 44 115 82l-3 36z"/>
    <glyph glyph-name="b" unicode="b" horiz-adv-x="1143" d="M133 1272l50 -8h13q60 -5 106 -28q35 -40 45 -81q0 -14 19 -94q3 -123 46 -147l56 20q147 8 164 8h4q105 -16 174 -33q68 -60 137 -120l15 -17q28 -66 67 -161q-12 -49 -12 -70q0 -13 4 -69q-12 -79 -12 -107v-57q-10 -94 -86 -213q-37 -22 -131 -90q-87 -45 -111 -45 h-20q-167 8 -311 37q-87 -2 -149 -8q-43 14 -43 50q0 24 19 57l21 52q13 66 13 73l-9 83l9 106q-15 65 -15 78q13 89 13 111v4q-3 53 -20 109q0 11 11 84l-14 138q12 83 12 98q0 46 -68 61q-71 13 -71 38q-7 28 -12 68l1 19q3 68 38 68q19 0 47 -14zM400 616v-4 q0 -33 19 -51l-7 -12q-23 -23 -29 -79q-2 -11 -2 -22q0 -43 20 -69l8 -64l18 -46q73 -105 115 -124.5t69 -19.5q82 0 184 104q20 34 20 80v16q29 44 29 136v6l-19 56l3 85q-5 40 -36.5 76t-92.5 36q-18 0 -54 36q-15 9 -27 9q-116 -29 -118 -29q-45 -35 -73 -68 q-27 -19 -27 -52z"/>
    <glyph glyph-name="c" unicode="c" horiz-adv-x="1062" d="M534 987h8q155 -18 220 -60q54 -11 168 -140q12 -31 12 -44v-20q-9 -119 -72 -152q-28 -20 -84 -28q-83 4 -117 104q-4 7 -4 16q11 39 11 69q0 15 -3 28q-26 58 -107 67h-24q-36 0 -112 -34q-89 -48 -122 -116l-14 -72q-17 -42 -20 -57q-1 -3 -1 -7q0 -15 9 -46l3 -83 q24 -65 65 -113q117 -100 144 -100h16q67 0 124 40q4 0 12 4q22 -4 36 -4h4q31 0 76 52q60 23 124 64h12q36 -15 36 -48q-6 -146 -90 -211q-35 -32 -126 -53q-97 -20 -204 -48l-132 44q-155 87 -210 210q-42 90 -42 98q-6 77 -6 133l-14 77v20q30 122 64 186q24 13 80 124 q29 0 124 64q27 12 156 36z"/>
    <glyph glyph-name="d" unicode="d" horiz-adv-x="1220" d="M720 1334q57 -9 134 -20q43 -11 57 -58l17 -45q13 -34 13 -54l-11 -76q0 -18 7 -61q7 -32 9 -49q-14 -61 -14 -142l15 -67q-3 -58 -3 -92q0 -16 9 -66v-4q0 -9 -17 -70v-12l23 -132v-35q-11 -42 -11 -54q11 -69 59 -130l107 -64h-3q7 -12 15 -58v-12q-28 -44 -182 -54 q-61 0 -154 38h-11q-113 -38 -156 -38q-7 0 -53 -2q-3 0 -55 -7q-14 0 -74 -11h-4q-12 0 -83 49q-76 36 -119 91q-82 86 -82 124q-9 66 -38 128l-8 27v35q0 20 -6 100q27 68 37 133q36 52 50 94q18 49 35 97q52 38 86 62q20 14 37 22q54 21 106 36q27 0 106 -1h4q18 0 76 14 q3 0 68 -21h16q39 5 39 39v20q-2 15 -3 38v8q4 12 9 42l-6 23q-29 29 -102 38l-75 27h-4q-56 18 -69 60v8q0 44 70 54q66 11 139 28zM453 778l-47 4q-21 0 -52 -88q-69 -70 -69 -114v-23q0 -31 14 -58l-1 -10q-9 -15 -17.5 -28t-8.5 -45q15 -80 51 -80l21 15h10q7 0 21 -83 q15 -35 34 -35q5 0 44 27h7q22 0 24 -107q16 -15 31 -15l55 15l21 -4q43 0 66 72q10 11 51 35q34 35 51 91l4 24l-11 117q7 35 7 49v16q-35 154 -75 187l-41 19l-14 31q-9 8 -31 14l-45 -14q-39 30 -55 34q-12 0 -45 -46z"/>
    <glyph glyph-name="e" unicode="e" horiz-adv-x="1095" d="M588 1018q59 -15 113 -22q20 -12 111 -59q26 -15 66 -70l46 -51l39 -77l17 -96q7 -32 7 -98v-17q-50 -72 -63 -72q-72 -20 -78 -20h-12q-56 36 -69 36h-12q-14 0 -139 -55h-12q-6 0 -66 31q-40 4 -62 4h-35q-7 0 -51 -19q-5 0 -52 23q-16 4 -28 4q-32 -9 -32 -44v-11 q6 -57 48 -89q20 -85 92 -112h7q31 4 62 29l17 4q28 -11 57 -22h8q92 30 106 30h8q5 0 27 -20q27 -16 39 -16h7q19 0 135 81h12q39 -8 39 -39l-24 -74l-36 -68l-79 -57q-84 -43 -153 -45q-56 -5 -74 -7q-152 19 -174 30q-107 63 -175 117q-38 67 -51 83q-18 27 -37 55 q3 52 3 64q0 13 -35 103q19 65 19 75l-13 89q37 158 83 227q105 107 162 140q27 18 121 18h20zM342 700v-8q0 -33 168 -68q35 0 231 24q47 12 61 30l2 23q-2 17 -35 53q-50 34 -93 56h-14q-131 9 -143 9q-47 0 -131 -65q-46 -42 -46 -54z"/>
    <glyph glyph-name="f" unicode="f" horiz-adv-x="1170" d="M788 772q-35 -50 -104 -64q-120 -16 -140 -88q1 -23 5 -45l3 -36q-6 -31 -6 -65q0 -13 1 -26l12 -69q-12 -47 -12 -104q0 -15 1 -31q0 -67 84 -100q8 -4 12 -4l55 -12q36 -8 78 -20q35 -12 83 -45v-35q-15 -69 -174 -82q-59 -10 -102 -14q-76 12 -100 12h-8 q-37 0 -152 -16q-57 16 -184 28q-68 21 -68 40v29q9 23 41 51q49 17 76 27l41 15q74 8 118 38q40 27 40 94v22l-11 106q3 61 3 74q-8 60 -14 95l10 69q0 68 -96 68q-92 37 -92 72v8q8 61 122 104q58 29 89 106q11 83 49 142q42 28 104 92q45 11 128 56q21 4 40 4h68 q181 -28 260 -88q71 -88 80 -200q5 -23 5 -48q0 -8 -1 -16q-11 -43 -80 -65q-32 -7 -65 -7q-30 0 -61 6q-26 15 -46 51q-9 25 -14 61q1 14 1 25q0 31 -7.5 51t-23.5 26l-48 25q-67 -7 -77 -7h-4q-91 -26 -115 -43t-52 -79v-12q0 -38 48 -56h16q42 12 46 12l55 -11l19 1 q32 7 72 22l16 -13v-3q0 -40 -24 -128z"/>
    <glyph glyph-name="g" unicode="g" horiz-adv-x="1285" d="M643 1041q49 -18 168 -28q12 -12 52 -12h16q113 16 132 16q156 -44 156 -112v-48q-48 -65 -176 -120q-25 -24 -32 -104q-23 -42 -37 -73q-14 -59 -71 -95q-68 -59 -96 -120v-4q9 -26 144 -56q91 -39 120 -56q96 -82 96 -92q8 -29 24 -140v-12q0 -29 -43 -99 q-41 -72 -144 -116q-86 -33 -101 -33q-39 12 -52 12q-11 0 -72 -24h-12q-37 8 -77 10q-33 -3 -78 -6q-65 12 -145 27q-34 5 -70 6l-67 -5q-50 12 -127 164l-29 16l-7 92q0 111 88 184q16 27 16 48v12q0 45 -20 140q0 24 96 128l8 28q-4 34 -4 56v20l1 66q4 66 4 92 q0 15 -1 18q46 113 112 140q79 56 100 61q26 -5 48 -9q9 0 80 28zM504 803q-38 -40 -38 -82q0 -7 2.5 -36.5t29.5 -58t58 -69.5q26 -21 63 -21q76 0 165 94q0 14 15 87q0 14 -44 62q-18 55 -29 59q-43 18 -74 18q-11 1 -21 1q-69 0 -105 -31q-20 -23 -22 -23zM375 346v-7 q0 -39 53 -46q39 0 47 64q-7 50 -47 50q-53 -28 -53 -61zM543 357q6 -40 36 -40h4q32 3 32 28q-12 36 -52 36q-20 -6 -20 -24zM676 340q0 -10 16 -21h16q27 0 31 21q-19 21 -37 21q-26 -5 -26 -21zM507 158q-38 7 -49 7q-7 0 -84 -42q-87 -28 -87 -80v-12q17 -50 76 -80 q29 -34 137 -54q42 -9 83 -23h61q86 16 167 23q144 33 144 134q0 46 -99 100q-50 10 -59 10q-64 -6 -66 -6q-28 30 -159 42q-16 0 -65 -19z"/>
    <glyph glyph-name="h" unicode="h" horiz-adv-x="1283" d="M247 1325l75 -12q52 -20 72 -105q0 -16 3 -74l11 -50l-4 -35q-1 -12 -1 -23q0 -28 8 -51q9 -35 55 -48h16q53 16 145 40q40 2 63 2q56 -8 128 -19q42 -23 70 -47q63 -40 72 -58q11 -23 49 -67q11 -12 15 -31q-4 -39 -4 -62q0 -14 20 -66q0 -3 -20 -74q-1 -4 -1 -9 q0 -23 18 -62l2 -25q-16 -45 -19 -82q0 -7 12 -74q0 -23 -4 -81q0 -76 89 -112q67 -37 90 -67v-2q0 -28 -84 -65q-51 -7 -120 -29h-12q-49 15 -101 15q-33 0 -67 -6l-24 5q-78 30 -81 74q16 47 72 84q32 32 32 55q0 5 -1 9l-14 29q0 7 35 56l8 23l-12 55v11q25 31 39 55 q0 28 -42 76v7q27 36 30 95v39q0 10 -15 33q-12 20 -12 36v21q0 30 -105 69q-28 24 -66 24q-134 0 -221 -167q-8 -25 -8 -35v-12q0 -8 5 -69q-9 -27 -32 -86l-4 -20q23 -55 23 -81q0 -7 -4 -93q64 -144 156 -144l19 -23v-12q0 -32 -85 -72q-80 -27 -105 -33l-101 10 q-123 -14 -148 -14q-39 0 -62 82q0 7 47 66q31 50 66 97q23 91 23 175q-8 55 -8 77q16 67 16 82q-8 119 -8 140v20q8 47 8 57l3 35q0 6 -1 40q0 10 -13 65l2 94l-14 74l1 85q-19 42 -98 74q-27 32 -33 69q19 40 156 42z"/>
    <glyph glyph-name="i" unicode="i" horiz-adv-x="1033" d="M465 1346h5q125 0 171 -66q55 -84 55 -127q0 -87 -160 -104h-33q-137 20 -137 154v5q0 68 99 138zM740 581q-25 24 -25 73q3 62 13 62q28 0 43 -97v-4q-13 -34 -31 -34zM778 308l-14 -8q-1 -2 -3 -2q-6 0 -14 24q-2 17 -2 28q0 37 10 41l3 2q1 2 3 2q6 0 17 -16l5 -23 q3 -11 3 -21q0 -17 -8 -27zM804 188q30 -32 61 -48q60 -18 84 -32q31 -27 31 -44q0 -4 -6.5 -15t-56.5 -26q-61 -15 -113 -26l-49 8q-13 0 -97 -12q-26 0 -77 4q-15 0 -101 -17h-4q-73 8 -150 21q-67 -9 -120 -9q-62 16 -107 81v13q0 32 127 84q22 7 42 13h13q25 -7 72 -13 q110 24 110 77v8q0 42 4 106q-8 32 -8 59q0 16 17 106q-4 202 -40 217l-56 26q-43 8 -110 14q-58 25 -120 43q-35 16 -43 43v12q0 49 64 56q7 0 63 12q50 14 80 20l75 -9q153 -3 171 -28q26 -20 48 -54q16 -30 24 -71q-12 -36 -12 -82q21 -67 21 -93q-30 -70 -30 -85v-4 q21 -71 21 -76v-5q-8 -102 -8 -114v-4q0 -164 39 -164q15 -6 24 -6t20 6.5t29 26.5q13 22 28 22q19 0 40 -41zM757 435l-10 1q-7 2 -18 31l1 28q1 7 13 15l14 -3q14 -10 14 -36v-4l-1 -17q-2 -8 -13 -15z"/>
    <glyph glyph-name="j" unicode="j" horiz-adv-x="1025" d="M688 1333h2q80 0 157 -87v-9q2 -10 2 -21v-3q0 -86 -123 -156h-5q-102 7 -125 43q-55 42 -55 116q0 8 1 17v1q0 67 146 99zM527 978q67 0 91 1h3q106 0 146 -62q43 -39 43 -65q-6 -96 -6 -118v-5l18 -123q-11 -70 -11 -109v-8q13 -51 13 -67l6 -82q-6 -67 -21 -135 q17 -71 17 -95q0 -140 -56 -259q-21 -44 -61 -87q-47 -63 -187 -87q-23 -5 -44 -5q-31 0 -80 10h-45q-17 0 -80 26q-66 19 -153 182q-45 87 -45 151q0 9 1 17q20 114 95 140q43 14 62 15h20q129 -46 130 -126l1 -16q0 -23 -35 -89v-8q32 -114 85 -114h1q115 19 115 49v1 q79 48 79 61q23 55 23 72q2 17 2 38q0 24 -3 55l-1 15q0 12 12 95v4q-14 71 -14 77q18 87 18 136q-9 61 -9 64l10 100l-5 56q3 23 8 52q-1 51 -74 51h-3q-17 17 -53 27q-50 -16 -59 -16q-50 23 -141 45q-20 21 -21 36v9q0 58 127 85q35 3 81 6z"/>
    <glyph glyph-name="k" unicode="k" horiz-adv-x="1237" d="M228 1244q154 -18 169 -79q9 -31 9 -53v-4q-12 -86 -12 -92q0 -7 20 -96q-24 -85 -24 -108q0 -11 24 -80q0 -8 -8 -48q0 -27 40 -32q38 0 90 76q91 46 152 108q15 92 40 92q59 -16 68 -16q116 20 160 20q156 -36 156 -88v-26q0 -59 -22 -69q-59 15 -141 19 q-36 -4 -59 -13q-71 -23 -144 -79q-51 -25 -96 -66q-34 -49 -34 -80q24 -49 40 -112q60 -27 112 -122q53 -34 112 -88l20 -4q16 4 28 4q44 -40 52 -40h16q17 0 44 4q25 0 68 -108v-16q0 -72 -140 -72q-70 8 -88 12q-26 -4 -52 -4h-16l-224 32q-68 0 -168 -28q-66 0 -264 32 q-76 0 -76 36q0 23 80 56q88 54 88 124v8q0 9 -16 60q32 45 32 72q0 12 -20 156l24 88q-9 99 -20 136q0 28 12 172v28q-21 147 -74 175q-42 62 -42 77v4q45 32 84 32zM444 342v-32q4 -45 40 -45q8 0 18 2l36 12q23 6 23 27q0 12 -8 29q-18 32 -54 32q-55 -13 -55 -25z M434 187v-11q0 -46 157 -96q86 18 86 58q0 17 -16 38v6q-25 57 -126 57q-81 0 -101 -52z"/>
    <glyph glyph-name="l" unicode="l" horiz-adv-x="1064" d="M458 1295h8q154 -62 154 -87q14 -15 25 -168q11 -61 11 -104q-14 -75 -20 -232v-10q0 -21 2 -74q-5 -69 -5 -80q1 -53 1 -100v-44q7 -32 7 -48v-4q-12 -44 -13 -64v-24q21 -73 83 -87l71 -3q203 -33 203 -72q8 -14 11 -40q-12 -82 -72 -82h-1l-29 -3q-92 -11 -187 -29 l-12 -1q-71 13 -88 14h-16q-27 0 -85 -19l-89 13q-82 -10 -91 -10q-11 1 -63 20l-24 1q-67 -2 -72 -2h-4q-46 1 -87 78v8q25 114 109 114h5q58 0 97 20q21 -4 41 -4q28 0 54 8q65 36 66 75q-11 45 -11 89l1 48q1 69 10 107q-7 44 -7 76q1 24 6 100q-3 42 -3 68q9 28 9 48 l-18 117q0 14 10 91v2q0 86 -95 88l-40 1q-22 0 -80 -11q-36 1 -167 83l-3 20v8q1 64 154 98q66 -18 91 -18l68 -1q15 0 85 26z"/>
    <glyph glyph-name="m" unicode="m" horiz-adv-x="1457" d="M598 994l140 -31q34 0 86 -4q46 16 139 35q142 -26 175 -74q78 -79 78 -264q4 0 8 -39q-6 -108 -12 -139l4 -20v-66q0 -53 -4 -139q7 -42 97 -94q33 -35 39 -66q-28 -81 -74 -81q-56 11 -70 11h-19q-73 -11 -78 -11h-12q-112 23 -132 23h-4q-10 0 -89 -27l-89 12l-86 -12 q-73 8 -124 8q-7 0 -70 -16h-4q-85 16 -112 16q-18 0 -93 -20q-162 15 -162 71v15q6 94 100 120q31 26 31 93l-16 190l4 47l-4 23q4 53 4 90v27q0 89 -39 116q-85 24 -85 94v3q0 73 58 97q95 -3 151 -3h8q24 0 93 -24l136 39h27zM426 631q0 -13 21 -68v-4q0 -16 -12 -68 q0 -19 21 -92l-13 -68q0 -124 77 -124h22q61 25 99 121q16 26 16 52q0 25 -15 51l-2 6q-23 28 -23 59q0 5 1 10l35 57q0 17 4 44q0 19 -43 76v56q0 44 -38 44q-107 0 -150 -152zM837 711v-18q0 -24 71 -102l6 -22q0 -46 -77 -116v-13q0 -24 25 -54q6 -8 6 -18v-18 q0 -23 -51 -37q-17 -24 -17 -46v-5q19 -58 70 -58q53 0 131 71q49 24 49 58q0 10 -60 89v27q0 30 49 80q6 7 6 17v5q0 16 -66 75q0 5 -5 14q0 33 60 71q5 8 5 18v13q-37 40 -76 40h-6q-11 0 -82 -36q-34 0 -38 -35z"/>
    <glyph glyph-name="n" unicode="n" horiz-adv-x="1281" d="M1199 28l-24 -9q-47 -14 -104 -40h-17l-90 11q-93 -14 -115 -20q-135 42 -135 90v4q-1 3 -1 7q0 43 96 81q61 42 61 86v12q0 33 -18 96q21 92 21 100q0 17 -31 72v8q0 8 18 75v8q-44 142 -94 143q-54 16 -75 16l-8 1q-31 0 -169 -82q-37 -46 -90 -99v-24q3 -41 3 -59v-2 q-20 -57 -21 -79v-4q16 -73 16 -78l-1 -14l-21 -88q27 -81 99 -124q55 -45 55 -69v-13q-7 -52 -85 -55l-58 -11l-45 5q-57 8 -101 8q-28 0 -85 -5q-9 -1 -16 -1q-24 1 -41 14q-26 13 -26 35q0 14 11 32l38 49q75 34 87 112l-10 117l1 14l16 84q1 12 1 27q0 50 -13 131 q17 56 24 115l-2 48l-12 31q-44 53 -44 83q8 47 62 61q15 4 33 4q62 -10 116 -34l88 -15q43 0 156 47q18 0 53 4q83 -9 153 -25t107 -62q61 -64 73 -119q7 -33 7 -65q0 -22 -3 -43l-3 -42l13 -67q0 -10 -13 -58v-36l18 -80q-7 -54 -7 -99v-20q21 -63 69 -84q35 -17 63 -36 l20 -14q14 -16 14 -30t-14 -26z"/>
    <glyph glyph-name="o" unicode="o" horiz-adv-x="1136" d="M622 -4l-116 4q-144 44 -196 94q-98 69 -147 167q-51 123 -51 198q0 8 1 16q1 7 1 34t-1 75q11 78 88 235q44 59 65 98q39 29 66 51q93 52 105 59q27 -4 89 -6l101 15q194 -64 304 -194q29 -31 91 -186q5 -30 5 -90l-10 -180l-51 -111l-68 -123l-70 -54 q-84 -75 -206 -102zM263 524q18 -145 67 -171q15 -51 42 -100q59 -61 146 -68h15q23 0 77 5q78 15 163 89q64 65 86 165l5 70q-14 168 -38 190q-73 95 -144 100q-79 45 -91 46h-9q-32 0 -66 -18q-159 -33 -164 -100l-3 -39q-78 -68 -84 -149z"/>
    <glyph glyph-name="p" unicode="p" horiz-adv-x="1191" d="M657 951q147 -32 240 -80q111 -72 156 -216q29 -51 29 -68q-13 -52 -13 -64l25 -96q-49 -195 -145 -324q-123 -92 -152 -92q-6 0 -106 -32q-82 8 -102 8q-12 0 -46 15l-46 13h-24q-21 0 -40 -76v-12q15 -80 85 -119l94 -51q20 -7 20 -24q0 -16 -21 -42q-24 -19 -59 -26 q-86 -30 -108 -30q-14 0 -99 8q-10 0 -79 -8q-52 16 -85 23l-41 10q-31 11 -47 61l4 17q35 26 126 83q50 73 50 130v28q0 21 -20 84q12 56 14 158l-19 71l6 23q11 77 11 156l-11 90q-2 104 -29 142q-7 12 -80 64q-32 44 -32 60v4q0 72 68 104h16q102 -36 152 -36q13 0 76 36 h20q60 -20 72 -20q10 0 140 28zM441 530q-13 -41 -13 -62q0 -7 12 -36q-4 -22 -4 -36v-8q0 -6 19 -56q-3 -53 -3 -63l12 -37q56 -57 148 -76h4q9 0 47 12l50 -8q9 -2 18 -2q49 0 71 54l12 15q44 13 44 67q0 6 -1 13l6 16l21 29q19 29 19 78q0 14 -2 30q-12 42 -12 44 q8 40 8 52q0 8 -33 108q-65 76 -109 76q-50 32 -73 32h-58q-43 0 -111 -68q-61 -55 -81 -128z"/>
    <glyph glyph-name="q" unicode="q" horiz-adv-x="1131" d="M448 987l16 -4q21 0 112 10q142 -36 208 -68q69 10 85 10q42 0 42 -84q0 -11 -1 -23l10 -75v-8q0 -7 -13 -62q2 -17 12 -81l-4 -11q-2 -16 -19 -96q11 -76 18 -101q-17 -35 -17 -76q0 -25 7 -53v-12l-20 -76q20 -81 20 -100v-16q0 -8 2 -91q8 -54 74 -101 q106 -85 106 -96v-8q0 -44 -110 -44q-16 0 -144 -28q-100 24 -242 32q-32 24 -32 48q0 40 74 72q41 18 76 44l17 34q0 8 -8 40q3 40 3 50q0 29 -52 36q-17 0 -91 -25h-8q-25 4 -53 4q-27 0 -58 -4q-2 5 -134 41q-139 116 -156 188q-41 43 -60 192q-5 26 -16 48l28 96v8 q-8 39 -8 44v12q26 31 56 120q59 107 136 136q36 39 144 78zM481 805h-37q-60 -11 -109 -72q-13 -35 -13 -71v-13l-3 -7q-46 -27 -46 -101q0 -120 59 -207q38 -16 49 -31q1 -21 17 -52q19 -30 44 -41q11 0 97 -13l22 -4q135 22 135 116q25 33 25 40q0 4 -3 32q16 33 16 50 q0 23 -11 70q11 48 11 74q-20 50 -20 64q16 43 16 56v4q0 32 -34 58q-13 30 -51 44h-4q-25 -4 -40 -4h-7q-8 0 -51 28h-11q-4 0 -51 -20z"/>
    <glyph glyph-name="r" unicode="r" horiz-adv-x="1228" d="M804 926q17 1 33 1q92 0 155 -30q2 -38 88 -71q26 -63 68 -124q8 -30 8 -56v-32q-2 -56 -47 -94q-42 -34 -114 -34h-16q-60 11 -92 48t-48 105l-4 55q-19 52 -55 52h-4q-106 -1 -150 -56q-42 -38 -64 -104q-16 -31 -16 -52q0 -34 9 -58l9 -28v-4q-21 -44 -28 -86 q5 -27 18 -76q-8 -28 -8 -48q0 -75 122 -114q35 -13 73 -36q31 -29 31 -49v-11q0 -46 -64 -78h-12q-56 10 -86 18q-80 -18 -90 -18q-51 8 -64 8l-74 -16h-12l-63 12h-2q-19 0 -82 -17q-78 13 -115 59v28q0 54 88 92q71 16 80 16q60 0 70 114q-8 64 -8 68l22 72q5 9 5 24 q0 6 -1 13l-11 64v12q5 26 17 91q0 11 -40 88q0 56 -110 56q-83 28 -88 36q-12 37 -12 56q0 35 128 92h4q59 -16 68 -16h20q104 0 180 -32h4q4 0 200 56q36 0 80 4z"/>
    <glyph glyph-name="s" unicode="s" horiz-adv-x="1102" d="M607 986q90 -37 160 -37q68 17 86 17l25 -8q17 -16 23 -144l2 -38q3 -56 28 -97l4 -17q0 -46 -61 -94v-4q74 -84 74 -107q41 -105 41 -139v-8q-21 -63 -37 -136q-41 -79 -200 -142q-62 -1 -128 -42h-12q-70 29 -103 29h-33q-14 0 -69 -9l-74 17h-17q-57 -12 -65 -12 q-83 36 -83 66v2l2 39l-1 52v11q0 85 -29 168q-1 5 -1 10q0 54 79 86q24 -6 38 -6q29 0 29 21q0 13 -10 32q-78 76 -90 170v82q0 66 87 146q54 16 114 84l9 4q18 -6 35 -6q9 0 18 2q89 1 159 8zM348 722q-1 -7 -1 -13q0 -96 199 -96q38 0 84 4q10 0 131 -53q13 -5 23 -5l7 1 q58 6 58 12q-94 86 -144 171q-51 18 -147 65l-130 -4q-25 -16 -80 -82zM494 425l-49 27h-84q-44 -9 -44 -45q0 -22 24 -57q0 -15 47 -76q28 -33 81 -78q86 -40 116 -40q82 0 178 87q66 17 66 64v15q0 60 -104 60q-27 20 -49 20q-6 0 -48 -24h-8q-15 0 -40 39q-14 20 -37 24 q-9 0 -49 -16z"/>
    <glyph glyph-name="t" unicode="t" horiz-adv-x="994" d="M368 1170q59 0 88 -196q0 -35 156 -52q73 -20 88 -80v-8q-7 -67 -71 -84q-177 -16 -177 -64l-8 -68q9 -43 9 -48q-7 -28 -7 -73q0 -35 4 -80q11 -163 42 -181q27 -34 54 -60q20 -18 42 -18h12q31 0 92 84q79 80 120 80h8q72 0 89 -66q4 -24 4 -45q0 -41 -15 -68 q-21 -42 -60 -91q-45 -52 -198 -98q-34 -9 -75 -9q-31 0 -65 5q-93 9 -196 168q-36 108 -36 116l8 100l-12 56q12 42 12 60q0 36 -24 112q32 45 32 68q-7 76 -69 100q-52 12 -75 12q-56 0 -80 72v20q0 36 39 55q89 27 108 33q64 10 67 95q-2 53 -2 69q0 32 84 84h12z"/>
    <glyph glyph-name="u" unicode="u" horiz-adv-x="1208" d="M712 922h132q89 0 106 -108q9 -21 30 -88l4 -16q-24 -74 -40 -144q24 -77 24 -80q-4 -40 -4 -60q20 -77 20 -84q-4 -40 -4 -60q0 -42 92 -124q44 -27 44 -68q0 -39 -88 -72q-7 -4 -20 -4q-25 0 -119 20l-48 9q-26 5 -54 5q-9 0 -32.5 -1.5t-70.5 -24.5q-76 -25 -207 -39 l-23 1q-81 0 -150 62q-4 23 -100 136q0 12 -8 88q-3 15 -3 40q0 65 12 206l6 94q0 13 -9 91q-9 59 -78 109q-20 23 -20 40v4q0 45 124 56h12q71 0 140 -132v-4q-20 -35 -20 -56v-16q0 -25 6 -68q-20 -53 -20 -64v-4q0 -45 50 -128v-4q-23 -42 -24 -88q0 -22 44 -88 q0 -70 88 -70q36 -8 52 -8h32q64 0 164 146q25 17 36 44q-4 54 -4 80q20 58 20 72v20q0 14 -12 72q24 64 24 92q-6 38 -36 67l-30 20q-33 9 -50 17q-44 10 -48 64q23 48 60 48z"/>
    <glyph glyph-name="v" unicode="v" horiz-adv-x="1128" d="M373 926l70 -21q45 -27 45 -49v-12q1 -4 1 -8q0 -27 -38 -48q-51 -35 -57 -75l3 -15l20 -44q8 -68 15 -84l30 -74l11 -87q9 -38 52 -131q20 -62 39 -62h1l32 71l32 149l33 94l6 67q4 14 17 49l10 33l-2 38q-11 26 -41 26q-5 0 -11 -1l-23 -7q-35 -14 -38 -14h-4 q-11 0 -16 39q63 148 112 148q42 0 148 20l168 -27q88 -25 88 -74v-24q-16 -39 -104 -67q-40 -25 -52 -59q-28 -38 -45 -105l-4 -12q-55 -80 -60 -131l-5 -31l-56 -128l-15 -56l-17 -39q-30 -49 -42 -82q-48 -113 -116 -133h-8q-35 20 -89 73q-37 57 -63 103q-16 66 -64 121 l-10 12l-19 94q-8 24 -36 68q-6 15 -9 54t-17 78q-38 51 -41 63q-10 42 -30 101q-2 21 -92 48q-36 12 -40 52v2q0 56 127 88l95 -13z"/>
    <glyph glyph-name="w" unicode="w" horiz-adv-x="1333" d="M1227 740q16 -16 16 -34q0 -7 -2 -13q-7 -21 -28 -23l-14 4q-8 5 -8 15q0 5 2 12l3 8q19 32 30 32zM1190 618l10 -3q7 -1 9 -15l-1 -4q-7 -21 -28 -24l-9 3q-7 2 -7 8v3l9 24q2 5 17 8zM1136 471l5 -1q25 -7 28 -33l-5 -17q-8 -9 -23 -9q-7 0 -15 2q-18 4 -22 23l4 11 q7 22 28 24zM1129 339l4 -1q14 -11 14 -32q0 -16 -8 -38l-5 -17q-20 -30 -34 -30h-2l-9 3q-16 16 -16 41q0 16 7 35l7 20q7 21 28 21q6 0 14 -2zM1213 856q-47 -11 -95 -102q-41 -115 -55 -236l-31 -72q0 -14 -18 -119q-34 -88 -34 -117l-5 -71q-72 -116 -135 -129h-28 q-69 0 -81 87q-26 55 -36 71q17 26 17 54v4q0 25 -49 118q-14 53 -28 53q-7 0 -21 -25t-14 -42q0 -8 -2 -71q-42 -74 -42 -93v-8q0 -11 20 -84q-49 -59 -140 -66q-75 0 -112 108q-11 54 -44 135q0 72 -38 177l-2 4q-6 54 -14 94l-26 65l-3 8l-16 121l-2 23q-28 59 -96 90 q-19 18 -19 35q0 8 4 15q12 42 109 57l76 -6q35 5 80 10q60 -5 61 -57q-70 -61 -70 -139v-2q-4 -8 -4 -21v-8q0 -32 32 -73q4 -7 4 -17q6 -42 15 -89q18 -61 45 -79q16 6 16 12v58q0 6 30 42l16 25q-8 61 -8 79q0 3 42 50q0 8 10 72q2 15 25 46q18 78 62 78q27 4 44 4 q83 -8 83 -88q0 -18 28 -62q-3 -15 -3 -30q0 -47 34 -93l8 -21q-15 -74 -15 -97q22 -71 64 -71h16q21 0 43 110q29 66 36 99q3 22 3 48q0 21 -2 45v5q0 35 -74 92l-4 21q11 66 56 66q45 -4 54 -4q13 0 74 23h13q82 -19 123 -28q32 -16 32 -48q0 -16 -9 -36z"/>
    <glyph glyph-name="x" unicode="x" horiz-adv-x="1282" d="M551 168q1 -81 54 -143l20 -5h9q31 0 78 79q16 27 16 49q0 23 -25 33q-17 2 -55 5q-19 4 -21 20l-2 24q0 25 -24 25q-42 -8 -50 -87zM776 439q24 -43 64 -90q58 -109 122 -160q51 -30 126 -51l33 -7q51 -13 51 -57q-2 -61 -70 -78q-131 -25 -144 -25q-114 5 -267 21h-8 q-20 0 -68 -20l-154 3l-67 -9h-14q-38 8 -76 8q-33 0 -67 -6h-4q-126 0 -126 61v8q7 41 101 76q77 23 142 142q89 44 110 113q29 55 29 76v5l-3 19q-22 80 -130 163q-27 67 -157 123q-105 32 -107 87v4q0 24 45 37l81 14q35 -6 65 -6q55 0 94 23l12 3q162 -18 168 -96 q-44 -30 -50 -86v-9q0 -37 74 -86q14 -16 41 -16q69 14 74 38q6 22 6 32q6 7 30 37l8 16q5 15 5 30q-22 58 -76 102q-10 9 -10 15t14 8l47 5q57 7 86 13q55 12 71 12q66 -12 118 -18l67 2q99 -8 99 -58v-4q0 -54 -95 -86q-119 -55 -145 -105l-30 -51l-5 -3l-58 -43 q-32 -40 -53 -92z"/>
    <glyph glyph-name="y" unicode="y" horiz-adv-x="1215" d="M179 961q64 9 133 30h21q42 -11 141 -23q113 -19 113 -95v-4q-61 -25 -67 -67q-1 -7 -1 -16q0 -23 6 -59l31 -55l5 -8l4 -46l45 -61l33 -82q35 -70 56 -70q54 62 67 150l8 11q24 23 31 53q7 16 9 24.5t3 43.5l4 9q35 30 35 61v11q0 35 -68 66q-15 21 -15 35v16 q23 75 95 80q61 -1 117 -11q19 0 87 16q86 -26 111 -68q2 -6 2 -12q0 -28 -38 -46q-69 -24 -96 -59q-34 -37 -55 -122l-4 -6q-60 -77 -61 -156l-6 -11q-33 -61 -44 -129q-34 -73 -74 -162q-30 -75 -30 -91l-20 -94q0 -24 -34 -85q-30 -73 -49 -161q-35 -67 -98 -125 q-54 -42 -148 -49l-46 6q-85 23 -176 85q-78 56 -115 189q-5 17 -5 40q0 15 2 33q13 85 69 101q37 12 66 12q73 0 129 -97q19 -101 77 -114h2q39 0 65 49q21 50 21 84q0 14 -5 50l3 12q39 83 39 98v12q-6 40 -48 194l-62 94l-24 121l-41 74l-16 58q-13 39 -79 77 q-28 14 -130 66q-37 17 -45 51q0 41 70 72z"/>
    <glyph glyph-name="z" unicode="z" horiz-adv-x="1077" d="M385 948q61 -23 99 -23q9 0 17 2h16q28 0 92 16q77 -16 121 -16h28q83 -2 89 -2q46 -21 46 -75q-28 -52 -46 -80q-8 -24 -24 -66q-103 -94 -116 -163q-25 -22 -75 -83q-37 -28 -77 -116q-36 -40 -53 -91q-4 -14 -4 -27q0 -18 8 -32q16 -26 61 -26q15 0 33 3q17 -8 69 -22 q48 7 85 32q52 62 52 84q-1 44 -1 54l-19 47q0 48 37 48q128 -25 128 -52l24 -84v-4q-28 -84 -28 -97q0 -10 12 -76q-6 -43 -120 -117l-8 -4q-55 4 -81 4h-60q-62 0 -117 -8q-83 16 -124 16h-29q-22 0 -84 -12q-121 21 -176 45q-20 17 -20 49v4q0 73 83 159q72 87 117 193 q101 65 114.5 85t38.5 82l6 9q60 31 101 120q3 13 3 23q0 39 -44 39l-11 -1l-23 -2q-28 -11 -50 -30l-6 -2q-11 3 -25 3q-10 0 -22 -2h-1q-126 0 -151 -195q-30 -44 -53 -44q-48 39 -73 109q-3 8 -3 44q0 29 2 79q37 81 60 143q13 21 51 27.5t111 28.5z"/>
    <glyph glyph-name="braceleft" unicode="{" horiz-adv-x="730" d="M450 1488q68 -14 68 -60v-12q-64 -67 -100 -156q-48 -58 -48 -108q-72 -64 -72 -124q-36 -123 -36 -192q0 -26 32 -104q-24 -62 -24 -76v-76q33 -164 79 -249l37 -75q65 -70 96 -128q88 -104 88 -136v-24q-18 -88 -60 -88q-104 0 -164 44q-43 17 -80 33l-6 10l-12 48 q-6 42 -36 62l-13 41l-12 19q-61 56 -61 75q0 13 8 56q0 14 -4 36q-36 45 -36 100q-44 59 -44 72v8q16 66 16 84q0 13 -16 72v4q12 40 20 184v36q32 70 32 92q60 140 60 180q50 70 84 156q42 78 96 132q71 64 104 64h4z"/>
    <glyph glyph-name="bar" unicode="|" horiz-adv-x="467" d="M243 1578q5 -3 21 -96q-4 -37 -4 -64q0 -40 15 -80q-7 -39 -13 -75q0 -71 14 -158q-17 -76 -17 -113q0 -14 2 -22q-12 -38 -12 -76q0 -53 24 -104q-8 -27 -8 -51q0 -40 20 -73q-11 -35 -11 -68q0 -56 31 -108q-33 -54 -36 -148q26 -85 26 -117q0 -10 -3 -14 q-28 -84 -28 -170q9 -48 9 -82q0 -44 -14 -67q-23 -38 -58 -38q-8 0 -17 2q-54 39 -55 44q-27 46 -30 105q-5 34 -5 100q0 44 2 102q-1 38 -21 83q-13 26 -13 43q0 5 2 9q10 37 28 67l7 12q4 19 4 36q0 39 -22 69q19 50 19 75q0 10 -3 15q1 8 1 17q0 28 -14 64 q-15 31 -24 50q-2 5 -2 11q14 34 23 44q13 42 13 77q0 45 -29 98q-6 11 -6 17q0 2 1 3l2 3q20 42 32 62l8 12q14 58 14 103q-4 23 -9 46q-14 36 -17 38q-2 1 -2 5q0 12 15 58.5t18 99.5l8 57q3 70 21 100q14 23 36 23q15 0 33 -10q11 -6 24 -16z"/>
    <glyph glyph-name="braceright" unicode="}" horiz-adv-x="878" d="M107 1512l23 9q8 3 18 3q54 0 138 -114q39 -32 92 -116q43 -60 43 -75.5t52 -149.5q17 -52 49 -159l28 -228v-8l-16 -108l4 -36q-21 -81 -26 -140l-2 -24q-48 -63 -48 -128q0 -44 -43 -98q-32 -59 -41 -95l-9 -30l-12 -17q-64 -38 -131 -92q-29 -12 -60 -16 q-116 25 -116 76q6 74 68 148l61 86l16 30q74 79 91 172q52 138 52 256v20q-4 42 -4 48q4 45 4 84q-20 107 -40 144l-20 41l-4 16q0 36 -32 111v4q0 56 -52 100q-15 50 -49 106q-37 33 -58 110q-3 15 -3 26q0 34 27 44zM517 1313q28 -14 28 -36q-5 -16 -20 -24h-16 q-6 0 -16 16v12q5 32 24 32zM628 1074q16 0 28 -20v-16q-6 -16 -28 -16q-32 4 -32 16v4q0 32 32 32zM676 898l8 -1q9 -2 32 -54q17 -21 17 -38v-3q-19 -42 -42 -42h-1q-17 24 -17 40v2l-7 76l1 12q2 8 9 8zM710 696h4q16 0 40 -108v-16q-12 -100 -44 -100q-40 17 -40 44 q24 58 24 96v20l-4 24q9 40 20 40zM567 40h-8q-12 4 -12 24q0 19 52 180q0 41 76 160h20q12 -4 12 -24v-60q-28 -139 -40 -176z"/>
    <glyph glyph-name="asciitilde" unicode="~" horiz-adv-x="1014" d="M543 595q-25 19 -58 30l-34 4l-25 22q-27 17 -60 17q-15 0 -31 -4l-68 -29q-37 -27 -152 -28q-50 0 -50 37v11q24 47 52 97q44 24 72 71q31 42 86 63q63 33 113 42q12 0 24 -1q48 -26 79 -28l4 -6q34 -38 67 -38h40q16 0 35 4.5t52 35.5l90 31q44 15 78 19q7 2 13 2 q27 0 30 -32l-5 -39l-3 -8q-20 -44 -28 -79l-4 -14q-15 -51 -43 -75l-9 -9q-48 -12 -92 -56q-13 -10 -67 -34q-32 -13 -63 -13q-22 0 -43 7z"/>
    <glyph glyph-name="exclamdown" unicode="¡" horiz-adv-x="677" d="M329 0q-18 0 -88 34q-41 23 -72 74q-60 40 -108 44l-4 8q24 26 24 28l-8 20q0 7 36 68q-8 26 -8 36v8q24 29 24 44q0 9 -28 56v4q52 27 52 76q0 48 -48 84q-2 3 -2 8q0 18 22 64l20 40q0 11 -15 53q0 18 35 51q16 17 74 100q0 39 -64 66q-40 28 -58 68q0 45 -84 60v8 q52 26 52 72q10 4 123 108l113 22q21 4 40 4h20q31 0 112 -52q36 -37 36 -56q15 -35 15 -67q0 -28 -11 -53q0 -62 -108 -128q-36 -31 -36 -40v-12l64 -96q4 -5 12 -60q-12 -62 -12 -68l20 -136v-52q0 -27 24 -92v-8q0 -22 -8 -60l20 -124q0 -120 -88 -172q-22 -32 -88 -32z "/>
    <glyph glyph-name="cent" unicode="¢" horiz-adv-x="1037" d="M462 981l14 -5q29 0 208 -92q112 -86 112 -188v-28q-35 -116 -60 -116h-4q-192 16 -192 84v52q-8 76 -41 79h-6q-21 0 -22 -13q0 -30 -8 -63q0 -7 -6 -52q0 -23 16 -76v-15q-10 -46 -10 -89q0 -41 8 -81l3 -19q-9 -53 -9 -96q0 -17 1 -32l9 -13q57 -26 105 -26 q59 0 116 88q23 20 40 20h20q22 0 32 -20v-4q-12 -140 -44 -140q-9 -17 -140 -96l-144 -40l-7 -6q-28 -102 -70 -102q-37 0 -75 90q0 8 -3 14q-14 27 -20 34q-85 26 -117 52q-51 40 -116 158q-36 84 -36 116q4 58 4 64q-20 61 -20 132q40 154 56 196q47 67 96 128 q73 53 116 60q23 9 42 22l-1 68q28 63 102 92h9q27 0 37 -74q2 -37 5 -63zM208 656q-28 -50 -28 -116q-24 -37 -24 -64q0 -16 48 -120q0 -53 90 -132l9 5q1 37 4 61l-17 104q15 66 16 105q0 28 -7 58q-6 14 -6 30q4 32 15 64l3 26l1 12q0 18 -4 27q-3 7 -13 7 q-4 0 -14.5 -2.5t-72.5 -64.5z"/>
    <glyph glyph-name="sterling" unicode="£" horiz-adv-x="1204" d="M812 1269q46 0 137.5 -101t101.5 -208q1 -10 1 -19q0 -91 -82 -124q-12 -1 -22 -1q-140 0 -158 96q-5 25 -5 101q0 38 -17 81q-81 55 -167 67q-54 -9 -95 -14l-40 -2q-4 0 -109 -84q-55 -71 -55 -79q0 -6 1 -58q-4 -41 -4 -51q0 -11 26 -57q36 -61 56 -61l93 -29l76 -17 q54 -12 69 -69v-5q0 -42 -40 -56l-35 -10q-11 0 -36 -7q-34 -9 -48 -26q-2 -3 -2 -10q0 -13 8.5 -46.5t29.5 -71.5l14 -75q10 -17 32 -37l62 -55q8 -23 49 -65q41 -30 111 -30q46 0 80 30l39 53q40 35 77 73q37 98 73 98h3q21 -40 34 -118q-28 -177 -73 -223t-84 -78 q-17 -14 -64 -14q-60 0 -170 23q-135 47 -173 96q-13 10 -24 12q-31 0 -60 -80q-84 -57 -159 -57q-90 0 -166 84q-34 52 -34 78v10q10 34 10 75q0 21 -3 44q15 60 69 98l71 38l82 23q25 15 29 45l-8 44q2 19 2 32q0 27 -81 42q-95 38 -95 69v13q-3 12 -3 22q0 26 22 38 q20 11 20 37q0 12 -9.5 45t-12.5 109q25 122 72 211q28 41 60.5 69.5t102.5 59.5q67 69 187 69q99 0 234 -47zM202 159v-9q0 -25 23 -32l8 -2l14 -2h10q46 2 64 66v2q2 9 2 18q0 18 -9 38q-14 3 -26 3q-63 0 -86 -82zM100 725q21 -11 21 -48v-35q0 -9 -16 -20q-30 13 -30 30 q-3 19 -3 32q0 41 28 41z"/>
    <glyph glyph-name="section" unicode="§" horiz-adv-x="933" d="M454 1539q30 -20 112 -40q25 -20 64 -108q44 -28 44 -32v-12q0 -19 -76 -108q-21 -20 -36 -20h-12q-56 19 -100 88q-59 88 -108 88q-108 -39 -108 -120q0 -50 100 -100q24 -68 88 -68q23 0 44 -64q112 -88 128 -104q43 -63 100 -84q23 -14 40 -124q11 -35 36 -80 q-4 -16 -4 -28q0 -4 40 -40v-12q0 -11 -56 -24q-28 -34 -40 -132q-72 -46 -72 -68q29 -45 64 -216v-4q0 -65 -76 -100q-25 0 -32 -88q-24 -24 -40 -24q-6 0 -48 4q-12 0 -72 -52h-8q-29 20 -56 28q-27 -4 -44 -4h-16l-104 20l-124 76q-20 28 -55 84l19 60q21 65 36 96 q0 29 150 47q46 8 64 8q36 -45 66 -71q0 -72 40 -72q69 0 76 92q0 51 -64 76q-36 44 -104 44q-23 0 -52 84q-96 13 -96 68q-53 76 -116 76q-18 0 -36 112q-5 0 -8 28q4 96 4 152q0 50 52 156q0 23 64 68q8 15 8 36q0 62 -40 112v16q16 45 44 160q80 93 176 116q34 -4 56 -4 h8q3 0 80 8zM154 843q0 -20 64 -72q24 -88 72 -88l8 -12q-4 -22 -4 -32q1 -17 72 -52q69 -56 100 -56q72 0 140 80q8 36 8 52v8q0 22 -48 60q-6 88 -52 88q-56 -4 -72 -4q-8 5 -36 88q-36 44 -64 44q-7 -4 -16 -4q-19 0 -48 36q-37 0 -100 -84q-24 -33 -24 -52z"/>
    <glyph glyph-name="dieresis" unicode="¨" horiz-adv-x="958" d="M138 1826h44q10 2 21 2q57 0 128 -52l43 -54q13 -36 52 -36q64 0 88 100q0 17 104 36q168 -16 168 -52q44 -43 44 -172q0 -43 -108 -128q-7 -4 -16 -4h-48q-17 0 -44 -4q-78 0 -156 148q-17 16 -32 16h-16q-16 -6 -16 -28q0 -14 4 -36q-14 -37 -104 -96q-47 -20 -64 -20 q-124 0 -192 96q-12 27 -32 124q32 41 52 120q47 40 80 40z"/>
    <glyph glyph-name="copyright" unicode="©" horiz-adv-x="1458" d="M770 1214q24 0 173 -76q93 -71 93 -157v-23q-29 -96 -50 -96h-3q-160 13 -160 69v44q-7 63 -40 63q-16 9 -38 9q-11 0 -35.5 -4.5t-64.5 -34.5q-15 -21 -58 -60q-23 -42 -23 -96q-20 -31 -20 -54q0 -13 40 -99q0 -48 89 -123q36 -23 68 -23q6 0 27 2.5t68 6.5q50 0 97 73 q19 17 53 17h17q18 0 26 -17v-3q-10 -116 -36 -116q-8 -15 -117 -80l-119 -33q-217 35 -217 66q-69 35 -123 133q-30 70 -30 97q4 48 4 53q-17 51 -17 110q33 128 47 163q38 55 79 106q61 44 97 50q80 33 166 33h7zM671 1447q96 0 272 -51q129 0 346 -243q17 -57 40 -168 q-6 -34 -6 -55v-11q28 -89 28 -96v-51q-62 -129 -62 -152v-15q0 -16 11 -76q-48 -129 -260 -233q-70 -67 -216 -97q-65 -5 -73 -10q-190 0 -341 86q-69 0 -209 198q-12 24 -12 46q-56 60 -69 214l-6 93l-21 67q34 120 34 153q83 208 136 208q71 43 153 127q30 25 255 66z M295 1030v-7q0 -40 -31 -106v-27q-19 -117 -19 -141q0 -25 62 -156q78 -100 78 -123q0 -70 254 -156q21 -20 76 -20q247 20 247 74q102 52 151 156q38 155 46 271l-8 132q-14 78 -72 151q0 74 -97 156q-70 42 -171 67q-24 34 -76 34q-79 -42 -219 -74q-25 -20 -127 -97 q-94 -74 -94 -134z"/>
    <glyph glyph-name="ordfeminine" unicode="ª" horiz-adv-x="2003" d="M56 1128q0 -98 193 -166q127 -36 231 -36q6 0 53 -34q95 -61 168 -61h3v1q-50 24 -83 97q113 17 173 38q179 68 179 161q0 103 -204 170q-124 35 -256 35q-237 0 -390 -97q-67 -52 -67 -108zM499 1339h33q193 0 350 -80q97 -61 97 -128v-5q0 -105 -211 -175 q-72 -19 -138 -27q28 -58 81 -90v-7q0 -1 -4 -4q-99 0 -224 95q-124 0 -269 49q-164 68 -164 158v11q0 70 120 136q152 67 329 67zM977 904h11q72 0 138 -136q21 -36 31 -42q136 -102 178 -143q65 -7 77 -20l97 -41q36 -19 47 -54q6 -8 11 -24q-6 -3 -17 -6v-2q14 -3 70 -34 q191 -46 222 -80q11 -13 11 -20v-2q0 -3 -3 -3q-10 0 -42 11q0 -5 -2 -8q-6 0 -130 35q-31 8 -94 19q114 -84 140 -99l101 -55l5 -6v-5h-2q-14 3 -15 3v-7q0 -4 -3 -4l-28 8q-2 0 -10 -1q-1 0 -17 9q0 -14 -9 -14q-10 0 -27 11q-1 -8 -5 -8h-3q-9 0 -39 19q0 -2 -5 -5 l-43 24q0 -3 -4 -3h-3q-42 20 -50 20q-14 -3 -20 -3h-3q-8 0 -132 29l-15 2q-28 0 -41 -22l-3 -1q-45 21 -56 21q-10 -1 -10 -4l5 -3q0 -5 -6 -5l14 -13q-6 -2 -6 -4q1 0 1 -2l-8 -1q5 -24 5 -44l-3 -2q0 2 -2 2q0 -13 -28 -53q-23 -64 -23 -69t-2 -11q2 -10 2 -20v-8 q0 -3 11 -11q6 0 15 3q27 -10 27 -30q1 -6 1 -11l-3 -1q-11 28 -22 28h-9q-4 -10 -8 -11q-7 0 -28 11q-7 -14 -23 -31q0 -7 -8 -11h-3l-11 1q-10 -14 -10 -28h-3v16q0 9 25 51l-14 -11h-8q-2 0 -6 7q-3 0 -19 -16v3q0 20 30 25q43 28 45 44q18 53 25 102v1q0 11 -6 52l2 9 q0 4 -2 13q3 11 3 17q-19 17 -28 17v-2l6 -20l-9 -8l2 -3v-1h-4v3h-4q6 -10 6 -14v-2q0 -8 -6 -11h-2l-17 16l-3 -2q-3 2 -5 2q0 -2 -1 -2q4 -8 4 -14l-3 -1h-8l-7 11h-2v-4q2 -33 2 -39q0 -31 -52 -76q-19 -20 -19 -27v-3q2 -5 10 -5l39 11q20 -5 20 -25q0 -3 -3 -3 q-7 17 -14 17q-10 0 -13 -17q-5 -3 -9 -3h-2q-17 0 -42 3q-12 -8 -17 -8h-11q-4 0 -16 6l-7 -1h-4q-6 0 -12 1q-6 -1 -13 -1q-4 0 -4 8q-11 -10 -11 -14h-3v3q0 10 9 22v1q0 3 -8 5q-9 -2 -17 -9h-2q0 12 19 17q3 0 30 -11h22q23 0 23 11q17 7 60 56q0 2 1 5 q-15 106 -33 156q-39 96 -79 136q-1 13 -54 63q-15 26 -17 51l2 26q-6 22 -6 32l-5 -3q-3 0 -3 3q1 3 1 7q-4 0 -4 14h-2v-5h-3v2q0 6 5 34l-2 3q5 17 6 56v4h-1q0 -9 -7 -11h-1v42q0 56 -50 56q-83 5 -83 11q0 12 34 35q59 25 104 26q38 25 65 25zM357 1266h5q11 -1 11 -5 q-2 -4 -4 -5q-8 1 -9 1q-4 0 -4 -7v-3h4q6 0 8 -3v-2q0 -1 -5 -4h-7v-32q-1 -7 -7 -7q-7 3 -7 8v31h-7q-2 1 -4 5q2 4 8 4h3v3q0 16 15 16zM567 1266h4q5 -2 5 -9v-15q8 6 13 6h7q17 0 20 -23v-2q-3 -24 -23 -24q-8 0 -17 7q0 -4 -7 -7q-8 0 -8 9v51q0 5 6 7zM506 1264h5 q1 0 5 -4v-13h7q4 -1 4 -6l-4 -3h-7v-24q0 -4 4 -5l6 1h2q2 0 3 -3v-3q0 -3 -14 -5q-16 0 -16 16v23q-7 0 -7 3v4q1 2 7 2v10q0 5 5 7zM396 1248h6q25 -3 25 -25q-4 -24 -28 -24q-25 0 -28 25v1q4 23 25 23zM440 1248h5q4 -1 4 -7q8 7 16 7h4q17 -2 17 -14v-30q-1 -3 -7 -5 q-6 0 -8 10v22q0 7 -7 7h-3q-10 0 -10 -14v-18q-2 -7 -8 -7q-7 3 -7 8v33q0 7 4 8zM627 1248h5q4 0 15 -35h1q13 35 17 35h4q2 0 4 -3v-1q-21 -61 -32 -61q-1 -1 -5 -1h-7q-6 0 -9 5v1q0 2 5 4h9q3 1 7 9q-18 38 -18 41v3q0 1 4 3zM385 1224q0 -13 13 -15h2q12 2 12 15 q0 15 -14 15q-10 0 -13 -15zM576 1223q0 -14 14 -14q10 0 12 16q0 14 -14 14q-12 -2 -12 -16zM147 1159h2q8 0 8 -9v-46h33q2 0 5 -3v-4q0 -1 -5 -3h-41q-7 0 -7 6v54q0 2 5 5zM274 1159q8 0 8 -12v-23l20 17h4q2 0 5 -4v-2q0 -2 -13 -12q17 -22 17 -25v-2q-2 -3 -6 -4 q-7 0 -20 23q-2 0 -7 -6v-7q0 -7 -6 -9h-5q-1 0 -4 3v57q0 6 7 6zM479 1159q6 0 7 -7v-23q32 30 36 30h1q5 0 7 -5q0 -6 -21 -21q23 -29 25 -35q0 -4 -7 -6q-8 0 -23 23q-6 8 -7 8l-11 -10v-13q-2 -8 -9 -8q-7 3 -7 8v52q0 7 9 7zM659 1159h4q5 -2 5 -9v-26l21 17h2 q6 -1 6 -3v-1q0 -5 -12 -14q16 -21 16 -25v-2q-2 -3 -6 -4q-6 0 -20 23q-1 0 -7 -6v-9q0 -5 -7 -8q-6 0 -7 7v53q0 5 5 7zM208 1141h2q7 0 7 -6v-20q0 -12 9 -12h2q10 1 10 9v20q0 7 5 9h5q5 -1 5 -6v-39q0 -1 -5 -3h-4q-5 2 -5 7q-8 -7 -15 -7h-5q-16 0 -16 18v23q0 5 5 7z M347 1141h6q21 0 21 -19v-15q0 -1 2 -10v-1q-2 -3 -6 -4q-4 0 -9 7q-12 -7 -20 -7q-19 3 -19 13q0 15 37 18v1q0 8 -7 8h-6q-5 0 -14 -9q-5 0 -7 4v2q3 12 22 12zM403 1141h5q18 0 21 -11v-1q-2 -4 -6 -4q-11 8 -15 8h-3q-6 0 -7 -4q0 -5 27 -10q7 -6 7 -10v-1 q0 -14 -24 -16q-24 2 -24 13v2q2 4 6 4q3 0 11 -9l5 -1h4q6 0 7 3v4q0 2 -26 9q-6 6 -7 10q0 11 19 14zM550 1141h5q4 -1 4 -6h1q0 4 10 6h2q12 0 12 -8q0 -1 -4 -4l-14 1q-6 -4 -6 -13v-15q-1 -10 -7 -10q-6 2 -7 4v39q0 5 4 6zM610 1141h8q21 0 21 -15v-15q2 -13 2 -15v-1 q0 -1 -6 -3q-4 0 -8 7q-12 -7 -21 -7q-18 3 -18 12v2q0 13 30 16l7 1v3q0 5 -5 6h-9q-5 0 -13 -9q-8 0 -8 6q0 9 20 12zM733 1141h7q25 -3 25 -25q-5 -24 -28 -24q-25 0 -28 25v1q4 23 24 23zM779 1141h5q4 -1 4 -6h1q0 4 10 6h2q12 0 12 -8q0 -1 -4 -4l-14 1q-6 -4 -6 -13 v-15q-1 -10 -7 -10q-6 2 -7 4v39q0 5 4 6zM839 1141h8q21 0 21 -15v-15q2 -13 2 -15v-1q0 -1 -6 -3q-4 0 -8 7q-12 -7 -21 -7q-18 3 -18 12v2q0 13 30 16l7 1v3q0 5 -4 6h-10q-5 0 -13 -9q-8 0 -8 6q0 9 20 12zM723 1117q0 -13 13 -15h2q12 2 12 15q0 15 -14 15 q-11 0 -13 -15zM338 1109v-5q1 -3 7 -3h1q13 0 13 10v5q-21 -4 -21 -7zM603 1109v-2q0 -6 7 -6h3q12 2 12 9v6q-22 -4 -22 -7zM832 1109v-2q0 -6 7 -6h3q12 2 12 9v6q-22 -4 -22 -7zM409 1051h5q24 -2 24 -18v-1q0 -13 -28 -29q0 -1 -4 -5v-1h24q8 0 9 -3v-4q0 -1 -4 -3h-40 q-9 0 -9 6q0 7 34 31q4 5 4 9q0 7 -13 9q-8 0 -13 -13q-4 -2 -6 -2q-4 1 -5 3v5q0 12 22 16zM475 1051q24 -3 24 -26q1 -5 1 -7q0 -20 -11 -28q-7 -4 -14 -4h-4q-15 0 -23 18q-1 8 -1 13v3q0 26 20 31h8zM532 1051h8q21 -3 21 -19q0 -11 -30 -31l-3 -4h26q6 0 8 -4v-3 q0 -1 -4 -3h-43q-5 2 -5 7t35 32q2 6 2 7q0 7 -13 9q-7 0 -13 -13q-3 -2 -5 -2q-6 2 -6 6q0 14 22 18zM599 1051q24 -3 24 -26q1 -5 1 -7q0 -20 -12 -28q-7 -4 -13 -4h-4q-16 0 -23 18q-1 8 -1 13v3q0 26 19 31h9zM462 1017q0 -22 12 -22q11 2 11 16v15q0 16 -13 16 q-10 0 -10 -25zM585 1017q0 -22 13 -22q10 2 10 16v15q0 16 -12 16q-11 0 -11 -25z"/>
    <glyph glyph-name="guillemotleft" unicode="«" horiz-adv-x="1299" d="M487 889q8 -2 16 -2q5 0 13 2q54 -11 101 -24q11 0 53 -7l3 1q66 -9 102 -23q20 -5 51 -6q8 31 33 31q9 3 9 4l18 -1h13q9 -4 37 -6h11l97 12q10 2 24 11h3q8 0 12 -8v-15q0 -21 12 -75l5 -31q-3 -20 -6 -20h-5q-3 0 -7 37q-4 0 -5 8h-5v-1q5 -6 5 -47v-8q5 -5 5 -11 q-5 -8 -8 -20q0 -1 1 -1l-1 -16v-6q0 -3 3 -3h1q3 0 7 6v2l-2 15l6 3q8 -2 8 -10v-16q0 -44 -11 -108q-5 -7 -9 -48q0 -6 -11 -11q-61 8 -99 15h-14q-10 0 -74 -24l-11 -2q-16 0 -31 15q-10 0 -30 59q-1 9 -1 17q0 3 3 8h-2q-14 0 -54 -29q-55 -27 -83 -33l-3 2 q-24 -3 -38 -3l-13 1l-4 -1q-2 0 -34 14v-2q0 -21 -82 -45l-29 -3l-23 5l-3 -2q-36 16 -36 34v3q0 7 3 25l-3 -2h-14q-16 0 -31 28v20q0 7 8 16v1q-42 7 -42 27q-3 0 -3 11v10q12 39 28 39q18 25 48 44q2 0 4 4v2q-5 0 -13 -2l-27 11h-8q-24 -14 -51 -14v-1l-10 1h-5l-9 -1 q-3 1 -22 4q-31 -17 -85 -28q-64 2 -71 36l-2 8q13 26 28 26q19 7 39 11q5 4 63 18q31 14 64 21q13 13 71 13q40 10 90 28q31 7 32 7zM1049 853v-2q0 -2 5 -4q3 0 4 7l-4 4q-3 0 -5 -5zM978 825v-6q4 -17 8 -17q12 16 12 23t-6 17q-6 -1 -14 -17zM1021 830v-7q0 -17 5 -17 q9 9 14 21q-7 15 -10 15zM845 831v-4l10 1h2q13 0 28 -42q4 -28 12 -28v4l-11 34q-8 27 -23 45h-1q-17 -4 -17 -10zM896 827q6 -12 6 -16h1q2 0 11 12v4q0 8 -4 9h-7q-7 -5 -7 -9zM938 827q7 -25 9 -25q11 13 11 18q-4 0 -7 14l-3 2q-7 -3 -10 -9zM1060 830v-3q6 -22 6 -27 h5q0 7 1 10q-4 20 -8 20h-4zM921 805l-11 -20q4 -20 7 -20q13 12 13 20q0 7 -5 20h-4zM1006 803q-14 -21 -14 -26q3 -11 3 -15h3q14 14 14 23q-2 18 -6 18zM1044 802q0 -4 -9 -11q-3 -4 -3 -6q0 -7 8 -19q-3 -5 -3 -8q1 -3 1 -4h2q0 7 12 20v8q0 5 -6 14v3l1 3h-3zM953 774 v-9q1 -3 3 -3q7 2 16 10q-1 25 -8 25t-11 -23zM922 743l2 -3q0 -4 -3 -9q1 -9 1 -16q16 13 22 26q-5 15 -5 17h-3q-1 0 -14 -15zM999 728q0 -2 5 -14h2q17 16 17 18q-2 25 -8 25q-16 -16 -16 -29zM975 755q-14 -21 -14 -27q0 -4 3 -14q18 19 18 31q-3 4 -3 10h-4zM896 751 v-5q0 -15 7 -49v-5l-1 -3q0 -2 1 -5q-1 -11 -1 -12q1 -14 1 -16l-4 -34q0 -1 1 -4q-4 -41 -12 -65q-9 -33 -31 -33q-9 2 -19 20h-1v-4q15 -25 34 -25q23 18 23 45l6 4q-1 9 -1 13l6 18l-2 3l5 10q0 23 3 37l-1 8q1 21 1 26l-1 3l1 3l-11 73h-1q-3 -1 -3 -3zM1041 729v-15 l2 -10q-2 -2 -2 -7v-5q1 -3 3 -3q17 20 17 31q-1 23 -4 32h-2q-12 -12 -14 -23zM945 717q-20 -20 -21 -41v-1l1 -8h3l22 28q-1 22 -5 22zM984 717q-13 -16 -22 -30q2 -7 2 -20q4 0 25 25v3q0 4 -3 14q1 3 1 6zM1023 707l-19 -24q-1 -2 -3 -31q23 15 23 28v18l2 8zM1035 625 h2q21 15 21 47v9h-1q-22 -13 -22 -56zM921 624q1 0 1 -2q7 0 26 25q0 3 2 6l-2 8l2 9h-2q-27 -23 -27 -46zM961 625q0 -3 1 -6q-1 -3 -1 -6l3 -2q17 17 23 25l-1 11v3q0 11 3 11q-2 3 -2 5h-1q-25 -23 -25 -41zM424 656v-3q10 2 10 6v2q-7 -5 -10 -5zM1078 653 q-6 -7 -10 -34l1 -3q-1 -3 -1 -6h1q10 7 13 17l-2 14l2 11zM407 642h3q2 0 6 7l-3 1q-3 -1 -6 -8zM1020 649q0 -4 -19 -25q-3 -15 -3 -17v-16h1l22 22v5q0 10 2 31h-3zM390 630h4q0 2 2 5h-2q-2 0 -4 -5zM526 624h4q3 0 3 3v1h-3q-2 0 -4 -4zM499 608v-1q17 6 19 12v2h-2z M942 621q0 -3 -23 -27q0 -16 -3 -18v-8q25 17 25 20q4 16 4 33h-3zM1049 621q-22 -30 -22 -39q0 -8 -1 -14h3q20 13 20 39q3 0 3 12zM978 607q0 -4 -19 -20q-8 -14 -8 -33v-5l2 -3q10 0 23 22l-1 3q0 4 9 23v2l-2 11h-4zM1058 560h2q15 5 15 33q-17 -11 -17 -33zM987 534 q2 0 2 -2q21 14 21 39v3h-3q-20 -14 -20 -40zM900 517v-2q31 11 31 33q3 0 7 14h-4q-34 -25 -34 -45zM1016 529v-4h4q21 16 21 29v5h-1q-24 -18 -24 -30zM1052 519h3q14 7 14 26h-1q-16 -8 -16 -26zM962 531v-2h2q2 0 6 7v1h-1q-3 0 -7 -6zM547 533v-3h4v3h-4zM538 526 l-1 -1l1 -1h1q2 0 7 3v1h-1q-1 1 -2 1q-2 0 -5 -3z"/>
    <glyph glyph-name="registered" unicode="®" horiz-adv-x="1453" d="M673 1447q96 0 272 -51q129 0 346 -243q17 -57 40 -168q-6 -34 -6 -55v-11q28 -89 28 -96v-51q-62 -129 -62 -152v-15q0 -16 11 -76q-48 -129 -260 -233q-70 -67 -216 -97q-65 -5 -73 -10q-190 0 -341 86q-69 0 -209 198q-12 24 -12 46q-56 60 -69 214l-6 93l-21 67 q34 120 34 153q83 208 136 208q71 43 153 127q30 25 255 66zM297 1030v-7q0 -40 -31 -106v-27q-19 -117 -19 -141q0 -25 62 -156q78 -100 78 -123q0 -70 254 -156q21 -20 76 -20q247 20 247 74q102 52 151 156q38 155 46 271l-8 132q-14 78 -72 151q0 74 -97 156 q-70 42 -171 67q-24 34 -76 34q-79 -42 -219 -74q-25 -20 -127 -97q-94 -74 -94 -134zM794 1200q8 -9 73 -30q20 -17 72 -45q33 -32 33 -86q9 -16 9 -37q0 -12 -9 -42l-2 -27v-11q0 -47 -34 -93q-28 -22 -31 -48v-4q0 -9 18 -65q16 -102 37 -102q35 -66 87 -66 q28 -12 28 -21q-2 -32 -24 -53q-14 -19 -72 -19q-34 0 -77 47q-22 26 -44 46v11q0 35 -21 66q-3 43 -3 51v2q0 32 -53 73q-45 17 -52 17q-79 -3 -79 -26q-20 -24 -26 -47l3 -16v-2q0 -21 -5 -40q5 -20 5 -51v-3q0 -29 64 -60q5 0 52 -28l24 -24v-4q-50 -35 -73 -35h-32 q-40 -5 -45 -5h-11q-17 0 -26 2q-63 -2 -100 -9h-5q-61 18 -61 40q46 36 46 45l7 7q49 17 57 67l-12 74v3q7 30 7 32v7l-11 66q0 31 9 70q0 13 -5 119l3 23q-6 105 -38 105q-13 11 -63 21q-23 18 -23 33v4q0 35 77 47q17 9 28 9q25 -4 33 -4q6 0 35 9q16 0 102 -5q24 5 33 5 l47 -7h2q13 0 40 14h6zM614 1016q0 -4 13 -33q0 -4 -13 -24q0 -2 -2 -7q29 -65 46 -65q32 2 43 2q10 -6 29 -10l13 2l34 -2q72 21 76 52q28 14 28 68q0 23 -41 51q-16 0 -38 25h-2q-30 -4 -34 -4q-8 0 -50 12q-59 -6 -79 -21q-23 -22 -23 -46z"/>
    <glyph glyph-name="macron" unicode="¯" horiz-adv-x="1100" d="M361 1645h8q4 0 46.5 -10.5t49.5 -10.5l97 18q16 0 100 -20l36 -4q27 0 116 12q132 -39 132 -96q0 -47 -96 -96l-16 -4q-32 8 -80 8q-57 -12 -112 -21l-21 -2q-77 11 -103 15l-144 -20q-71 20 -88 20q-89 -4 -96 -4q-140 39 -140 96v12q2 52 64 81q52 19 70 19h12 q4 0 58 -8h12q11 0 95 15z"/>
    <glyph glyph-name="degree" unicode="°" horiz-adv-x="751" d="M413 1395q76 0 174 -142q52 -36 52 -77v-13q0 -224 -140 -300q-59 -44 -190 -44q-27 0 -57 2q-146 82 -187 220l-6 32v38q0 215 226 271q75 13 128 13z"/>
    <glyph glyph-name="plusminus" unicode="±" horiz-adv-x="1224" d="M505 1379q37 0 60 -84q60 -42 60 -60q-8 -48 -8 -76q0 -80 60 -100q58 0 76 104q0 27 20 36q56 -32 56 -92l-4 -28q0 -33 104 -48q132 -61 132 -96v-4q-19 -64 -64 -64q-25 0 -96 -48q-68 0 -68 -44v-16q8 -118 8 -128q0 -100 -60 -100q-48 5 -48 32q32 68 32 128 q0 8 -36 68q-7 56 -52 56q-52 0 -52 -128q-4 0 -4 -20q8 -48 8 -76q-23 -100 -88 -100h-4q-80 17 -80 80v24q0 19 4 40q-14 164 -76 164q-34 0 -72 36q-7 4 -16 4q-7 0 -56 -16l-112 20q-76 46 -76 100q0 59 164 80q0 6 40 8q48 -8 72 -8q75 0 112 92v4q-4 48 -4 72 q13 184 44 184zM781 1275h8q6 0 12 -12v-8q0 -6 -16 -16h-8q-8 0 -8 8v16q0 6 12 12zM641 411q95 -8 140 -16q52 4 104 12q39 -20 164 -28q50 -25 64 -56v-20q0 -42 -72 -82q-29 -12 -36 -12q-38 8 -60 8h-20q-14 0 -72 -20l-28 4h-20q-19 0 -73 -11l-63 7q-36 -13 -55 -13 q-16 0 -21 9h-60q-53 -20 -56 -20q-18 23 -61 23q-24 0 -55 -7q0 8 -64 16l-56 -8q-184 7 -184 60q-4 0 -4 22v8q21 92 88 92q60 -8 88 -8q21 0 180 28q11 0 80 -4q81 16 152 16z"/>
    <glyph glyph-name="acute" unicode="´" horiz-adv-x="733" d="M372 1831q26 0 38 -35q0 -21 88 -53q54 -44 82 -111v-3q0 -13 -73 -132q-59 -36 -96 -93q-52 -30 -126 -82q-44 -17 -155 -23q-10 0 -15 3q-47 44 -47 61v6q3 13 9 26q16 51 134 178q6 56 20 56q32 28 38 61q0 5 -2 35q5 11 17 15q4 0 15 -18q14 0 17 9v3l-20 23v3 q0 23 53 41q12 27 20 30h3z"/>
    <glyph glyph-name="periodcentered" unicode="·" horiz-adv-x="742" d="M293 975h5q164 0 195 -63q46 -33 87 -146q3 -38 10 -58l7 -23q0 -7 -56 -66q-55 -119 -148 -119q-27 0 -95 -5q-66 0 -204 136q0 5 -27 109q59 158 100 158q88 77 126 77z"/>
    <glyph glyph-name="periodcentered" unicode="∙" horiz-adv-x="742" d="M293 975h5q164 0 195 -63q46 -33 87 -146q3 -38 10 -58l7 -23q0 -7 -56 -66q-55 -119 -148 -119q-27 0 -95 -5q-66 0 -204 136q0 5 -27 109q59 158 100 158q88 77 126 77z"/>
    <glyph glyph-name="cedilla" unicode="¸" horiz-adv-x="819" d="M550 -127l1 -40q-3 -48 -10 -79l-5 -20l-18 -35q-23 -30 -53 -48t-69 -29q-34 -10 -51 -10h-5q-58 2 -81 6q-55 11 -100 47q-44 35 -44 60v1q0 21 5 34q2 10 25 23q5 2 12 2q31 0 78 -10q16 -1 31 -1q52 4 74 19q16 18 16 38q0 21 -19 44q-14 19 -24 34q-51 39 -51 56 q0 7 9 11l14 2l269 24q2 -5 2 -12q0 -17 -14 -41q-3 -6 -3 -15q5 -34 11 -61z"/>
    <glyph glyph-name="uni00B9" unicode="¹" horiz-adv-x="2302" d="M322 866h5q55 0 77 -59l2 -21q0 -51 -67 -74h-19q-53 0 -75 60q-2 11 -2 16q12 78 79 78zM470 866h4q3 0 11 -10v-115h65q15 0 15 -14q-4 -10 -9 -11h-86q-17 0 -17 21v108q0 21 17 21zM724 866h9q10 -5 10 -16v-66q41 41 43 41h11q9 -4 9 -12q0 -1 -26 -31l34 -53 q-2 -17 -15 -17q-12 6 -43 53q-13 -13 -13 -14v-22q0 -13 -15 -17q-15 0 -15 21v112q0 16 11 21zM1152 866q17 0 17 -23v-43q3 0 65 62l6 4h5q11 0 15 -8v-10q-37 -39 -43 -39q0 -6 49 -74q2 -4 2 -8v-5q-6 -10 -17 -10q-14 0 -56 72h-2q-3 0 -24 -23v-20q0 -29 -17 -29 t-17 29v102q0 23 17 23zM1533 866q13 0 13 -14v-68q40 41 50 41h4q3 0 8 -8q0 -10 -25 -33v-2q34 -48 34 -58q-5 -12 -15 -12q-11 3 -41 51q-15 -9 -15 -12v-22q-2 -17 -15 -17q-12 0 -15 23v108q0 23 17 23zM260 788q12 -59 58 -59h13q46 0 58 59q-9 62 -65 62 q-64 -9 -64 -62zM324 833q26 0 37 -24l-6 -5h-13q0 10 -18 13q-19 0 -19 -23v-14q0 -11 13 -19h6q11 0 22 17q15 -5 15 -8q-11 -25 -37 -25q-38 6 -38 35q-2 0 -2 10q5 43 40 43zM591 825h10q11 -5 11 -21v-51q0 -11 11 -16h11q21 0 21 33v41q0 14 15 14h5q10 -5 10 -16v-76 q0 -16 -8 -19h-11q-8 0 -9 17q-17 -17 -34 -17h-7q-34 4 -34 33v64q0 11 9 14zM875 825h23q37 -4 37 -33v-33q0 -15 6 -35q-4 -9 -8 -10h-11q-2 0 -15 15q-18 -17 -41 -17q-37 6 -37 33v2q0 27 63 35q4 0 15 4q0 13 -11 18h-23q-4 0 -22 -20h-2q-12 0 -15 10q0 24 41 31z M1002 825h10q39 -6 39 -27q-3 -10 -15 -10q-22 19 -30 19h-4q-12 0 -15 -9v-4q4 -7 58 -22q13 -14 13 -23q0 -33 -52 -37q-50 7 -50 31q3 8 11 12q9 0 26 -20l13 -2h6q15 0 15 14q0 7 -53 23q-15 10 -15 22q0 33 43 33zM1303 825h9q8 0 8 -14l17 14h13q13 0 22 -12v-9 q-1 -4 -11 -8q-8 4 -17 4h-2q-20 0 -20 -45v-26q-2 -17 -15 -17q-15 4 -15 19v73q0 16 11 21zM1432 825h17q39 0 39 -47v-33q0 -2 4 -23q0 -3 -8 -8h-11l-15 15q-18 -17 -39 -17q-39 6 -39 35q0 27 65 35q13 2 13 6q0 16 -15 16h-13q-10 0 -28 -20h-7q-3 0 -8 8v10 q12 23 45 23zM1682 825h15q42 0 49 -53v-4q-7 -56 -56 -56q-58 9 -58 49v11q7 53 50 53zM1778 825h9q9 0 9 -14l17 14h13q13 0 21 -12v-9q-1 -4 -10 -8q-8 4 -18 4h-2q-19 0 -19 -45v-26q-2 -17 -15 -17q-15 4 -15 19v73q0 16 10 21zM1908 825h17q39 0 39 -47v-33 q4 -20 4 -23t-9 -8h-11q-1 0 -15 15q-18 -17 -38 -17q-39 6 -39 35q0 27 64 35q13 2 13 6q0 16 -15 16h-13q-10 0 -28 -20h-6q-3 0 -9 8v10q12 23 46 23zM1662 774v-11q3 -28 26 -28h2q22 0 26 28v11q0 30 -28 30q-22 0 -26 -30zM860 745q0 -7 10 -12h11q26 0 26 35h-2 q-45 -7 -45 -23zM1410 745q3 -8 11 -12h11q26 0 26 32v3q-48 -7 -48 -23zM1886 745q3 -8 11 -12h11q25 0 25 32v3q-47 -7 -47 -23zM851 620q13 0 15 -17q-3 -8 -11 -12h-4q-15 0 -15 14q0 11 15 15zM1180 563v9q2 5 8 5h12v14q0 29 37 29h4q17 0 22 -10v-7q0 -4 -11 -6 q-11 2 -13 2q-8 -3 -8 -6v-16h8q13 -2 13 -6v-9q0 -3 -6 -6h-15v-67q-3 -23 -15 -23q-13 0 -16 16v74h-6l-10 1q-4 2 -4 6zM126 616h4q15 0 15 -15v-24h15q4 0 9 -8v-5q0 -3 -9 -8h-15v-51q0 -15 9 -16l13 2h4q3 0 6 -7v-6q0 -9 -30 -12q-32 0 -32 45v45q-15 0 -15 6v7 q0 6 15 8v12q0 24 11 27zM909 616h9q3 0 10 -11v-28h16q8 -4 8 -15l-8 -6h-16v-55q0 -10 9 -12l13 2h4q3 0 7 -7v-6q0 -8 -30 -12q-33 0 -33 37v53q-15 0 -15 6v9q2 6 15 6v22q0 11 11 17zM1547 616h4q11 -6 11 -17v-22h9q12 -2 12 -6v-9q-2 -6 -12 -6h-9v-61q0 -3 6 -6 q12 2 20 2q6 -7 6 -11q-4 -14 -32 -14q-30 0 -30 35v55q-17 0 -17 11q2 10 17 10v24q0 15 15 15zM2059 616h11q11 -3 11 -27v-12h8q13 -2 13 -6v-9q-2 -6 -13 -6h-8v-61q0 -3 6 -6q12 2 19 2l5 -7v-8q-9 -10 -28 -10q-33 2 -33 25v65q-17 0 -17 8v5q0 7 17 8v24q0 11 9 15z M188 579h9q9 0 34 -80h2q23 74 33 80h10q5 -1 9 -10q-48 -138 -62 -138q-8 -4 -18 -4h-15q-11 0 -15 8v8q0 3 7 7h21q7 0 13 22q-21 48 -39 95q3 8 11 12zM313 579h9q10 -5 10 -17q17 17 33 17h6q37 0 45 -47v-17q-9 -49 -49 -49q-17 1 -35 16v-39q0 -11 -10 -16h-11 q-7 0 -9 27v104q0 16 11 21zM483 579h13q42 0 47 -49q0 -15 -28 -15h-51q3 -28 25 -28h3q13 0 36 18h7q3 0 6 -6v-2q0 -24 -49 -31q-58 8 -58 49v10q6 54 49 54zM565 579h11q6 0 28 -74h2q17 74 28 74h13q10 0 28 -76h2q20 76 28 76h4q15 0 15 -12q-32 -101 -45 -101h-4 q-17 0 -35 74h-2q-15 -74 -32 -74h-2q-17 0 -33 59q-3 0 -15 44q4 9 9 10zM750 579h11q8 -4 8 -15q12 15 22 15h8q13 0 22 -12v-3q0 -12 -9 -12q-22 2 -26 2q-12 0 -15 -33v-37q0 -12 -15 -18q-13 0 -15 16v78q0 16 9 19zM851 579h4q11 -5 11 -17v-78q0 -12 -15 -18 q-13 0 -15 16v82q0 15 15 15zM1015 579h12q42 0 48 -49q0 -15 -28 -15h-52q4 -28 26 -28h2q14 0 37 18h6q3 0 7 -6v-2q0 -24 -50 -31q-58 8 -58 49v10q6 54 50 54zM1310 579h15q43 0 50 -54v-4q-7 -55 -56 -55q-58 9 -58 49v10q7 54 49 54zM1405 579h11q8 -3 8 -17h2 q10 17 31 17h10q27 0 33 -35v-62q-3 -16 -15 -16q-16 6 -16 18v52q0 20 -15 20h-6q-17 0 -22 -22v-50q0 -12 -15 -18q-13 0 -15 16v82q0 11 9 15zM1642 579h10q39 -6 39 -27q-3 -10 -15 -10q-22 18 -30 18h-4q-12 0 -15 -8v-4q4 -7 58 -23q13 -13 13 -22q0 -33 -52 -37 q-50 7 -50 31q3 8 11 12q9 0 26 -20l13 -2h6q15 0 15 14q0 7 -53 22q-15 11 -15 23q0 33 43 33zM1794 579h11q9 -3 9 -17q16 17 32 17h9q34 -4 34 -33v-70q-2 -6 -15 -10q-12 0 -15 23v51q0 16 -15 16h-7q-21 0 -21 -33v-41q-2 -16 -15 -16q-15 6 -15 18v76q0 16 8 19z M1967 579h8q40 0 47 -47q0 -17 -23 -17h-56v-4q5 -24 26 -24h4q12 0 32 18h9q3 0 6 -6v-2q0 -23 -49 -31q-60 6 -60 57q0 37 36 54q12 2 20 2zM335 534v-21q0 -20 28 -24q23 6 23 30v9q0 30 -28 30q-23 -7 -23 -24zM464 534h49v4q-3 20 -19 20h-9q-16 0 -21 -24zM995 534h50 v4q-3 20 -20 20h-8q-17 0 -22 -24zM1291 528v-11q3 -28 26 -28h2q22 0 26 28v11q0 30 -28 30q-23 0 -26 -30zM1943 534h49q0 17 -15 24h-13q-18 0 -21 -24zM1738 499q18 -2 18 -17q0 -12 -15 -16q-18 2 -18 16v7q7 10 15 10zM1101 582h9q9 0 9 -14l17 14h13q13 0 21 -12v-9 q-1 -4 -10 -8q-8 4 -18 4h-2q-19 0 -19 -45v-26q-2 -17 -15 -17q-15 4 -15 19v73q0 16 10 21z"/>
    <glyph glyph-name="guillemotright" unicode="»" horiz-adv-x="1278" d="M743 893l16 3h3l73 -9q8 1 11 1q43 -5 47 -11q31 0 123 -36q63 -11 63 -50v-2q0 -21 -40 -26h-8q-20 1 -36 2t-36 6q-41 4 -48 4h-34q-24 0 -58 6h-21q-7 -5 -7 -8q37 -19 39 -19q32 -29 37 -57v-21q-8 -34 -45 -34h-13q8 -19 8 -24v-26l-5 -11q0 -16 -45 -21l-16 3h-2 l2 -13q0 -31 -52 -45q-33 3 -39 3q-78 15 -92 32q-45 8 -65 15q0 -1 -2 -1q-4 0 -17 4l-58 11q-49 25 -67 25q-4 0 -7 -1l-9 -7q-18 -88 -53 -88h-39q-13 0 -31 5q-3 0 -42 -8h-29l-13 3q0 -3 -8 -3h-11q-9 0 -18 39q0 12 5 21q21 9 21 16q-5 0 -16 -8h-5q-5 0 -5 5v3 q0 17 5 37q-5 17 -5 23v37q10 13 10 16q-7 14 -7 21q0 8 2 49q0 2 -2 16q5 25 10 34l-8 16q3 18 3 29q0 39 21 39q20 0 78 -8q35 8 79 8q11 0 21 -5l42 -26q144 20 186 31l16 1l154 9h18q8 0 21 -5zM231 811l2 -10h6v2q-4 8 -8 8zM149 809v-7l2 -14h3q6 0 8 16l-5 8 q-5 -3 -8 -3zM191 796q0 -8 5 -8q6 0 8 16l-3 5q-5 -1 -10 -13zM210 750q1 -11 7 -11l3 1l5 9l-4 13q-6 0 -11 -12zM178 760h-3q-8 -5 -8 -8v-8q0 -13 8 -16q2 0 13 13q-4 19 -10 19zM130 752q-7 -8 -7 -17v-10h5q4 0 8 21zM238 723q-5 0 -8 -16l8 -13q5 1 10 13 q-5 16 -10 16zM681 712h-6v-2q3 0 8 -3h5v3q-2 0 -7 2zM193 710v-5q0 -8 6 -16q4 0 5 5v3l-3 13h-8zM149 710q-5 0 -5 -5v-11q0 -19 7 -21q7 0 11 18q-9 19 -13 19zM220 663q-6 0 -6 -6v-5q0 -5 6 -5h2q5 0 5 5v3q-4 8 -7 8zM183 660h-3l-2 -13v-16h7l3 19v5q0 4 -5 5z M130 652l-10 -2v-3q4 -29 13 -29h3l2 13v19q-2 0 -8 2zM640 639h-10q3 -12 17 -12h2v3q-6 9 -9 9zM243 623v-13q5 0 5 6v7h-5zM204 613l-3 -18h3q4 0 5 5v13h-5zM159 597q-4 0 -8 -10q0 -8 6 -8h5l2 13q0 4 -5 5zM230 587v-11h5v5q0 5 -5 6zM183 568v-21q0 -5 5 -5q8 4 8 8 v5q0 7 -5 16q-5 -3 -8 -3zM248 547v-2h6v8q-6 0 -6 -6zM295 550v-8h6v8h-6zM146 545q0 -3 -2 -8q0 -3 2 -8q5 0 5 5v11h-5z"/>
    <glyph glyph-name="questiondown" unicode="¿" horiz-adv-x="2100" d="M1186 72v-9h4q0 2 10 17h-6q-3 0 -8 -8zM918 98v-4h9v4h-9zM1221 106v-6h4q4 0 4 6h-8zM512 100h-6q-5 -1 -5 -6h45q5 0 5 6l-3 6q-19 -6 -36 -6zM1142 128v-4h8q6 6 10 6v3h-5q-9 -5 -13 -5zM590 158h-3v-10q3 0 9 -2q13 10 21 10q0 4 -5 4q-13 -2 -22 -2zM1343 167v-7 h8v5q-3 0 -8 2zM1309 180q0 -11 -5 -15l-4 2q-6 0 -9 -9v-5h2v7h2q8 0 8 -12h1q13 21 21 21v11h-16zM1388 187v-7h4v7h-4zM1250 187v-5h5q5 0 5 5h-10zM637 158v-2q38 4 42 9h7q0 -12 5 -12h7v5q-7 16 -7 20v9h-5q-44 -29 -49 -29zM1286 191v-2h5v2h-5zM1282 212 q85 -38 95 -47h4v9q-17 22 -17 26l-9 -6q-10 16 -24 23q-2 0 -2 -3q-9 3 -11 3l-11 -3q-11 3 -21 3q-4 -1 -4 -5zM1229 217v-3q4 -10 12 -15q6 0 11 1q5 -1 8 -1v1q0 4 -26 17h-5zM1231 234l3 -4q3 0 3 2l13 -2h62v4q-8 15 -41 22h-5zM1125 420v-2h7v2h-7zM1138 422h4 q4 0 8 10v2h-3q-4 0 -9 -12zM1157 453v-3h7q4 0 13 16v1h-3q-17 -10 -17 -14zM560 481q0 -14 -2 -14q2 -3 2 -9h4v23h-4zM1197 488q0 -4 -5 -11v-16h2q0 5 9 16v11h-6zM596 493v-7q3 0 9 10v2h-5q-4 -1 -4 -5zM542 509v-21h4q0 3 9 32h-2q-3 0 -11 -11zM836 520q0 -6 33 -14 q0 -5 7 -8h44q6 0 25 12v10q-13 0 -21 -2q-29 2 -29 4l-11 -2h-22q-4 0 -4 2q-1 -2 -22 -2zM490 531v-7h6v7h-6zM508 550v-5h4v5h-4zM538 553v-31q13 9 13 21q-1 6 -13 10zM481 555v-12h3q0 6 4 12v3q-4 -3 -7 -3zM490 575v-8q5 0 13 -12v-2h5q-12 18 -12 22h-6zM1169 585 v-10h2v10h-2zM486 595v-8h2v8h-2zM427 617h4v4q-4 -1 -4 -4zM600 637v-5q22 -22 30 -57h1l3 24q-10 20 -15 33l-16 5h-3zM1164 642q0 -3 7 -8v8h-7zM486 645v-6h2v6h-2zM592 669l6 -2l2 5v2h-2q-6 -1 -6 -5zM420 689v-11h7q0 12 15 16v12h-1q-13 0 -21 -17zM498 715 q5 -6 5 -9h7q-3 9 -7 9h-5zM600 720q0 -14 -13 -24q-11 0 -27 -11h-2q-5 0 -5 9l-12 -8q-12 0 -26 16h-3q0 -9 -4 -16v-8q0 -3 15 -9q1 5 5 5h5l8 -5h7q12 9 44 17l13 22v12h-5zM479 732v-6q2 0 14 -11h3v6q-11 0 -12 11h-5zM625 739v-7h2v7h-2zM625 785v-13q14 -15 14 -46 q-13 -33 -34 -48v-4h4q15 17 21 17q16 26 21 55q-13 39 -21 39h-5zM608 791v-9h1v9h-1zM766 831v-2h7v2h-7zM546 831q4 -10 7 -10v10h-7zM1053 836v-7q5 -12 16 -12h6v2q-13 0 -17 17h-5zM564 836q0 -3 9 -7h2v2q0 5 -5 5h-6zM523 836q2 -5 2 -10h5l-2 13zM1003 829h7 q0 4 18 12l3 5h-4q-10 -3 -24 -17zM541 848q0 -5 5 -5h2v5h-7zM1088 852v-1h5v1h-5zM1040 852q0 -4 -7 -4v-2h7q5 5 27 5v1h-27zM564 852v-1h6v1h-6zM520 856v-8h3v8h-3zM496 869v-21q7 -7 7 -12l5 3q-7 17 -7 22v8h-5zM467 861v-9q0 -3 12 -9h5v26h-3q-8 -8 -14 -8z M622 882v-8h8v1q0 7 -5 7h-3zM682 900v-4h4v4h-4zM486 903v-7h2v7h-2zM486 913v-5h2v5h-2zM553 931q1 -5 5 -5v5h-5zM762 943v-4h12q0 4 -5 4h-7zM804 945l-5 -6h10q5 0 5 4q-6 0 -10 2zM467 945q0 -9 -9 -9v-2h13v11h-4zM555 948v-5h3v5h-3zM438 948v-5h4v5h-4zM722 955v-5 h8q0 5 -5 5h-3zM460 961q2 -6 5 -6v6h-5zM843 967v-4h2v4h-2zM398 988v-30l3 -24h7v16l-5 8v7q0 2 3 2q-5 13 -5 21h-3zM879 991v-5h5v5h-5zM560 991v-5h3v5h-3zM1261 996v-5h3v5h-3zM774 996v-8l5 -2v2q-2 5 -2 8h-3zM541 997h5v5q-5 -1 -5 -5zM769 1010v-13h5l-1 13h-4z M705 1010v-2q3 -30 22 -30q8 -4 14 -4v1q-27 35 -36 35zM891 1013v-11h2q0 8 13 20l-5 2q-7 -11 -10 -11zM856 1039q0 -13 -22 -24v-7h9q9 9 19 28zM984 1048v-3h4v3h-4zM990 1050h8v4h-3q-5 -1 -5 -4zM605 1054v-6q3 -8 47 -33q0 -7 5 -7h5q0 10 -23 42l-14 -2q-13 6 -20 6 zM1209 1061v-7h7v7h-7zM590 1061v-9h2v9h-2zM415 1067v-17q0 -9 -3 -22l8 -13v-18h7q-7 32 -7 39l7 9q-7 22 -12 22zM573 1076l-3 -4v-11h3q4 0 4 4v7q0 4 -4 4zM717 1113v-13l5 -3l-3 16h-2zM548 1113q0 -4 -6 -11v-5q11 -21 16 -21v24l-5 7q5 0 5 6h-10zM630 1117v-2h7v2 h-7zM712 1124v-11h2v11h-2zM920 1127v-3q12 5 13 11h-5q-2 0 -8 -8zM712 1138v-10q5 3 7 3q0 7 -5 7h-2zM960 1074q-5 2 -7 2l-15 -2v-12l2 -12h9q11 6 11 11v4l-2 5h4q0 -8 5 -8h7q43 22 43 48l21 30v2h-2q-21 -6 -21 -25q0 -30 -55 -43zM1085 1140l5 -2v7q-5 -1 -5 -5z M646 1147q0 -2 -4 -7h9v7h-5zM486 1154v-4h10v4h-10zM901 1160v-6h5v6h-5zM703 1162l2 -12q4 0 4 4v8h-6zM920 1150h4q25 11 25 14h-9q-20 -9 -20 -14zM682 1167v-5h4q0 5 -4 5zM508 1167v-5h2v5h-2zM608 1170v-6h1v6h-1zM1145 1172v-10q17 0 17 -12h7q0 5 15 14l-10 8h-29z M536 1172v-5h5v5h-5zM515 1181v-5h2v5h-2zM985 1189v-5h5v5h-5zM420 1122v-7h4q6 5 30 7q1 -4 1 -9h10q7 0 11 -3q15 14 20 14v11h-3q-8 -7 -12 -7q-1 5 -14 12q12 12 14 32q7 0 7 4v13q-32 -39 -68 -67zM757 1199q-6 -10 -18 -45v-39q0 -2 -3 -2q4 -18 16 -51v-12h14v4 q-5 8 -11 41v5q0 5 2 10q0 3 -2 3q0 7 18 80h-4q-5 0 -12 6zM520 1199v-10h3v10h-3zM490 1199q0 -3 -2 -6h8v6h-6zM1088 1206v-7q5 0 5 5zM979 1206v-4h2v4h-2zM1145 1234v-3h5v3h-5zM590 1234v-8h2v8h-2zM1138 1241q0 -4 4 -4v4h-4zM895 1170v-6h3q18 10 57 22q0 18 33 57 v4l-4 7l-19 -3q-8 3 -10 3q-29 -23 -60 -84zM777 1256l-3 -5v-8h14v4q-4 0 -11 9zM1001 1260v-10q5 0 5 4v6h-5zM1088 1262v-8h17q7 -4 27 -11h6v4q-11 0 -11 7h-15q-6 6 -24 8zM960 1273v-6h14q0 4 -9 6h-5zM1012 1278v-5h3v5h-3zM717 1281v-5h2v5h-2zM990 1289v-5h8v5h-8z M684 1295q-10 -36 -10 -58v-44q8 -9 8 -17h4q5 0 5 5q-5 0 -5 5q0 16 -2 45q2 24 2 45q5 0 5 5v10q0 4 -5 4h-2zM1101 1304l-7 2q-30 -7 -30 -11q11 0 11 -4v-2q0 -4 -8 -8h-14q-8 0 -30 13h-11v-3q25 -13 41 -15q1 -9 7 -9h7q0 11 16 11h15q44 -12 64 -37q11 -10 32 -52 q3 0 3 -3l-5 -7q3 0 11 -21h4v14l-13 38l-56 81v3q2 9 2 10q-2 6 -2 8h-26q-8 -8 -11 -8zM717 1316v-4h2v4h-2zM793 1324v-5h3v5h-3zM642 1324v-5h6q0 5 -6 5zM538 1286v-5q10 -9 10 -17h5v5l-5 7v8q0 4 7 7q12 -10 12 -27h3q2 14 49 46h11v-8h7v4q-7 0 -10 15l-29 3h-8 q-26 -9 -52 -38zM1088 1326l-3 -5v-2h18v5q-2 0 -15 2zM840 1328q3 -4 3 -9h6v2q-4 5 -4 7h-5zM782 1341v-11h2v11h-2zM1023 1343v-2q13 -6 13 -11h17l9 -11v15h-9q-9 0 -30 9zM627 1346q0 -4 10 -8q0 5 20 5v3h-30zM605 1341v-4q6 0 17 6v3h-3q-10 -5 -14 -5zM817 1348v-5 h5v5h-5zM662 1343h7q7 5 13 5v2h-13q-4 0 -7 -7zM817 1360v-10q5 0 5 6zM691 1364q0 -4 12 -12q0 4 6 9q3 0 3 -1q19 1 19 7q-8 0 -12 2q-5 -5 -28 -5zM736 1367h7v4h-2q-5 -1 -5 -4zM960 1376v-15l5 -9v-22q1 0 11 -2v2l-5 18v8q0 5 10 11h3q4 -2 4 -6v-1l-4 -10v-4 q8 -18 19 -22l3 4l-3 6q3 4 3 7q-14 31 -25 35h-21zM839 1373q0 -5 23 -17l1 -6l-10 -12v-1h3q6 8 64 24h7q13 -6 13 -18h11q0 7 7 17q-9 0 -13 11h-12q-27 8 -38 18h-2zM791 1376v-5h8l32 20q3 0 8 -2l14 2q0 4 -4 4q-23 0 -56 -19h-2zM862 1400v-5h4q6 0 6 5v3h-3 q-6 -3 -7 -3zM1515 685q-86 34 -86 127q19 95 86 212v53q0 19 -18 19h-9l-49 -54h-10q-15 0 -28 35v19q0 16 66 70h74q61 -33 61 -89v-25q-94 -162 -94 -250l7 -38h38l37 68l21 9q38 -9 38 -39q0 -96 -134 -117zM709 82l3 -4l5 2h35q5 0 25 -6q8 0 121 16v1q-22 0 -22 3 l-25 -3h-55q-10 0 -27 3q-5 -3 -7 -3q-10 3 -19 3q-2 0 -7 -3q-72 9 -99 26l5 3l72 -9l5 1q6 -1 8 -1q3 0 7 1l15 -1l6 1q10 -4 31 -4h15q6 0 11 3l5 -3q22 3 26 4q10 -1 52 -4q20 4 36 4h36q89 0 185 32q25 16 55 25h18q0 4 12 16l-28 19q-23 0 -88 75q-1 10 -11 20 q-38 67 -38 88q0 6 -5 23v29h-5l-9 -17q0 -11 -47 -59q-10 -24 -32 -37q-26 -22 -56 -22h-27q-51 7 -109 26q-64 30 -108 66v10q2 4 5 4q27 -26 81 -47q2 -3 44 -18q9 -6 62 -19q4 4 10 4q9 -7 15 -7h7q46 8 69 25q88 88 138 183l33 67q22 69 29 134v31q0 4 2 9q-2 3 -2 10 q17 40 36 100v52l2 14q-2 4 -2 7q0 6 2 6l-2 25v19q-19 79 -41 119q-37 7 -37 11l-50 -13q-12 -11 -35 -52q-6 0 -28 -27q-31 -24 -50 -25h-34l-8 4q-34 -67 -51 -74q-32 -22 -70 -27q-3 -3 -17 -3q-42 9 -63 21q-32 -17 -33 -24v-7q1 -5 5 -5h3q10 10 37 10q3 0 3 -3l21 5 q99 -16 131 -46v-3q0 -5 -7 -5q-10 0 -78 30q-5 -3 -8 -3q-16 4 -16 8l-4 -3l-26 3l-25 -5q-5 2 -8 2l-23 -5q0 3 -3 3q0 -7 -24 -20q0 -12 -18 -12q0 -6 -27 -11l-29 8l-8 -10v-3q33 -16 33 -31q15 0 45 -40l4 -24q0 -27 -16 -52q0 -8 -23 -24q0 -9 -43 -17v-5q4 0 8 -3 q18 3 25 5q49 -9 49 -54v-13q0 -44 -47 -70q-9 -1 -9 -17q3 0 7 -7l-10 -14q2 -13 25 -32q0 -5 4 -11v-19l30 -85q9 -39 22 -61q0 -16 14 -45q12 -39 14 -76q-2 -31 -9 -31q-11 11 -17 11q-6 -6 -11 -6q-102 12 -102 17q-5 0 -5 5l3 4q-13 5 -13 10q8 6 55 16l71 26v4 q-10 41 -40 107q-12 41 -24 76v22q0 4 -32 13l-27 17h-8l1 -3l-44 17l-2 8q-14 24 -14 37q-3 0 -49 38q-9 36 -24 51l-17 66v5q-5 15 -5 20q7 48 41 48v3q0 39 -36 63q-8 37 -20 47q-11 9 -11 32v4l18 43q-7 9 -12 40q8 114 27 159q0 2 -2 14l32 31q35 34 35 53 q36 61 80 101q49 48 109 48q6 5 47 20h10q9 0 24 7q12 -7 17 -7h6q14 12 33 14q18 16 64 23q28 -4 30 -7l43 -5q114 -28 210 -94l9 -20q65 -78 72 -116q0 -3 -2 -3l2 -12v-14q0 -11 -2 -28q0 -8 35 -29q22 -28 26 -59q0 -39 -20 -67v-12q4 -6 11 -45q-3 -35 -6 -35l3 -4v-2 q0 -22 -36 -40q-19 -38 -48 -38l-6 -34l2 -18q-4 -24 -4 -29q0 -4 4 -19q-12 -20 -12 -27v-1q13 0 20 -51q3 0 3 -2v-11q-6 -26 -11 -32v-4q29 -31 33 -65q0 -52 -50 -83q-12 0 -31 -17q-10 -2 -11 -2q-12 2 -24 2q0 -7 -10 -7v-20l39 -72q63 -69 68 -69h5q41 34 56 35 q0 3 8 6q24 -4 26 -4h8q0 -13 9 -13v5q-3 2 -4 5l-1 1l24 14q17 -11 17 -12q8 2 16 2t16 -2q15 -6 15 -11v-6q-1 -3 -31 -4q0 -2 -3 -2q-4 2 -10 2l-8 -9q21 -3 21 -20q7 0 19 -28h5v7q0 7 -11 29l-4 6l-3 3q7 3 9 3q4 -2 12 -11q9 -12 21 -39q2 -14 26 -20q5 2 7 2 q0 17 -48 70v3l7 2q22 -7 49 -53l5 -17l-5 -7q0 -7 30 -9q34 -13 53 -24q31 -17 44 -31q26 -13 51 -49q32 -30 69 -60q11 -13 11 -19q0 -8 -14 -9l-42 14q-10 6 -18 26q-9 0 -75 74q-84 68 -124 68l-20 12q0 -7 -13 -7v-19q0 -3 -8 -6q24 -49 24 -137q2 0 2 -11 q-7 -16 -11 -17h-15q-2 0 -5 48v87q-5 33 -19 50h-3l-4 -15v-18q-10 -17 -28 -76q-4 -1 -13 -36v-3l-30 -27q-7 -4 -13 -4t-11 6v5q67 110 69 144v34l-40 -60l-12 5q-47 -112 -57 -120h-6q-5 0 -9 15q17 23 61 110q0 5 14 38h-5q-9 -3 -52 -59q-27 -29 -42 -52h-8 q-4 0 -7 12q-40 -24 -52 -49q-10 0 -31 -18h-9q-3 1 -10 13v5q19 36 70 62q42 34 55 41q14 7 16 7l55 45q0 7 8 7v5h-5q-11 -9 -19 -9q0 2 -3 2q0 -8 -70 -38q-32 -18 -70 -29q-52 -27 -97 -44q0 -8 -31 -10q-44 -13 -128 -31q-50 -13 -52 -13q-3 0 -3 2q-41 -9 -60 -10h-27 q-80 0 -80 13v2q0 7 28 11q2 0 7 -3q95 5 119 12l5 -3l123 22q46 8 87 30l4 -1q26 4 87 32h7v6h-8q-7 -6 -10 -6q-41 0 -163 -22l-4 2l-65 -17q-66 -5 -78 -5q-8 -4 -42 -11q-88 -4 -94 -4q-15 4 -15 11q8 4 15 4q61 2 68 2v3q-4 0 -17 6q-12 -1 -19 -1q-5 0 -5 1l-61 -6h-7 q-48 0 -48 6l-18 -1h-2q-37 0 -37 12q0 2 2 5q3 5 3 6h-29v-4l-105 -41l111 1q3 0 3 -1l5 1l67 5q20 -5 20 -10q0 -4 -5 -8l-12 2q0 -3 -78 -13q0 5 -6 5q-186 -5 -186 -18q0 -3 3 -4q13 -8 13 -14t-12 -9q-38 3 -52 3h-7q-4 0 -21 11l25 23l201 70l10 1h-1l46 17q5 4 52 12 q4 -3 8 -3q0 3 2 3l-12 19v3q0 4 5 4h5q21 -21 21 -48q-3 -5 -3 -11q3 0 3 -2l6 2h2q6 0 10 -2l5 2q9 -5 19 -5h33q10 0 20 -2q11 2 20 2h16l5 -2zM779 548q11 -10 25 -10t68 7h16l36 -7q12 7 18 7h18l19 -9h2q4 0 9 2q11 -3 11 -7v-7q-34 -24 -34 -33q0 -25 -64 -28l-22 -2 q-9 6 -32 9q-21 23 -65 45l-10 12q0 4 5 21zM901 634q23 0 35 -17v-9q0 -6 -5 -6h-4q-7 0 -29 8l-5 -2q-19 2 -19 7v2q7 13 27 17zM762 882l12 -4l14 4q4 -11 8 -11q22 3 33 3v-8h-7v-5l12 3q5 0 5 -5q-3 -6 -3 -8q0 -4 17 -20v-5q0 -4 -14 -12h-22q-4 0 -8 7l8 10v5h-13 q0 -17 -31 -22h-9q-12 0 -15 7v5l6 8v12h-6q-6 0 -6 -5q4 -5 4 -7l-8 -5q-12 4 -12 17q-21 0 -29 -10l2 -5v-2q0 -5 -9 -5q-20 9 -25 12v3q0 3 16 9q-3 4 -3 8q0 13 76 22q5 4 7 4zM1119 903h23q31 0 50 -21q0 -5 -10 -11q-14 13 -30 13h-2l-15 -2q-3 0 -3 2q-46 -6 -68 -13 v-2h34q3 0 23 -8l8 5q0 -1 6 -7l-3 -13q3 0 3 -3q12 5 20 5l2 -5v-4q0 -8 -12 -8l12 -17q0 -6 -38 -14q-2 0 -7 9l3 12v5h-5q0 -23 -38 -28q0 -2 -3 -2h-2q-21 12 -31 33q-13 0 -13 -5l4 -12l-8 -3h-16l-13 -2q0 -12 -5 -40q8 -74 18 -115q-2 -5 -2 -7l2 -13q0 -21 -45 -39 q-5 0 -5 5v8q22 14 35 31q-12 32 -23 120q0 77 77 121q36 25 77 25zM1541 1225h-63q-11 0 -49 48v44q38 59 103 59q48 -26 48 -79q-13 -72 -39 -72z"/>
    <glyph glyph-name="Agrave" unicode="À" horiz-adv-x="1352" d="M575 1841q129 -36 129 -94l-12 -7q-9 0 -59 31h-12q-8 -2 -15 -20q0 -18 51 -86q12 -94 31 -94q58 -55 157 -133q47 -55 47 -107v-51q0 -68 -145 -145q0 -7 -7 -24l41 -76q0 -16 55 -105l3 -28q-5 -50 -5 -73v-20l29 -68q0 -15 -14 -50q0 -25 80 -137q-6 -21 -6 -47 q0 -61 32 -145q23 -41 23 -79l24 -47q46 -69 92 -106q17 -27 79 -54q33 -47 33 -56q16 -33 16 -43v-8q-4 -12 -24 -12h-40q-28 0 -78 -20q-65 16 -74 16q-67 -8 -91 -8q-33 0 -106 4q-50 -8 -66 -8q-35 0 -55 52q16 75 56 75q90 71 90 109q0 31 4 75q-26 43 -63 43 q-14 0 -67 -4l-28 4q-8 0 -59 -28q-45 28 -66 28q-126 -29 -126 -98q0 -46 82 -79q13 -22 75 -47q10 -23 10 -42q0 -30 -25 -48q-63 -22 -110 -48q-42 -11 -52 -11l-82 11q-78 -19 -90 -19q-62 23 -145 35q-48 30 -48 67q34 98 106 98q30 0 90 90q52 116 52 232q12 31 47 91 q28 99 39 208q22 39 35 145q27 29 48 141q23 51 43 173q8 0 11 35q0 42 -133 161q-42 0 -82 79l-36 102q0 136 40 157q43 27 157 58q20 44 66 44q0 8 48 11zM861 1103h12q21 0 35 -23v-20q-10 -19 -31 -19q-26 0 -32 35v12q0 6 16 15zM570 837v-24q0 -4 23 -55v-4 q0 -40 -64 -102v-20q0 -21 68 -70q8 -63 41 -63h14q56 0 64 71q-5 32 -23 90q4 33 4 51q-49 149 -86 149q-23 0 -41 -23zM1006 825q28 -8 28 -32q0 -21 -20 -31h-16q-5 0 -19 20v11q0 24 27 32zM1081 381h11q12 -4 12 -23v-4q-7 -15 -23 -20q-18 8 -20 16v12q0 5 20 19z M1308 -7h15q15 -8 20 -24q-7 -18 -16 -20h-7q-22 0 -28 16v12q0 6 16 16z"/>
    <glyph glyph-name="Aacute" unicode="Á" horiz-adv-x="1236" d="M562 853q0 -4 24 -63v-9l-57 -50q0 -17 -45 -119v-8q0 -80 86 -80q9 -13 28 -13h9q11 0 106 63q16 15 16 43q0 22 -49 59q-4 7 -4 17v8q26 34 33 55q-59 131 -115 131h-12q-20 -11 -20 -34zM587 1326q-2 4 -10 10q-13 9 -13 23v7q2 30 14 47q11 41 125 157q6 54 19 54 q32 28 38 61q0 5 -3 35q5 10 17 14q4 0 15 -17q14 0 17 8v3l-20 23v2q0 23 51 41q12 26 20 29h3q26 0 37 -35q0 -20 86 -51q53 -43 81 -110v-3q0 -11 -72 -129q-57 -34 -94 -90q-51 -29 -123 -81q-42 -17 -80 -20q-18 -2 -28 -4q31 -39 38 -105q36 -84 61 -186 q37 -35 37 -160q19 -26 28 -59q-4 -30 -4 -51q0 -11 33 -68v-42q0 -9 -4 -17q0 -23 45 -97q0 -106 65 -130q29 -4 29 -13q-8 -20 -17 -98q38 -109 102 -109q86 -45 86 -130q-3 -68 -16 -68q-5 0 -45 9h-8q-21 0 -151 -26q-71 26 -82 26q-13 0 -78 -5q-85 19 -91 41.5 t-7 42.5v17q0 22 98 85q21 15 29 42q-4 32 -8 42q8 23 8 47q0 38 -61 46q-12 0 -74 -38h-4q-17 0 -69 47q-8 4 -17 4h-4q-175 -30 -175 -106q-4 -16 -4 -34q0 -52 98 -101q40 4 61 4q8 -13 8 -25q0 -27 -74 -76q0 -39 -179 -55q0 -4 -29 -4h-90q-151 24 -155 43q-3 11 -3 22 q0 9 2 18l5 18q50 54 86 77q86 42 86 75q0 36 37 118q4 7 4 22v59q0 18 57 71q12 28 12 50q-16 48 -16 55q30 35 41 127q44 94 44 182q0 16 58 126q0 7 -4 77q16 30 57 138q27 63 74 98z"/>
    <glyph glyph-name="Acircumflex" unicode="Â" horiz-adv-x="1234" d="M655 1490q-6 1 -12 1q-51 0 -97 -45h-20q-31 0 -62 -60q-88 -28 -144 -64q-7 0 -32 -8q-68 14 -68 52v16q11 54 92 132q4 0 68 84q140 140 236 140q104 0 204 -116q66 -46 100 -61q13 -17 40 -79q40 -69 40 -92q-17 -45 -56 -45q-20 0 -46 12l-42 33q-14 8 -119 32z M609 1339h8q76 -34 88 -144q36 -84 61 -186q37 -35 37 -160q19 -26 28 -59q-4 -30 -4 -51q0 -11 33 -68v-42q0 -9 -4 -17q0 -23 45 -97q0 -106 65 -130q29 -4 29 -13q-8 -20 -17 -98q38 -109 102 -109q86 -45 86 -130q-3 -68 -16 -68q-5 0 -45 9h-8q-21 0 -151 -26 q-71 26 -82 26q-13 0 -78 -5q-85 19 -91 41.5t-7 42.5v17q0 22 98 85q21 15 29 42q-4 32 -8 42q8 23 8 47q0 38 -61 46q-12 0 -74 -38h-4q-17 0 -69 47q-8 4 -17 4h-4q-175 -30 -175 -106q-4 -16 -4 -34q0 -52 98 -101q40 4 61 4q8 -13 8 -25q0 -27 -74 -76q0 -39 -179 -55 q0 -4 -29 -4h-90q-151 24 -155 43q-3 11 -3 22q0 9 2 18l5 18q50 54 86 77q86 42 86 75q0 36 37 118q4 7 4 22v59q0 18 57 71q12 28 12 50q-16 48 -16 55q30 35 41 127q44 94 44 182q0 16 58 126q0 7 -4 77q16 30 57 138q33 77 96 111zM562 853q0 -4 24 -63v-9l-57 -50 q0 -17 -45 -119v-8q0 -80 86 -80q9 -13 28 -13h9q11 0 106 63q16 15 16 43q0 22 -49 59q-4 7 -4 17v8q26 34 33 55q-59 131 -115 131h-12q-20 -11 -20 -34z"/>
    <glyph glyph-name="Atilde" unicode="Ã" horiz-adv-x="1236" d="M609 1339h8q76 -34 88 -144q36 -84 61 -186q37 -35 37 -160q19 -26 28 -59q-4 -30 -4 -51q0 -11 33 -68v-42q0 -9 -4 -17q0 -23 45 -97q0 -106 65 -130q29 -4 29 -13q-8 -20 -17 -98q38 -109 102 -109q86 -45 86 -130q-3 -68 -16 -68q-5 0 -45 9h-8q-21 0 -151 -26 q-71 26 -82 26q-13 0 -78 -5q-85 19 -91 41.5t-7 42.5v17q0 22 98 85q21 15 29 42q-4 32 -8 42q8 23 8 47q0 38 -61 46q-12 0 -74 -38h-4q-17 0 -69 47q-8 4 -17 4h-4q-175 -30 -175 -106q-4 -16 -4 -34q0 -52 98 -101q40 4 61 4q8 -13 8 -25q0 -27 -74 -76q0 -39 -179 -55 q0 -4 -29 -4h-90q-151 24 -155 43q-3 11 -3 22q0 9 2 18l5 18q50 54 86 77q86 42 86 75q0 36 37 118q4 7 4 22v59q0 18 57 71q12 28 12 50q-16 48 -16 55q30 35 41 127q44 94 44 182q0 16 58 126q0 7 -4 77q16 30 57 138q33 77 96 111zM562 853q0 -4 24 -63v-9l-57 -50 q0 -17 -45 -119v-8q0 -80 86 -80q9 -13 28 -13h9q11 0 106 63q16 15 16 43q0 22 -49 59q-4 7 -4 17v8q26 34 33 55q-59 131 -115 131h-12q-20 -11 -20 -34zM705 1410q-25 19 -58 30l-34 4l-25 22q-27 17 -60 17q-15 0 -31 -4l-68 -29q-37 -27 -152 -28q-50 0 -50 37v11 q24 47 52 97q44 24 72 71q31 42 86 63q63 33 113 42q12 0 24 -1q48 -26 79 -28l4 -6q34 -38 67 -38h40q16 0 35 4.5t52 35.5l90 31q44 15 78 19q7 2 13 2q27 0 30 -32l-5 -39l-3 -8q-20 -44 -28 -79l-4 -14q-15 -51 -43 -75l-9 -9q-48 -12 -92 -56q-13 -10 -67 -34 q-32 -13 -63 -13q-22 0 -43 7z"/>
    <glyph glyph-name="Adieresis" unicode="Ä" horiz-adv-x="1248" d="M629 1348q20 -76 68 -129q0 -19 48 -143q0 -129 65 -225q13 -11 21 -32q-5 -93 -8 -96q0 -9 36 -66q0 -14 45 -178q0 -8 44 -100q0 -116 76 -201q101 -5 131 -76q25 -40 25 -55q0 -37 -126 -83h-4q-47 15 -53 15l-65 -3q-42 3 -65 3q-43 -11 -53 -11h-20q-26 26 -114 44 q-10 12 -16 35q0 52 77 111q34 20 34 67q0 8 -1 16q0 65 -61 84q-62 0 -130 -25q-40 16 -57 16h-12q-118 -30 -118 -91q0 -52 98 -83h12q32 0 69 35h4q6 0 12 -11v-8q-31 -125 -101 -171q-21 -11 -29 -11q-46 7 -65 7q-89 0 -174 -27h-4q-58 23 -98 23h-24q-25 0 -49 92 l33 49q86 50 129 105q35 61 57 167q11 26 29 173q62 40 62 138v10q46 63 46 120q0 15 -3 30q20 73 51 124q6 97 34 184q0 20 28 86l50 79zM502 629q17 -123 61 -123q47 -4 69 -4q56 0 56 68q0 14 29 59q0 11 -53 48q-21 191 -55 191q-107 -148 -107 -239zM404 1756h8 q51 0 120 -104q32 -29 32 -60v-16q0 -36 -60 -140q-76 -52 -84 -52q-61 32 -88 32q-36 -8 -52 -8q-33 0 -52 100q-9 0 -12 36v16q0 114 124 184q26 12 64 12zM876 1736h8q73 0 116 -144q0 -134 -96 -168q-22 0 -76 -12h-4q-36 0 -104 56q0 27 -80 36v8q38 28 56 140 q0 39 180 84z"/>
    <glyph glyph-name="Aring" unicode="Å" horiz-adv-x="1236" d="M545 1494q7 -48 58 -48q8 0 17 1l11 2q35 20 35 66q0 8 -1 18q-7 48 -58 48q-8 0 -17 -1l-11 -2q-35 -20 -35 -66q0 -8 1 -18zM562 853q0 -4 24 -63v-9l-57 -50q0 -17 -45 -119v-8q0 -80 86 -80q9 -13 28 -13h9q11 0 106 63q16 15 16 43q0 22 -49 59q-4 7 -4 17v8 q26 34 33 55q-59 131 -115 131h-12q-20 -11 -20 -34zM560 1301h-1q-4 8 -26 16q-18 3 -109 51q-18 53 -48 119l-2 8q-1 6 -1 15q0 37 24 112q0 16 45 65q18 19 29.5 30t71.5 37q20 -6 50 -6q35 0 84 9q86 -34 97 -93q44 -58 49 -84l2 -8q2 -49 2 -84q0 -51 -30 -92 q-57 -70 -126 -90q-3 -1 -5 -4q32 -39 39 -107q36 -84 61 -186q37 -35 37 -160q19 -26 28 -59q-4 -30 -4 -51q0 -11 33 -68v-42q0 -9 -4 -17q0 -23 45 -97q0 -106 65 -130q29 -4 29 -13q-8 -20 -17 -98q38 -109 102 -109q86 -45 86 -130q-3 -68 -16 -68q-5 0 -45 9h-8 q-21 0 -151 -26q-71 26 -82 26q-13 0 -78 -5q-85 19 -91 41.5t-7 42.5v17q0 22 98 85q21 15 29 42q-4 32 -8 42q8 23 8 47q0 38 -61 46q-12 0 -74 -38h-4q-17 0 -69 47q-8 4 -17 4h-4q-175 -30 -175 -106q-4 -16 -4 -34q0 -52 98 -101q40 4 61 4q8 -13 8 -25q0 -27 -74 -76 q0 -39 -179 -55q0 -4 -29 -4h-90q-151 24 -155 43q-3 11 -3 22q0 9 2 18l5 18q50 54 86 77q86 42 86 75q0 36 37 118q4 7 4 22v59q0 18 57 71q12 28 12 50q-16 48 -16 55q30 35 41 127q44 94 44 182q0 16 58 126q0 7 -4 77q16 30 57 138q19 43 47 73z"/>
    <glyph glyph-name="AE" unicode="Æ" horiz-adv-x="2516" d="M1899 1286l92 -16q16 4 121 8q75 -5 118 -39q31 -33 69 -89q8 -52 8 -96q-24 -119 -24 -132l12 -96q0 -21 -20 -32h-8q-38 0 -84 100q0 83 -68 152q-26 60 -60 60q-124 -16 -161 -49h-15l-36 22q-18 7 -37 10q-76 -10 -111 -31q-48 -33 -48 -96v-16q36 -75 36 -92 q0 -52 44 -68q7 0 40 -40q29 -12 32 -12q59 0 76 84q-20 62 -20 72q10 24 24 24q100 -35 110 -76q8 -15 14 -36v-4q0 -12 -12 -80q0 -30 32 -100q-24 -52 -24 -72v-4q0 -21 24 -100v-4q-19 -48 -100 -48h-12q-13 0 -72 140q-28 28 -124 28q-60 -11 -60 -80q-8 -55 -8 -60 q0 -22 48 -60q4 -7 4 -16q-24 -40 -24 -52v-4q1 -34 39 -34l42 11l20 -8l17 -35q25 -30 146 -30q9 0 68 16l48 -4q24 3 84 64q10 13 16 36q-8 32 -8 48q72 64 104 136h12q14 0 32 -100q0 -24 80 -44v-12q-56 -39 -56 -56v-4q0 -31 44 -36q22 4 36 4h16q9 0 12 -20 q-85 -46 -100 -76v-12q36 -43 36 -112q0 -28 -115 -47q-43 3 -90 6h-4q-40 0 -120 -18q-97 19 -99 19q-99 -4 -168 -20q-99 10 -103 14l-128 -15q-32 8 -48 8l-157 13q-60 0 -67 80v8q15 37 86 69q63 11 113 91q44 30 44 112v4q0 12 -16 60q16 100 16 116t-12 68v8 q0 22 16 128q0 10 -20 92q4 11 12 76q-24 74 -32 160q-23 47 -192 52q-32 23 -32 68q0 46 92 74q40 18 92 30l88 -12q60 4 148 20l72 -16h20zM609 1339h8q76 -34 88 -144q36 -84 61 -186q37 -35 37 -160q19 -26 28 -59q-4 -30 -4 -51q0 -11 33 -68v-42q0 -9 -4 -17 q0 -23 45 -97q0 -106 65 -130q29 -4 29 -13q-8 -20 -17 -98q38 -109 102 -109q86 -45 86 -130q-3 -68 -16 -68q-5 0 -45 9h-8q-21 0 -151 -26q-71 26 -82 26q-13 0 -78 -5q-85 19 -91 41.5t-7 42.5v17q0 22 98 85q21 15 29 42q-4 32 -8 42q8 23 8 47q0 38 -61 46 q-12 0 -74 -38h-4q-17 0 -69 47q-8 4 -17 4h-4q-175 -30 -175 -106q-4 -16 -4 -34q0 -52 98 -101q40 4 61 4q8 -13 8 -25q0 -27 -74 -76q0 -39 -179 -55q0 -4 -29 -4h-90q-151 24 -155 43q-3 11 -3 22q0 9 2 18l5 18q50 54 86 77q86 42 86 75q0 36 37 118q4 7 4 22v59 q0 18 57 71q12 28 12 50q-16 48 -16 55q30 35 41 127q44 94 44 182q0 16 58 126q0 7 -4 77q16 30 57 138q33 77 96 111zM562 853q0 -4 24 -63v-9l-57 -50q0 -17 -45 -119v-8q0 -80 86 -80q9 -13 28 -13h9q11 0 106 63q16 15 16 43q0 22 -49 59q-4 7 -4 17v8q26 34 33 55 q-59 131 -115 131h-12q-20 -11 -20 -34z"/>
    <glyph glyph-name="Ccedilla" unicode="Ç" horiz-adv-x="1215" d="M418 -27q-68 46 -104 84q-30 48 -99 73l-4 8q-24 90 -24 100q-22 66 -37 123q-24 26 -24 44v4l12 60q-16 96 -16 116q20 37 20 76q0 15 -12 92v4q28 78 56 140l-4 28q87 192 136 220q29 32 164 84q36 28 64 28q108 -12 148 -12h28q23 0 108 -28h12q53 16 136 24 q50 0 76 -120q-24 -37 -24 -60q0 -22 32 -76q-40 -45 -40 -72q0 -9 44 -80v-8q-36 -75 -36 -112q-12 -44 -40 -44q-10 0 -83 95q-32 0 -53 113q0 31 -72 52v8q12 36 12 40v4q0 24 -84 72q-17 24 -96 24h-8q-172 -22 -172 -88q4 -26 4 -52q-75 -39 -80 -52q0 -18 -36 -108 l-20 -136q-5 0 -8 -24q0 -6 12 -44q-4 -41 -4 -64q32 -119 32 -136q116 -200 164 -200q61 -36 84 -36q15 0 111 -6q82 5 132 95q20 7 75 128q26 54 75 54q89 -23 89 -86q0 -10 -22 -93q0 -79 -56 -128q-11 -12 -29 -69q-13 -10 -91 -31q-55 -32 -83.5 -41t-35.5 -30 q5 -34 11 -61l1 -40q-3 -48 -10 -79l-5 -20l-18 -35q-23 -30 -53 -48t-69 -29q-34 -10 -51 -10h-5q-58 2 -81 6q-55 11 -100 47q-44 35 -44 60v1q0 21 5 34q2 10 25 23q5 2 12 2q31 0 78 -10q16 -1 31 -1q52 4 74 19q16 18 16 38q0 21 -19 44q-14 19 -24 34q-13 20 -45.5 39 t-57.5 29z"/>
    <glyph glyph-name="Egrave" unicode="È" horiz-adv-x="1383" d="M484 1804h40q129 0 212 -112v-8q0 -8 -32 -44v-20q0 -15 56 -76q0 -58 100 -112q38 -66 72 -160q41 -36 64 -36h20q13 0 52 12q40 0 112 -100l32 -128q0 -55 24 -168q-9 -48 -56 -48h-4q-49 0 -92 100q-20 12 -58 40t-38 32q-11 30 -104 84q-13 8 -24 8h-16 q-29 0 -164 -40q-60 0 -60 -40q0 -19 -24 -144v-4q24 -80 24 -108q0 -35 140 -44q40 5 40 40q0 36 -8 68q21 132 32 132h8q5 0 40 -56q48 0 48 -40q0 -19 20 -104q4 -1 4 -40v-4l-24 -120q20 -73 20 -124q-11 -80 -28 -80q-132 21 -132 52q-13 76 -52 76q-8 0 -76 8 q-48 0 -48 -76v-12l4 -24q-28 -44 -28 -72q20 -56 20 -68v-56q0 -41 56 -48h12q5 0 72 20h60q73 -20 92 -20h12q53 0 60 92q11 13 100 64l36 88q26 36 76 48q33 0 72 -96q-28 -67 -28 -76q8 -54 8 -72q-24 -148 -52 -176q-48 -55 -60 -60l-20 4q-57 0 -196 -12q-45 8 -68 8 q-84 -32 -92 -32q-46 0 -148 24l-84 -16l-148 8q-44 -4 -76 -4q-42 12 -64 12q-39 -8 -44 -8q-24 8 -24 32q39 72 68 144q15 11 112 40q67 59 68 64q-45 15 -48 28q0 7 56 16q24 23 24 44l-4 40q12 30 12 44q-1 15 -36 44v4q0 4 20 28q0 17 -4 44q32 39 32 64q0 12 -32 52 q24 38 24 52v20q0 13 -12 52q20 49 20 64v16q-16 45 -24 148q-22 40 -48 40q-66 -24 -68 -24q-51 2 -152 48q-39 34 -56 44l-24 -4q-28 0 -28 28v4q1 8 8 8h4q16 0 40 -24h4q27 12 68 84q17 23 140 44q27 20 44 20h12q46 -16 52 -16q40 9 40 40v8q0 26 -116 136 q-72 83 -72 144q0 114 64 156q92 22 92 64q19 28 52 28z"/>
    <glyph glyph-name="Eacute" unicode="É" horiz-adv-x="1368" d="M587 1264l23 -2q9 4 9 11v2q0 6 -14.5 21.5t-14.5 63.5v10q27 128 56 144q37 23 88 127q36 63 88 99q62 84 165 84l83 -18q50 -21 107 -151q18 -63 18 -81q-27 -116 -70 -116h-4q-28 25 -53 25h-14q-15 0 -35 -78q-20 -21 -24 -21h-18l-42 11q-18 0 -35 -56 q-39 -33 -43 -47q-1 -4 -1 -7q0 -8 8 -12l9 -1q23 0 91 3q75 -5 118 -39q31 -33 69 -89q8 -52 8 -96q-24 -119 -24 -132l12 -96q0 -21 -20 -32h-8q-38 0 -84 100q0 83 -68 152q-26 60 -60 60q-124 -16 -161 -49h-15l-36 22q-18 7 -37 10q-76 -10 -111 -31q-48 -33 -48 -96 v-16q36 -75 36 -92q0 -52 44 -68q7 0 40 -40q29 -12 32 -12q59 0 76 84q-20 62 -20 72q10 24 24 24q100 -35 110 -76q8 -15 14 -36v-4q0 -12 -12 -80q0 -30 32 -100q-24 -52 -24 -72v-4q0 -21 24 -100v-4q-19 -48 -100 -48h-12q-13 0 -72 140q-28 28 -124 28 q-60 -11 -60 -80q-8 -55 -8 -60q0 -22 48 -60q4 -7 4 -16q-24 -40 -24 -52v-4q1 -34 39 -34l42 11l20 -8l17 -35q25 -30 146 -30q9 0 68 16l48 -4q24 3 84 64q10 13 16 36q-8 32 -8 48q72 64 104 136h12q14 0 32 -100q0 -24 80 -44v-12q-56 -39 -56 -56v-4q0 -31 44 -36 q22 4 36 4h16q9 0 12 -20q-85 -46 -100 -76v-12q36 -43 36 -112q0 -28 -115 -47q-43 3 -90 6h-4q-40 0 -120 -18q-97 19 -99 19q-99 -4 -168 -20q-99 10 -103 14l-128 -15q-32 8 -48 8l-157 13q-60 0 -67 80v8q15 37 86 69q63 11 113 91q44 30 44 112v4q0 12 -16 60 q16 100 16 116t-12 68v8q0 22 16 128q0 10 -20 92q4 11 12 76q-24 74 -32 160q-23 47 -192 52q-32 23 -32 68q0 46 92 74q40 18 92 30l88 -12q60 4 148 20z"/>
    <glyph glyph-name="Ecircumflex" unicode="Ê" horiz-adv-x="1368" d="M751 1283l92 -16q16 4 121 8q75 -5 118 -39q31 -33 69 -89q8 -52 8 -96q-24 -119 -24 -132l12 -96q0 -21 -20 -32h-8q-38 0 -84 100q0 83 -68 152q-26 60 -60 60q-124 -16 -161 -49h-15l-36 22q-18 7 -37 10q-76 -10 -111 -31q-48 -33 -48 -96v-16q36 -75 36 -92 q0 -52 44 -68q7 0 40 -40q29 -12 32 -12q59 0 76 84q-20 62 -20 72q10 24 24 24q100 -35 110 -76q8 -15 14 -36v-4q0 -12 -12 -80q0 -30 32 -100q-24 -52 -24 -72v-4q0 -21 24 -100v-4q-19 -48 -100 -48h-12q-13 0 -72 140q-28 28 -124 28q-60 -11 -60 -80q-8 -55 -8 -60 q0 -22 48 -60q4 -7 4 -16q-24 -40 -24 -52v-4q1 -34 39 -34l42 11l20 -8l17 -35q25 -30 146 -30q9 0 68 16l48 -4q24 3 84 64q10 13 16 36q-8 32 -8 48q72 64 104 136h12q14 0 32 -100q0 -24 80 -44v-12q-56 -39 -56 -56v-4q0 -31 44 -36q22 4 36 4h16q9 0 12 -20 q-85 -46 -100 -76v-12q36 -43 36 -112q0 -28 -115 -47q-43 3 -90 6h-4q-40 0 -120 -18q-97 19 -99 19q-99 -4 -168 -20q-99 10 -103 14l-128 -15q-32 8 -48 8l-157 13q-60 0 -67 80v8q15 37 86 69q63 11 113 91q44 30 44 112v4q0 12 -16 60q16 100 16 116t-12 68v8 q0 22 16 128q0 10 -20 92q4 11 12 76q-24 74 -32 160q-23 47 -192 52q-32 23 -32 68q0 46 92 74q40 18 92 30l88 -12q60 4 148 20l72 -16h20zM910 1333h-16q-47 0 -124 104q-64 84 -92 84h-20q-65 0 -152 -96q-80 -60 -96 -60q-49 0 -49 77v6q34 132 93 197l104 100 q111 76 180 76q41 0 100 -56q21 -14 88 -36q37 -72 80 -72q39 -29 56 -88q5 0 36 -36v-12q0 -23 -104 -156q-59 -32 -84 -32z"/>
    <glyph glyph-name="Edieresis" unicode="Ë" horiz-adv-x="1335" d="M501 1572q32 0 172 -68q88 0 88 -28v-8q-68 -32 -68 -80q0 -27 -8 -84q44 -43 56 -48h24q27 0 52 40v16q-28 82 -28 104v8q0 33 76 96q45 48 72 48h24q83 0 164 -148q4 -7 4 -20v-8q0 -54 -64 -132v-8q0 -36 72 -96q8 -26 8 -36v-56q0 -26 -20 -76v-4q0 -41 68 -100v-8 q0 -8 -52 -24q-48 -60 -64 -60q-72 37 -72 84v12q0 5 8 44v4q0 105 -64 116q-29 40 -60 40q-98 -32 -124 -32h-8l-72 16h-32q-113 -17 -124 -28q-17 -11 -44 -116v-4q32 -75 32 -88q0 -8 -12 -64v-16q0 -52 96 -52q35 -4 44 -4q54 0 68 60q-4 22 -4 36v12q0 19 88 36 q47 0 60 -112v-4q0 -10 -4 -60q8 -30 8 -36q-4 -132 -12 -176q4 -44 4 -76q-9 -44 -44 -44q-36 0 -76 80q-36 28 -36 48l16 48q-7 32 -48 32q-152 -58 -152 -92q-16 -14 -16 -40q0 -13 28 -56l-16 -152q0 -63 100 -72q150 -16 184 -16h24q108 0 152 176q11 8 72 108 q25 24 56 24q32 0 64 -112q5 0 32 -32v-8q-12 -63 -28 -104v-12q0 -8 32 -60v-8q-5 -41 -100 -112q-44 -20 -60 -20h-48q-9 0 -16 -4q0 4 -88 8q-68 -16 -92 -16h-88q-98 0 -212 -20q-8 0 -80 16q-108 0 -172 -20h-4q-20 0 -60 48q-18 16 -76 24v4q39 124 108 124l24 -4 q40 0 72 48q60 49 60 84q0 41 -4 64q4 60 4 124v28q0 22 -4 56q0 4 4 4l-4 20q-4 93 -4 96q16 83 16 100q0 77 -60 124v8q0 11 16 56v20q0 6 -56 32q0 63 -64 84q-112 28 -112 48v12q44 104 128 104h24q22 0 80 -16q64 0 64 56q0 35 -40 124v8q0 122 76 148q62 20 72 20z "/>
    <glyph glyph-name="Igrave" unicode="Ì" horiz-adv-x="1084" d="M240 1279q-36 54 -104 88q-29 57 -92 88q-48 103 -48 136q17 58 29 72q34 54 78.5 75t49.5 52t15 49l16 4q85 0 232 -104q28 -29 28 -44l-12 -8h-4q-8 0 -56 28h-36q-8 0 -8 -12q0 -59 80 -104q18 -32 76 -32l8 -16q-4 -27 -4 -44v-4q0 -40 92 -152l4 -28 q-16 -48 -16 -60v-17q0 -25 37 -33l65 -9q11 -3 30 -3q34 0 95 10l25 -1q47 -25 114 -32q59 -21 59 -70v-4q0 -35 -31 -61l-79 -2q-112 -7 -150 -43q-56 -25 -70 -80q-2 -6 -2 -15q0 -25 16 -69q-10 -32 -10 -65q0 -26 6 -53q-9 -44 -9 -56l18 -70l-9 -94q6 -36 14 -59 l-2 -89q4 -44 4 -76v-28q17 -117 133 -134q155 -18 167 -46q24 -16 24 -40v-8q0 -82 -113 -110q-14 0 -122 -17q-10 0 -71 11q-38 0 -102 -20l-29 -1q-38 5 -63 13q-6 2 -16 2q-30 0 -92 -18l-59 13l-76 -6q-70 25 -81 25q-60 0 -60 60q0 90 104 140q41 -4 64 -4 q53 20 56 20q29 -4 32 -4q96 24 96 96q28 109 28 128q-12 82 -12 112q8 36 8 48q0 3 -24 60q24 64 24 76q-4 52 -4 84q0 12 12 56q0 8 -16 52q12 42 12 52q0 102 -124 152h-76q-21 0 -104 -24q-32 28 -100 72q-4 8 -4 12q91 100 132 100q72 0 72.5 24t-65.5 59z"/>
    <glyph glyph-name="Iacute" unicode="Í" horiz-adv-x="1088" d="M815 1206q28 -30 103 -30q60 -19 60 -68v-4q0 -35 -31 -61l-79 -2q-112 -7 -150 -43q-56 -25 -70 -80q-2 -6 -2 -15q0 -25 16 -69q-10 -32 -10 -65q0 -26 6 -53q-9 -44 -9 -56l18 -70l-9 -94q6 -36 14 -59l-2 -89q4 -44 4 -76v-28q17 -117 133 -134q155 -18 167 -46 q24 -16 24 -40v-8q0 -82 -113 -110q-14 0 -122 -17q-10 0 -71 11q-38 0 -102 -20l-29 -1q-38 5 -63 13q-6 2 -16 2q-30 0 -92 -18l-65 12l-75 -4q-65 24 -76 24q-60 0 -60 60q0 90 104 140q41 -4 64 -4q53 20 56 20q29 -4 32 -4q96 24 96 96q28 109 28 128q-12 82 -12 112 q8 36 8 48q0 3 -24 60q24 64 24 76q-4 52 -4 84q0 12 12 56q0 8 -16 52q12 42 12 52q0 102 -124 152h-76q-21 0 -104 -24q-32 28 -100 72q-4 8 -4 12q91 100 132 100q67 -8 188 -12q118 11 130 21q17 18 17 46v12q0 12 -16 60l4 28q92 112 92 152v4q0 17 -4 44l8 16 q58 0 76 32q80 45 80 104q0 12 -8 12h-36q-48 -28 -56 -28h-4l-12 8q0 15 28 44q147 104 232 104l16 -4q10 -18 15 -49t49.5 -52t78.5 -75q12 -14 29 -72q0 -33 -48 -136q-63 -31 -92 -88q-68 -34 -104 -88q-72 -34 -72 -56v-3q0 -9 6 -14z"/>
    <glyph glyph-name="Icircumflex" unicode="Î" horiz-adv-x="1158" d="M717 1273h8q54 -17 58 -17q46 4 79 4q134 0 199 -83v-12q-62 -83 -95 -83l-83 -13h-100q-124 -15 -124 -99v-17q0 -31 41 -78v-4l-16 -63q4 -35 4 -54l15 -67l-19 -61q0 -71 29 -112q-17 -89 -17 -95q0 -41 50 -71l4 -8q-21 -49 -21 -79v-17q0 -62 102 -98 q68 -32 245 -96q20 -14 20 -34v-16q-16 -29 -41 -33q-10 0 -62 4l-58 -21q-31 8 -58 8h-5q-37 -2 -69 -2q-59 0 -95 10l-66 -20h-33q-84 19 -177 26l-166 -10l-58 21q-73 22 -109 67v12q0 18 87 33l86 33l67 23q100 19 118 48q16 27 16 62v8q-5 59 -5 63v4q0 10 13 49v13 q7 17 7 41q0 16 -3 34q-8 29 -8 45q29 49 29 71q0 17 -34 103v4q34 76 34 108q0 27 -50 79v4q29 62 29 66v5q0 86 -83 99q-50 -8 -54 -8q-43 20 -54 20h-25q-14 0 -37 -4q-59 0 -141 96v4q0 37 120 91h9q10 0 62 -4l58 12l74 -12q138 8 174 16q50 -4 75 -4q37 9 54 9z M745 1425q-136 77 -167 77h-20q-31 0 -126 -62q-88 -28 -144 -64l-32 -8q-68 14 -68 52v16q11 54 92 132q4 0 68 84q123 117 236 140q8 1 17 1q88 0 187 -117q59 -48 93 -63q13 -17 47 -77q40 -69 40 -92q-26 -68 -72 -68q-23 0 -151 49z"/>
    <glyph glyph-name="Idieresis" unicode="Ï" horiz-adv-x="1090" d="M412 1705q47 0 180 -144q16 -13 37 -13q28 0 58 62q82 41 119 41l94 17q74 0 111 -95q37 -33 37 -53v-4q-51 -134 -135 -181q-25 -29 -29 -45q0 -11 66 -58q4 -7 4 -16v-5q0 -15 -95 -24q-7 -12 -90 -25q-45 -33 -86 -41l-40 -14q-7 0 -17 -17l-9 -39l11 -96 q-6 -25 -7 -72q4 -76 4 -87q13 -55 13 -65l-13 -82l15 -68v-33q-3 -13 -3 -29q0 -58 29 -158q-4 -71 -4 -82q0 -61 119 -111q190 0 222 -66q17 -38 17 -53v-13q0 -12 -87 -33l-63 -25q-14 0 -117 1q-5 0 -54 -8q-67 4 -74 4l-49 -9q-39 9 -62 9q-128 -25 -160 -25 q-21 11 -57 22l-18 -2l-73 -16q-115 33 -115 111q0 85 119 95q34 0 144 37q78 0 107 49q12 9 12 29v8q0 22 -8 61q8 107 8 157q0 21 -16 61q12 54 12 90q-8 31 -12 103q24 63 24 78q-17 70 -20 132q8 44 12 90q0 30 -61 62q-24 29 -58 29h-21q-20 0 -127 -29q-74 0 -107 82 v21q67 65 156 65q21 14 21 33q0 10 -54 91q-28 77 -28 86q32 148 90 148q94 62 128 62zM465 1302q8 -19 16 -21h21q52 21 70 21q59 -25 74 -25h4q11 0 57 17h41q33 0 33 33q0 26 -123 78q-14 55 -25 65q-67 -17 -164 -152q0 -9 -4 -16z"/>
    <glyph glyph-name="Eth" unicode="Ð" horiz-adv-x="1270" d="M531 365q-14 -28 -14 -61v-62q0 -31 55 -53q0 -24 143 -31q39 0 65 58q52 13 52 73q16 10 58 23q55 55 88 168v8q0 15 -7 50q22 53 22 58q-6 46 -29 103q18 49 18 66q0 47 -88 165q-24 19 -55 73l-60 34q-24 38 -112 42q0 7 -26 8q-21 0 -33 -6.5t-14.5 -19.5t-12.5 -13 q-25 13 -59 19q-18 -18 -20 -26v-8q7 -65 7 -73v-11q-11 -52 -11 -62q0 -25 4 -76q7 -80 44 -81q31 -15 156 -23q50 -25 64 -56v-20q0 -42 -72 -82q-29 -12 -36 -12q-38 -12 -60 -12h-20q-14 0 -38 -12q-22 -11 -22 -40q0 -1 0.5 -16t12.5 -92zM301 734q20 69 32 136v64 q0 40 -15.5 80.5t-73.5 64.5q-65 42 -119 79q14 76 64 76q42 -12 52 -12q5 0 60 20q32 -16 44 -16q20 0 52 32h12q58 -28 68 -28h8q9 0 44 32h8q63 -24 72 -24l36 4q105 -13 180 -48q59 -11 88 -48q3 -26 72 -64q0 -25 64 -108q60 -176 60 -196q0 -76 52 -140v-8 q-48 -86 -48 -112v-8q0 -8 16 -68q-4 -7 -8 -36q4 -35 4 -44q-8 -25 -8 -40q0 -4 32 -36q-1 -6 -80 -40q-24 -20 -24 -88l-88 -76q-51 -60 -64 -60l-164 -48q-47 4 -68 4q-33 0 -140 -28h-16q-16 0 -68 12l-56 -4q-125 25 -180 48q-88 61 -88 88l-4 24q0 28 36 40 q43 -12 64 -12h36q47 0 64 56q12 44 24 204q-8 38 -8 60q8 26 8 36q0 16 -41 30q-134 28 -147 59q-4 0 -4 22v8q21 92 88 92q23 0 45 -1h2q19 0 25 22z"/>
    <glyph glyph-name="Ntilde" unicode="Ñ" d="M975 1264q138 -20 188 -32q48 -31 48 -64q0 -68 -132 -116q-17 0 -20 -64q0 -50 4 -72q-4 -45 -4 -104v-56q0 -16 12 -128q0 -16 -8 -52q20 -42 20 -52q0 -16 -8 -52q0 -50 16 -116v-12q-20 -44 -20 -148q0 -4 8 -68q-34 -148 -63 -151q-14 -9 -33 -9h-12q-62 0 -126 119 q-23 39 -34 88l-88 89l4 40q0 10 -40 53q-5 92 -63 144l-13 23q0 2 4 52l-72 156q-27 29 -64 36q-20 -6 -20 -28v-16q0 -50 60 -64l8 -12v-8q0 -20 -52 -68q-4 -20 -8 -20q0 -42 64 -64l12 -28q0 -51 -72 -108l-4 -20q0 -24 56 -52l4 -8v-8q0 -14 -24 -44v-16q0 -49 72 -91 q10 0 40 -49q20 -27 20 -44v-12q0 -54 -164 -68q-60 16 -200 24h-52q-57 0 -84 76v4q4 46 87 101q37 75 37 95q-5 15 -20 36v4q0 13 32 52q0 4 4 12q-4 56 -4 96q0 19 24 140q0 16 -12 68q4 56 4 96q-8 55 -8 60l12 56v16q-32 65 -32 108q0 67 -116 88q-20 13 -20 32 q4 85 24 102.5t52 17.5l204 12q148 -50 148 -120q24 -42 44 -48q32 -7 32 -16v-4l-12 -40v-12q0 -26 52 -88q0 -92 76 -92q14 0 20 -20l-24 -56q0 -23 88 -160l28 -8h16q32 0 32 48q0 50 -28 96v4q36 75 36 92v24q0 19 -40 52v12q24 54 24 68v40q0 56 -112 112 q-40 23 -40 52q29 78 232 92zM761 1353q-25 19 -58 30l-34 4l-25 22q-27 17 -60 17q-15 0 -31 -4l-68 -29q-37 -27 -152 -28q-50 0 -50 37v11q24 47 52 97q44 24 72 71q31 42 86 63q63 33 113 42q12 0 24 -1q48 -26 79 -28l4 -6q34 -38 67 -38h40q16 0 35 4.5t52 35.5l90 31 q44 15 78 19q7 2 13 2q27 0 30 -32l-5 -39l-3 -8q-20 -44 -28 -79l-4 -14q-15 -51 -43 -75l-9 -9q-48 -12 -92 -56q-13 -10 -67 -34q-32 -13 -63 -13q-22 0 -43 7z"/>
    <glyph glyph-name="Ograve" unicode="Ò" horiz-adv-x="1271" d="M438 991l4 -8v-40q-36 -38 -36 -64q8 -30 8 -36q0 -8 -8 -28q12 -26 12 -36q0 -24 -56 -60q-11 0 -16 -128q0 -51 84 -136v-4q-20 -49 -20 -60v-8q0 -31 72 -60q17 -76 32 -76l24 -4h28q20 -36 40 -36q18 0 36 8q57 -36 72 -36q93 0 132 56q64 35 108 168q15 29 20 64 q-4 31 -4 64q5 25 64 60l8 12v12q-44 48 -44 76h4q0 23 -52 132v8q4 40 4 60q0 14 -48 48q0 48 -24 48q-57 78 -108 88q-27 12 -44 12q-106 0 -156 16h-8q-128 -44 -128 -112zM466 1843q91 0 180 -156q36 -34 164 -236q80 -44 80 -88v-100q-8 -58 -8 -60q0 -29 72 -52 q12 -22 12 -32l-4 -28q0 -39 48 -64q15 -43 48 -84q11 -43 24 -144q44 -20 44 -28v-8l-16 -68q16 -51 20 -140q4 0 4 -4q-19 -49 -44 -204q5 -41 8 -48l-48 -76q-56 -133 -56 -148q-64 -92 -92 -92q-39 0 -108 -44q-16 -8 -24 -8q-70 4 -84 4q-50 -12 -116 -12h-28 q-39 0 -120 48q-62 0 -120 104l-80 68q-56 118 -56 196q-44 44 -44 156v92q24 95 24 112q-4 41 -4 64q48 118 48 120v4l-4 24v4q0 17 48 56q22 103 60 136q135 94 136 112q4 7 4 16q-16 75 -100 140q-108 65 -108 140q-28 40 -28 52q28 59 28 136q72 91 88 92l20 -4h20 q13 0 76 44q28 4 36 8z"/>
    <glyph glyph-name="Oacute" unicode="Ó" horiz-adv-x="1262" d="M870 1616q-49 0 -80 -56q6 -16 12 -16q51 0 72 64zM856 1206q17 -40 86 -58q13 -15 20 -36q-8 -16 -8 -44v-4q0 -7 40 -84v-12q-2 -36 -18 -36q-27 0 -94 104q-15 13 -108 60q-4 12 -24 12h-8q-10 0 -60 -16q-85 28 -128 28q-42 0 -92 -104q-56 -64 -100 -64 q-24 -16 -24 -36v-4q32 -70 32 -80q0 -16 -20 -100q4 -63 4 -92l-4 -40q0 -14 44 -148q0 -118 100 -200q42 -68 120 -68q56 4 72 4q36 -8 52 -8h16q81 0 108 48q12 47 80 108q20 0 68 284q-4 76 -4 104q0 16 11 83q-15 26 -15 53q8 18 16 20h12q24 0 37 -60q43 -47 43 -124 q-3 -60 -8 -60q32 -81 32 -92v-16q0 -25 -12 -76q4 -41 4 -64q-62 -71 -104 -208q0 -90 -152 -176q-114 -40 -316 -72l-72 24q-30 -4 -40 -8q-17 0 -56 48q-66 32 -80 80q-62 46 -88 144q-52 53 -52 76v44q0 11 -36 100v56q0 9 4 16q-8 56 -12 164q36 13 36 132 q48 69 84 204q92 120 128 120q66 46 82 75q6 14 6 29v8q0 42 -4 88q8 103 20 116q108 110 108 116q58 28 68 44q9 76 28 108q9 68 48 108q20 0 48 -4q115 4 156 16q38 0 132 -84q80 -40 80 -60q-11 -36 -24 -124l4 -36q0 -24 -28 -44q-79 -102 -124 -120q-120 -81 -120 -132 v-12q0 -7 5 -16z"/>
    <glyph glyph-name="Ocircumflex" unicode="Ô" horiz-adv-x="1297" d="M647 1290h8l128 -44q36 -40 100 -40q15 -21 56 -128q78 -25 80 -36v-16q0 -4 -8 -32v-4l40 -88v-24q-11 -48 -44 -48q-39 0 -60 156q-7 0 -76 80q-39 44 -104 44q-53 48 -80 48q-50 -12 -64 -12q-24 16 -36 16h-12q-132 -53 -132 -112q-40 -51 -52 -128q-41 -24 -72 -180 v-4q28 -99 28 -176q54 -171 148 -292q39 -43 100 -52q30 6 72 32h8q28 -28 44 -28h12q12 5 24 36h4q4 0 40 -12q35 0 100 80v12q-12 44 -12 48q11 11 60 20q16 17 16 32v16q0 4 -16 48v12q56 46 56 60q0 12 4 12q-4 63 -28 148v8q0 31 44 40h44q48 0 48 -16v-8 q-28 -33 -28 -52q20 -27 28 -116q-24 -41 -24 -52q4 -73 4 -92q0 -97 -60 -200l-4 -20q4 -35 4 -44q0 -6 -64 -76q0 -16 -68 -64q-11 -33 -88 -56q-16 -10 -24 -18l-44 2q-48 0 -172 -16q-24 0 -208 64q-144 131 -144 196q-84 185 -84 224l-4 28q0 6 4 48q-24 81 -24 92 l32 168q36 62 36 104v4q18 46 44 152q6 18 116 120l33 57l75 11q44 25 62 44h54zM1174 171h12q24 -14 24 -36v-4q-3 -12 -28 -20q-20 0 -32 20v16q0 6 24 24zM1082 92h8q32 0 32 -32v-12q0 -6 -16 -16h-24q-24 14 -24 36q0 6 24 24zM987 34h8q8 -1 8 -8v-8q0 -22 -28 -40h-8 q-8 0 -8 8v4q0 22 28 44zM894 1358q-38 0 -122 52q-13 0 -47 34q-25 32 -67 32q-27 0 -87.5 -24.5t-81.5 -55.5q-92 -60 -144 -60q-54 0 -72 80v12q0 20 60 128q0 45 100 88l60 76q52 13 128 56q30 8 56 8h8q59 0 116 -72l20 -4q34 4 56 4q21 -68 72 -68h36q76 -53 76 -68 q0 -33 40 -76q4 -7 4 -16v-16q-36 -56 -112 -88q-57 -22 -99 -22z"/>
    <glyph glyph-name="Otilde" unicode="Õ" horiz-adv-x="1297" d="M647 1290h8l128 -44q36 -40 100 -40q15 -21 56 -128q78 -25 80 -36v-16q0 -4 -8 -32v-4l40 -88v-24q-11 -48 -44 -48q-39 0 -60 156q-7 0 -76 80q-39 44 -104 44q-53 48 -80 48q-50 -12 -64 -12q-24 16 -36 16h-12q-132 -53 -132 -112q-40 -51 -52 -128q-41 -24 -72 -180 v-4q28 -99 28 -176q54 -171 148 -292q39 -43 100 -52q30 6 72 32h8q28 -28 44 -28h12q12 5 24 36h4q4 0 40 -12q35 0 100 80v12q-12 44 -12 48q11 11 60 20q16 17 16 32v16q0 4 -16 48v12q56 46 56 60q0 12 4 12q-4 63 -28 148v8q0 31 44 40h44q48 0 48 -16v-8 q-28 -33 -28 -52q20 -27 28 -116q-24 -41 -24 -52q4 -73 4 -92q0 -97 -60 -200l-4 -20q4 -35 4 -44q0 -6 -64 -76q0 -16 -68 -64q-11 -33 -88 -56q-16 -10 -24 -18l-44 2q-48 0 -172 -16q-24 0 -208 64q-144 131 -144 196q-84 185 -84 224l-4 28q0 6 4 48q-24 81 -24 92 l32 168q36 62 36 104v4q18 46 44 152q6 18 116 120l33 57l75 11q44 25 62 44h54zM1174 171h12q24 -14 24 -36v-4q-3 -12 -28 -20q-20 0 -32 20v16q0 6 24 24zM1082 92h8q32 0 32 -32v-12q0 -6 -16 -16h-24q-24 14 -24 36q0 6 24 24zM987 34h8q8 -1 8 -8v-8q0 -22 -28 -40h-8 q-8 0 -8 8v4q0 22 28 44zM726 1377q-25 19 -58 30l-34 4l-25 22q-27 17 -60 17q-15 0 -31 -4l-68 -29q-37 -27 -152 -28q-50 0 -50 37v11q24 47 52 97q44 24 72 71q31 42 86 63q63 33 113 42q12 0 24 -1q48 -26 79 -28l4 -6q34 -38 67 -38h40q16 0 35 4.5t52 35.5l90 31 q44 15 78 19q7 2 13 2q27 0 30 -32l-5 -39l-3 -8q-20 -44 -28 -79l-4 -14q-15 -51 -43 -75l-9 -9q-48 -12 -92 -56q-13 -10 -67 -34q-32 -13 -63 -13q-22 0 -43 7z"/>
    <glyph glyph-name="Odieresis" unicode="Ö" horiz-adv-x="1249" d="M764 1304l63 -28q30 -26 30 -61v-2q-30 -48 -68 -48q-55 15 -148 24q-132 -34 -132 -68q-18 -32 -80 -72q-84 -84 -84 -132v-8q0 -12 4 -76q-39 -64 -40 -96q0 -27 40 -72v-8q-24 -42 -24 -64v-4q0 -27 44 -88q0 -95 112 -192q93 -38 108 -84q14 -28 48 -28h12l100 32 q61 0 184 100q72 164 72 224q10 11 16 56q-12 50 -12 64q0 33 16 116q0 4 -16 52v12q10 20 32 20q52 0 52 -84q10 0 24 -48v-32q-16 -63 -16 -76l28 -72v-16q0 -38 -28 -100l-4 -20q4 -8 4 -12q-29 -72 -36 -112q-19 -66 -192 -244q-139 -60 -180 -60h-4q-46 -15 -103 -15 q-21 0 -44 2q-42 13 -73 13q-28 13 -100 64q-71 21 -104 76q-104 222 -104 284q0 33 -16 152q8 47 8 60q-8 82 -8 112v8q39 183 72 220q1 54 124 216q53 34 137 96l72 27q49 0 63 -11h20q28 0 75 10zM880 1144q8 24 36 24q15 0 37 -7q109 -64 109 -139l-1 -10l-27 -82 q-13 -8 -20 -8q-3 0 -5 1l-9 6q-9 4 -26 74q-86 50 -94 141zM866 1358q-40 0 -148 112q-32 8 -40 8q-50 0 -60 -68q-18 -28 -164 -28q-168 22 -168 148v4q13 80 112 160q62 28 84 28h8q51 0 120 -88q12 -3 60 -80q13 -8 24 -8q37 0 80 88q58 80 112 80h60q108 -27 108 -60 q40 -29 40 -144v-4q-17 -132 -120 -132q-56 0 -108 -16z"/>
    <glyph glyph-name="multiply" unicode="×" horiz-adv-x="1286" d="M556 478q1 -81 54 -143l20 -5h9q31 0 78 79q16 27 16 49q0 23 -25 33q-17 2 -55 5q-19 4 -21 20l-2 24q0 25 -24 25q-42 -8 -50 -87zM781 749q24 -43 64 -90q58 -109 122 -160q51 -30 126 -51l33 -7q51 -13 51 -57q-2 -61 -70 -78q-131 -25 -144 -25q-114 5 -267 21h-8 q-20 0 -68 -20l-154 3l-67 -9h-14q-38 8 -76 8q-33 0 -67 -6h-4q-126 0 -126 61v8q7 41 101 76q77 23 142 142q89 44 110 113q29 55 29 76v5l-3 19q-22 80 -130 163q-27 67 -157 123q-105 32 -107 87v4q0 24 45 37l81 14q35 -6 65 -6q55 0 94 23l12 3q162 -18 168 -96 q-44 -30 -50 -86v-9q0 -37 74 -86q14 -16 41 -16q69 14 74 38q6 22 6 32q6 7 30 37l8 16q5 15 5 30q-22 58 -76 102q-10 9 -10 15t14 8l47 5q57 7 86 13q55 12 71 12q66 -12 118 -18l67 2q99 -8 99 -58v-4q0 -54 -95 -86q-119 -55 -145 -105l-30 -51l-5 -3l-58 -43 q-32 -40 -53 -92z"/>
    <glyph glyph-name="Oslash" unicode="Ø" horiz-adv-x="1299" d="M642 250q0 -7 1 -14q-1 -3 -1 -6q0 -18 24 -41q6 -2 13 -2q34 0 97 52h8q52 -20 56 -20q53 0 90 142q0 19 56 52q14 21 32 160q-12 52 -12 68q16 47 16 104v24q0 25 -24 96l4 24v12q-7 45 -29 59l-40 34q-6 2 -11 2q-22 0 -29 -28l-28 -89q-11 -29 -26 -56l-48 -134 q-20 -83 -38 -129q-13 -33 -20 -72q0 -19 -8 -38q-20 -37 -47 -71l-15 -30l-6 -13q-9 -22 -15 -86zM453 364q45 13 69 92q11 28 30 93l7 18q32 50 53 102q20 50 29 100l6 25q44 75 47 82l24 74q8 17 51 94l11 29q2 24 3 38v4q0 10 -5.5 16t-27.5 26q-41 32 -84 32h-20 q-43 0 -152 -100q-36 -34 -56 -176q-64 -44 -64 -140v-24q0 -48 -33 -152q-4 -27 -4 -44v-12q30 -163 72 -180zM501 -69q-60 -64 -143 -68l-9 4q-21 8 -21 56q0 21 4 49q17 52 18 69q1 5 1 10q0 11 -4 20.5t-21 21.5q-26 22 -61 91l-49 63l-22 62q-28 41 -44 84v68l-28 100 v8q24 92 24 100q-4 27 -4 44v24q0 11 36 100q0 73 40 112q21 75 88 164l21 41l55 27q58 55 160 100l20 4l36 -4q49 20 60 20q54 -28 64 -28h8q5 0 56 24h12q7 0 27 -26q6 -8 16 -8q18 0 48 32q33 36 63 36q11 0 21 -4q23 -8 23 -38q0 -11 -3 -24q0 -22 -4 -51v-39 q0 -13 21 -42.5t54 -59.5q15 -33 23 -65l43 -88v-12q-18 -66 -18 -91v-24q0 -20 34 -60q0 -28 -32 -124q0 -22 44 -64q4 -7 4 -16v-4q-24 -68 -32 -156q-28 -33 -28 -104q-5 0 -44 -93q-13 -31 -18 -34q-64 -51 -82 -105l-8 -4h-12q-4 0 -67 -9l-61 -27q-129 -13 -206 -44 q-23 4 -42 4q-42 0 -61 -22z"/>
    <glyph glyph-name="Ugrave" unicode="Ù" horiz-adv-x="1268" d="M533 1834h16q120 0 192 -92v-8l-4 -20q0 -24 52 -36l12 -40q-4 -22 -4 -32q0 -17 52 -20q0 -60 52 -76q15 0 32 -80q14 -90 44 -152q11 -48 80 -48l72 -20l16 4q43 0 48 -56q0 -33 -44 -40q-37 8 -44 8q-40 -9 -40 -40q12 -52 12 -56q-36 -51 -36 -72q24 -77 24 -104v-4 q-32 -99 -32 -112q0 -17 40 -68q4 -7 4 -16q-20 -57 -20 -76q0 -15 16 -92q-8 -41 -8 -56q4 -86 4 -124q-36 -92 -36 -120q0 -5 4 -40q-10 -30 -132 -140q-51 -25 -104 -56q-63 -20 -152 -20q-111 0 -172 40q-120 15 -120 52q-96 149 -96 168q0 65 -28 132v4l32 100 q-12 56 -12 72v80q0 20 -12 108v4l20 76v8q-16 68 -16 80q12 97 12 112q-7 70 -68 120q-9 8 -84 36q-12 19 -12 35q0 9 4 17q0 36 111 47q85 13 97 13q45 -18 132 -26h7q31 0 70 -8l19 -2q8 -1 8 -8q0 -48 -124 -124q-28 -20 -28 -44v-12q0 -33 44 -68q4 -7 4 -16l-40 -64 l-8 -32q1 -31 36 -60q0 -4 4 -12q-36 -56 -36 -100q0 -14 36 -76v-12q-20 -57 -20 -80q20 -71 20 -84q-12 -58 -12 -72v-12q0 -34 68 -108q3 -17 116 -56q0 -10 104 -36q147 62 164 104q44 33 44 68l-24 104q0 10 40 64q0 24 4 24l-28 152q32 51 32 72v4q0 16 -24 44v4 q0 17 4 44q-16 32 -16 44l12 40q0 5 -4 40q0 6 48 60v8q0 30 -52 44q-9 9 -28 56q-17 12 -47 26l-37 32l-62 29l-43 47l-67 31q-21 21 -49.5 60.5t-124.5 76.5q-114 97 -114 158q0 4 -4 32q0 11 36 100q8 56 52 56q60 0 60 28q0 60 56 60z"/>
    <glyph glyph-name="Uacute" unicode="Ú" horiz-adv-x="1281" d="M452 1696q9 0 10 -10v-10q-7 -15 -15 -15q-15 8 -15 15q13 20 20 20zM1037 1011q5 -38 5 -51q-8 -45 -8 -64l24 -92v-4q0 -16 -16 -88l16 -88q0 -10 -4 -60q4 -98 4 -108q0 -22 -8 -104q4 -38 4 -84q-25 -123 -72 -160q-76 -75 -104 -124q-73 -13 -104 -24 q-18 -16 -36 -16h-36q-68 -8 -76 -8h-12q-162 31 -208 84q-80 64 -136 100q-14 63 -52 148q0 4 -8 40q8 72 12 72l-4 20v28l16 116q-8 90 -8 96q0 11 20 88q0 59 -4 112q5 59 8 64q-8 56 -8 76q7 30 10 45q-17 88 -38 88q-44 13 -63 38q-22 31 -22 67q0 5 1 11l13 9h27 q93 0 108 19l36 116q36 95 84 116q75 0 128 148q80 88 80 112v4h-72l-40 -36h-4q-8 0 -8 8v8q6 16 26 36q26 32 146 64h28q32 0 32 -36q44 -53 100 -60q92 -59 92 -104q-8 -74 -24 -100q-56 -96 -56 -112q-59 -16 -84 -28q-34 -75 -52 -76q-43 0 -72 -92q-55 -8 -64 -20 q-6 -112 -36 -112l-60 16q-16 -4 -28 -12q-23 -42 -30 -64l-6 -17q-20 -24 -20 -68q0 -20 36 -56v-12q-20 -23 -20 -40v-20q0 -38 40 -108v-4l-32 -84v-8q0 -18 40 -88v-8q0 -17 -32 -100v-12q0 -19 28 -64v-36q0 -72 36 -72q12 0 42 -6.5t30 -41.5q16 -52 60 -52q29 8 32 8 h12l44 -12q70 0 164 136q48 161 48 188q0 21 -36 56v20q48 40 48 80q0 22 -40 84v4q44 55 44 80q0 17 -28 100v8q24 80 24 92q0 13 -18 68q-26 46 -90 67q-44 32 -44 38l12 16q51 64 120 64h48q4 0 56 12q10 0 60 -16q9 0 44 4q128 -31 128 -60q0 -30 -92 -84 q-79 -12 -95 -53q-6 -9 -6 -25z"/>
    <glyph glyph-name="Ucircumflex" unicode="Û" horiz-adv-x="1448" d="M932 1300q24 0 100 -17q89 7 109 7q43 -12 91 -64q0 -18 -27 -75q-59 -49 -115 -49q-11 -15 -20 -44q4 -27 4 -44q-12 -73 -12 -108v-4q0 -38 52 -60v-4q0 -13 -32 -52l-4 -24v-28q0 -22 12 -84q-8 -50 -8 -84v-12q12 -84 16 -168q-24 -103 -24 -160v-52q0 -6 16 -16h4 q19 0 92 68q56 38 56 228v8q0 26 28 40h32q29 0 29 -90q-16 -54 -28 -132q-24 -105 -85 -166q-53 -88 -76 -88q-43 0 -152 -40q-26 -8 -36 -8h-4q-68 8 -76 8h-20q-27 0 -92 -24q-83 12 -224 12q-34 0 -140 92q-35 19 -96 120q-24 20 -24 52v20q0 48 -28 188q-4 56 -20 120 v12q0 12 12 92q0 21 -4 68q8 42 8 64q-8 113 -8 144v16q8 68 8 76q0 76 -108 88q-48 34 -48 84q4 54 122 66q50 11 82 14q28 -15 61 -15q22 0 47 7h28q22 0 56 4q20 0 94 -58l6 -58q-43 -47 -100 -47q-11 0 -22 2q-35 -12 -58 -55v-4q0 -2 24 -68q-24 -61 -24 -76 q0 -19 36 -80v-8q-16 -76 -16 -100q8 -79 8 -112q-12 -58 -12 -72q0 -16 40 -64v-63q0 -119 51 -150q19 -12 35 -12q28 0 45 39l-21 108q-22 227 -22 242q0 56 92 84q8 -1 8 -8q-24 -14 -24 -36q0 -11 4 -59l12 -69q4 -51 4 -64q19 -97 19 -148q43 -132 102 -139 q118 0 127 203v8q0 17 -32 56v8q0 9 48 48q8 32 8 40q0 28 -32 72q-4 8 -4 12q40 49 40 96q0 45 -40 76l-4 8q0 10 32 32q12 15 12 36v8q0 32 -28 96v4q0 8 24 48v8q0 55 -116 84q-32 0 -36 40q26 76 68 76q60 30 98 30zM1278 1006h8q8 -1 8 -8v-12q0 -8 -8 -8h-4 q-6 0 -12 12v8q1 8 8 8zM1274 874q44 -26 44 -52q-3 -20 -12 -20h-8q-48 12 -48 44q7 28 24 28zM610 842h16q6 0 12 -12v-8q0 -6 -12 -12h-12q-6 0 -12 12v12q1 8 8 8zM1286 706q14 -5 24 -36q-20 -88 -32 -88q-29 38 -36 68q12 29 44 56zM753 1531q-6 1 -12 1 q-51 0 -97 -45h-20q-31 0 -62 -60q-88 -28 -144 -64q-7 0 -32 -8q-68 14 -68 52v16q11 54 92 132q4 0 68 84q140 140 236 140q104 0 204 -116q66 -46 100 -61q13 -17 40 -79q40 -69 40 -92q-17 -45 -56 -45q-20 0 -46 12l-42 33q-14 8 -119 32z"/>
    <glyph glyph-name="Udieresis" unicode="Ü" horiz-adv-x="1285" d="M902 1709q32 0 136 -120q12 -49 12 -60q0 -141 -116 -172q-22 -4 -32 -4q-152 20 -152 76q-19 39 -36 44h-24q-62 -7 -124 -76q-75 -48 -136 -48q-172 40 -172 148q17 116 52 116q63 36 100 68l8 4q60 -36 76 -36q87 0 116 -84q0 -20 84 -44q35 0 68 112q108 76 140 76z M1142 1268q64 -20 64 -50q4 -7 4 -16v-4q0 -27 -112 -96q-56 -30 -56 -116v-12q13 -208 32 -208v-20q-16 -49 -16 -60l16 -160q-12 -55 -12 -80q12 -71 12 -88v-12q0 -40 -8 -80l4 -24q-24 -86 -100 -168q-23 -35 -96 -64q-26 -26 -108 -40q0 -7 -52 -20l-28 4h-56 q-74 0 -216 80q-56 0 -120 140l-52 164q8 99 8 112q-12 39 -12 52q16 49 20 76q0 10 -20 88q16 49 16 56q0 45 -20 152l24 96q-20 128 -48 128q-78 0 -104 48q-16 28 -16 40v4q0 8 58 57q42 39 70 39q95 -32 164 -32h16q30 3 91 17l49 -16v-14q0 -34 -4 -47q0 -49 -124 -112 q-32 -36 -32 -88q0 -10 32 -68v-4q-16 -51 -16 -72v-12q0 -26 20 -84q-20 -53 -20 -60q24 -108 24 -132v-4q0 -25 -12 -64q0 -13 32 -88v-8q-8 -58 -8 -64q0 -30 108 -152q52 -16 104 -16l136 32q11 32 76 88q20 27 28 88q20 23 20 56l-12 80l12 68q0 4 -12 64v4q0 12 32 84 v4q0 14 -28 112v20q12 52 12 68v8q-15 57 -24 136q-111 79 -156 92l-12 16v16q0 7 88 52q0 11 68 24q5 3 17 3q29 0 104 -20z"/>
    <glyph glyph-name="Yacute" unicode="Ý" horiz-adv-x="1170" d="M1050 1258q87 -14 87 -74q0 -35 -116 -62q-42 -17 -71 -103q0 -21 -70 -128q-56 -64 -103 -210q-15 -2 -41 -75q-21 -25 -21 -89q0 -27 4 -60q-19 -103 -19 -127q9 -87 67 -123q58 -53 94 -63.5t127 -40.5q25 -21 25 -54q0 -58 -91 -78q-15 -14 -58 -25q-57 12 -202 17 q-59 -9 -66 -9q-75 13 -128 13q-17 0 -115 -13q-24 0 -102 30q-33 28 -43 65q0 33 103 79l58 9l48 28q30 4 64 53q25 22 29 75l4 29l-10 137q4 32 4 58q0 71 -28 98q-46 76 -90 177q0 10 -74 79q-18 95 -58 123q-25 8 -62 83q-25 33 -103 54q-50 29 -50 57v4q0 54 99 75 l38 -11l53 19q15 0 76 -14q47 10 56 10q157 -23 157 -91q0 -30 -79 -66q-12 -16 -12 -37q0 -61 74 -140q0 -56 95 -133h13q42 0 82 104l25 73l41 50q13 27 13 50q0 38 -75 66q-10 13 -16 33q-4 9 -14 12q-11 -1 -20 -1q-48 0 -69 33q-7 16 -7 45q0 31 8 77q22 91 50 194 q24 39 56 120q144 164 176 164q40 16 80 16q7 1 14 1q72 0 140 -95q19 -56 19 -116q0 -68 -24 -139l-40 -73q-27 -64 -55 -64h-48q-8 0 -12 -40l-8 -4q-34 4 -52 4q-8 0 -19 -17q-2 -4 -2 -7q0 -11 34 -17.5t160 -14.5z"/>
    <glyph glyph-name="germandbls" unicode="ß" horiz-adv-x="1389" d="M663 1274q51 25 77 25q63 18 73 18q40 -32 213 -80q111 -104 111 -255v-10q-41 -134 -41 -209q0 -53 20 -78q97 -73 158 -289q-15 -262 -116 -335l-93 -69q-121 -37 -156 -41l-55 2l-68 -8q-142 37 -172 107q-22 52 -22 91q0 81 84 109l63 10q53 -99 117 -107l72 -2 q92 49 119 96t31 113q1 7 1 14q0 58 -38.5 105t-155.5 67l-42 11q-21 -7 -78 -19l-114 62l-46 68v4q0 83 85 94l63 11q68 -14 91 -14q92 21 126 118q1 10 1 20q0 35 -11 70q-3 47 -3 51q-42 66 -124 86l-86 4l-71 -14q-85 -53 -147 -158l-34 -99l-8 -108l4 -128 q-20 -27 -25 -69l11 -132q0 -10 -44 -153q6 -30 6 -62q0 -43 -15 -108.5t-77 -96.5q-48 -23 -91 -23q-14 0 -28 2q-120 21 -136 70q-11 37 -11 78q90 60 119 102t49 155q3 44 13 90q0 53 6 107q20 107 43 207v149q41 34 132 223q120 83 220 128z"/>
    <glyph glyph-name="agrave" unicode="à" horiz-adv-x="1194" d="M392 1545h3q9 -3 21 -30q52 -18 52 -41v-3l-20 -23v-3q3 -9 17 -9q11 18 15 18q12 -4 18 -15q-3 -30 -3 -35q6 -33 38 -61q14 0 20 -56q118 -127 134 -178q6 -13 9 -26v-6q0 -17 -47 -61q-5 -3 -15 -3q-111 6 -155 23q-74 52 -126 82q-37 57 -96 93q-73 119 -73 132v3 q28 67 82 111q88 32 88 53q12 35 38 35zM618 950h8q85 -31 163 -39q135 -91 135 -143q26 0 55 -218q15 -59 15 -66v-4q-15 -37 -23 -120q0 -6 19 -68q-7 -49 -7 -54q0 -60 77 -97q24 -18 24 -111q0 -15 -35 -27q-111 0 -152 35q-1 7 -27 11h-12q-73 -23 -89 -23l-15 4 l-94 -31q-12 0 -73 4q-40 -12 -55 -12q-46 10 -46 12q-21 0 -78 -35h-4q-83 50 -85 50q-118 0 -156 78q0 42 -62 112v12q24 71 55 183q66 27 93 73q14 12 61 38t230 48q66 14 167 54h19q16 3 35 78v31q-18 41 -72 44q-8 0 -52 4q-21 41 -48 41q-6 0 -62 -27q-33 12 -43 12 q-35 0 -60 -70q6 -28 6 -54q0 -36 -12 -65q-49 -34 -132 -35q-47 39 -88 61q-19 15 -19 38q19 36 19 55v4q-11 36 -11 46q79 93 89 93q28 10 89 63l20 3q78 20 88 20q56 -12 100 -12q24 0 45 4zM680 224q83 54 83 97q0 8 -1 14q0 44 -82 54l-112 11h-17q-70 0 -101 -37 l-61 -17q-49 -67 -49 -83q32 -81 95 -81q8 0 17 1q42 -15 101 -23h8q65 0 119 64z"/>
    <glyph glyph-name="aacute" unicode="á" horiz-adv-x="1189" d="M790 1544q26 0 38 -35q0 -21 88 -53q54 -44 82 -111v-3q0 -13 -73 -132q-59 -36 -96 -93q-52 -30 -126 -82q-44 -17 -155 -23q-10 0 -15 3q-47 44 -47 61v6q3 13 9 26q16 51 134 178q6 56 20 56q32 28 38 61q0 5 -2 35q5 11 17 15q4 0 15 -18q14 0 17 9v3l-20 23v3 q0 23 53 41q12 27 20 30h3zM608 950h8q85 -31 163 -39q135 -91 135 -143q26 0 55 -218q15 -59 15 -66v-4q-15 -37 -23 -120q0 -6 19 -68q-7 -49 -7 -54q0 -60 77 -97q24 -18 24 -111q0 -15 -35 -27q-111 0 -152 35q-1 7 -27 11h-12q-73 -23 -89 -23l-15 4l-94 -31 q-12 0 -73 4q-40 -12 -55 -12q-46 10 -46 12q-21 0 -78 -35h-4q-83 50 -85 50q-118 0 -156 78q0 42 -62 112v12q24 71 55 183q66 27 93 73q14 12 61 38t230 48q66 14 167 54h19q16 3 35 78v31q-18 41 -72 44q-8 0 -52 4q-21 41 -48 41q-6 0 -62 -27q-33 12 -43 12 q-35 0 -60 -70q6 -28 6 -54q0 -36 -12 -65q-49 -34 -132 -35q-47 39 -88 61q-19 15 -19 38q19 36 19 55v4q-11 36 -11 46q79 93 89 93q28 10 89 63l20 3q78 20 88 20q56 -12 100 -12q24 0 45 4zM670 224q83 54 83 97q0 8 -1 14q0 44 -82 54l-112 11h-17q-70 0 -101 -37 l-61 -17q-49 -67 -49 -83q32 -81 95 -81q8 0 17 1q42 -15 101 -23h8q65 0 119 64z"/>
    <glyph glyph-name="acircumflex" unicode="â" horiz-adv-x="1193" d="M827 1005q-38 0 -122 52q-13 0 -47 34q-25 32 -67 32q-27 0 -87.5 -24.5t-81.5 -55.5q-92 -60 -144 -60q-54 0 -72 80v12q0 20 60 128q0 45 100 88l60 76q52 13 128 56q30 8 56 8h8q59 0 116 -72l20 -4q34 4 56 4q21 -68 72 -68h36q76 -53 76 -68q0 -33 40 -76 q4 -7 4 -16v-16q-36 -56 -112 -88q-57 -22 -99 -22zM612 950h8q85 -31 163 -39q135 -91 135 -143q26 0 55 -218q15 -59 15 -66v-4q-15 -37 -23 -120q0 -6 19 -68q-7 -49 -7 -54q0 -60 77 -97q24 -18 24 -111q0 -15 -35 -27q-111 0 -152 35q-1 7 -27 11h-12q-73 -23 -89 -23 l-15 4l-94 -31q-12 0 -73 4q-40 -12 -55 -12q-46 10 -46 12q-21 0 -78 -35h-4q-83 50 -85 50q-118 0 -156 78q0 42 -62 112v12q24 71 55 183q66 27 93 73q14 12 27 12h4q79 56 260 74q66 14 167 54h19q16 3 35 78v31q-18 41 -72 44q-8 0 -52 4q-21 41 -48 41q-6 0 -62 -27 q-33 12 -43 12q-35 0 -60 -70q6 -28 6 -54q0 -36 -12 -65q-49 -34 -132 -35q-47 39 -88 61q-19 15 -19 38q19 36 19 55v4q-11 36 -11 46q79 93 89 93q28 10 89 63l20 3q78 20 88 20q56 -12 100 -12q24 0 45 4zM674 224q83 54 83 97q0 8 -1 14q0 44 -82 54l-112 11h-17 q-70 0 -101 -37l-61 -17q-49 -67 -49 -83q32 -81 95 -81q8 0 17 1q42 -15 101 -23h8q65 0 119 64z"/>
    <glyph glyph-name="atilde" unicode="ã" horiz-adv-x="1193" d="M685 1023q-25 19 -58 30l-34 4l-25 22q-27 17 -60 17q-15 0 -31 -4l-68 -29q-37 -27 -152 -28q-50 0 -50 37v11q24 47 52 97q44 24 72 71q31 42 86 63q63 33 113 42q12 0 24 -1q48 -26 79 -28l4 -6q34 -38 67 -38h40q16 0 35 4.5t52 35.5l90 31q44 15 78 19q7 2 13 2 q27 0 30 -32l-5 -39l-3 -8q-20 -44 -28 -79l-4 -14q-15 -51 -43 -75l-9 -9q-48 -12 -92 -56q-13 -10 -67 -34q-32 -13 -63 -13q-22 0 -43 7zM612 950h8q85 -31 163 -39q135 -91 135 -143q26 0 55 -218q15 -59 15 -66v-4q-15 -37 -23 -120q0 -6 19 -68q-7 -49 -7 -54 q0 -60 77 -97q24 -18 24 -111q0 -15 -35 -27q-111 0 -152 35q-1 7 -27 11h-12q-73 -23 -89 -23l-15 4l-94 -31q-12 0 -73 4q-40 -12 -55 -12q-46 10 -46 12q-21 0 -78 -35h-4q-83 50 -85 50q-118 0 -156 78q0 42 -62 112v12q24 71 55 183q66 27 93 73q14 12 62.5 34 t228.5 52q66 14 167 54h19q16 3 35 78v31q-18 41 -72 44q-8 0 -52 4q-21 41 -48 41q-6 0 -62 -27q-33 12 -43 12q-35 0 -60 -70q6 -28 6 -54q0 -36 -12 -65q-49 -34 -132 -35q-47 39 -88 61q-19 15 -19 38q19 36 19 55v4q-11 36 -11 46q79 93 89 93q28 10 89 63l20 3 q78 20 88 20q56 -12 100 -12q24 0 45 4zM674 224q83 54 83 97q0 8 -1 14q0 44 -82 54l-112 11h-17q-70 0 -101 -37l-61 -17q-49 -67 -49 -83q32 -81 95 -81q8 0 17 1q42 -15 101 -23h8q65 0 119 64z"/>
    <glyph glyph-name="adieresis" unicode="ä" horiz-adv-x="1197" d="M795 1473h16q141 -61 148 -76q34 -60 60 -208q-56 -87 -80 -100q-98 -36 -152 -36q-34 0 -100 40q-15 0 -96 40h-16q-31 0 -108 -56q-30 -14 -156 -40q-87 40 -124 112q-12 23 -16 120q48 180 116 180q42 4 92 4q148 -11 180 -116q14 -68 28 -68q5 0 56 112q32 57 132 88 q7 4 20 4zM537 960h8q50 -19 93 -19q134 -7 175 -54q26 -25 77 -66q84 -142 86 -300q2 -68 6 -124v-64q6 -83 48 -132q52 -36 52 -136q0 -64 -108 -64q-39 0 -100 40q-7 4 -20 4h-4q-60 -28 -64 -28h-4q-5 0 -44 8q-13 0 -68 -24q-27 0 -72 8l-120 -12q-217 31 -259 81 q-64 36 -81 111q-24 55 -24 112q0 64 144 192q24 26 24 48q-88 134 -88 168q0 17 32 84q26 79 144 124q29 16 102 28q40 4 65 15zM446 741q0 -20 24 -20h4q16 7 16 28q0 20 -24 20h-4q-16 -6 -16 -28zM478 657v-12q0 -6 12 -12h12q24 0 36 24v8q-17 24 -32 24q-24 0 -28 -32 zM362 553v-4q0 -6 12 -12h8q16 7 16 28v8q0 8 -8 8h-12q-16 -6 -16 -28z"/>
    <glyph glyph-name="aring" unicode="å" horiz-adv-x="1181" d="M527 1469h4q151 0 179 -58q43 -30 80 -134l-14 -111q-72 -134 -157 -134q-25 0 -88 -4q-61 0 -167 96q-14 7 -33 167q31 77 80 119q81 59 116 59zM521 960h8q50 -19 93 -19q134 -7 175 -54q26 -25 77 -66q84 -142 86 -300q2 -68 6 -124v-64q6 -83 48 -132q52 -36 52 -136 q0 -64 -108 -64q-39 0 -100 40q-7 4 -20 4h-4q-60 -28 -64 -28h-4q-5 0 -44 8q-13 0 -68 -24q-27 0 -72 8l-120 -12q-217 31 -259 81q-64 36 -81 111q-24 55 -24 112q0 64 144 192q24 26 24 48q-88 134 -88 168q0 17 32 84q26 79 144 124q29 16 102 28q40 4 65 15zM430 741 q0 -20 24 -20h4q16 7 16 28q0 20 -24 20h-4q-16 -6 -16 -28zM462 657v-12q0 -6 12 -12h12q24 0 36 24v8q-17 24 -32 24q-24 0 -28 -32zM346 553v-4q0 -6 12 -12h8q16 7 16 28v8q0 8 -8 8h-12q-16 -6 -16 -28z"/>
    <glyph glyph-name="ae" unicode="æ" horiz-adv-x="2068" d="M1618 981q103 -19 236 -128q84 -128 84 -160q0 -40 16 -132q0 -59 -88 -132q-3 0 -44 -44q-15 0 -68 40q-7 4 -16 4h-12q-116 0 -116 -92q0 -48 -16 -56h-4q-18 0 -36 92l-12 8h-8q-8 0 -56 -24q-3 0 -56 20h-20q-6 0 -16 -16v-4q-47 -6 -61 -23q31 -72 69 -81l16 -8 l68 40q8 -8 12 -52q30 -29 52 -32q6 0 56 24q23 -28 56 -28q103 23 200 108q2 0 16 4q41 0 68 -80q-4 -63 -76 -136q-160 -88 -288 -88h-72q-9 0 -16 -4q-37 0 -208 84l-84 112q-31 49 -68 92v8q16 46 16 56q0 9 -48 108q-4 7 -4 20v12q0 13 60 156q0 206 308 320q9 0 16 4 q27 -4 44 -4h32q52 12 68 12zM531 950q173 -19 232 -64q36 0 124 -112q40 -70 40 -92l-12 -68q21 -79 24 -80q-4 -47 -4 -68v-44q0 -224 48 -260q64 -61 64 -84q-35 -68 -116 -68h-20q-12 0 -80 40l-28 4q-87 0 -163 -44q-94 -4 -141.5 -10t-75.5 -6l-116 8q-58 0 -160 104 q-56 62 -56 160q26 126 84 184q100 67 100 92v4q-3 9 -88 64q-36 54 -36 100q0 48 128 204q0 20 216 32q0 4 36 4zM383 598q3 -32 32 -32q10 0 32 -8.5t60 -19.5l20 -4h8q32 0 54.5 22t53 24.5t48.5 17.5q23 0 44 84v8q-5 36 -36 36h-20q-9 0 -16 -4q-7 0 -80 44h-12 q-5 0 -36 -32h-4q-37 44 -60 44h-4q-9 0 -28 -56q-27 -44 -48 -92q-8 0 -8 -32zM595 380q-40 8 -44 8q-103 -8 -150 -8q-72 -46 -72 -131v-8q1 -22 128 -56q44 6 138 57q71 48 94 48l5 41v17z"/>
    <glyph glyph-name="ccedilla" unicode="ç" horiz-adv-x="1022" d="M261 82q-45 30 -110 148q-36 84 -36 116q4 58 4 64q-20 61 -20 132q40 154 56 196q47 67 96 128q73 53 116 60q96 40 200 40h8q29 0 208 -92q112 -86 112 -188v-28q-35 -116 -60 -116h-4q-192 16 -192 84v52q-8 76 -48 76q-20 12 -40 12h-4q-144 0 -144 -44 q-42 -25 -96 -76q-28 -50 -28 -116q-24 -37 -24 -64q0 -16 48 -120q0 -57 108 -148q69 -32 88 -32h4q28 0 84 33l5 1q13 -3 29 -3q22 0 48 5q40 19 75 51q74 37 91 37h20q22 0 32 -20v-4q-3 -113 -47 -154q-15 -29 -137 -82l-16 -10q-8 -8 -16 -22q-3 -6 -3 -15 q5 -34 11 -61l1 -40q-3 -48 -10 -79l-5 -20l-18 -35q-23 -30 -53 -48t-69 -29q-34 -10 -51 -10h-5q-58 2 -81 6q-55 11 -100 47q-44 35 -44 60v1q0 21 5 34q2 10 25 23q5 2 12 2q31 0 78 -10q16 -1 31 -1q52 4 74 19q16 18 16 38q0 21 -19 44q-14 19 -24 34q-39 55 -91 72 t-90 52z"/>
    <glyph glyph-name="egrave" unicode="è" horiz-adv-x="1067" d="M545 1042l113 -23q61 0 132 -82q128 -80 128 -144q23 -43 35 -100q-12 -52 -16 -164q-15 -50 -101 -50q-12 0 -58 -12q-31 8 -51 8l-69 -15l-70 15q-115 -47 -222 -47q-50 -23 -50 -58v-11q0 -57 136 -121q0 -19 116 -39h12q171 35 198 70q24 4 93 62h12q31 0 39 -35 q-43 -166 -82 -166q-104 -78 -147 -78q-42 -27 -66 -27q-19 0 -39 4q-38 -8 -78 -8q-134 44 -229 112q-56 15 -105 121q-32 45 -81 225q0 14 -4 35q27 184 70 264q18 68 58 97q12 1 85 97q25 31 241 70zM366 1640h3q9 -3 21 -30q52 -18 52 -41v-3l-20 -23v-3q3 -9 17 -9 q11 18 15 18q12 -4 18 -15q-3 -30 -3 -35q6 -33 38 -61q14 0 20 -56q118 -127 134 -178q6 -13 9 -26v-6q0 -17 -47 -61q-5 -3 -15 -3q-111 6 -155 23q-74 52 -126 82q-37 57 -96 93q-73 119 -73 132v3q28 67 82 111q88 32 88 53q12 35 38 35z"/>
    <glyph glyph-name="eacute" unicode="é" horiz-adv-x="1072" d="M845 1567q22 -3 84 -44q22 -22 31 -62q4 -18 4 -43q0 -22 -3 -48q-2 -15 -65 -63q-29 -19 -69 -61q-124 -125 -153 -139q-76 -40 -84 -40q-12 0 -22 2q-50 7 -67 46l1 9l18 84q2 16 4 31q9 57 22 83q35 5 44 65q2 9 2 19q99 55 102 75v4q0 8 -2 22l61 29q82 31 92 31z M600 1009q128 -35 170 -51q45 -75 123 -127q20 -42 30 -136q17 -16 23 -103l-15 -92q0 -35 -80 -56q-64 5 -94 5q-33 -17 -55 -17l-161 12q-16 0 -94 -34h-4q-62 9 -68 9q-87 0 -102 -64v-8q0 -50 98 -115q69 -68 144 -81q51 -12 72 -12q17 0 89 51q43 0 128 55q7 4 21 4h13 q41 0 63 -42v-22q0 -61 -152 -140q-143 -55 -208 -55q-95 34 -217 51q-34 19 -85 102q-37 18 -93 148q-21 24 -47 209q10 105 51 242q62 118 195 229q23 13 77 23t114 17q34 -4 50 -4q11 0 14 2zM331 668v-9q0 -33 153 -68q33 0 211 25q47 0 47 68v34q0 7 -17 17l-89 42h-13 q-119 9 -130 9q-43 0 -119 -65q-43 -42 -43 -53z"/>
    <glyph glyph-name="ecircumflex" unicode="ê" horiz-adv-x="1097" d="M628 999q128 -35 170 -51q45 -75 123 -127q20 -42 30 -136q17 -16 23 -103l-15 -92q0 -35 -80 -56q-64 5 -94 5q-33 -17 -55 -17l-161 12q-16 0 -94 -34h-4q-62 9 -68 9q-87 0 -102 -64v-8q0 -50 98 -115q69 -68 144 -81q51 -12 72 -12q17 0 89 51q43 0 128 55q7 4 21 4 h13q41 0 63 -42v-22q0 -61 -152 -140q-143 -55 -208 -55q-95 34 -217 51q-34 19 -85 102q-37 18 -93 148q-21 24 -47 209q10 105 51 242q62 118 195 229q23 13 77 23t114 17q34 -4 50 -4q11 0 14 2zM359 658v-9q0 -33 153 -68q33 0 211 25q47 0 47 68v34q0 7 -17 17l-89 42 h-13q-119 9 -130 9q-43 0 -119 -65q-43 -42 -43 -53zM732 1107q-136 77 -167 77h-20q-31 0 -126 -62q-88 -28 -144 -64l-32 -8q-68 14 -68 52v16q11 54 92 132q4 0 68 84q123 117 236 140q8 1 17 1q88 0 187 -117q59 -48 93 -63q13 -17 47 -77q40 -69 40 -92 q-26 -68 -72 -68q-23 0 -151 49z"/>
    <glyph glyph-name="edieresis" unicode="ë" horiz-adv-x="1132" d="M324 1471q13 0 132 -48q101 -43 104 -64q0 -28 28 -28h4q35 0 64 84q24 0 108 48q7 4 20 4q66 0 164 -84q40 -73 40 -116v-12q0 -87 -124 -152q-33 -28 -64 -28h-8q-69 0 -152 80q-29 12 -48 12q-78 -8 -172 -76q-26 -8 -36 -8h-56q-61 0 -116 88l-44 112v16q0 26 68 128 q51 44 88 44zM610 1008q59 -15 113 -22q20 -12 111 -59q26 -15 66 -70l46 -51l39 -77l17 -96q7 -32 7 -98v-17q-50 -72 -63 -72q-72 -20 -78 -20h-12q-56 36 -69 36h-12q-14 0 -139 -55h-12q-6 0 -66 31q-40 4 -62 4h-35q-7 0 -51 -19q-5 0 -52 23q-16 4 -28 4 q-32 -9 -32 -44v-11q6 -57 48 -89q20 -85 92 -112h7q31 4 62 29l17 4q28 -11 57 -22h8q92 30 106 30h8q5 0 27 -20q27 -16 39 -16h7q19 0 135 81h12q39 -8 39 -39l-24 -74l-36 -68l-79 -57q-84 -43 -153 -45q-56 -5 -74 -7q-152 19 -174 30q-107 63 -175 117q-38 67 -51 83 q-18 27 -37 55q3 52 3 64q0 13 -35 103q19 65 19 75l-13 89q37 158 83 227q105 107 162 140q27 18 121 18h20z"/>
    <glyph glyph-name="igrave" unicode="ì" horiz-adv-x="1037" d="M315 964q59 -24 68 -24q5 0 40 4q41 -16 52 -16q50 4 60 4q128 -48 128 -64q0 -5 -16 -60q0 -17 4 -44q-24 -66 -24 -100q0 -178 24 -224q4 0 4 -16q-12 -52 -12 -68v-12q0 -17 28 -112q11 -44 48 -44h60q17 0 32 -4q16 4 32 4h16q100 0 124 -108v-12q-93 -44 -144 -44 q-22 0 -96 -16q-18 0 -96 -32h-12q-138 36 -152 36q-12 0 -80 -36q-42 12 -64 12h-48q-73 24 -140 32q-32 23 -32 52q0 70 88 92q59 32 68 32h20q71 -16 80 -16q76 20 76 92q0 10 -4 32l8 68q-7 28 -36 56v8q40 39 40 72q0 23 -36 84v8l16 96q-38 56 -80 56l-24 -4h-12 q-66 28 -76 28q-5 0 -39 9q-67 20 -73 55v20q0 61 84 72q72 32 96 32zM209 1600q54 -5 127 -66q27 -34 144 -138q3 -20 71 -121q2 -7 38.5 -74.5t36.5 -101.5q0 -37 -28 -62q-44 -7 -65 -7h-2q-55 22 -174 61h-1q-42 73 -254 208q-18 40 -58 106l-1 6q-1 7 -1 14 q0 41 15 107t87 67z"/>
    <glyph glyph-name="iacute" unicode="í" horiz-adv-x="1035" d="M296 964q59 -24 68 -24q5 0 40 4q41 -16 52 -16q50 4 60 4q128 -48 128 -64q0 -5 -16 -60q0 -17 4 -44q-24 -66 -24 -100q0 -178 24 -224q4 0 4 -16q-12 -52 -12 -68v-12q0 -17 28 -112q11 -44 48 -44h60q17 0 32 -4q16 4 32 4h16q100 0 124 -108v-12q-93 -44 -144 -44 q-22 0 -96 -16q-18 0 -96 -32h-12q-138 36 -152 36q-12 0 -80 -36q-42 12 -64 12h-48q-73 24 -140 32q-32 23 -32 52q0 70 88 92q59 32 68 32h20q71 -16 80 -16q76 20 76 92q0 10 -4 32l8 68q-7 28 -36 56v8q40 39 40 72q0 23 -36 84v8l16 96q-38 56 -80 56l-24 -4h-12 q-66 28 -76 28q-5 0 -39 9q-67 20 -73 55v20q0 61 84 72q72 32 96 32zM881 1612l65 -1q72 -1 87 -67t15 -107q0 -7 -1 -14l-1 -6q-40 -66 -58 -106q-212 -135 -254 -208h-1q-119 -39 -174 -61h-2q-21 0 -65 7q-28 25 -28 62q0 34 36.5 101.5t38.5 74.5q68 101 71 121 q117 104 144 138q73 61 127 66z"/>
    <glyph glyph-name="icircumflex" unicode="î" horiz-adv-x="989" d="M185 887h20q117 -12 136 -12l128 4l20 -4q15 4 56 4q60 0 60 -208q20 -36 20 -60v-4q0 -15 -16 -84q38 -352 60 -352q0 -31 160 -48q96 -28 96 -48v-12q0 -54 -204 -72q-60 -4 -88 -4q-19 0 -84 8l-112 -12q-77 12 -112 12h-8q-89 -12 -96 -12h-28q-55 0 -64 88 q27 64 136 64q112 0 122 44q60 51 60 76q0 44 4 44q-12 47 -12 56v4q20 52 20 64q0 75 -24 192q0 9 16 60q-24 68 -76 68q-24 0 -70 -16q-75 24 -136 36q-44 33 -44 40v12q23 72 60 72zM717 1023q-38 0 -122 52q-13 0 -47 34q-25 32 -67 32q-27 0 -87.5 -24.5t-81.5 -55.5 q-92 -60 -144 -60q-54 0 -72 80v12q0 20 60 128q0 45 100 88l60 76q52 13 128 56q30 8 56 8h8q59 0 116 -72l20 -4q34 4 56 4q21 -68 72 -68h36q76 -53 76 -68q0 -33 40 -76q4 -7 4 -16v-16q-36 -56 -112 -88q-57 -22 -99 -22z"/>
    <glyph glyph-name="idieresis" unicode="ï" horiz-adv-x="993" d="M272 1380q94 0 128 -64q84 -74 84 -148q0 -57 -96 -120q-61 -36 -88 -36q-24 0 -136 56q-68 48 -68 92q25 140 52 140q90 80 120 80h4zM752 1372q60 0 120 -120q52 -52 52 -76v-12q-144 -140 -160 -140h-8q-124 41 -152 88q-24 40 -24 64v32q0 107 96 140q13 14 76 24z M192 897h20q117 -12 136 -12l128 4l20 -4q15 4 56 4q60 0 60 -208q20 -36 20 -60v-4q0 -15 -16 -84q38 -352 60 -352q0 -31 160 -48q96 -28 96 -48v-12q0 -54 -204 -72q-60 -4 -88 -4q-19 0 -84 8l-112 -12q-77 12 -112 12h-8q-89 -12 -96 -12h-28q-55 0 -64 88 q27 64 136 64q112 0 122 44q60 51 60 76q0 44 4 44q-12 47 -12 56v4q20 52 20 64q0 75 -24 192q0 9 16 60q-24 68 -76 68q-24 0 -70 -16q-75 24 -136 36q-44 33 -44 40v12q23 72 60 72z"/>
    <glyph glyph-name="ntilde" unicode="ñ" horiz-adv-x="1258" d="M751 948q42 0 183 -91q60 -83 60 -128q0 -20 -4 -60q0 -13 36 -125v-4q0 -6 -17 -89l-3 -27q25 -114 25 -122q-11 -30 -13 -57v-5q0 -52 88 -126q42 -25 42 -58q-21 -55 -67 -59q-11 1 -22 1q-55 0 -121 -17q-46 16 -152 20q-88 25 -91 41q-3 12 -3 29v9q28 35 114 86 q25 19 29 48q1 9 1 17q0 17 -7.5 29.5t-7.5 19.5q0 5 35 55q8 25 10 54v8q0 34 -72 48v8q0 5 48 28q8 13 8 24q0 71 -44 116v8q0 8 28 52v4q0 49 -64 64h-4q-14 0 -56 -36h-12l-44 48h-20q-36 0 -118 -88q-60 -38 -60 -68v-12q16 -59 16 -64v-4q0 -16 -60 -20 q-12 -20 -12 -40q0 -40 39 -62l33 -18v-24q-30 -21 -60 -28q-8 -13 -8 -24v-4q0 -72 52 -143l59 -42q52 -25 52 -59q-45 -69 -151 -74q-65 15 -91 17q-65 -11 -85 -11q-23 -4 -41 -4q-15 0 -27 3q-28 8 -49 32q-1 6 -10 25q3 22 26 42q62 39 82 81q0 13 -3 25q16 55 16 64 v20q-13 120 -13 128v8q12 52 12 56v12q1 10 1 20q0 48 -16 98l2 82q-2 77 -47 112q-31 28 -31 64q0 29 20 62q26 16 65 16q15 0 31 -2l100 -32h28q11 0 88 28q8 2 26 2q30 0 85 -5h16q137 18 150 18zM533 662q9 5 13 5h3l7 -4q19 -9 22 -41v-13l-5 -1q-44 30 -44 43q0 2 1 4 zM522 494l-3 -1h-2q-6 0 -14 7q-2 3 -2 6q0 6 9 9h2q5 0 13 -7l2 -3v-3q0 -6 -5 -8zM698 1029q-25 19 -58 30l-34 4l-25 22q-27 17 -60 17q-15 0 -31 -4l-68 -29q-37 -27 -152 -28q-50 0 -50 37v11q24 47 52 97q44 24 72 71q31 42 86 63q63 33 113 42q12 0 24 -1 q48 -26 79 -28l4 -6q34 -38 67 -38h40q16 0 35 4.5t52 35.5l90 31q44 15 78 19q7 2 13 2q27 0 30 -32l-5 -39l-3 -8q-20 -44 -28 -79l-4 -14q-15 -51 -43 -75l-9 -9q-48 -12 -92 -56q-13 -10 -67 -34q-32 -13 -63 -13q-22 0 -43 7z"/>
    <glyph glyph-name="ograve" unicode="ò" horiz-adv-x="1105" d="M366 1615l29 1q6 1 13 1q69 0 142 -59v-12q-56 -48 -56 -76q0 -46 88 -92q8 -27 80 -64q52 -87 52 -116v-12q-38 -128 -96 -128h-64q-98 0 -196 96q-88 30 -108 84q-1 9 -68 52q-56 75 -56 124v16q0 68 76 124q78 50 123 53q20 4 41 8zM515 972q67 0 191 -40 q90 0 241 -192q12 -45 28 -132q-4 -27 -4 -44v-8q20 -71 20 -76v-40q-44 -102 -44 -120v-12q0 -13 8 -60q-33 -101 -182 -184q-48 -53 -151 -76q-45 -4 -51 -8q-133 0 -238 68q-48 0 -147 156q-8 19 -8 36q-39 47 -48 169l-4 73l-10 47l16 47q3 54 3 80q39 113 95 164 q50 34 107 100q21 20 178 52zM317 596v-4q0 -24 -18 -63v-16q-23 -53 -23 -68t35 -92q46 -59 46 -73q0 -41 146 -92q12 -12 44 -12q143 12 143 44q52 43 87 92q40 86 40 144v100q0 35 -60 84q0 43 -55 92q-41 25 -99 40q-14 20 -44 20q-70 -4 -127 -44q-14 -12 -75 -88 q-40 -28 -40 -64z"/>
    <glyph glyph-name="oacute" unicode="ó" horiz-adv-x="1102" d="M905 1607l65 -1q72 -1 87 -67t15 -107q0 -7 -1 -14l-1 -6q-40 -66 -58 -106q-212 -135 -254 -208h-1q-119 -39 -174 -61h-2q-21 0 -65 7q-28 25 -28 62q0 34 36.5 101.5t38.5 74.5q68 101 71 121q117 104 144 138q73 61 127 66zM498 972q67 0 191 -40q90 0 241 -192 q12 -45 28 -132q-4 -27 -4 -44v-8q20 -71 20 -76v-40q-44 -102 -44 -120v-12q0 -13 8 -60q-33 -101 -182 -184q-48 -53 -151 -76q-45 -4 -51 -8q-133 0 -238 68q-48 0 -147 156q-8 19 -8 36q-39 47 -48 169l-4 73l-10 47l16 47q3 54 3 80q39 113 95 164q50 34 107 100 q21 20 178 52zM300 596v-4q0 -24 -18 -63v-16q-23 -53 -23 -68t35 -92q46 -59 46 -73q0 -41 146 -92q12 -12 44 -12q143 12 143 44q52 43 87 92q40 86 40 144v100q0 35 -60 84q0 43 -55 92q-41 25 -99 40q-14 20 -44 20q-70 -4 -127 -44q-14 -12 -75 -88q-40 -28 -40 -64z "/>
    <glyph glyph-name="ocircumflex" unicode="ô" horiz-adv-x="1117" d="M803 1023q-38 0 -122 52q-13 0 -47 34q-25 32 -67 32q-27 0 -87.5 -24.5t-81.5 -55.5q-92 -60 -144 -60q-54 0 -72 80v12q0 20 60 128q0 45 100 88l60 76q52 13 128 56q30 8 56 8h8q59 0 116 -72l20 -4q34 4 56 4q21 -68 72 -68h36q76 -53 76 -68q0 -33 40 -76 q4 -7 4 -16v-16q-36 -56 -112 -88q-57 -22 -99 -22zM515 972q67 0 191 -40q90 0 241 -192q12 -45 28 -132q-4 -27 -4 -44v-8q20 -71 20 -76v-40q-44 -102 -44 -120v-12q0 -13 8 -60q-33 -101 -182 -184q-48 -53 -151 -76q-45 -4 -51 -8q-133 0 -238 68q-48 0 -147 156 q-8 19 -8 36q-39 47 -48 169l-4 73l-10 47l16 47q3 54 3 80q39 113 95 164q50 34 107 100q21 20 178 52zM317 596v-4q0 -24 -18 -63v-16q-23 -53 -23 -68t35 -92q46 -59 46 -73q0 -41 146 -92q12 -12 44 -12q143 12 143 44q52 43 87 92q40 86 40 144v100q0 35 -60 84 q0 43 -55 92q-41 25 -99 40q-14 20 -44 20q-70 -4 -127 -44q-14 -12 -75 -88q-40 -28 -40 -64z"/>
    <glyph glyph-name="otilde" unicode="õ" horiz-adv-x="1139" d="M515 972q67 0 191 -40q90 0 241 -192q12 -45 28 -132q-4 -27 -4 -44v-8q20 -71 20 -76v-40q-44 -102 -44 -120v-12q0 -13 8 -60q-33 -101 -182 -184q-48 -53 -151 -76q-45 -4 -51 -8q-133 0 -238 68q-48 0 -147 156q-8 19 -8 36q-39 47 -48 169l-4 73l-10 47l16 47 q3 54 3 80q39 113 95 164q50 34 107 100q21 20 178 52zM317 596v-4q0 -24 -18 -63v-16q-23 -53 -23 -68t35 -92q46 -59 46 -73q0 -41 146 -92q12 -12 44 -12q143 12 143 44q52 43 87 92q40 86 40 144v100q0 35 -60 84q0 43 -55 92q-41 25 -99 40q-14 20 -44 20 q-70 -4 -127 -44q-14 -12 -75 -88q-40 -28 -40 -64zM680 1053q-25 19 -58 30l-34 4l-25 22q-27 17 -60 17q-15 0 -31 -4l-68 -29q-37 -27 -152 -28q-50 0 -50 37v11q24 47 52 97q44 24 72 71q31 42 86 63q63 33 113 42q12 0 24 -1q48 -26 79 -28l4 -6q34 -38 67 -38h40 q16 0 35 4.5t52 35.5l90 31q44 15 78 19q7 2 13 2q27 0 30 -32l-5 -39l-3 -8q-20 -44 -28 -79l-4 -14q-15 -51 -43 -75l-9 -9q-48 -12 -92 -56q-13 -10 -67 -34q-32 -13 -63 -13q-22 0 -43 7z"/>
    <glyph glyph-name="odieresis" unicode="ö" horiz-adv-x="1129" d="M531 972q67 0 191 -40q90 0 241 -192q12 -45 28 -132q-4 -27 -4 -44v-8q20 -71 20 -76v-40q-44 -102 -44 -120v-12q0 -13 8 -60q-33 -101 -182 -184q-48 -53 -151 -76q-45 -4 -51 -8q-133 0 -238 68q-48 0 -147 156q-8 19 -8 36q-39 47 -48 169l-4 73l-10 47l16 47 q3 54 3 80q39 113 95 164q50 34 107 100q21 20 178 52zM333 596v-4q0 -24 -18 -63v-16q-23 -53 -23 -68t35 -92q46 -59 46 -73q0 -41 146 -92q12 -12 44 -12q143 12 143 44q52 43 87 92q40 86 40 144v100q0 35 -60 84q0 43 -55 92q-41 25 -99 40q-14 20 -44 20 q-70 -4 -127 -44q-14 -12 -75 -88q-40 -28 -40 -64zM346 1457q121 -17 156 -28q19 -15 58 -45q24 -19 46 -19q15 0 28 8h8q86 57 192 72h8q66 -2 126 -51q45 -59 58 -137v-8q0 -92 -97 -164q-62 -28 -163 -28q-82 28 -116 94q-26 46 -48 46q-21 0 -68 -60q-122 -80 -192 -80 h-20q-75 17 -131 97l-29 91v4q-2 15 -2 30q0 58 38 110q59 68 148 68z"/>
    <glyph glyph-name="divide" unicode="÷" horiz-adv-x="1118" d="M356 1030v7q0 39 79 94q22 25 46 26h13q29 0 109 -44q42 -58 42 -65q-24 -46 -24 -67v-2q7 -27 7 -39v-1q0 -26 -76 -42q0 -6 -28 -9l-13 -1h-3q-86 0 -141 93q-10 20 -11 50zM503 301h-8q-57 0 -93 111v6q0 101 74 128q17 1 59 12h5q29 0 82 -43q0 -22 64 -27v-6 q-29 -23 -42 -112q0 -31 -141 -69zM236 815h8q59 -5 82 -5q142 0 240 12q46 -8 64 -8h8q19 0 64 8q155 0 200 -36q56 -27 56 -56q0 -43 -144 -108q-45 12 -52 12q-10 0 -64 -20q-54 24 -64 24q-48 -8 -56 -8q-23 0 -48 8q-45 -8 -60 -8q-42 12 -60 12q-9 0 -68 -16h-16 q-39 20 -108 20q-134 45 -144 76v16q0 33 100 60q41 17 62 17z"/>
    <glyph glyph-name="oslash" unicode="ø" horiz-adv-x="1152" d="M570 800h-11q-23 0 -77 -37q-57 0 -115 -77q-49 -30 -51 -95l-17 -77q2 -21 2 -31l-10 -55q32 -104 51 -138v-12q5 -22 31 -44q12 -10 22 -10q11 0 24 19q9 13 9 45q0 17 -2 37q0 6 37 54q14 32 19 96q56 59 60 123q0 12 41 78q11 23 14 82q10 8 14 13l1 3l-1 3 q-1 4 -10 13q-9 10 -31 10zM767 662q-41 -39 -69 -151q0 -13 -74 -178q-43 -117 -48 -175q-1 -11 -1 -21q0 -48 24 -48q22 0 63 38q75 0 97 51q63 35 100 143q1 9 25 92v5q-8 66 -8 68q11 31 11 43v9q-4 66 -14 106q-22 33 -55 61q-51 -17 -51 -40v-3zM209 130l1 4l-1 4 q-6 24 -38 57l-28 88q-5 6 -13 41q-11 46 -31 144q18 81 65 213l-3 20l1 32l69 59q33 41 39 90l8 4h29q42 0 64 63l20 4q44 -12 53 -12q35 0 137 32q21 0 45 8l31 -8l27 -6l4 -1q6 0 14 2q8 3 31 71q12 8 27 40q45 20 73 20q36 0 44 -32q1 -4 5 -41q2 -11 2 -21 q0 -22 -8 -38q-18 -25 -22 -44v-14q2 -8 13 -15t16 -19t8 -24q15 -27 54 -48v-1q2 -10 49 -73q10 -62 19 -100q12 -50 25 -62v-12q0 -5 -10 -43v-32q-29 -252 -63 -252q-62 -75 -128 -185q-15 0 -42 -3q-23 -8 -40 -61q-5 0 -13 -4q-28 20 -47 20q-50 0 -150 -42h-7 q-9 0 -33 14q-8 5 -16 5q-12 0 -22 -20q-11 -19 -29 -57q-47 -25 -79 -25q-53 0 -70 66q-2 11 -4 23q4 22 10 50q14 16 14 24v2q-1 1 -3 5t-5 8t-92 82z"/>
    <glyph glyph-name="ugrave" unicode="ù" horiz-adv-x="1224" d="M245 1622q11 -1 27 -24q11 -6 53 -16q0 -10 91 -59q55 -105 93 -188q44 -138 44 -186q0 -17 -6 -22q-24 -12 -38 -12h-10q-70 19 -146 76l-43 29q-64 26 -118 87q-56 109 -86 189q5 17 28 93q87 33 110 33h1zM828 994q135 -32 135 -111v-3l29 -156q-18 -76 -18 -85v-1 q0 -18 27 -97v-4l-19 -85l13 -86q-6 -36 -7 -70l-1 -35v-2q0 -46 106 -75q36 -32 36 -55v-9q-2 -49 -112 -85l-15 1q-41 1 -169 64l-23 1q-253 -76 -310 -85q-61 17 -147 24q-158 118 -158 251v8q-2 6 -2 27q0 14 1 35q1 29 13 136q0 5 -5 93q10 47 11 74l1 15 q-33 192 -71 193q-33 36 -33 56q33 78 90 78h3l15 -1q66 -2 146 -141v-8q-22 -81 -23 -88q0 -6 28 -91v-8l-18 -69l-1 -12q12 -87 12 -101v-8q-1 -25 -6 -50v-4q0 -45 45 -130q15 -50 130 -67q195 31 196 63q77 55 81 67l5 46v5q0 25 -39 86v8q1 18 53 71q5 7 5 16v5 q0 16 -33 58l-7 20q30 59 30 61q-17 109 -101 113q-51 1 -71 60l1 28q1 47 72 59l62 -2h9q14 0 34 2z"/>
    <glyph glyph-name="uacute" unicode="ú" horiz-adv-x="1264" d="M786 1568q176 -1 227 -132q-9 -66 -65 -125q-91 -56 -115 -73q-78 -101 -166 -137q-105 -43 -129 -44q-13 -2 -25 -2q-71 0 -71 62q0 17 67 93q48 48 101 162q4 32 132 190q38 6 44 6zM785 1003q42 -16 55 -16h7q23 0 43 16h19q20 0 39 -74q55 -43 55 -152l-24 -128 q12 -43 16 -124q6 -24 8 -61q-4 -58 -24 -98v-8q26 -171 59 -171q26 -24 112 -54l4 -8v-8q-46 -112 -136 -112h-4q-77 0 -186 66h-16q-48 0 -170 -47q-28 0 -117 -23h-4q-57 8 -62 8h-35q-88 18 -115.5 43.5t-75.5 96.5q-43 87 -43 97q9 71 9 124v81q0 39 -8 97q0 12 8 74 q0 11 -20 78q8 21 8 54q0 43 -101 120q-7 28 -7 43q0 54 182 70q35 0 56 -51q33 -68 33 -77q0 -8 -4 -43l4 -46q-35 -96 -35 -121q0 -10 16 -62q-12 -67 -12 -116q16 -30 35 -183q81 -140 148 -140q85 9 112 31q47 18 94 51q20 16 85 109v19q2 19 2 37v7q0 14 29 78l2 21 l-10 94v8q27 87 27 116v16q0 69 -186 120q-27 28 -27 47v7q0 38 93 59q43 31 62 35zM405 711h15q6 0 12 -11v-12q0 -6 -12 -12h-4q-20 0 -23 12v12q0 5 12 11z"/>
    <glyph glyph-name="ucircumflex" unicode="û" horiz-adv-x="1259" d="M781 1054q-38 0 -122 52q-13 0 -47 34q-25 32 -67 32q-27 0 -87.5 -24.5t-81.5 -55.5q-92 -60 -144 -60q-54 0 -64 65v12q0 20 53 128q43 76 117 151l42 28q52 13 128 56q30 8 56 8h8q59 0 108 -54l11 -7q51 -11 73 -11l11 -5q14 -47 61 -63l58 -11q11 -8 24 -33 q30 -57 70 -100q4 -7 4 -16v-16q-36 -56 -112 -88q-57 -22 -99 -22zM801 950h21q112 0 151 -66q21 -57 41 -197q-8 -46 -8 -65v-9q0 -57 -4 -155q78 -219 78 -226q90 -84 90 -119q-37 -90 -102 -90h-13q-160 -8 -172 -8l-70 20l-147 -41q-67 4 -74 4q-44 -8 -156 -16 q-86 26 -152 119q-29 34 -69 143v29q-8 121 -8 131q8 55 8 70v4q0 47 -21 119q17 45 17 74v12q0 70 -78 123q-29 37 -29 53v5q0 50 94 73q156 -16 156 -102v-8q0 -24 -4 -99q41 -247 57 -307v-13q-20 -29 -20 -45v-12q0 -49 82 -135q0 -17 25 -17h20l25 4q40 -16 69 -16 q23 0 99 57q110 29 110 107q0 19 29 103v8q0 20 -33 49v4q16 42 33 180q0 77 -172 144q-25 27 -25 45q0 48 152 66z"/>
    <glyph glyph-name="udieresis" unicode="ü" horiz-adv-x="1265" d="M324 1424h8q51 0 120 -104q32 -29 32 -60v-16q0 -36 -60 -140q-76 -52 -84 -52q-61 32 -88 32q-36 -8 -52 -8q-51 38 -64 136v16q0 114 124 184q26 12 64 12zM796 1404h8q73 0 116 -144q0 -134 -96 -168q-22 0 -76 -12h-4q-36 0 -104 56q-23 44 -40 73q-6 10 -6 26 q0 31 22 85q27 86 140 86q19 0 40 -2zM807 950h21q112 0 151 -66q21 -57 41 -197q-8 -46 -8 -65v-9q0 -57 -4 -155q78 -219 78 -226q90 -84 90 -119q-37 -90 -102 -90h-13q-160 -8 -172 -8l-70 20l-147 -41q-67 4 -74 4q-44 -8 -156 -16q-86 26 -152 119q-29 34 -69 143v29 q-8 121 -8 131q8 55 8 70v4q0 47 -21 119q17 45 17 74v12q0 70 -78 123q-29 37 -29 53v5q0 50 94 73q156 -16 156 -102v-8q0 -24 -4 -99q41 -247 57 -307v-13q-20 -29 -20 -45v-12q0 -49 82 -135q0 -17 25 -17h20l25 4q40 -16 69 -16q23 0 99 57q110 29 110 107q0 19 29 103 v8q0 20 -33 49v4q16 42 33 180q0 77 -172 144q-25 27 -25 45q0 48 152 66z"/>
    <glyph glyph-name="yacute" unicode="ý" horiz-adv-x="1236" d="M1175 1338l-40 -73q-27 -64 -55 -64h-48q-8 0 -12 -40l-8 -4q-34 4 -52 4q-13 0 -84 -76q-89 -44 -104 -44q-124 4 -124 44q-18 36 -18 70q26 131 84 232q24 39 56 120q144 164 176 164q40 16 80 16q7 1 14 1q72 0 140 -95q19 -56 19 -116q0 -68 -24 -139zM179 961 q64 9 133 30h21q42 -11 141 -23q113 -19 113 -95v-4q-61 -25 -67 -67q-1 -7 -1 -16q0 -23 6 -59l31 -55l5 -8l4 -46l45 -61l33 -82q35 -70 56 -70q54 62 67 150l8 11q24 23 31 53q7 16 9 24.5t3 43.5l4 9q35 30 35 61v11q0 35 -68 66q-15 21 -15 35v16q23 75 95 80 q61 -1 117 -11q19 0 87 16q86 -26 111 -68q2 -6 2 -12q0 -28 -38 -46q-69 -24 -96 -59q-34 -37 -55 -122l-4 -6q-60 -77 -61 -156l-6 -11q-33 -61 -44 -129q-34 -73 -74 -162q-30 -75 -30 -91l-20 -94q0 -24 -34 -85q-30 -73 -49 -161q-35 -67 -98 -125q-54 -42 -148 -49 l-46 6q-85 23 -176 85q-78 56 -115 189q-5 17 -5 40q0 15 2 33q13 85 69 101q37 12 66 12q73 0 129 -97q19 -101 77 -114h2q39 0 65 49q21 50 21 84q0 14 -5 50l3 12q39 83 39 98v12q-6 40 -48 194l-62 94l-24 121l-41 74l-16 58q-13 39 -79 77q-28 14 -130 66 q-37 17 -45 51q0 41 70 72z"/>
    <glyph glyph-name="ydieresis" unicode="ÿ" horiz-adv-x="1223" d="M456 1465q121 -17 156 -28q19 -15 58 -45q24 -19 46 -19q15 0 28 8h8q86 57 192 72h8q66 -2 126 -51q45 -59 58 -137v-8q0 -92 -97 -164q-62 -28 -163 -28q-82 28 -116 94q-26 46 -48 46q-21 0 -68 -60q-122 -80 -192 -80h-20q-75 17 -131 97l-29 91v4q-2 15 -2 30 q0 58 38 110q59 68 148 68zM179 961q64 9 133 30h21q42 -11 141 -23q113 -19 113 -95v-4q-61 -25 -67 -67q-1 -7 -1 -16q0 -23 6 -59l31 -55l5 -8l4 -46l45 -61l33 -82q35 -70 56 -70q54 62 67 150l8 11q24 23 31 53q7 16 9 24.5t3 43.5l4 9q35 30 35 61v11q0 35 -68 66 q-15 21 -15 35v16q23 75 95 80q61 -1 117 -11q19 0 87 16q86 -26 111 -68q2 -6 2 -12q0 -28 -38 -46q-69 -24 -96 -59q-34 -37 -55 -122l-4 -6q-60 -77 -61 -156l-6 -11q-33 -61 -44 -129q-34 -73 -74 -162q-30 -75 -30 -91l-20 -94q0 -24 -34 -85q-30 -73 -49 -161 q-35 -67 -98 -125q-54 -42 -148 -49l-46 6q-85 23 -176 85q-78 56 -115 189q-5 17 -5 40q0 15 2 33q13 85 69 101q37 12 66 12q73 0 129 -97q19 -101 77 -114h2q39 0 65 49q21 50 21 84q0 14 -5 50l3 12q39 83 39 98v12q-6 40 -48 194l-62 94l-24 121l-41 74l-16 58 q-13 39 -79 77q-28 14 -130 66q-37 17 -45 51q0 41 70 72z"/>
    <glyph glyph-name="Aogonek" unicode="Ą" horiz-adv-x="1241" d="M499 625q17 -125 61 -125q47 -4 69 -4q56 0 56 68q0 15 29 61q0 11 -53 48q-21 194 -55 194q-107 -149 -107 -242zM1145 -5q-26 -52 -33 -102q-1 -11 -1 -22q0 -53 38.5 -76.5t79.5 -24.5q44 14 70 14q34 0 34 -26q0 -10 -5 -24q-17 -40 -50 -62t-88 -33h-4l-77 -6 q-43 12 -81 30q-34 29 -70 71l-14 37l-2 8q-20 56 -20 95q0 12 2 22q4 24 4 39q0 11 -2 17l-12 11q-27 3 -50 3q-43 -5 -63 -6l-10 2q-26 19 -114 37q-10 13 -16 35q0 54 77 113q34 21 34 68q0 8 -1 16q0 66 -61 85q-62 0 -130 -24q-40 15 -57 15h-12q-118 -30 -118 -92 q0 -52 98 -84h12q32 0 69 36h4q6 0 12 -12v-8q-31 -126 -101 -173q-21 -12 -29 -12q-46 8 -65 8q-89 0 -174 -27h-4q-58 23 -98 23h-24q-25 0 -49 93l33 50q86 50 129 106q35 62 57 170q11 26 29 176q62 39 62 139v10q46 63 46 122q0 15 -3 30q20 74 51 126q6 99 34 187 q0 19 28 87l50 80l66 12q20 -78 68 -131q0 -19 48 -144q0 -132 65 -229q13 -11 21 -32q-5 -94 -8 -98q0 -9 36 -67q0 -14 45 -180q0 -8 44 -101q0 -118 76 -204q101 -5 131 -77q25 -41 25 -57q0 -18 -32 -39z"/>
    <glyph glyph-name="aogonek" unicode="ą" horiz-adv-x="1193" d="M383 594q3 -32 32 -32q10 0 32 -8.5t60 -19.5l20 -4h8q32 0 54.5 22t53 24.5t48.5 17.5q23 0 44 84v8q-5 36 -36 36h-20q-9 0 -16 -4q-7 0 -80 44h-12q-5 0 -36 -32h-4q-37 44 -60 44h-4q-9 0 -28 -56q-27 -44 -48 -92q-8 0 -8 -32zM1031 49q-16 -38 -21 -76 q-1 -12 -1 -22q0 -54 38.5 -77.5t79.5 -24.5q44 14 70 14q34 0 34 -26q0 -11 -5 -25q-17 -40 -50 -62.5t-88 -33.5h-4l-77 -6q-43 12 -81 30q-34 30 -70 72l-14 38l-2 8q-21 60 -21 97q0 9 1 16q5 33 5 50q0 3 -1 12t-28 18q-80 -1 -156 -45q-94 -4 -141.5 -10t-75.5 -6 l-116 8q-58 0 -160 104q-56 62 -56 160q26 126 84 184q100 67 100 92v4q-3 9 -88 64q-36 54 -36 100q0 48 128 204q0 20 216 32q0 4 36 4q173 -19 232 -64q36 0 124 -112q40 -70 40 -92l-12 -68q21 -79 24 -80q-4 -47 -4 -68v-44q0 -224 48 -260q41 -33 50 -53q4 -9 4 -22 q0 -15 -6 -34zM614 374q-45 9 -50 9q-29 1 -54 1q-74 0 -114 -10q-80 -52 -80 -145v-9q17 -51 142 -63q78 15 155 63q81 44 115 82l-3 36z"/>
    <glyph glyph-name="Cacute" unicode="Ć" horiz-adv-x="1275" d="M871 1280q16 -4 66 -4q39 0 105 20q40 0 54 -74q0 -36 -27 -124q27 -43 27 -53q0 -22 -16 -67l11 -41l-14 -64q2 -23 46 -86v-4q-35 -25 -35 -89q-10 -15 -27 -15h-8q-49 42 -79 102q-28 38 -28 45v8q-5 46 -5 54q0 10 -52 70q-6 69 -51 107l-74 43q-62 48 -107 48 q-72 -4 -120 -54q-64 0 -93 -97v-31q-78 -55 -82 -70q-46 -66 -46 -109l8 -78v-8q0 -15 -28 -73q-4 -7 -4 -16q13 -67 54 -152q6 -125 59 -145q13 -40 33 -82q21 -28 142 -73q25 -4 50 -4h12q10 -1 20 -1q46 0 87 30q55 2 91 72q81 30 81 66q0 39 70 111q36 15 43 15 q85 -27 85 -85q4 -24 4 -55q0 -43 -35 -128q0 -25 -85 -112q-27 -35 -97 -82q-22 0 -86 -39l-116 -15h-4q-140 28 -242 35q-78 0 -78 23q-26 70 -134 120q-20 132 -46.5 174.5t-26.5 51.5v19q0 53 -13 128l-4 35q8 52 8 66v8q0 13 -19 66q23 66 23 78v19q0 25 -19 74l50 66 l30 103l6 53l55.5 57t89.5 125q57 6 135 55q19 4 24 13.5t5 27.5q0 34 36.5 101.5t38.5 74.5q68 101 71 121q117 104 144 138q73 61 127 66l65 -1q72 -1 87 -67t15 -107q0 -7 -1 -14l-1 -6q-40 -66 -58 -106q-212 -135 -254 -208h-1q-2 -7 -2 -13q0 -15 15 -23t45 -14z"/>
    <glyph glyph-name="cacute" unicode="ć" horiz-adv-x="1350" d="M538 970l32 -15q52 -16 129 -33q62 -48 84 -48q9 0 60 24q28 -8 28 -32q-20 -30 -20 -44v-8q0 -22 36 -72q0 -8 24 -84q0 -59 -104 -112l-20 -4q-50 8 -84 8h-16q-23 13 -52 68l-16 4q-35 -4 -44 -4q-16 22 -16 40q0 11 16 76v4q0 35 -52 48h-12q-65 -20 -124 -32 q-17 -14 -40 -116q-15 -12 -64 -24q-20 -23 -20 -40q0 -43 48 -56q12 0 12 -8v-12q-52 -35 -52 -72v-16q0 -40 28 -52l28 4h16q18 0 40 -108q42 -68 112 -68q0 -4 16 -4q36 6 36 32q-8 34 -8 44l4 28l-8 52q6 16 12 16h20q29 -16 72 -152h12q20 0 44 36q43 0 136 60l28 4 q45 0 88 -44v-8q0 -13 -44 -72q-4 -16 -4 -28q8 -24 32 -24h12q42 0 104 60q85 17 112 64q25 12 32 12h8q31 0 36 -40q0 -67 -80 -104l-88 -80q-52 0 -128 -28q-76 8 -172 24l-124 -40q-14 0 -80 -8q-64 4 -68 8q-22 -4 -36 -4h-12q-15 0 -180 76q-54 51 -108 144 q-60 108 -60 136l16 104q0 27 -8 64l4 20q-8 40 -8 68q17 92 40 92q98 163 168 216q63 17 96 32q45 9 113 29zM947 918q7 0 72 -40q60 -18 60 -60l-8 -4q-55 20 -64 20q-32 -12 -52 -12q-18 0 -40 60q0 36 32 36zM1179 754h4q12 0 24 -60q-4 -27 -4 -44q12 -29 12 -36v-16 q-8 -20 -44 -20q-54 20 -100 24q-28 26 -28 96q0 24 44 52q40 0 40 -104l8 -4h12q6 0 12 12v40q0 60 20 60zM1131 1284h20q6 0 16 -16v-12q0 -91 -72 -108q-10 0 -60 -56q-21 -20 -36 -20h-4q-20 10 -20 32q0 45 96 68q47 102 60 112zM808 1560q26 0 38 -35q0 -21 88 -53 q54 -44 82 -111v-3q0 -13 -73 -132q-59 -36 -96 -93q-52 -30 -126 -82q-44 -17 -155 -23q-10 0 -15 3q-47 44 -47 61v6q3 13 9 26q16 51 134 178q6 56 20 56q32 28 38 61q0 5 -2 35q5 11 17 15q4 0 15 -18q14 0 17 9v3l-20 23v3q0 23 53 41q12 27 20 30h3z"/>
    </font>
</defs>
</svg>
